solid model
  facet normal 1 0 0
    outer loop
      vertex -11.05 -15 2.5
      vertex -11.05 15 2.5
      vertex -11.05 -15 4
    endloop
  endfacet
  facet normal 0 0 1
    outer loop
      vertex -11.05 -15 2.5
      vertex 1 -3.95 2.5
      vertex -11.05 15 2.5
    endloop
  endfacet
  facet normal 0 -1 0
    outer loop
      vertex -11.05 -15 2.5
      vertex 30 -15 -1.56447
      vertex 30 -15 2.5
    endloop
  endfacet
  facet normal 0 0 1
    outer loop
      vertex -11.05 -15 2.5
      vertex 30 -15 2.5
      vertex 1 -3.95 2.5
    endloop
  endfacet
  facet normal 1 -0 0
    outer loop
      vertex -11.05 -15 4
      vertex -11.05 15 2.5
      vertex -11.05 15 4
    endloop
  endfacet
  facet normal 0 0 1
    outer loop
      vertex -11.05 15 2.5
      vertex 1 -3.95 2.5
      vertex 1 3.95 2.5
    endloop
  endfacet
  facet normal -0 0 1
    outer loop
      vertex -11.05 15 2.5
      vertex 1 3.95 2.5
      vertex 30 15 2.5
    endloop
  endfacet
  facet normal 0 1 -0
    outer loop
      vertex -11.05 15 2.5
      vertex 30 15 2.5
      vertex 30 15 -1.56447
    endloop
  endfacet
  facet normal 0 0 -1
    outer loop
      vertex -11.7 0 -2.5
      vertex 11.7 0 -2.5
      vertex 11.7721 -0.686108 -2.5
    endloop
  endfacet
  facet normal 0 0 -1
    outer loop
      vertex -11.7 0 -2.5
      vertex 11.7721 0.686108 -2.5
      vertex 11.7 0 -2.5
    endloop
  endfacet
  facet normal 0 0 1
    outer loop
      vertex -11.7 0 4
      vertex -11.05 -15 4
      vertex -11.05 15 4
    endloop
  endfacet
  facet normal 0 0 -1
    outer loop
      vertex -11.7721 -0.686108 -2.5
      vertex -11.7 0 -2.5
      vertex 11.7721 -0.686108 -2.5
    endloop
  endfacet
  facet normal -0.994522 0.104529 0
    outer loop
      vertex -11.7721 -0.686108 -2.5
      vertex -11.7 0 4
      vertex -11.7 0 -2.5
    endloop
  endfacet
  facet normal -0.994522 0.104529 0
    outer loop
      vertex -11.7721 -0.686108 -2.5
      vertex -11.7721 -0.686108 4
      vertex -11.7 0 4
    endloop
  endfacet
  facet normal 0 0 -1
    outer loop
      vertex -11.7721 -0.686108 -2.5
      vertex 11.7721 -0.686108 -2.5
      vertex 11.9853 -1.34223 -2.5
    endloop
  endfacet
  facet normal -0 0 1
    outer loop
      vertex -11.7721 -0.686108 4
      vertex -11.05 -15 4
      vertex -11.7 0 4
    endloop
  endfacet
  facet normal -0.994522 -0.104529 0
    outer loop
      vertex -11.7721 0.686108 -2.5
      vertex -11.7 0 -2.5
      vertex -11.7721 0.686108 4
    endloop
  endfacet
  facet normal 0 0 -1
    outer loop
      vertex -11.7721 0.686108 -2.5
      vertex 11.7721 0.686108 -2.5
      vertex -11.7 0 -2.5
    endloop
  endfacet
  facet normal 0 0 -1
    outer loop
      vertex -11.7721 0.686108 -2.5
      vertex 11.9853 1.34223 -2.5
      vertex 11.7721 0.686108 -2.5
    endloop
  endfacet
  facet normal -0.994522 -0.104529 0
    outer loop
      vertex -11.7721 0.686108 4
      vertex -11.7 0 -2.5
      vertex -11.7 0 4
    endloop
  endfacet
  facet normal 0 0 1
    outer loop
      vertex -11.7721 0.686108 4
      vertex -11.7 0 4
      vertex -11.05 15 4
    endloop
  endfacet
  facet normal 0 0 -1
    outer loop
      vertex -11.9853 -1.34223 -2.5
      vertex -11.7721 -0.686108 -2.5
      vertex 11.9853 -1.34223 -2.5
    endloop
  endfacet
  facet normal -0.951057 0.309016 0
    outer loop
      vertex -11.9853 -1.34223 -2.5
      vertex -11.7721 -0.686108 4
      vertex -11.7721 -0.686108 -2.5
    endloop
  endfacet
  facet normal -0.951057 0.309016 0
    outer loop
      vertex -11.9853 -1.34223 -2.5
      vertex -11.9853 -1.34223 4
      vertex -11.7721 -0.686108 4
    endloop
  endfacet
  facet normal 0 0 -1
    outer loop
      vertex -11.9853 -1.34223 -2.5
      vertex 11.9853 -1.34223 -2.5
      vertex 12.3302 -1.93969 -2.5
    endloop
  endfacet
  facet normal -0 0 1
    outer loop
      vertex -11.9853 -1.34223 4
      vertex -11.05 -15 4
      vertex -11.7721 -0.686108 4
    endloop
  endfacet
  facet normal -0.951057 -0.309016 0
    outer loop
      vertex -11.9853 1.34223 -2.5
      vertex -11.7721 0.686108 -2.5
      vertex -11.9853 1.34223 4
    endloop
  endfacet
  facet normal 0 0 -1
    outer loop
      vertex -11.9853 1.34223 -2.5
      vertex 11.9853 1.34223 -2.5
      vertex -11.7721 0.686108 -2.5
    endloop
  endfacet
  facet normal 0 0 -1
    outer loop
      vertex -11.9853 1.34223 -2.5
      vertex 12.3302 1.93969 -2.5
      vertex 11.9853 1.34223 -2.5
    endloop
  endfacet
  facet normal -0.951057 -0.309016 0
    outer loop
      vertex -11.9853 1.34223 4
      vertex -11.7721 0.686108 -2.5
      vertex -11.7721 0.686108 4
    endloop
  endfacet
  facet normal 0 0 1
    outer loop
      vertex -11.9853 1.34223 4
      vertex -11.7721 0.686108 4
      vertex -11.05 15 4
    endloop
  endfacet
  facet normal 0 0 -1
    outer loop
      vertex -12.3302 -1.93969 -2.5
      vertex -11.9853 -1.34223 -2.5
      vertex 12.3302 -1.93969 -2.5
    endloop
  endfacet
  facet normal -0.866025 0.5 0
    outer loop
      vertex -12.3302 -1.93969 -2.5
      vertex -11.9853 -1.34223 4
      vertex -11.9853 -1.34223 -2.5
    endloop
  endfacet
  facet normal -0.866025 0.5 0
    outer loop
      vertex -12.3302 -1.93969 -2.5
      vertex -12.3302 -1.93969 4
      vertex -11.9853 -1.34223 4
    endloop
  endfacet
  facet normal 0 0 -1
    outer loop
      vertex -12.3302 -1.93969 -2.5
      vertex 12.3302 -1.93969 -2.5
      vertex 12.7919 -2.45238 -2.5
    endloop
  endfacet
  facet normal -0 0 1
    outer loop
      vertex -12.3302 -1.93969 4
      vertex -11.05 -15 4
      vertex -11.9853 -1.34223 4
    endloop
  endfacet
  facet normal -0.866025 -0.5 0
    outer loop
      vertex -12.3302 1.93969 -2.5
      vertex -11.9853 1.34223 -2.5
      vertex -12.3302 1.93969 4
    endloop
  endfacet
  facet normal 0 0 -1
    outer loop
      vertex -12.3302 1.93969 -2.5
      vertex 12.3302 1.93969 -2.5
      vertex -11.9853 1.34223 -2.5
    endloop
  endfacet
  facet normal 0 0 -1
    outer loop
      vertex -12.3302 1.93969 -2.5
      vertex 12.7919 2.45238 -2.5
      vertex 12.3302 1.93969 -2.5
    endloop
  endfacet
  facet normal -0.866025 -0.5 0
    outer loop
      vertex -12.3302 1.93969 4
      vertex -11.9853 1.34223 -2.5
      vertex -11.9853 1.34223 4
    endloop
  endfacet
  facet normal 0 0 1
    outer loop
      vertex -12.3302 1.93969 4
      vertex -11.9853 1.34223 4
      vertex -11.05 15 4
    endloop
  endfacet
  facet normal 0 0 -1
    outer loop
      vertex -12.7919 -2.45238 -2.5
      vertex -12.3302 -1.93969 -2.5
      vertex 12.7919 -2.45238 -2.5
    endloop
  endfacet
  facet normal -0.743145 0.669131 0
    outer loop
      vertex -12.7919 -2.45238 -2.5
      vertex -12.3302 -1.93969 4
      vertex -12.3302 -1.93969 -2.5
    endloop
  endfacet
  facet normal -0.743145 0.669131 0
    outer loop
      vertex -12.7919 -2.45238 -2.5
      vertex -12.7919 -2.45238 4
      vertex -12.3302 -1.93969 4
    endloop
  endfacet
  facet normal 0 0 -1
    outer loop
      vertex -12.7919 -2.45238 -2.5
      vertex 12.7919 -2.45238 -2.5
      vertex 13.35 -2.85788 -2.5
    endloop
  endfacet
  facet normal -0 0 1
    outer loop
      vertex -12.7919 -2.45238 4
      vertex -11.05 -15 4
      vertex -12.3302 -1.93969 4
    endloop
  endfacet
  facet normal -0.743145 -0.669131 0
    outer loop
      vertex -12.7919 2.45238 -2.5
      vertex -12.3302 1.93969 -2.5
      vertex -12.7919 2.45238 4
    endloop
  endfacet
  facet normal 0 0 -1
    outer loop
      vertex -12.7919 2.45238 -2.5
      vertex 12.7919 2.45238 -2.5
      vertex -12.3302 1.93969 -2.5
    endloop
  endfacet
  facet normal 0 0 -1
    outer loop
      vertex -12.7919 2.45238 -2.5
      vertex 13.35 2.85788 -2.5
      vertex 12.7919 2.45238 -2.5
    endloop
  endfacet
  facet normal -0.743145 -0.669131 0
    outer loop
      vertex -12.7919 2.45238 4
      vertex -12.3302 1.93969 -2.5
      vertex -12.3302 1.93969 4
    endloop
  endfacet
  facet normal 0 0 1
    outer loop
      vertex -12.7919 2.45238 4
      vertex -12.3302 1.93969 4
      vertex -11.05 15 4
    endloop
  endfacet
  facet normal 0 0 -1
    outer loop
      vertex -13.35 -2.85788 -2.5
      vertex -12.7919 -2.45238 -2.5
      vertex 13.35 -2.85788 -2.5
    endloop
  endfacet
  facet normal -0.587785 0.809017 0
    outer loop
      vertex -13.35 -2.85788 -2.5
      vertex -13.35 -2.85788 4
      vertex -12.7919 -2.45238 -2.5
    endloop
  endfacet
  facet normal -0 0 1
    outer loop
      vertex -13.35 -2.85788 4
      vertex -11.05 -15 4
      vertex -12.7919 -2.45238 4
    endloop
  endfacet
  facet normal -0.587785 0.809017 0
    outer loop
      vertex -13.35 -2.85788 4
      vertex -12.7919 -2.45238 4
      vertex -12.7919 -2.45238 -2.5
    endloop
  endfacet
  facet normal -0.587785 -0.809017 -0
    outer loop
      vertex -13.35 2.85788 -2.5
      vertex -12.7919 2.45238 -2.5
      vertex -12.7919 2.45238 4
    endloop
  endfacet
  facet normal -0.587785 -0.809017 0
    outer loop
      vertex -13.35 2.85788 -2.5
      vertex -12.7919 2.45238 4
      vertex -13.35 2.85788 4
    endloop
  endfacet
  facet normal 0 0 -1
    outer loop
      vertex -13.35 2.85788 -2.5
      vertex 13.35 2.85788 -2.5
      vertex -12.7919 2.45238 -2.5
    endloop
  endfacet
  facet normal 0 0 1
    outer loop
      vertex -13.35 2.85788 4
      vertex -12.7919 2.45238 4
      vertex -11.05 15 4
    endloop
  endfacet
  facet normal -0 0 -1
    outer loop
      vertex -13.9802 -3.13849 -2.5
      vertex -13.35 -2.85788 -2.5
      vertex 13.35 -2.85788 -2.5
    endloop
  endfacet
  facet normal -0.406736 0.913546 0
    outer loop
      vertex -13.9802 -3.13849 -2.5
      vertex -13.9802 -3.13849 4
      vertex -13.35 -2.85788 -2.5
    endloop
  endfacet
  facet normal 0 0 -1
    outer loop
      vertex -13.9802 -3.13849 -2.5
      vertex 13.35 -2.85788 -2.5
      vertex 13.9802 -3.13849 -2.5
    endloop
  endfacet
  facet normal 0 0 -1
    outer loop
      vertex -13.9802 -3.13849 -2.5
      vertex 13.9802 -3.13849 -2.5
      vertex 29.0645 -14.0645 -2.5
    endloop
  endfacet
  facet normal -0 0 1
    outer loop
      vertex -13.9802 -3.13849 4
      vertex -11.05 -15 4
      vertex -13.35 -2.85788 4
    endloop
  endfacet
  facet normal -0.406736 0.913546 0
    outer loop
      vertex -13.9802 -3.13849 4
      vertex -13.35 -2.85788 4
      vertex -13.35 -2.85788 -2.5
    endloop
  endfacet
  facet normal -0.406736 -0.913546 -0
    outer loop
      vertex -13.9802 3.13849 -2.5
      vertex -13.35 2.85788 -2.5
      vertex -13.35 2.85788 4
    endloop
  endfacet
  facet normal -0.406736 -0.913546 0
    outer loop
      vertex -13.9802 3.13849 -2.5
      vertex -13.35 2.85788 4
      vertex -13.9802 3.13849 4
    endloop
  endfacet
  facet normal 0 0 -1
    outer loop
      vertex -13.9802 3.13849 -2.5
      vertex 13.35 2.85788 -2.5
      vertex -13.35 2.85788 -2.5
    endloop
  endfacet
  facet normal 0 0 -1
    outer loop
      vertex -13.9802 3.13849 -2.5
      vertex 13.9802 3.13849 -2.5
      vertex 13.35 2.85788 -2.5
    endloop
  endfacet
  facet normal 0 0 -1
    outer loop
      vertex -13.9802 3.13849 -2.5
      vertex 29.0645 14.0645 -2.5
      vertex 13.9802 3.13849 -2.5
    endloop
  endfacet
  facet normal 0 0 1
    outer loop
      vertex -13.9802 3.13849 4
      vertex -13.35 2.85788 4
      vertex -11.05 15 4
    endloop
  endfacet
  facet normal -0.207911 0.978148 0
    outer loop
      vertex -14.6551 -3.28192 -2.5
      vertex -14.6551 -3.28192 4
      vertex -13.9802 -3.13849 -2.5
    endloop
  endfacet
  facet normal -0 0 1
    outer loop
      vertex -14.6551 -3.28192 4
      vertex -11.05 -15 4
      vertex -13.9802 -3.13849 4
    endloop
  endfacet
  facet normal -0.207911 0.978148 0
    outer loop
      vertex -14.6551 -3.28192 4
      vertex -13.9802 -3.13849 4
      vertex -13.9802 -3.13849 -2.5
    endloop
  endfacet
  facet normal -0.207911 -0.978148 -0
    outer loop
      vertex -14.6551 3.28192 -2.5
      vertex -13.9802 3.13849 -2.5
      vertex -13.9802 3.13849 4
    endloop
  endfacet
  facet normal -0.207911 -0.978148 0
    outer loop
      vertex -14.6551 3.28192 -2.5
      vertex -13.9802 3.13849 4
      vertex -14.6551 3.28192 4
    endloop
  endfacet
  facet normal 0 0 1
    outer loop
      vertex -14.6551 3.28192 4
      vertex -13.9802 3.13849 4
      vertex -11.05 15 4
    endloop
  endfacet
  facet normal 0 1 0
    outer loop
      vertex -15.3449 -3.28192 -2.5
      vertex -15.3449 -3.28192 4
      vertex -14.6551 -3.28192 -2.5
    endloop
  endfacet
  facet normal -0 0 1
    outer loop
      vertex -15.3449 -3.28192 4
      vertex -11.05 -15 4
      vertex -14.6551 -3.28192 4
    endloop
  endfacet
  facet normal 0 1 -0
    outer loop
      vertex -15.3449 -3.28192 4
      vertex -14.6551 -3.28192 4
      vertex -14.6551 -3.28192 -2.5
    endloop
  endfacet
  facet normal 0 -1 -0
    outer loop
      vertex -15.3449 3.28192 -2.5
      vertex -14.6551 3.28192 -2.5
      vertex -14.6551 3.28192 4
    endloop
  endfacet
  facet normal 0 -1 0
    outer loop
      vertex -15.3449 3.28192 -2.5
      vertex -14.6551 3.28192 4
      vertex -15.3449 3.28192 4
    endloop
  endfacet
  facet normal 0 0 1
    outer loop
      vertex -15.3449 3.28192 4
      vertex -14.6551 3.28192 4
      vertex -11.05 15 4
    endloop
  endfacet
  facet normal 0.207911 0.978148 0
    outer loop
      vertex -16.0198 -3.13849 -2.5
      vertex -16.0198 -3.13849 4
      vertex -15.3449 -3.28192 -2.5
    endloop
  endfacet
  facet normal 0.207911 0.978148 -0
    outer loop
      vertex -16.0198 -3.13849 4
      vertex -15.3449 -3.28192 4
      vertex -15.3449 -3.28192 -2.5
    endloop
  endfacet
  facet normal 0.207911 -0.978148 0
    outer loop
      vertex -16.0198 3.13849 -2.5
      vertex -15.3449 3.28192 -2.5
      vertex -15.3449 3.28192 4
    endloop
  endfacet
  facet normal 0.207911 -0.978148 0
    outer loop
      vertex -16.0198 3.13849 -2.5
      vertex -15.3449 3.28192 4
      vertex -16.0198 3.13849 4
    endloop
  endfacet
  facet normal 0.406737 0.913545 0
    outer loop
      vertex -16.65 -2.85788 -2.5
      vertex -16.65 -2.85788 4
      vertex -16.0198 -3.13849 -2.5
    endloop
  endfacet
  facet normal 0.406737 0.913545 -0
    outer loop
      vertex -16.65 -2.85788 4
      vertex -16.0198 -3.13849 4
      vertex -16.0198 -3.13849 -2.5
    endloop
  endfacet
  facet normal 0.406737 -0.913545 0
    outer loop
      vertex -16.65 2.85788 -2.5
      vertex -16.0198 3.13849 -2.5
      vertex -16.0198 3.13849 4
    endloop
  endfacet
  facet normal 0.406737 -0.913545 0
    outer loop
      vertex -16.65 2.85788 -2.5
      vertex -16.0198 3.13849 4
      vertex -16.65 2.85788 4
    endloop
  endfacet
  facet normal 0.587786 0.809016 0
    outer loop
      vertex -17.2081 -2.45238 -2.5
      vertex -17.2081 -2.45238 4
      vertex -16.65 -2.85788 -2.5
    endloop
  endfacet
  facet normal 0.587786 0.809016 -0
    outer loop
      vertex -17.2081 -2.45238 4
      vertex -16.65 -2.85788 4
      vertex -16.65 -2.85788 -2.5
    endloop
  endfacet
  facet normal 0.587786 -0.809016 0
    outer loop
      vertex -17.2081 2.45238 -2.5
      vertex -16.65 2.85788 -2.5
      vertex -16.65 2.85788 4
    endloop
  endfacet
  facet normal 0.587786 -0.809016 0
    outer loop
      vertex -17.2081 2.45238 -2.5
      vertex -16.65 2.85788 4
      vertex -17.2081 2.45238 4
    endloop
  endfacet
  facet normal 0.743144 0.669131 0
    outer loop
      vertex -17.6698 -1.93969 -2.5
      vertex -17.2081 -2.45238 4
      vertex -17.2081 -2.45238 -2.5
    endloop
  endfacet
  facet normal 0.743144 0.669131 0
    outer loop
      vertex -17.6698 -1.93969 -2.5
      vertex -17.6698 -1.93969 4
      vertex -17.2081 -2.45238 4
    endloop
  endfacet
  facet normal 0.743144 -0.669131 0
    outer loop
      vertex -17.6698 1.93969 -2.5
      vertex -17.2081 2.45238 -2.5
      vertex -17.6698 1.93969 4
    endloop
  endfacet
  facet normal 0.743144 -0.669131 0
    outer loop
      vertex -17.6698 1.93969 4
      vertex -17.2081 2.45238 -2.5
      vertex -17.2081 2.45238 4
    endloop
  endfacet
  facet normal 0.866025 0.5 0
    outer loop
      vertex -18.0147 -1.34223 -2.5
      vertex -17.6698 -1.93969 4
      vertex -17.6698 -1.93969 -2.5
    endloop
  endfacet
  facet normal 0.866025 0.5 0
    outer loop
      vertex -18.0147 -1.34223 -2.5
      vertex -18.0147 -1.34223 4
      vertex -17.6698 -1.93969 4
    endloop
  endfacet
  facet normal 0.866025 -0.5 0
    outer loop
      vertex -18.0147 1.34223 -2.5
      vertex -17.6698 1.93969 -2.5
      vertex -18.0147 1.34223 4
    endloop
  endfacet
  facet normal 0.866025 -0.5 0
    outer loop
      vertex -18.0147 1.34223 4
      vertex -17.6698 1.93969 -2.5
      vertex -17.6698 1.93969 4
    endloop
  endfacet
  facet normal 0.951057 0.309016 0
    outer loop
      vertex -18.2279 -0.686108 -2.5
      vertex -18.0147 -1.34223 4
      vertex -18.0147 -1.34223 -2.5
    endloop
  endfacet
  facet normal 0.951057 0.309016 0
    outer loop
      vertex -18.2279 -0.686108 -2.5
      vertex -18.2279 -0.686108 4
      vertex -18.0147 -1.34223 4
    endloop
  endfacet
  facet normal 0.951057 -0.309016 0
    outer loop
      vertex -18.2279 0.686108 -2.5
      vertex -18.0147 1.34223 -2.5
      vertex -18.2279 0.686108 4
    endloop
  endfacet
  facet normal 0.951057 -0.309016 0
    outer loop
      vertex -18.2279 0.686108 4
      vertex -18.0147 1.34223 -2.5
      vertex -18.0147 1.34223 4
    endloop
  endfacet
  facet normal 0.994522 0.104529 0
    outer loop
      vertex -18.3 0 -2.5
      vertex -18.2279 -0.686108 4
      vertex -18.2279 -0.686108 -2.5
    endloop
  endfacet
  facet normal 0.994522 -0.104529 0
    outer loop
      vertex -18.3 0 -2.5
      vertex -18.2279 0.686108 -2.5
      vertex -18.3 0 4
    endloop
  endfacet
  facet normal 0.994522 0.104529 0
    outer loop
      vertex -18.3 0 -2.5
      vertex -18.3 0 4
      vertex -18.2279 -0.686108 4
    endloop
  endfacet
  facet normal 0.994522 -0.104529 0
    outer loop
      vertex -18.3 0 4
      vertex -18.2279 0.686108 -2.5
      vertex -18.2279 0.686108 4
    endloop
  endfacet
  facet normal 0 -1 -0
    outer loop
      vertex -18.95 -15 2.5
      vertex -11.05 -15 2.5
      vertex -11.05 -15 4
    endloop
  endfacet
  facet normal 0 -1 0
    outer loop
      vertex -18.95 -15 2.5
      vertex -11.05 -15 4
      vertex -18.95 -15 4
    endloop
  endfacet
  facet normal -1 -0 0
    outer loop
      vertex -18.95 -15 2.5
      vertex -18.95 -15 4
      vertex -18.95 15 4
    endloop
  endfacet
  facet normal -1 0 0
    outer loop
      vertex -18.95 -15 2.5
      vertex -18.95 15 4
      vertex -18.95 15 2.5
    endloop
  endfacet
  facet normal 0 0 1
    outer loop
      vertex -18.95 -15 4
      vertex -11.05 -15 4
      vertex -15.3449 -3.28192 4
    endloop
  endfacet
  facet normal 0 0 1
    outer loop
      vertex -18.95 -15 4
      vertex -15.3449 -3.28192 4
      vertex -16.0198 -3.13849 4
    endloop
  endfacet
  facet normal 0 0 1
    outer loop
      vertex -18.95 -15 4
      vertex -16.0198 -3.13849 4
      vertex -16.65 -2.85788 4
    endloop
  endfacet
  facet normal 0 0 1
    outer loop
      vertex -18.95 -15 4
      vertex -16.65 -2.85788 4
      vertex -17.2081 -2.45238 4
    endloop
  endfacet
  facet normal 0 0 1
    outer loop
      vertex -18.95 -15 4
      vertex -17.2081 -2.45238 4
      vertex -17.6698 -1.93969 4
    endloop
  endfacet
  facet normal 0 0 1
    outer loop
      vertex -18.95 -15 4
      vertex -17.6698 -1.93969 4
      vertex -18.0147 -1.34223 4
    endloop
  endfacet
  facet normal 0 0 1
    outer loop
      vertex -18.95 -15 4
      vertex -18.0147 -1.34223 4
      vertex -18.2279 -0.686108 4
    endloop
  endfacet
  facet normal 0 0 1
    outer loop
      vertex -18.95 -15 4
      vertex -18.2279 -0.686108 4
      vertex -18.3 0 4
    endloop
  endfacet
  facet normal 0 0 1
    outer loop
      vertex -18.95 -15 4
      vertex -18.3 0 4
      vertex -18.95 15 4
    endloop
  endfacet
  facet normal 0 1 0
    outer loop
      vertex -18.95 15 2.5
      vertex -18.95 15 4
      vertex -11.05 15 2.5
    endloop
  endfacet
  facet normal 0 1 -0
    outer loop
      vertex -18.95 15 4
      vertex -11.05 15 4
      vertex -11.05 15 2.5
    endloop
  endfacet
  facet normal -0 0 1
    outer loop
      vertex -18.95 15 4
      vertex -15.3449 3.28192 4
      vertex -11.05 15 4
    endloop
  endfacet
  facet normal 0 0 1
    outer loop
      vertex -18.95 15 4
      vertex -16.0198 3.13849 4
      vertex -15.3449 3.28192 4
    endloop
  endfacet
  facet normal 0 0 1
    outer loop
      vertex -18.95 15 4
      vertex -16.65 2.85788 4
      vertex -16.0198 3.13849 4
    endloop
  endfacet
  facet normal 0 0 1
    outer loop
      vertex -18.95 15 4
      vertex -17.2081 2.45238 4
      vertex -16.65 2.85788 4
    endloop
  endfacet
  facet normal 0 0 1
    outer loop
      vertex -18.95 15 4
      vertex -17.6698 1.93969 4
      vertex -17.2081 2.45238 4
    endloop
  endfacet
  facet normal 0 0 1
    outer loop
      vertex -18.95 15 4
      vertex -18.0147 1.34223 4
      vertex -17.6698 1.93969 4
    endloop
  endfacet
  facet normal 0 0 1
    outer loop
      vertex -18.95 15 4
      vertex -18.2279 0.686108 4
      vertex -18.0147 1.34223 4
    endloop
  endfacet
  facet normal 0 0 1
    outer loop
      vertex -18.95 15 4
      vertex -18.3 0 4
      vertex -18.2279 0.686108 4
    endloop
  endfacet
  facet normal 0 0 -1
    outer loop
      vertex -29.0645 -14.0645 -2.5
      vertex -13.9802 -3.13849 -2.5
      vertex 29.0645 -14.0645 -2.5
    endloop
  endfacet
  facet normal 0 0 -1
    outer loop
      vertex -29.0645 -14.0645 -2.5
      vertex -14.6551 -3.28192 -2.5
      vertex -13.9802 -3.13849 -2.5
    endloop
  endfacet
  facet normal -0 0 -1
    outer loop
      vertex -29.0645 -14.0645 -2.5
      vertex -15.3449 -3.28192 -2.5
      vertex -14.6551 -3.28192 -2.5
    endloop
  endfacet
  facet normal -0 0 -1
    outer loop
      vertex -29.0645 -14.0645 -2.5
      vertex -16.0198 -3.13849 -2.5
      vertex -15.3449 -3.28192 -2.5
    endloop
  endfacet
  facet normal -0 0 -1
    outer loop
      vertex -29.0645 -14.0645 -2.5
      vertex -16.65 -2.85788 -2.5
      vertex -16.0198 -3.13849 -2.5
    endloop
  endfacet
  facet normal -0 0 -1
    outer loop
      vertex -29.0645 -14.0645 -2.5
      vertex -17.2081 -2.45238 -2.5
      vertex -16.65 -2.85788 -2.5
    endloop
  endfacet
  facet normal -0 0 -1
    outer loop
      vertex -29.0645 -14.0645 -2.5
      vertex -17.6698 -1.93969 -2.5
      vertex -17.2081 -2.45238 -2.5
    endloop
  endfacet
  facet normal -0 0 -1
    outer loop
      vertex -29.0645 -14.0645 -2.5
      vertex -18.0147 -1.34223 -2.5
      vertex -17.6698 -1.93969 -2.5
    endloop
  endfacet
  facet normal -0 0 -1
    outer loop
      vertex -29.0645 -14.0645 -2.5
      vertex -18.2279 -0.686108 -2.5
      vertex -18.0147 -1.34223 -2.5
    endloop
  endfacet
  facet normal -0 0 -1
    outer loop
      vertex -29.0645 -14.0645 -2.5
      vertex -18.3 0 -2.5
      vertex -18.2279 -0.686108 -2.5
    endloop
  endfacet
  facet normal 0 0 -1
    outer loop
      vertex -29.0645 -14.0645 -2.5
      vertex -29.0645 14.0645 -2.5
      vertex -18.3 0 -2.5
    endloop
  endfacet
  facet normal 0 -0.707107 -0.707107
    outer loop
      vertex -29.0645 -14.0645 -2.5
      vertex 29.0645 -14.0645 -2.5
      vertex 30 -15 -1.56447
    endloop
  endfacet
  facet normal 0 0 -1
    outer loop
      vertex -29.0645 14.0645 -2.5
      vertex -13.9802 3.13849 -2.5
      vertex -14.6551 3.28192 -2.5
    endloop
  endfacet
  facet normal 0 0 -1
    outer loop
      vertex -29.0645 14.0645 -2.5
      vertex -14.6551 3.28192 -2.5
      vertex -15.3449 3.28192 -2.5
    endloop
  endfacet
  facet normal 0 0 -1
    outer loop
      vertex -29.0645 14.0645 -2.5
      vertex -15.3449 3.28192 -2.5
      vertex -16.0198 3.13849 -2.5
    endloop
  endfacet
  facet normal 0 0 -1
    outer loop
      vertex -29.0645 14.0645 -2.5
      vertex -16.0198 3.13849 -2.5
      vertex -16.65 2.85788 -2.5
    endloop
  endfacet
  facet normal 0 0 -1
    outer loop
      vertex -29.0645 14.0645 -2.5
      vertex -16.65 2.85788 -2.5
      vertex -17.2081 2.45238 -2.5
    endloop
  endfacet
  facet normal 0 0 -1
    outer loop
      vertex -29.0645 14.0645 -2.5
      vertex -17.2081 2.45238 -2.5
      vertex -17.6698 1.93969 -2.5
    endloop
  endfacet
  facet normal 0 0 -1
    outer loop
      vertex -29.0645 14.0645 -2.5
      vertex -17.6698 1.93969 -2.5
      vertex -18.0147 1.34223 -2.5
    endloop
  endfacet
  facet normal 0 0 -1
    outer loop
      vertex -29.0645 14.0645 -2.5
      vertex -18.0147 1.34223 -2.5
      vertex -18.2279 0.686108 -2.5
    endloop
  endfacet
  facet normal 0 0 -1
    outer loop
      vertex -29.0645 14.0645 -2.5
      vertex -18.2279 0.686108 -2.5
      vertex -18.3 0 -2.5
    endloop
  endfacet
  facet normal 0 0 -1
    outer loop
      vertex -29.0645 14.0645 -2.5
      vertex 29.0645 14.0645 -2.5
      vertex -13.9802 3.13849 -2.5
    endloop
  endfacet
  facet normal 0 0.707107 -0.707107
    outer loop
      vertex -29.0645 14.0645 -2.5
      vertex 30 15 -1.56447
      vertex 29.0645 14.0645 -2.5
    endloop
  endfacet
  facet normal 0 -1 -0
    outer loop
      vertex -30 -15 -1.56447
      vertex -11.05 -15 2.5
      vertex -18.95 -15 2.5
    endloop
  endfacet
  facet normal 0 -1 0
    outer loop
      vertex -30 -15 -1.56447
      vertex -18.95 -15 2.5
      vertex -30 -15 2.5
    endloop
  endfacet
  facet normal 0 -0.707107 -0.707107
    outer loop
      vertex -30 -15 -1.56447
      vertex -29.0645 -14.0645 -2.5
      vertex 30 -15 -1.56447
    endloop
  endfacet
  facet normal -0.707107 0 -0.707107
    outer loop
      vertex -30 -15 -1.56447
      vertex -29.0645 14.0645 -2.5
      vertex -29.0645 -14.0645 -2.5
    endloop
  endfacet
  facet normal -1 -0 0
    outer loop
      vertex -30 -15 -1.56447
      vertex -30 -15 2.5
      vertex -30 15 2.5
    endloop
  endfacet
  facet normal -0.707107 0 -0.707107
    outer loop
      vertex -30 -15 -1.56447
      vertex -30 15 -1.56447
      vertex -29.0645 14.0645 -2.5
    endloop
  endfacet
  facet normal -1 0 0
    outer loop
      vertex -30 -15 -1.56447
      vertex -30 15 2.5
      vertex -30 15 -1.56447
    endloop
  endfacet
  facet normal 0 -1 0
    outer loop
      vertex -30 -15 -1.56447
      vertex 30 -15 -1.56447
      vertex -11.05 -15 2.5
    endloop
  endfacet
  facet normal 0 0 1
    outer loop
      vertex -30 -15 2.5
      vertex -18.95 -15 2.5
      vertex -30 15 2.5
    endloop
  endfacet
  facet normal 0 1 0
    outer loop
      vertex -30 15 -1.56447
      vertex -11.05 15 2.5
      vertex 30 15 -1.56447
    endloop
  endfacet
  facet normal 0 1 0
    outer loop
      vertex -30 15 -1.56447
      vertex -18.95 15 2.5
      vertex -11.05 15 2.5
    endloop
  endfacet
  facet normal 0 1 0
    outer loop
      vertex -30 15 -1.56447
      vertex -30 15 2.5
      vertex -18.95 15 2.5
    endloop
  endfacet
  facet normal 0 0.707107 -0.707107
    outer loop
      vertex -30 15 -1.56447
      vertex 30 15 -1.56447
      vertex -29.0645 14.0645 -2.5
    endloop
  endfacet
  facet normal -0 0 1
    outer loop
      vertex -30 15 2.5
      vertex -18.95 -15 2.5
      vertex -18.95 15 2.5
    endloop
  endfacet
  facet normal -1 -0 0
    outer loop
      vertex 1 -3.95 2.5
      vertex 1 -3.95 4
      vertex 1 3.95 4
    endloop
  endfacet
  facet normal -1 0 0
    outer loop
      vertex 1 -3.95 2.5
      vertex 1 3.95 4
      vertex 1 3.95 2.5
    endloop
  endfacet
  facet normal -0 0 1
    outer loop
      vertex 1 -3.95 2.5
      vertex 30 -15 2.5
      vertex 30 -3.95 2.5
    endloop
  endfacet
  facet normal 0 -1 -0
    outer loop
      vertex 1 -3.95 2.5
      vertex 30 -3.95 2.5
      vertex 30 -3.95 4
    endloop
  endfacet
  facet normal 0 -1 0
    outer loop
      vertex 1 -3.95 2.5
      vertex 30 -3.95 4
      vertex 1 -3.95 4
    endloop
  endfacet
  facet normal 0 0 1
    outer loop
      vertex 1 -3.95 4
      vertex 11.7 0 4
      vertex 1 3.95 4
    endloop
  endfacet
  facet normal 0 0 1
    outer loop
      vertex 1 -3.95 4
      vertex 11.7721 -0.686108 4
      vertex 11.7 0 4
    endloop
  endfacet
  facet normal 0 0 1
    outer loop
      vertex 1 -3.95 4
      vertex 11.9853 -1.34223 4
      vertex 11.7721 -0.686108 4
    endloop
  endfacet
  facet normal 0 0 1
    outer loop
      vertex 1 -3.95 4
      vertex 12.3302 -1.93969 4
      vertex 11.9853 -1.34223 4
    endloop
  endfacet
  facet normal 0 0 1
    outer loop
      vertex 1 -3.95 4
      vertex 12.7919 -2.45238 4
      vertex 12.3302 -1.93969 4
    endloop
  endfacet
  facet normal 0 0 1
    outer loop
      vertex 1 -3.95 4
      vertex 13.35 -2.85788 4
      vertex 12.7919 -2.45238 4
    endloop
  endfacet
  facet normal 0 0 1
    outer loop
      vertex 1 -3.95 4
      vertex 13.9802 -3.13849 4
      vertex 13.35 -2.85788 4
    endloop
  endfacet
  facet normal 0 0 1
    outer loop
      vertex 1 -3.95 4
      vertex 14.6551 -3.28192 4
      vertex 13.9802 -3.13849 4
    endloop
  endfacet
  facet normal 0 0 1
    outer loop
      vertex 1 -3.95 4
      vertex 30 -3.95 4
      vertex 14.6551 -3.28192 4
    endloop
  endfacet
  facet normal 0 1 0
    outer loop
      vertex 1 3.95 2.5
      vertex 1 3.95 4
      vertex 30 3.95 2.5
    endloop
  endfacet
  facet normal 0 0 1
    outer loop
      vertex 1 3.95 2.5
      vertex 30 3.95 2.5
      vertex 30 15 2.5
    endloop
  endfacet
  facet normal 0 0 1
    outer loop
      vertex 1 3.95 4
      vertex 11.7 0 4
      vertex 11.7721 0.686108 4
    endloop
  endfacet
  facet normal 0 0 1
    outer loop
      vertex 1 3.95 4
      vertex 11.7721 0.686108 4
      vertex 11.9853 1.34223 4
    endloop
  endfacet
  facet normal 0 0 1
    outer loop
      vertex 1 3.95 4
      vertex 11.9853 1.34223 4
      vertex 12.3302 1.93969 4
    endloop
  endfacet
  facet normal 0 0 1
    outer loop
      vertex 1 3.95 4
      vertex 12.3302 1.93969 4
      vertex 12.7919 2.45238 4
    endloop
  endfacet
  facet normal 0 0 1
    outer loop
      vertex 1 3.95 4
      vertex 12.7919 2.45238 4
      vertex 13.35 2.85788 4
    endloop
  endfacet
  facet normal 0 0 1
    outer loop
      vertex 1 3.95 4
      vertex 13.35 2.85788 4
      vertex 13.9802 3.13849 4
    endloop
  endfacet
  facet normal 0 0 1
    outer loop
      vertex 1 3.95 4
      vertex 13.9802 3.13849 4
      vertex 14.6551 3.28192 4
    endloop
  endfacet
  facet normal -0 0 1
    outer loop
      vertex 1 3.95 4
      vertex 14.6551 3.28192 4
      vertex 30 3.95 4
    endloop
  endfacet
  facet normal 0 1 -0
    outer loop
      vertex 1 3.95 4
      vertex 30 3.95 4
      vertex 30 3.95 2.5
    endloop
  endfacet
  facet normal 0.994522 0.104529 0
    outer loop
      vertex 11.7 0 -2.5
      vertex 11.7 0 4
      vertex 11.7721 -0.686108 4
    endloop
  endfacet
  facet normal 0.994522 0.104529 0
    outer loop
      vertex 11.7 0 -2.5
      vertex 11.7721 -0.686108 4
      vertex 11.7721 -0.686108 -2.5
    endloop
  endfacet
  facet normal 0.994522 -0.104529 0
    outer loop
      vertex 11.7 0 -2.5
      vertex 11.7721 0.686108 -2.5
      vertex 11.7 0 4
    endloop
  endfacet
  facet normal 0.994522 -0.104529 0
    outer loop
      vertex 11.7 0 4
      vertex 11.7721 0.686108 -2.5
      vertex 11.7721 0.686108 4
    endloop
  endfacet
  facet normal 0.951057 0.309016 0
    outer loop
      vertex 11.7721 -0.686108 -2.5
      vertex 11.7721 -0.686108 4
      vertex 11.9853 -1.34223 4
    endloop
  endfacet
  facet normal 0.951057 0.309016 0
    outer loop
      vertex 11.7721 -0.686108 -2.5
      vertex 11.9853 -1.34223 4
      vertex 11.9853 -1.34223 -2.5
    endloop
  endfacet
  facet normal 0.951057 -0.309016 0
    outer loop
      vertex 11.7721 0.686108 -2.5
      vertex 11.9853 1.34223 -2.5
      vertex 11.7721 0.686108 4
    endloop
  endfacet
  facet normal 0.951057 -0.309016 0
    outer loop
      vertex 11.7721 0.686108 4
      vertex 11.9853 1.34223 -2.5
      vertex 11.9853 1.34223 4
    endloop
  endfacet
  facet normal 0.866025 0.5 0
    outer loop
      vertex 11.9853 -1.34223 -2.5
      vertex 11.9853 -1.34223 4
      vertex 12.3302 -1.93969 4
    endloop
  endfacet
  facet normal 0.866025 0.5 0
    outer loop
      vertex 11.9853 -1.34223 -2.5
      vertex 12.3302 -1.93969 4
      vertex 12.3302 -1.93969 -2.5
    endloop
  endfacet
  facet normal 0.866025 -0.5 0
    outer loop
      vertex 11.9853 1.34223 -2.5
      vertex 12.3302 1.93969 -2.5
      vertex 11.9853 1.34223 4
    endloop
  endfacet
  facet normal 0.866025 -0.5 0
    outer loop
      vertex 11.9853 1.34223 4
      vertex 12.3302 1.93969 -2.5
      vertex 12.3302 1.93969 4
    endloop
  endfacet
  facet normal 0.743145 0.669131 0
    outer loop
      vertex 12.3302 -1.93969 -2.5
      vertex 12.3302 -1.93969 4
      vertex 12.7919 -2.45238 4
    endloop
  endfacet
  facet normal 0.743145 0.669131 0
    outer loop
      vertex 12.3302 -1.93969 -2.5
      vertex 12.7919 -2.45238 4
      vertex 12.7919 -2.45238 -2.5
    endloop
  endfacet
  facet normal 0.743145 -0.669131 0
    outer loop
      vertex 12.3302 1.93969 -2.5
      vertex 12.7919 2.45238 -2.5
      vertex 12.3302 1.93969 4
    endloop
  endfacet
  facet normal 0.743145 -0.669131 0
    outer loop
      vertex 12.3302 1.93969 4
      vertex 12.7919 2.45238 -2.5
      vertex 12.7919 2.45238 4
    endloop
  endfacet
  facet normal 0.587785 0.809017 0
    outer loop
      vertex 12.7919 -2.45238 -2.5
      vertex 12.7919 -2.45238 4
      vertex 13.35 -2.85788 -2.5
    endloop
  endfacet
  facet normal 0.587785 0.809017 -0
    outer loop
      vertex 12.7919 -2.45238 4
      vertex 13.35 -2.85788 4
      vertex 13.35 -2.85788 -2.5
    endloop
  endfacet
  facet normal 0.587785 -0.809017 0
    outer loop
      vertex 12.7919 2.45238 -2.5
      vertex 13.35 2.85788 -2.5
      vertex 13.35 2.85788 4
    endloop
  endfacet
  facet normal 0.587785 -0.809017 0
    outer loop
      vertex 12.7919 2.45238 -2.5
      vertex 13.35 2.85788 4
      vertex 12.7919 2.45238 4
    endloop
  endfacet
  facet normal 0.406736 0.913546 0
    outer loop
      vertex 13.35 -2.85788 -2.5
      vertex 13.35 -2.85788 4
      vertex 13.9802 -3.13849 -2.5
    endloop
  endfacet
  facet normal 0.406736 0.913546 -0
    outer loop
      vertex 13.35 -2.85788 4
      vertex 13.9802 -3.13849 4
      vertex 13.9802 -3.13849 -2.5
    endloop
  endfacet
  facet normal 0.406736 -0.913546 0
    outer loop
      vertex 13.35 2.85788 -2.5
      vertex 13.9802 3.13849 -2.5
      vertex 13.9802 3.13849 4
    endloop
  endfacet
  facet normal 0.406736 -0.913546 0
    outer loop
      vertex 13.35 2.85788 -2.5
      vertex 13.9802 3.13849 4
      vertex 13.35 2.85788 4
    endloop
  endfacet
  facet normal 0.207911 0.978148 0
    outer loop
      vertex 13.9802 -3.13849 -2.5
      vertex 13.9802 -3.13849 4
      vertex 14.6551 -3.28192 -2.5
    endloop
  endfacet
  facet normal 0 0 -1
    outer loop
      vertex 13.9802 -3.13849 -2.5
      vertex 14.6551 -3.28192 -2.5
      vertex 29.0645 -14.0645 -2.5
    endloop
  endfacet
  facet normal 0.207911 0.978148 -0
    outer loop
      vertex 13.9802 -3.13849 4
      vertex 14.6551 -3.28192 4
      vertex 14.6551 -3.28192 -2.5
    endloop
  endfacet
  facet normal 0.207911 -0.978148 0
    outer loop
      vertex 13.9802 3.13849 -2.5
      vertex 14.6551 3.28192 -2.5
      vertex 14.6551 3.28192 4
    endloop
  endfacet
  facet normal 0.207911 -0.978148 0
    outer loop
      vertex 13.9802 3.13849 -2.5
      vertex 14.6551 3.28192 4
      vertex 13.9802 3.13849 4
    endloop
  endfacet
  facet normal 0 0 -1
    outer loop
      vertex 13.9802 3.13849 -2.5
      vertex 29.0645 14.0645 -2.5
      vertex 14.6551 3.28192 -2.5
    endloop
  endfacet
  facet normal 0 1 0
    outer loop
      vertex 14.6551 -3.28192 -2.5
      vertex 14.6551 -3.28192 4
      vertex 15.3449 -3.28192 -2.5
    endloop
  endfacet
  facet normal 0 0 -1
    outer loop
      vertex 14.6551 -3.28192 -2.5
      vertex 15.3449 -3.28192 -2.5
      vertex 29.0645 -14.0645 -2.5
    endloop
  endfacet
  facet normal 0 1 -0
    outer loop
      vertex 14.6551 -3.28192 4
      vertex 15.3449 -3.28192 4
      vertex 15.3449 -3.28192 -2.5
    endloop
  endfacet
  facet normal -0 0 1
    outer loop
      vertex 14.6551 -3.28192 4
      vertex 30 -3.95 4
      vertex 15.3449 -3.28192 4
    endloop
  endfacet
  facet normal 0 -1 -0
    outer loop
      vertex 14.6551 3.28192 -2.5
      vertex 15.3449 3.28192 -2.5
      vertex 15.3449 3.28192 4
    endloop
  endfacet
  facet normal 0 -1 0
    outer loop
      vertex 14.6551 3.28192 -2.5
      vertex 15.3449 3.28192 4
      vertex 14.6551 3.28192 4
    endloop
  endfacet
  facet normal 0 0 -1
    outer loop
      vertex 14.6551 3.28192 -2.5
      vertex 29.0645 14.0645 -2.5
      vertex 15.3449 3.28192 -2.5
    endloop
  endfacet
  facet normal 0 0 1
    outer loop
      vertex 14.6551 3.28192 4
      vertex 15.3449 3.28192 4
      vertex 30 3.95 4
    endloop
  endfacet
  facet normal -0.207911 0.978148 0
    outer loop
      vertex 15.3449 -3.28192 -2.5
      vertex 15.3449 -3.28192 4
      vertex 16.0198 -3.13849 -2.5
    endloop
  endfacet
  facet normal 0 0 -1
    outer loop
      vertex 15.3449 -3.28192 -2.5
      vertex 16.0198 -3.13849 -2.5
      vertex 29.0645 -14.0645 -2.5
    endloop
  endfacet
  facet normal -0.207911 0.978148 0
    outer loop
      vertex 15.3449 -3.28192 4
      vertex 16.0198 -3.13849 4
      vertex 16.0198 -3.13849 -2.5
    endloop
  endfacet
  facet normal -0 0 1
    outer loop
      vertex 15.3449 -3.28192 4
      vertex 30 -3.95 4
      vertex 16.0198 -3.13849 4
    endloop
  endfacet
  facet normal -0.207911 -0.978148 -0
    outer loop
      vertex 15.3449 3.28192 -2.5
      vertex 16.0198 3.13849 -2.5
      vertex 16.0198 3.13849 4
    endloop
  endfacet
  facet normal -0.207911 -0.978148 0
    outer loop
      vertex 15.3449 3.28192 -2.5
      vertex 16.0198 3.13849 4
      vertex 15.3449 3.28192 4
    endloop
  endfacet
  facet normal 0 0 -1
    outer loop
      vertex 15.3449 3.28192 -2.5
      vertex 29.0645 14.0645 -2.5
      vertex 16.0198 3.13849 -2.5
    endloop
  endfacet
  facet normal 0 0 1
    outer loop
      vertex 15.3449 3.28192 4
      vertex 16.0198 3.13849 4
      vertex 30 3.95 4
    endloop
  endfacet
  facet normal -0.406737 0.913545 0
    outer loop
      vertex 16.0198 -3.13849 -2.5
      vertex 16.0198 -3.13849 4
      vertex 16.65 -2.85788 -2.5
    endloop
  endfacet
  facet normal 0 0 -1
    outer loop
      vertex 16.0198 -3.13849 -2.5
      vertex 16.65 -2.85788 -2.5
      vertex 29.0645 -14.0645 -2.5
    endloop
  endfacet
  facet normal -0.406737 0.913545 0
    outer loop
      vertex 16.0198 -3.13849 4
      vertex 16.65 -2.85788 4
      vertex 16.65 -2.85788 -2.5
    endloop
  endfacet
  facet normal -0 0 1
    outer loop
      vertex 16.0198 -3.13849 4
      vertex 30 -3.95 4
      vertex 16.65 -2.85788 4
    endloop
  endfacet
  facet normal -0.406737 -0.913545 -0
    outer loop
      vertex 16.0198 3.13849 -2.5
      vertex 16.65 2.85788 -2.5
      vertex 16.65 2.85788 4
    endloop
  endfacet
  facet normal -0.406737 -0.913545 0
    outer loop
      vertex 16.0198 3.13849 -2.5
      vertex 16.65 2.85788 4
      vertex 16.0198 3.13849 4
    endloop
  endfacet
  facet normal 0 0 -1
    outer loop
      vertex 16.0198 3.13849 -2.5
      vertex 29.0645 14.0645 -2.5
      vertex 16.65 2.85788 -2.5
    endloop
  endfacet
  facet normal 0 0 1
    outer loop
      vertex 16.0198 3.13849 4
      vertex 16.65 2.85788 4
      vertex 30 3.95 4
    endloop
  endfacet
  facet normal -0.587786 0.809016 0
    outer loop
      vertex 16.65 -2.85788 -2.5
      vertex 16.65 -2.85788 4
      vertex 17.2081 -2.45238 -2.5
    endloop
  endfacet
  facet normal 0 0 -1
    outer loop
      vertex 16.65 -2.85788 -2.5
      vertex 17.2081 -2.45238 -2.5
      vertex 29.0645 -14.0645 -2.5
    endloop
  endfacet
  facet normal -0.587786 0.809016 0
    outer loop
      vertex 16.65 -2.85788 4
      vertex 17.2081 -2.45238 4
      vertex 17.2081 -2.45238 -2.5
    endloop
  endfacet
  facet normal -0 0 1
    outer loop
      vertex 16.65 -2.85788 4
      vertex 30 -3.95 4
      vertex 17.2081 -2.45238 4
    endloop
  endfacet
  facet normal -0.587786 -0.809016 -0
    outer loop
      vertex 16.65 2.85788 -2.5
      vertex 17.2081 2.45238 -2.5
      vertex 17.2081 2.45238 4
    endloop
  endfacet
  facet normal -0.587786 -0.809016 0
    outer loop
      vertex 16.65 2.85788 -2.5
      vertex 17.2081 2.45238 4
      vertex 16.65 2.85788 4
    endloop
  endfacet
  facet normal 0 0 -1
    outer loop
      vertex 16.65 2.85788 -2.5
      vertex 29.0645 14.0645 -2.5
      vertex 17.2081 2.45238 -2.5
    endloop
  endfacet
  facet normal 0 0 1
    outer loop
      vertex 16.65 2.85788 4
      vertex 17.2081 2.45238 4
      vertex 30 3.95 4
    endloop
  endfacet
  facet normal -0.743144 0.669131 0
    outer loop
      vertex 17.2081 -2.45238 -2.5
      vertex 17.2081 -2.45238 4
      vertex 17.6698 -1.93969 4
    endloop
  endfacet
  facet normal 0 0 -1
    outer loop
      vertex 17.2081 -2.45238 -2.5
      vertex 17.6698 -1.93969 -2.5
      vertex 29.0645 -14.0645 -2.5
    endloop
  endfacet
  facet normal -0.743144 0.669131 0
    outer loop
      vertex 17.2081 -2.45238 -2.5
      vertex 17.6698 -1.93969 4
      vertex 17.6698 -1.93969 -2.5
    endloop
  endfacet
  facet normal -0 0 1
    outer loop
      vertex 17.2081 -2.45238 4
      vertex 30 -3.95 4
      vertex 17.6698 -1.93969 4
    endloop
  endfacet
  facet normal -0.743144 -0.669131 0
    outer loop
      vertex 17.2081 2.45238 -2.5
      vertex 17.6698 1.93969 -2.5
      vertex 17.2081 2.45238 4
    endloop
  endfacet
  facet normal 0 0 -1
    outer loop
      vertex 17.2081 2.45238 -2.5
      vertex 29.0645 14.0645 -2.5
      vertex 17.6698 1.93969 -2.5
    endloop
  endfacet
  facet normal -0.743144 -0.669131 0
    outer loop
      vertex 17.2081 2.45238 4
      vertex 17.6698 1.93969 -2.5
      vertex 17.6698 1.93969 4
    endloop
  endfacet
  facet normal 0 0 1
    outer loop
      vertex 17.2081 2.45238 4
      vertex 17.6698 1.93969 4
      vertex 30 3.95 4
    endloop
  endfacet
  facet normal -0.866025 0.5 0
    outer loop
      vertex 17.6698 -1.93969 -2.5
      vertex 17.6698 -1.93969 4
      vertex 18.0147 -1.34223 4
    endloop
  endfacet
  facet normal 0 0 -1
    outer loop
      vertex 17.6698 -1.93969 -2.5
      vertex 18.0147 -1.34223 -2.5
      vertex 29.0645 -14.0645 -2.5
    endloop
  endfacet
  facet normal -0.866025 0.5 0
    outer loop
      vertex 17.6698 -1.93969 -2.5
      vertex 18.0147 -1.34223 4
      vertex 18.0147 -1.34223 -2.5
    endloop
  endfacet
  facet normal -0 0 1
    outer loop
      vertex 17.6698 -1.93969 4
      vertex 30 -3.95 4
      vertex 18.0147 -1.34223 4
    endloop
  endfacet
  facet normal -0.866025 -0.5 0
    outer loop
      vertex 17.6698 1.93969 -2.5
      vertex 18.0147 1.34223 -2.5
      vertex 17.6698 1.93969 4
    endloop
  endfacet
  facet normal 0 0 -1
    outer loop
      vertex 17.6698 1.93969 -2.5
      vertex 29.0645 14.0645 -2.5
      vertex 18.0147 1.34223 -2.5
    endloop
  endfacet
  facet normal -0.866025 -0.5 0
    outer loop
      vertex 17.6698 1.93969 4
      vertex 18.0147 1.34223 -2.5
      vertex 18.0147 1.34223 4
    endloop
  endfacet
  facet normal 0 0 1
    outer loop
      vertex 17.6698 1.93969 4
      vertex 18.0147 1.34223 4
      vertex 30 3.95 4
    endloop
  endfacet
  facet normal -0.951057 0.309016 0
    outer loop
      vertex 18.0147 -1.34223 -2.5
      vertex 18.0147 -1.34223 4
      vertex 18.2279 -0.686108 4
    endloop
  endfacet
  facet normal 0 0 -1
    outer loop
      vertex 18.0147 -1.34223 -2.5
      vertex 18.2279 -0.686108 -2.5
      vertex 29.0645 -14.0645 -2.5
    endloop
  endfacet
  facet normal -0.951057 0.309016 0
    outer loop
      vertex 18.0147 -1.34223 -2.5
      vertex 18.2279 -0.686108 4
      vertex 18.2279 -0.686108 -2.5
    endloop
  endfacet
  facet normal -0 0 1
    outer loop
      vertex 18.0147 -1.34223 4
      vertex 30 -3.95 4
      vertex 18.2279 -0.686108 4
    endloop
  endfacet
  facet normal -0.951057 -0.309016 0
    outer loop
      vertex 18.0147 1.34223 -2.5
      vertex 18.2279 0.686108 -2.5
      vertex 18.0147 1.34223 4
    endloop
  endfacet
  facet normal 0 0 -1
    outer loop
      vertex 18.0147 1.34223 -2.5
      vertex 29.0645 14.0645 -2.5
      vertex 18.2279 0.686108 -2.5
    endloop
  endfacet
  facet normal -0.951057 -0.309016 0
    outer loop
      vertex 18.0147 1.34223 4
      vertex 18.2279 0.686108 -2.5
      vertex 18.2279 0.686108 4
    endloop
  endfacet
  facet normal 0 0 1
    outer loop
      vertex 18.0147 1.34223 4
      vertex 18.2279 0.686108 4
      vertex 30 3.95 4
    endloop
  endfacet
  facet normal -0.994522 0.104529 0
    outer loop
      vertex 18.2279 -0.686108 -2.5
      vertex 18.2279 -0.686108 4
      vertex 18.3 0 4
    endloop
  endfacet
  facet normal 0 0 -1
    outer loop
      vertex 18.2279 -0.686108 -2.5
      vertex 18.3 0 -2.5
      vertex 29.0645 -14.0645 -2.5
    endloop
  endfacet
  facet normal -0.994522 0.104529 0
    outer loop
      vertex 18.2279 -0.686108 -2.5
      vertex 18.3 0 4
      vertex 18.3 0 -2.5
    endloop
  endfacet
  facet normal -0 0 1
    outer loop
      vertex 18.2279 -0.686108 4
      vertex 30 -3.95 4
      vertex 18.3 0 4
    endloop
  endfacet
  facet normal -0.994522 -0.104529 0
    outer loop
      vertex 18.2279 0.686108 -2.5
      vertex 18.3 0 -2.5
      vertex 18.2279 0.686108 4
    endloop
  endfacet
  facet normal 0 0 -1
    outer loop
      vertex 18.2279 0.686108 -2.5
      vertex 29.0645 14.0645 -2.5
      vertex 18.3 0 -2.5
    endloop
  endfacet
  facet normal -0.994522 -0.104529 0
    outer loop
      vertex 18.2279 0.686108 4
      vertex 18.3 0 -2.5
      vertex 18.3 0 4
    endloop
  endfacet
  facet normal 0 0 1
    outer loop
      vertex 18.2279 0.686108 4
      vertex 18.3 0 4
      vertex 30 3.95 4
    endloop
  endfacet
  facet normal 0 0 -1
    outer loop
      vertex 18.3 0 -2.5
      vertex 29.0645 14.0645 -2.5
      vertex 29.0645 -14.0645 -2.5
    endloop
  endfacet
  facet normal 0 0 1
    outer loop
      vertex 18.3 0 4
      vertex 30 -3.95 4
      vertex 30 3.95 4
    endloop
  endfacet
  facet normal 0.707107 0 -0.707107
    outer loop
      vertex 29.0645 -14.0645 -2.5
      vertex 29.0645 14.0645 -2.5
      vertex 30 15 -1.56447
    endloop
  endfacet
  facet normal 0.707107 0 -0.707107
    outer loop
      vertex 29.0645 -14.0645 -2.5
      vertex 30 15 -1.56447
      vertex 30 -15 -1.56447
    endloop
  endfacet
  facet normal 1 0 0
    outer loop
      vertex 30 -15 -1.56447
      vertex 30 -3.95 2.5
      vertex 30 -15 2.5
    endloop
  endfacet
  facet normal 1 0 0
    outer loop
      vertex 30 -15 -1.56447
      vertex 30 15 -1.56447
      vertex 30 -3.95 2.5
    endloop
  endfacet
  facet normal 1 0 0
    outer loop
      vertex 30 -3.95 2.5
      vertex 30 15 -1.56447
      vertex 30 3.95 2.5
    endloop
  endfacet
  facet normal 1 0 0
    outer loop
      vertex 30 -3.95 2.5
      vertex 30 3.95 2.5
      vertex 30 -3.95 4
    endloop
  endfacet
  facet normal 1 0 0
    outer loop
      vertex 30 -3.95 4
      vertex 30 3.95 2.5
      vertex 30 3.95 4
    endloop
  endfacet
  facet normal 1 -0 0
    outer loop
      vertex 30 3.95 2.5
      vertex 30 15 -1.56447
      vertex 30 15 2.5
    endloop
  endfacet
endsolid model
