solid model
  facet normal -1 -0 0
    outer loop
      vertex 0 0 0
      vertex 0 0 0.799999
      vertex 0 30 0.799999
    endloop
  endfacet
  facet normal -0 0 -1
    outer loop
      vertex 0 0 0
      vertex 0 30 0
      vertex 30 30 0
    endloop
  endfacet
  facet normal -1 0 0
    outer loop
      vertex 0 0 0
      vertex 0 30 0.799999
      vertex 0 30 0
    endloop
  endfacet
  facet normal 0 -1 -0
    outer loop
      vertex 0 0 0
      vertex 30 0 0
      vertex 30 0 0.799999
    endloop
  endfacet
  facet normal 0 -1 0
    outer loop
      vertex 0 0 0
      vertex 30 0 0.799999
      vertex 0 0 0.799999
    endloop
  endfacet
  facet normal 0 0 -1
    outer loop
      vertex 0 0 0
      vertex 30 30 0
      vertex 30 0 0
    endloop
  endfacet
  facet normal 0 0 1
    outer loop
      vertex 0 0 0.799999
      vertex 10.25 10.25 0.799999
      vertex 0 30 0.799999
    endloop
  endfacet
  facet normal 0 0 1
    outer loop
      vertex 0 0 0.799999
      vertex 30 0 0.799999
      vertex 10.25 10.25 0.799999
    endloop
  endfacet
  facet normal 0 1 0
    outer loop
      vertex 0 30 0
      vertex 0 30 0.799999
      vertex 30 30 0
    endloop
  endfacet
  facet normal 0 0 1
    outer loop
      vertex 0 30 0.799999
      vertex 10.25 10.25 0.799999
      vertex 10.25 19.75 0.799999
    endloop
  endfacet
  facet normal -0 0 1
    outer loop
      vertex 0 30 0.799999
      vertex 10.25 19.75 0.799999
      vertex 30 30 0.799999
    endloop
  endfacet
  facet normal 0 1 -0
    outer loop
      vertex 0 30 0.799999
      vertex 30 30 0.799999
      vertex 30 30 0
    endloop
  endfacet
  facet normal -1 -0 0
    outer loop
      vertex 10.25 10.25 0.799999
      vertex 10.25 10.25 4.95
      vertex 10.25 19.75 4.95
    endloop
  endfacet
  facet normal -1 0 0
    outer loop
      vertex 10.25 10.25 0.799999
      vertex 10.25 19.75 4.95
      vertex 10.25 19.75 0.799999
    endloop
  endfacet
  facet normal 0 -1 -0
    outer loop
      vertex 10.25 10.25 0.799999
      vertex 19.75 10.25 0.799999
      vertex 19.75 10.25 4.95
    endloop
  endfacet
  facet normal 0 -1 0
    outer loop
      vertex 10.25 10.25 0.799999
      vertex 19.75 10.25 4.95
      vertex 10.25 10.25 4.95
    endloop
  endfacet
  facet normal -0 0 1
    outer loop
      vertex 10.25 10.25 0.799999
      vertex 30 0 0.799999
      vertex 19.75 10.25 0.799999
    endloop
  endfacet
  facet normal -0.707107 0 0.707107
    outer loop
      vertex 10.25 10.25 4.95
      vertex 10.3 10.3 5
      vertex 10.25 19.75 4.95
    endloop
  endfacet
  facet normal 0 -0.707107 0.707107
    outer loop
      vertex 10.25 10.25 4.95
      vertex 19.7 10.3 5
      vertex 10.3 10.3 5
    endloop
  endfacet
  facet normal 0 -0.707107 0.707107
    outer loop
      vertex 10.25 10.25 4.95
      vertex 19.75 10.25 4.95
      vertex 19.7 10.3 5
    endloop
  endfacet
  facet normal 0 1 0
    outer loop
      vertex 10.25 19.75 0.799999
      vertex 10.25 19.75 4.95
      vertex 19.75 19.75 0.799999
    endloop
  endfacet
  facet normal 0 0 1
    outer loop
      vertex 10.25 19.75 0.799999
      vertex 19.75 19.75 0.799999
      vertex 30 30 0.799999
    endloop
  endfacet
  facet normal -0.707107 0 0.707107
    outer loop
      vertex 10.25 19.75 4.95
      vertex 10.3 10.3 5
      vertex 10.3 19.7 5
    endloop
  endfacet
  facet normal 0 0.707107 0.707107
    outer loop
      vertex 10.25 19.75 4.95
      vertex 10.3 19.7 5
      vertex 19.75 19.75 4.95
    endloop
  endfacet
  facet normal 0 1 -0
    outer loop
      vertex 10.25 19.75 4.95
      vertex 19.75 19.75 4.95
      vertex 19.75 19.75 0.799999
    endloop
  endfacet
  facet normal 0 0 1
    outer loop
      vertex 10.3 10.3 5
      vertex 19.7 10.3 5
      vertex 10.3 19.7 5
    endloop
  endfacet
  facet normal -0 0 1
    outer loop
      vertex 10.3 19.7 5
      vertex 19.7 10.3 5
      vertex 19.7 19.7 5
    endloop
  endfacet
  facet normal 0 0.707107 0.707107
    outer loop
      vertex 10.3 19.7 5
      vertex 19.7 19.7 5
      vertex 19.75 19.75 4.95
    endloop
  endfacet
  facet normal 0.707107 0 0.707107
    outer loop
      vertex 19.7 10.3 5
      vertex 19.75 10.25 4.95
      vertex 19.7 19.7 5
    endloop
  endfacet
  facet normal 0.707107 0 0.707107
    outer loop
      vertex 19.7 19.7 5
      vertex 19.75 10.25 4.95
      vertex 19.75 19.75 4.95
    endloop
  endfacet
  facet normal 1 0 0
    outer loop
      vertex 19.75 10.25 0.799999
      vertex 19.75 19.75 0.799999
      vertex 19.75 10.25 4.95
    endloop
  endfacet
  facet normal -0 0 1
    outer loop
      vertex 19.75 10.25 0.799999
      vertex 30 0 0.799999
      vertex 19.75 19.75 0.799999
    endloop
  endfacet
  facet normal 1 -0 0
    outer loop
      vertex 19.75 10.25 4.95
      vertex 19.75 19.75 0.799999
      vertex 19.75 19.75 4.95
    endloop
  endfacet
  facet normal 0 0 1
    outer loop
      vertex 19.75 19.75 0.799999
      vertex 30 0 0.799999
      vertex 30 30 0.799999
    endloop
  endfacet
  facet normal 1 0 0
    outer loop
      vertex 30 0 0
      vertex 30 30 0
      vertex 30 0 0.799999
    endloop
  endfacet
  facet normal 1 -0 0
    outer loop
      vertex 30 0 0.799999
      vertex 30 30 0
      vertex 30 30 0.799999
    endloop
  endfacet
endsolid model
