solid model
  facet normal 0 1 0
    outer loop
      vertex -3.5 23 0
      vertex -3.5 23 4.9
      vertex 36.5 23 0
    endloop
  endfacet
  facet normal 1 0 0
    outer loop
      vertex -3.5 23 0
      vertex -3.5 24.9 0
      vertex -3.5 23 4.9
    endloop
  endfacet
  facet normal 0 0 -1
    outer loop
      vertex -3.5 23 0
      vertex 36.5 23 0
      vertex 38 20 0
    endloop
  endfacet
  facet normal 1 -0 0
    outer loop
      vertex -3.5 23 4.9
      vertex -3.5 24.9 0
      vertex -3.5 24.9 4.9
    endloop
  endfacet
  facet normal -0 0 -1
    outer loop
      vertex -3.5 23 4.9
      vertex -3.5 24.9 4.9
      vertex 36.5 24.9 4.9
    endloop
  endfacet
  facet normal 0 1 -0
    outer loop
      vertex -3.5 23 4.9
      vertex 36.5 23 4.9
      vertex 36.5 23 0
    endloop
  endfacet
  facet normal 0 0 -1
    outer loop
      vertex -3.5 23 4.9
      vertex 36.5 24.9 4.9
      vertex 36.5 23 4.9
    endloop
  endfacet
  facet normal -0 0 -1
    outer loop
      vertex -3.5 24.9 0
      vertex 11 35 0
      vertex 19 35 0
    endloop
  endfacet
  facet normal 0 0 -1
    outer loop
      vertex -3.5 24.9 0
      vertex 19 35 0
      vertex 36.5 24.9 0
    endloop
  endfacet
  facet normal 0 -1 -0
    outer loop
      vertex -3.5 24.9 0
      vertex 36.5 24.9 0
      vertex 36.5 24.9 4.9
    endloop
  endfacet
  facet normal 0 -1 0
    outer loop
      vertex -3.5 24.9 0
      vertex 36.5 24.9 4.9
      vertex -3.5 24.9 4.9
    endloop
  endfacet
  facet normal 0 0 1
    outer loop
      vertex -4 20 6
      vertex 0 20 6
      vertex 0 29 6
    endloop
  endfacet
  facet normal 0 0 1
    outer loop
      vertex -4 20 6
      vertex 0 29 6
      vertex -4 35 6
    endloop
  endfacet
  facet normal -0 0 1
    outer loop
      vertex -4 35 6
      vertex 0 29 6
      vertex 0 35 6
    endloop
  endfacet
  facet normal 0 0 -1
    outer loop
      vertex -5 20 0
      vertex -3.5 23 0
      vertex 38 20 0
    endloop
  endfacet
  facet normal -0 0 -1
    outer loop
      vertex -5 20 0
      vertex -3.5 24.9 0
      vertex -3.5 23 0
    endloop
  endfacet
  facet normal -1 -0 0
    outer loop
      vertex -5 20 0
      vertex -5 20 5
      vertex -5 35 5
    endloop
  endfacet
  facet normal 0 0 -1
    outer loop
      vertex -5 20 0
      vertex -5 35 0
      vertex -3.5 24.9 0
    endloop
  endfacet
  facet normal -1 0 0
    outer loop
      vertex -5 20 0
      vertex -5 35 5
      vertex -5 35 0
    endloop
  endfacet
  facet normal 0 -1 0
    outer loop
      vertex -5 20 0
      vertex 0 20 6
      vertex -5 20 5
    endloop
  endfacet
  facet normal 0 -1 -0
    outer loop
      vertex -5 20 0
      vertex 30 20 6
      vertex 0 20 6
    endloop
  endfacet
  facet normal 0 -1 0
    outer loop
      vertex -5 20 0
      vertex 38 20 0
      vertex 30 20 6
    endloop
  endfacet
  facet normal -0.707107 0 0.707107
    outer loop
      vertex -5 20 5
      vertex -4 20 6
      vertex -4 35 6
    endloop
  endfacet
  facet normal -0.707107 0 0.707107
    outer loop
      vertex -5 20 5
      vertex -4 35 6
      vertex -5 35 5
    endloop
  endfacet
  facet normal 0 -1 0
    outer loop
      vertex -5 20 5
      vertex 0 20 6
      vertex -4 20 6
    endloop
  endfacet
  facet normal 0 1 0
    outer loop
      vertex -5 35 0
      vertex -5 35 5
      vertex 0 35 6
    endloop
  endfacet
  facet normal 0 1 0
    outer loop
      vertex -5 35 0
      vertex 0 35 6
      vertex 11 35 0
    endloop
  endfacet
  facet normal 0 0 -1
    outer loop
      vertex -5 35 0
      vertex 11 35 0
      vertex -3.5 24.9 0
    endloop
  endfacet
  facet normal 0 1 0
    outer loop
      vertex -5 35 5
      vertex -4 35 6
      vertex 0 35 6
    endloop
  endfacet
  facet normal 0 1 0
    outer loop
      vertex 0 15 0
      vertex 0 15 6
      vertex 11 15 0
    endloop
  endfacet
  facet normal 0 0 -1
    outer loop
      vertex 0 15 0
      vertex 11 15 0
      vertex 6.5 9 0
    endloop
  endfacet
  facet normal 0 1 0
    outer loop
      vertex 0 15 6
      vertex 9.80291 15 20
      vertex 11 15 0
    endloop
  endfacet
  facet normal 0 0 1
    outer loop
      vertex 0 20 6
      vertex 30 20 6
      vertex 0 29 6
    endloop
  endfacet
  facet normal 0 -1 -0
    outer loop
      vertex 0 29 6
      vertex 10.199 29 7.84294
      vertex 9.1953 29 8.95764
    endloop
  endfacet
  facet normal 0 -1 -0
    outer loop
      vertex 0 29 6
      vertex 11.4125 29 6.96127
      vertex 10.199 29 7.84294
    endloop
  endfacet
  facet normal 0 -1 -0
    outer loop
      vertex 0 29 6
      vertex 12.7828 29 6.35117
      vertex 11.4125 29 6.96127
    endloop
  endfacet
  facet normal 0 -1 -0
    outer loop
      vertex 0 29 6
      vertex 14.25 29 6.0393
      vertex 12.7828 29 6.35117
    endloop
  endfacet
  facet normal 0 -1 -0
    outer loop
      vertex 0 29 6
      vertex 15.75 29 6.0393
      vertex 14.25 29 6.0393
    endloop
  endfacet
  facet normal -0 0 1
    outer loop
      vertex 0 29 6
      vertex 30 20 6
      vertex 30 29 6
    endloop
  endfacet
  facet normal 0 -1 0
    outer loop
      vertex 0 29 6
      vertex 30 29 6
      vertex 15.75 29 6.0393
    endloop
  endfacet
  facet normal 0 -1 0
    outer loop
      vertex 0 29 6
      vertex 7.825 29 13.175
      vertex 7.98179 29 14.6668
    endloop
  endfacet
  facet normal 0 -1 -0
    outer loop
      vertex 0 29 6
      vertex 7.98179 29 11.6832
      vertex 7.825 29 13.175
    endloop
  endfacet
  facet normal 0 -1 0
    outer loop
      vertex 0 29 6
      vertex 7.98179 29 14.6668
      vertex 8.44531 29 16.0933
    endloop
  endfacet
  facet normal 0 -1 -0
    outer loop
      vertex 0 29 6
      vertex 8.44531 29 10.2567
      vertex 7.98179 29 11.6832
    endloop
  endfacet
  facet normal 0 -1 0
    outer loop
      vertex 0 29 6
      vertex 8.44531 29 16.0933
      vertex 9.80291 29 20
    endloop
  endfacet
  facet normal 0 -1 -0
    outer loop
      vertex 0 29 6
      vertex 9.1953 29 8.95764
      vertex 8.44531 29 10.2567
    endloop
  endfacet
  facet normal -0.819152 0 0.573577
    outer loop
      vertex 0 29 6
      vertex 9.80291 29 20
      vertex 9.80291 35 20
    endloop
  endfacet
  facet normal -0.819152 0 0.573577
    outer loop
      vertex 0 29 6
      vertex 9.80291 35 20
      vertex 0 35 6
    endloop
  endfacet
  facet normal 0 1 0
    outer loop
      vertex 0 35 6
      vertex 9.80291 35 20
      vertex 11 35 0
    endloop
  endfacet
  facet normal 0 0 -1
    outer loop
      vertex 0 9 0
      vertex 0 15 0
      vertex 6.5 9 0
    endloop
  endfacet
  facet normal -1 0 0
    outer loop
      vertex 0 9 0
      vertex 0 15 6
      vertex 0 15 0
    endloop
  endfacet
  facet normal -1 -0 0
    outer loop
      vertex 0 9 0
      vertex 0 9 6
      vertex 0 15 6
    endloop
  endfacet
  facet normal 0 -1 -0
    outer loop
      vertex 0 9 0
      vertex 6.5 9 0
      vertex 6.5 9 6
    endloop
  endfacet
  facet normal 0 -1 0
    outer loop
      vertex 0 9 0
      vertex 6.5 9 6
      vertex 0 9 6
    endloop
  endfacet
  facet normal 0 -1 0
    outer loop
      vertex 0 9 6
      vertex 6.5 9 6
      vertex 7.98179 9 11.6832
    endloop
  endfacet
  facet normal 0 -1 0
    outer loop
      vertex 0 9 6
      vertex 7.825 9 13.175
      vertex 7.98179 9 14.6668
    endloop
  endfacet
  facet normal 0 -1 -0
    outer loop
      vertex 0 9 6
      vertex 7.98179 9 11.6832
      vertex 7.825 9 13.175
    endloop
  endfacet
  facet normal 0 -1 0
    outer loop
      vertex 0 9 6
      vertex 7.98179 9 14.6668
      vertex 8.44531 9 16.0933
    endloop
  endfacet
  facet normal 0 -1 0
    outer loop
      vertex 0 9 6
      vertex 8.44531 9 16.0933
      vertex 9.80291 9 20
    endloop
  endfacet
  facet normal -0.819152 0 0.573577
    outer loop
      vertex 0 9 6
      vertex 9.80291 15 20
      vertex 0 15 6
    endloop
  endfacet
  facet normal -0.819152 0 0.573577
    outer loop
      vertex 0 9 6
      vertex 9.80291 9 20
      vertex 9.80291 15 20
    endloop
  endfacet
  facet normal 0 -1 0
    outer loop
      vertex 10.199 12.6 18.5071
      vertex 12.9257 12.6 15.4787
      vertex 13.45 12.6 15.8597
    endloop
  endfacet
  facet normal 0 -1 0
    outer loop
      vertex 10.199 12.6 18.5071
      vertex 13.45 12.6 15.8597
      vertex 11.4125 12.6 19.3887
    endloop
  endfacet
  facet normal 0 -1 0
    outer loop
      vertex 10.199 12.6 7.84294
      vertex 11.4125 12.6 6.96127
      vertex 13.45 12.6 10.4903
    endloop
  endfacet
  facet normal 0.58779 0 0.809014
    outer loop
      vertex 10.199 12.6 7.84294
      vertex 11.4125 9 6.96127
      vertex 11.4125 12.6 6.96127
    endloop
  endfacet
  facet normal 0 -1 -0
    outer loop
      vertex 10.199 12.6 7.84294
      vertex 13.45 12.6 10.4903
      vertex 12.9257 12.6 10.8713
    endloop
  endfacet
  facet normal 0.587759 0 -0.809036
    outer loop
      vertex 10.199 29 18.5071
      vertex 10.199 32.6 18.5071
      vertex 11.4125 32.6 19.3887
    endloop
  endfacet
  facet normal 0.587759 0 -0.809036
    outer loop
      vertex 10.199 29 18.5071
      vertex 11.4125 32.6 19.3887
      vertex 11.4125 29 19.3887
    endloop
  endfacet
  facet normal 0.58779 0 0.809014
    outer loop
      vertex 10.199 29 7.84294
      vertex 11.4125 29 6.96127
      vertex 10.199 32.6 7.84294
    endloop
  endfacet
  facet normal 0 -1 0
    outer loop
      vertex 10.199 32.6 18.5071
      vertex 12.9257 32.6 15.4787
      vertex 13.45 32.6 15.8597
    endloop
  endfacet
  facet normal 0 -1 0
    outer loop
      vertex 10.199 32.6 18.5071
      vertex 13.45 32.6 15.8597
      vertex 11.4125 32.6 19.3887
    endloop
  endfacet
  facet normal 0.58779 0 0.809014
    outer loop
      vertex 10.199 32.6 7.84294
      vertex 11.4125 29 6.96127
      vertex 11.4125 32.6 6.96127
    endloop
  endfacet
  facet normal 0 -1 0
    outer loop
      vertex 10.199 32.6 7.84294
      vertex 11.4125 32.6 6.96127
      vertex 13.45 32.6 10.4903
    endloop
  endfacet
  facet normal 0 -1 -0
    outer loop
      vertex 10.199 32.6 7.84294
      vertex 13.45 32.6 10.4903
      vertex 12.9257 32.6 10.8713
    endloop
  endfacet
  facet normal 0.587759 0 -0.809036
    outer loop
      vertex 10.199 9 18.5071
      vertex 10.199 12.6 18.5071
      vertex 11.4125 12.6 19.3887
    endloop
  endfacet
  facet normal 0.587759 0 -0.809036
    outer loop
      vertex 10.199 9 18.5071
      vertex 11.4125 12.6 19.3887
      vertex 11.4125 9 19.3887
    endloop
  endfacet
  facet normal 0.58779 0 0.809014
    outer loop
      vertex 10.199 9 7.84294
      vertex 11.4125 9 6.96127
      vertex 10.199 12.6 7.84294
    endloop
  endfacet
  facet normal -1 -0 0
    outer loop
      vertex 11 15 0
      vertex 11 15 20
      vertex 11 17 20
    endloop
  endfacet
  facet normal -0 0 -1
    outer loop
      vertex 11 15 0
      vertex 11 17 0
      vertex 19 17 0
    endloop
  endfacet
  facet normal -1 0 0
    outer loop
      vertex 11 15 0
      vertex 11 17 20
      vertex 11 17 0
    endloop
  endfacet
  facet normal 0 0 -1
    outer loop
      vertex 11 15 0
      vertex 19 17 0
      vertex 19 15 0
    endloop
  endfacet
  facet normal -0 0 1
    outer loop
      vertex 11 15 20
      vertex 12.7883 12.6 20
      vertex 11 17 20
    endloop
  endfacet
  facet normal 0 1 0
    outer loop
      vertex 11 17 0
      vertex 11 17 20
      vertex 11.9 17 13.175
    endloop
  endfacet
  facet normal 0 1 0
    outer loop
      vertex 11 17 0
      vertex 11.9 17 13.175
      vertex 11.9677 17 12.5305
    endloop
  endfacet
  facet normal 0 1 0
    outer loop
      vertex 11 17 0
      vertex 11.9677 17 12.5305
      vertex 12.168 17 11.9141
    endloop
  endfacet
  facet normal 0 1 0
    outer loop
      vertex 11 17 0
      vertex 12.168 17 11.9141
      vertex 12.492 17 11.3529
    endloop
  endfacet
  facet normal 0 1 0
    outer loop
      vertex 11 17 0
      vertex 12.492 17 11.3529
      vertex 12.9257 17 10.8713
    endloop
  endfacet
  facet normal 0 1 0
    outer loop
      vertex 11 17 0
      vertex 12.9257 17 10.8713
      vertex 13.45 17 10.4903
    endloop
  endfacet
  facet normal 0 1 0
    outer loop
      vertex 11 17 0
      vertex 13.45 17 10.4903
      vertex 14.042 17 10.2267
    endloop
  endfacet
  facet normal 0 1 0
    outer loop
      vertex 11 17 0
      vertex 14.042 17 10.2267
      vertex 14.676 17 10.092
    endloop
  endfacet
  facet normal 0 1 0
    outer loop
      vertex 11 17 0
      vertex 14.676 17 10.092
      vertex 19 17 0
    endloop
  endfacet
  facet normal 0 1 -0
    outer loop
      vertex 11 17 20
      vertex 11.9677 17 13.8195
      vertex 11.9 17 13.175
    endloop
  endfacet
  facet normal 0 1 -0
    outer loop
      vertex 11 17 20
      vertex 12.168 17 14.4359
      vertex 11.9677 17 13.8195
    endloop
  endfacet
  facet normal 0 1 -0
    outer loop
      vertex 11 17 20
      vertex 12.492 17 14.9971
      vertex 12.168 17 14.4359
    endloop
  endfacet
  facet normal -0 0 1
    outer loop
      vertex 11 17 20
      vertex 12.7883 12.6 20
      vertex 19 17 20
    endloop
  endfacet
  facet normal 0 1 -0
    outer loop
      vertex 11 17 20
      vertex 12.9257 17 15.4787
      vertex 12.492 17 14.9971
    endloop
  endfacet
  facet normal 0 1 -0
    outer loop
      vertex 11 17 20
      vertex 13.45 17 15.8597
      vertex 12.9257 17 15.4787
    endloop
  endfacet
  facet normal 0 1 -0
    outer loop
      vertex 11 17 20
      vertex 14.042 17 16.1233
      vertex 13.45 17 15.8597
    endloop
  endfacet
  facet normal 0 1 -0
    outer loop
      vertex 11 17 20
      vertex 14.676 17 16.258
      vertex 14.042 17 16.1233
    endloop
  endfacet
  facet normal 0 1 -0
    outer loop
      vertex 11 17 20
      vertex 15.324 17 16.258
      vertex 14.676 17 16.258
    endloop
  endfacet
  facet normal 0 1 0
    outer loop
      vertex 11 17 20
      vertex 19 17 20
      vertex 15.324 17 16.258
    endloop
  endfacet
  facet normal -1 -0 0
    outer loop
      vertex 11 35 0
      vertex 11 35 20
      vertex 11 37 20
    endloop
  endfacet
  facet normal -0 0 -1
    outer loop
      vertex 11 35 0
      vertex 11 37 0
      vertex 19 37 0
    endloop
  endfacet
  facet normal -1 0 0
    outer loop
      vertex 11 35 0
      vertex 11 37 20
      vertex 11 37 0
    endloop
  endfacet
  facet normal 0 0 -1
    outer loop
      vertex 11 35 0
      vertex 19 37 0
      vertex 19 35 0
    endloop
  endfacet
  facet normal -0 0 1
    outer loop
      vertex 11 35 20
      vertex 12.7883 32.6 20
      vertex 11 37 20
    endloop
  endfacet
  facet normal 0 1 0
    outer loop
      vertex 11 37 0
      vertex 11 37 20
      vertex 11.9 37 13.175
    endloop
  endfacet
  facet normal 0 1 0
    outer loop
      vertex 11 37 0
      vertex 11.9 37 13.175
      vertex 11.9677 37 12.5305
    endloop
  endfacet
  facet normal 0 1 0
    outer loop
      vertex 11 37 0
      vertex 11.9677 37 12.5305
      vertex 12.168 37 11.9141
    endloop
  endfacet
  facet normal 0 1 0
    outer loop
      vertex 11 37 0
      vertex 12.168 37 11.9141
      vertex 12.492 37 11.3529
    endloop
  endfacet
  facet normal 0 1 0
    outer loop
      vertex 11 37 0
      vertex 12.492 37 11.3529
      vertex 12.9257 37 10.8713
    endloop
  endfacet
  facet normal 0 1 0
    outer loop
      vertex 11 37 0
      vertex 12.9257 37 10.8713
      vertex 13.45 37 10.4903
    endloop
  endfacet
  facet normal 0 1 0
    outer loop
      vertex 11 37 0
      vertex 13.45 37 10.4903
      vertex 14.042 37 10.2267
    endloop
  endfacet
  facet normal 0 1 0
    outer loop
      vertex 11 37 0
      vertex 14.042 37 10.2267
      vertex 14.676 37 10.092
    endloop
  endfacet
  facet normal 0 1 0
    outer loop
      vertex 11 37 0
      vertex 14.676 37 10.092
      vertex 19 37 0
    endloop
  endfacet
  facet normal 0 1 -0
    outer loop
      vertex 11 37 20
      vertex 11.9677 37 13.8195
      vertex 11.9 37 13.175
    endloop
  endfacet
  facet normal 0 1 -0
    outer loop
      vertex 11 37 20
      vertex 12.168 37 14.4359
      vertex 11.9677 37 13.8195
    endloop
  endfacet
  facet normal 0 1 -0
    outer loop
      vertex 11 37 20
      vertex 12.492 37 14.9971
      vertex 12.168 37 14.4359
    endloop
  endfacet
  facet normal -0 0 1
    outer loop
      vertex 11 37 20
      vertex 12.7883 32.6 20
      vertex 19 37 20
    endloop
  endfacet
  facet normal 0 1 -0
    outer loop
      vertex 11 37 20
      vertex 12.9257 37 15.4787
      vertex 12.492 37 14.9971
    endloop
  endfacet
  facet normal 0 1 -0
    outer loop
      vertex 11 37 20
      vertex 13.45 37 15.8597
      vertex 12.9257 37 15.4787
    endloop
  endfacet
  facet normal 0 1 -0
    outer loop
      vertex 11 37 20
      vertex 14.042 37 16.1233
      vertex 13.45 37 15.8597
    endloop
  endfacet
  facet normal 0 1 -0
    outer loop
      vertex 11 37 20
      vertex 14.676 37 16.258
      vertex 14.042 37 16.1233
    endloop
  endfacet
  facet normal 0 1 -0
    outer loop
      vertex 11 37 20
      vertex 15.324 37 16.258
      vertex 14.676 37 16.258
    endloop
  endfacet
  facet normal 0 1 0
    outer loop
      vertex 11 37 20
      vertex 19 37 20
      vertex 15.324 37 16.258
    endloop
  endfacet
  facet normal 0 -1 0
    outer loop
      vertex 11.4125 12.6 19.3887
      vertex 13.45 12.6 15.8597
      vertex 14.042 12.6 16.1233
    endloop
  endfacet
  facet normal 0 -1 0
    outer loop
      vertex 11.4125 12.6 19.3887
      vertex 14.042 12.6 16.1233
      vertex 12.7828 12.6 19.9988
    endloop
  endfacet
  facet normal 0 -1 0
    outer loop
      vertex 11.4125 12.6 6.96127
      vertex 12.7828 12.6 6.35117
      vertex 14.042 12.6 10.2267
    endloop
  endfacet
  facet normal 0.406738 0 0.913545
    outer loop
      vertex 11.4125 12.6 6.96127
      vertex 12.7828 9 6.35117
      vertex 12.7828 12.6 6.35117
    endloop
  endfacet
  facet normal 0 -1 -0
    outer loop
      vertex 11.4125 12.6 6.96127
      vertex 14.042 12.6 10.2267
      vertex 13.45 12.6 10.4903
    endloop
  endfacet
  facet normal 0.406738 0 -0.913545
    outer loop
      vertex 11.4125 29 19.3887
      vertex 11.4125 32.6 19.3887
      vertex 12.7828 32.6 19.9988
    endloop
  endfacet
  facet normal 0.406738 0 -0.913545
    outer loop
      vertex 11.4125 29 19.3887
      vertex 12.7828 32.6 19.9988
      vertex 12.7828 29 19.9988
    endloop
  endfacet
  facet normal 0.406738 0 0.913545
    outer loop
      vertex 11.4125 29 6.96127
      vertex 12.7828 29 6.35117
      vertex 11.4125 32.6 6.96127
    endloop
  endfacet
  facet normal 0 -1 0
    outer loop
      vertex 11.4125 32.6 19.3887
      vertex 13.45 32.6 15.8597
      vertex 14.042 32.6 16.1233
    endloop
  endfacet
  facet normal 0 -1 0
    outer loop
      vertex 11.4125 32.6 19.3887
      vertex 14.042 32.6 16.1233
      vertex 12.7828 32.6 19.9988
    endloop
  endfacet
  facet normal 0.406738 0 0.913545
    outer loop
      vertex 11.4125 32.6 6.96127
      vertex 12.7828 29 6.35117
      vertex 12.7828 32.6 6.35117
    endloop
  endfacet
  facet normal 0 -1 0
    outer loop
      vertex 11.4125 32.6 6.96127
      vertex 12.7828 32.6 6.35117
      vertex 14.042 32.6 10.2267
    endloop
  endfacet
  facet normal 0 -1 -0
    outer loop
      vertex 11.4125 32.6 6.96127
      vertex 14.042 32.6 10.2267
      vertex 13.45 32.6 10.4903
    endloop
  endfacet
  facet normal 0.406738 0 -0.913545
    outer loop
      vertex 11.4125 9 19.3887
      vertex 11.4125 12.6 19.3887
      vertex 12.7828 12.6 19.9988
    endloop
  endfacet
  facet normal 0.406738 0 -0.913545
    outer loop
      vertex 11.4125 9 19.3887
      vertex 12.7828 12.6 19.9988
      vertex 12.7828 9 19.9988
    endloop
  endfacet
  facet normal 0.406738 0 0.913545
    outer loop
      vertex 11.4125 9 6.96127
      vertex 12.7828 9 6.35117
      vertex 11.4125 12.6 6.96127
    endloop
  endfacet
  facet normal 0.994528 0 -0.104468
    outer loop
      vertex 11.9 12.6 13.175
      vertex 11.9 17 13.175
      vertex 11.9677 12.6 13.8195
    endloop
  endfacet
  facet normal 0.994528 0 0.104468
    outer loop
      vertex 11.9 12.6 13.175
      vertex 11.9677 12.6 12.5305
      vertex 11.9677 17 12.5305
    endloop
  endfacet
  facet normal 0.994528 -0 0.104468
    outer loop
      vertex 11.9 12.6 13.175
      vertex 11.9677 17 12.5305
      vertex 11.9 17 13.175
    endloop
  endfacet
  facet normal 0.994528 0 -0.104468
    outer loop
      vertex 11.9 17 13.175
      vertex 11.9677 17 13.8195
      vertex 11.9677 12.6 13.8195
    endloop
  endfacet
  facet normal 0.994528 0 -0.104468
    outer loop
      vertex 11.9 32.6 13.175
      vertex 11.9 37 13.175
      vertex 11.9677 32.6 13.8195
    endloop
  endfacet
  facet normal 0.994528 0 0.104468
    outer loop
      vertex 11.9 32.6 13.175
      vertex 11.9677 32.6 12.5305
      vertex 11.9677 37 12.5305
    endloop
  endfacet
  facet normal 0.994528 -0 0.104468
    outer loop
      vertex 11.9 32.6 13.175
      vertex 11.9677 37 12.5305
      vertex 11.9 37 13.175
    endloop
  endfacet
  facet normal 0.994528 0 -0.104468
    outer loop
      vertex 11.9 37 13.175
      vertex 11.9677 37 13.8195
      vertex 11.9677 32.6 13.8195
    endloop
  endfacet
  facet normal 0.951048 0 0.309044
    outer loop
      vertex 11.9677 12.6 12.5305
      vertex 12.168 12.6 11.9141
      vertex 12.168 17 11.9141
    endloop
  endfacet
  facet normal 0.951048 -0 0.309044
    outer loop
      vertex 11.9677 12.6 12.5305
      vertex 12.168 17 11.9141
      vertex 11.9677 17 12.5305
    endloop
  endfacet
  facet normal 0.951048 0 -0.309044
    outer loop
      vertex 11.9677 12.6 13.8195
      vertex 11.9677 17 13.8195
      vertex 12.168 12.6 14.4359
    endloop
  endfacet
  facet normal 0.951048 0 -0.309044
    outer loop
      vertex 11.9677 17 13.8195
      vertex 12.168 17 14.4359
      vertex 12.168 12.6 14.4359
    endloop
  endfacet
  facet normal 0.951048 0 0.309044
    outer loop
      vertex 11.9677 32.6 12.5305
      vertex 12.168 32.6 11.9141
      vertex 12.168 37 11.9141
    endloop
  endfacet
  facet normal 0.951048 -0 0.309044
    outer loop
      vertex 11.9677 32.6 12.5305
      vertex 12.168 37 11.9141
      vertex 11.9677 37 12.5305
    endloop
  endfacet
  facet normal 0.951048 0 -0.309044
    outer loop
      vertex 11.9677 32.6 13.8195
      vertex 11.9677 37 13.8195
      vertex 12.168 32.6 14.4359
    endloop
  endfacet
  facet normal 0.951048 0 -0.309044
    outer loop
      vertex 11.9677 37 13.8195
      vertex 12.168 37 14.4359
      vertex 12.168 32.6 14.4359
    endloop
  endfacet
  facet normal 0.866031 0 0.49999
    outer loop
      vertex 12.168 12.6 11.9141
      vertex 12.492 12.6 11.3529
      vertex 12.492 17 11.3529
    endloop
  endfacet
  facet normal 0.866031 -0 0.49999
    outer loop
      vertex 12.168 12.6 11.9141
      vertex 12.492 17 11.3529
      vertex 12.168 17 11.9141
    endloop
  endfacet
  facet normal 0.866031 0 -0.49999
    outer loop
      vertex 12.168 12.6 14.4359
      vertex 12.168 17 14.4359
      vertex 12.492 12.6 14.9971
    endloop
  endfacet
  facet normal 0.866031 0 -0.49999
    outer loop
      vertex 12.168 17 14.4359
      vertex 12.492 17 14.9971
      vertex 12.492 12.6 14.9971
    endloop
  endfacet
  facet normal 0.866031 0 0.49999
    outer loop
      vertex 12.168 32.6 11.9141
      vertex 12.492 32.6 11.3529
      vertex 12.492 37 11.3529
    endloop
  endfacet
  facet normal 0.866031 -0 0.49999
    outer loop
      vertex 12.168 32.6 11.9141
      vertex 12.492 37 11.3529
      vertex 12.168 37 11.9141
    endloop
  endfacet
  facet normal 0.866031 0 -0.49999
    outer loop
      vertex 12.168 32.6 14.4359
      vertex 12.168 37 14.4359
      vertex 12.492 32.6 14.9971
    endloop
  endfacet
  facet normal 0.866031 0 -0.49999
    outer loop
      vertex 12.168 37 14.4359
      vertex 12.492 37 14.9971
      vertex 12.492 32.6 14.9971
    endloop
  endfacet
  facet normal 0.743095 0 0.669186
    outer loop
      vertex 12.492 12.6 11.3529
      vertex 12.9257 12.6 10.8713
      vertex 12.9257 17 10.8713
    endloop
  endfacet
  facet normal 0.743095 -0 0.669186
    outer loop
      vertex 12.492 12.6 11.3529
      vertex 12.9257 17 10.8713
      vertex 12.492 17 11.3529
    endloop
  endfacet
  facet normal 0.743095 0 -0.669186
    outer loop
      vertex 12.492 12.6 14.9971
      vertex 12.492 17 14.9971
      vertex 12.9257 12.6 15.4787
    endloop
  endfacet
  facet normal 0.743095 0 -0.669186
    outer loop
      vertex 12.492 17 14.9971
      vertex 12.9257 17 15.4787
      vertex 12.9257 12.6 15.4787
    endloop
  endfacet
  facet normal 0.743095 0 0.669186
    outer loop
      vertex 12.492 32.6 11.3529
      vertex 12.9257 32.6 10.8713
      vertex 12.9257 37 10.8713
    endloop
  endfacet
  facet normal 0.743095 -0 0.669186
    outer loop
      vertex 12.492 32.6 11.3529
      vertex 12.9257 37 10.8713
      vertex 12.492 37 11.3529
    endloop
  endfacet
  facet normal 0.743095 0 -0.669186
    outer loop
      vertex 12.492 32.6 14.9971
      vertex 12.492 37 14.9971
      vertex 12.9257 32.6 15.4787
    endloop
  endfacet
  facet normal 0.743095 0 -0.669186
    outer loop
      vertex 12.492 37 14.9971
      vertex 12.9257 37 15.4787
      vertex 12.9257 32.6 15.4787
    endloop
  endfacet
  facet normal 0 -1 0
    outer loop
      vertex 12.7828 12.6 19.9988
      vertex 14.042 12.6 16.1233
      vertex 12.7883 12.6 20
    endloop
  endfacet
  facet normal 0 -1 0
    outer loop
      vertex 12.7828 12.6 6.35117
      vertex 14.25 12.6 6.0393
      vertex 14.676 12.6 10.092
    endloop
  endfacet
  facet normal 0.207916 0 0.978147
    outer loop
      vertex 12.7828 12.6 6.35117
      vertex 14.25 9 6.0393
      vertex 14.25 12.6 6.0393
    endloop
  endfacet
  facet normal 0 -1 -0
    outer loop
      vertex 12.7828 12.6 6.35117
      vertex 14.676 12.6 10.092
      vertex 14.042 12.6 10.2267
    endloop
  endfacet
  facet normal 0.213167 0 -0.977016
    outer loop
      vertex 12.7828 29 19.9988
      vertex 12.7828 32.6 19.9988
      vertex 12.7883 32.6 20
    endloop
  endfacet
  facet normal 0.213167 0 -0.977016
    outer loop
      vertex 12.7828 29 19.9988
      vertex 12.7883 32.6 20
      vertex 12.7883 29 20
    endloop
  endfacet
  facet normal 0.207916 0 0.978147
    outer loop
      vertex 12.7828 29 6.35117
      vertex 14.25 29 6.0393
      vertex 12.7828 32.6 6.35117
    endloop
  endfacet
  facet normal 0 -1 0
    outer loop
      vertex 12.7828 32.6 19.9988
      vertex 14.042 32.6 16.1233
      vertex 12.7883 32.6 20
    endloop
  endfacet
  facet normal 0.207916 0 0.978147
    outer loop
      vertex 12.7828 32.6 6.35117
      vertex 14.25 29 6.0393
      vertex 14.25 32.6 6.0393
    endloop
  endfacet
  facet normal 0 -1 0
    outer loop
      vertex 12.7828 32.6 6.35117
      vertex 14.25 32.6 6.0393
      vertex 14.676 32.6 10.092
    endloop
  endfacet
  facet normal 0 -1 -0
    outer loop
      vertex 12.7828 32.6 6.35117
      vertex 14.676 32.6 10.092
      vertex 14.042 32.6 10.2267
    endloop
  endfacet
  facet normal 0.213167 0 -0.977016
    outer loop
      vertex 12.7828 9 19.9988
      vertex 12.7828 12.6 19.9988
      vertex 12.7883 12.6 20
    endloop
  endfacet
  facet normal 0.213167 0 -0.977016
    outer loop
      vertex 12.7828 9 19.9988
      vertex 12.7883 12.6 20
      vertex 12.7883 9 20
    endloop
  endfacet
  facet normal 0.207916 0 0.978147
    outer loop
      vertex 12.7828 9 6.35117
      vertex 14.25 9 6.0393
      vertex 12.7828 12.6 6.35117
    endloop
  endfacet
  facet normal 0 -1 0
    outer loop
      vertex 12.7883 12.6 20
      vertex 14.042 12.6 16.1233
      vertex 14.676 12.6 16.258
    endloop
  endfacet
  facet normal 0 -1 0
    outer loop
      vertex 12.7883 12.6 20
      vertex 14.676 12.6 16.258
      vertex 17.2117 12.6 20
    endloop
  endfacet
  facet normal 0 0 1
    outer loop
      vertex 12.7883 12.6 20
      vertex 17.2117 12.6 20
      vertex 19 17 20
    endloop
  endfacet
  facet normal 0 -1 0
    outer loop
      vertex 12.7883 32.6 20
      vertex 14.042 32.6 16.1233
      vertex 14.676 32.6 16.258
    endloop
  endfacet
  facet normal 0 -1 0
    outer loop
      vertex 12.7883 32.6 20
      vertex 14.676 32.6 16.258
      vertex 17.2117 32.6 20
    endloop
  endfacet
  facet normal 0 0 1
    outer loop
      vertex 12.7883 32.6 20
      vertex 17.2117 32.6 20
      vertex 19 37 20
    endloop
  endfacet
  facet normal 0.58786 0 0.808963
    outer loop
      vertex 12.9257 12.6 10.8713
      vertex 13.45 12.6 10.4903
      vertex 12.9257 17 10.8713
    endloop
  endfacet
  facet normal 0.58786 0 -0.808963
    outer loop
      vertex 12.9257 12.6 15.4787
      vertex 12.9257 17 15.4787
      vertex 13.45 17 15.8597
    endloop
  endfacet
  facet normal 0.58786 0 -0.808963
    outer loop
      vertex 12.9257 12.6 15.4787
      vertex 13.45 17 15.8597
      vertex 13.45 12.6 15.8597
    endloop
  endfacet
  facet normal 0.58786 0 0.808963
    outer loop
      vertex 12.9257 17 10.8713
      vertex 13.45 12.6 10.4903
      vertex 13.45 17 10.4903
    endloop
  endfacet
  facet normal 0.58786 0 0.808963
    outer loop
      vertex 12.9257 32.6 10.8713
      vertex 13.45 32.6 10.4903
      vertex 12.9257 37 10.8713
    endloop
  endfacet
  facet normal 0.58786 0 -0.808963
    outer loop
      vertex 12.9257 32.6 15.4787
      vertex 12.9257 37 15.4787
      vertex 13.45 37 15.8597
    endloop
  endfacet
  facet normal 0.58786 0 -0.808963
    outer loop
      vertex 12.9257 32.6 15.4787
      vertex 13.45 37 15.8597
      vertex 13.45 32.6 15.8597
    endloop
  endfacet
  facet normal 0.58786 0 0.808963
    outer loop
      vertex 12.9257 37 10.8713
      vertex 13.45 32.6 10.4903
      vertex 13.45 37 10.4903
    endloop
  endfacet
  facet normal 0.406768 0 0.913531
    outer loop
      vertex 13.45 12.6 10.4903
      vertex 14.042 12.6 10.2267
      vertex 13.45 17 10.4903
    endloop
  endfacet
  facet normal 0.406768 0 -0.913531
    outer loop
      vertex 13.45 12.6 15.8597
      vertex 13.45 17 15.8597
      vertex 14.042 17 16.1233
    endloop
  endfacet
  facet normal 0.406768 0 -0.913531
    outer loop
      vertex 13.45 12.6 15.8597
      vertex 14.042 17 16.1233
      vertex 14.042 12.6 16.1233
    endloop
  endfacet
  facet normal 0.406768 0 0.913531
    outer loop
      vertex 13.45 17 10.4903
      vertex 14.042 12.6 10.2267
      vertex 14.042 17 10.2267
    endloop
  endfacet
  facet normal 0.406768 0 0.913531
    outer loop
      vertex 13.45 32.6 10.4903
      vertex 14.042 32.6 10.2267
      vertex 13.45 37 10.4903
    endloop
  endfacet
  facet normal 0.406768 0 -0.913531
    outer loop
      vertex 13.45 32.6 15.8597
      vertex 13.45 37 15.8597
      vertex 14.042 37 16.1233
    endloop
  endfacet
  facet normal 0.406768 0 -0.913531
    outer loop
      vertex 13.45 32.6 15.8597
      vertex 14.042 37 16.1233
      vertex 14.042 32.6 16.1233
    endloop
  endfacet
  facet normal 0.406768 0 0.913531
    outer loop
      vertex 13.45 37 10.4903
      vertex 14.042 32.6 10.2267
      vertex 14.042 37 10.2267
    endloop
  endfacet
  facet normal 0.207822 0 0.978167
    outer loop
      vertex 14.042 12.6 10.2267
      vertex 14.676 12.6 10.092
      vertex 14.042 17 10.2267
    endloop
  endfacet
  facet normal 0.207822 0 -0.978167
    outer loop
      vertex 14.042 12.6 16.1233
      vertex 14.042 17 16.1233
      vertex 14.676 17 16.258
    endloop
  endfacet
  facet normal 0.207822 0 -0.978167
    outer loop
      vertex 14.042 12.6 16.1233
      vertex 14.676 17 16.258
      vertex 14.676 12.6 16.258
    endloop
  endfacet
  facet normal 0.207822 0 0.978167
    outer loop
      vertex 14.042 17 10.2267
      vertex 14.676 12.6 10.092
      vertex 14.676 17 10.092
    endloop
  endfacet
  facet normal 0.207822 0 0.978167
    outer loop
      vertex 14.042 32.6 10.2267
      vertex 14.676 32.6 10.092
      vertex 14.042 37 10.2267
    endloop
  endfacet
  facet normal 0.207822 0 -0.978167
    outer loop
      vertex 14.042 32.6 16.1233
      vertex 14.042 37 16.1233
      vertex 14.676 37 16.258
    endloop
  endfacet
  facet normal 0.207822 0 -0.978167
    outer loop
      vertex 14.042 32.6 16.1233
      vertex 14.676 37 16.258
      vertex 14.676 32.6 16.258
    endloop
  endfacet
  facet normal 0.207822 0 0.978167
    outer loop
      vertex 14.042 37 10.2267
      vertex 14.676 32.6 10.092
      vertex 14.676 37 10.092
    endloop
  endfacet
  facet normal 0 -1 -0
    outer loop
      vertex 14.25 12.6 6.0393
      vertex 15.324 12.6 10.092
      vertex 14.676 12.6 10.092
    endloop
  endfacet
  facet normal 0 -1 0
    outer loop
      vertex 14.25 12.6 6.0393
      vertex 15.75 12.6 6.0393
      vertex 15.324 12.6 10.092
    endloop
  endfacet
  facet normal -0 0 1
    outer loop
      vertex 14.25 12.6 6.0393
      vertex 15.75 9 6.0393
      vertex 15.75 12.6 6.0393
    endloop
  endfacet
  facet normal 0 0 1
    outer loop
      vertex 14.25 29 6.0393
      vertex 15.75 29 6.0393
      vertex 14.25 32.6 6.0393
    endloop
  endfacet
  facet normal 0 -1 -0
    outer loop
      vertex 14.25 32.6 6.0393
      vertex 15.324 32.6 10.092
      vertex 14.676 32.6 10.092
    endloop
  endfacet
  facet normal -0 0 1
    outer loop
      vertex 14.25 32.6 6.0393
      vertex 15.75 29 6.0393
      vertex 15.75 32.6 6.0393
    endloop
  endfacet
  facet normal 0 -1 0
    outer loop
      vertex 14.25 32.6 6.0393
      vertex 15.75 32.6 6.0393
      vertex 15.324 32.6 10.092
    endloop
  endfacet
  facet normal 0 0 1
    outer loop
      vertex 14.25 9 6.0393
      vertex 15.75 9 6.0393
      vertex 14.25 12.6 6.0393
    endloop
  endfacet
  facet normal 0 0 1
    outer loop
      vertex 14.676 12.6 10.092
      vertex 15.324 12.6 10.092
      vertex 14.676 17 10.092
    endloop
  endfacet
  facet normal -0 0 -1
    outer loop
      vertex 14.676 12.6 16.258
      vertex 14.676 17 16.258
      vertex 15.324 17 16.258
    endloop
  endfacet
  facet normal 0 -1 0
    outer loop
      vertex 14.676 12.6 16.258
      vertex 15.324 12.6 16.258
      vertex 17.2117 12.6 20
    endloop
  endfacet
  facet normal 0 0 -1
    outer loop
      vertex 14.676 12.6 16.258
      vertex 15.324 17 16.258
      vertex 15.324 12.6 16.258
    endloop
  endfacet
  facet normal -0 0 1
    outer loop
      vertex 14.676 17 10.092
      vertex 15.324 12.6 10.092
      vertex 15.324 17 10.092
    endloop
  endfacet
  facet normal 0 1 0
    outer loop
      vertex 14.676 17 10.092
      vertex 15.324 17 10.092
      vertex 19 17 0
    endloop
  endfacet
  facet normal 0 0 1
    outer loop
      vertex 14.676 32.6 10.092
      vertex 15.324 32.6 10.092
      vertex 14.676 37 10.092
    endloop
  endfacet
  facet normal -0 0 -1
    outer loop
      vertex 14.676 32.6 16.258
      vertex 14.676 37 16.258
      vertex 15.324 37 16.258
    endloop
  endfacet
  facet normal 0 -1 0
    outer loop
      vertex 14.676 32.6 16.258
      vertex 15.324 32.6 16.258
      vertex 17.2117 32.6 20
    endloop
  endfacet
  facet normal 0 0 -1
    outer loop
      vertex 14.676 32.6 16.258
      vertex 15.324 37 16.258
      vertex 15.324 32.6 16.258
    endloop
  endfacet
  facet normal -0 0 1
    outer loop
      vertex 14.676 37 10.092
      vertex 15.324 32.6 10.092
      vertex 15.324 37 10.092
    endloop
  endfacet
  facet normal 0 1 0
    outer loop
      vertex 14.676 37 10.092
      vertex 15.324 37 10.092
      vertex 19 37 0
    endloop
  endfacet
  facet normal 0 -1 0
    outer loop
      vertex 15.324 12.6 10.092
      vertex 15.75 12.6 6.0393
      vertex 17.2172 12.6 6.35117
    endloop
  endfacet
  facet normal -0.207822 0 0.978167
    outer loop
      vertex 15.324 12.6 10.092
      vertex 15.958 12.6 10.2267
      vertex 15.324 17 10.092
    endloop
  endfacet
  facet normal 0 -1 0
    outer loop
      vertex 15.324 12.6 10.092
      vertex 17.2172 12.6 6.35117
      vertex 15.958 12.6 10.2267
    endloop
  endfacet
  facet normal -0.207822 0 -0.978167
    outer loop
      vertex 15.324 12.6 16.258
      vertex 15.324 17 16.258
      vertex 15.958 17 16.1233
    endloop
  endfacet
  facet normal 0 -1 0
    outer loop
      vertex 15.324 12.6 16.258
      vertex 15.958 12.6 16.1233
      vertex 17.2117 12.6 20
    endloop
  endfacet
  facet normal -0.207822 0 -0.978167
    outer loop
      vertex 15.324 12.6 16.258
      vertex 15.958 17 16.1233
      vertex 15.958 12.6 16.1233
    endloop
  endfacet
  facet normal -0.207822 0 0.978167
    outer loop
      vertex 15.324 17 10.092
      vertex 15.958 12.6 10.2267
      vertex 15.958 17 10.2267
    endloop
  endfacet
  facet normal 0 1 0
    outer loop
      vertex 15.324 17 10.092
      vertex 15.958 17 10.2267
      vertex 19 17 0
    endloop
  endfacet
  facet normal 0 1 0
    outer loop
      vertex 15.324 17 16.258
      vertex 19 17 20
      vertex 15.958 17 16.1233
    endloop
  endfacet
  facet normal 0 -1 0
    outer loop
      vertex 15.324 32.6 10.092
      vertex 15.75 32.6 6.0393
      vertex 17.2172 32.6 6.35117
    endloop
  endfacet
  facet normal -0.207822 0 0.978167
    outer loop
      vertex 15.324 32.6 10.092
      vertex 15.958 32.6 10.2267
      vertex 15.324 37 10.092
    endloop
  endfacet
  facet normal 0 -1 0
    outer loop
      vertex 15.324 32.6 10.092
      vertex 17.2172 32.6 6.35117
      vertex 15.958 32.6 10.2267
    endloop
  endfacet
  facet normal -0.207822 0 -0.978167
    outer loop
      vertex 15.324 32.6 16.258
      vertex 15.324 37 16.258
      vertex 15.958 37 16.1233
    endloop
  endfacet
  facet normal 0 -1 0
    outer loop
      vertex 15.324 32.6 16.258
      vertex 15.958 32.6 16.1233
      vertex 17.2117 32.6 20
    endloop
  endfacet
  facet normal -0.207822 0 -0.978167
    outer loop
      vertex 15.324 32.6 16.258
      vertex 15.958 37 16.1233
      vertex 15.958 32.6 16.1233
    endloop
  endfacet
  facet normal -0.207822 0 0.978167
    outer loop
      vertex 15.324 37 10.092
      vertex 15.958 32.6 10.2267
      vertex 15.958 37 10.2267
    endloop
  endfacet
  facet normal 0 1 0
    outer loop
      vertex 15.324 37 10.092
      vertex 15.958 37 10.2267
      vertex 19 37 0
    endloop
  endfacet
  facet normal 0 1 0
    outer loop
      vertex 15.324 37 16.258
      vertex 19 37 20
      vertex 15.958 37 16.1233
    endloop
  endfacet
  facet normal -0.207916 0 0.978147
    outer loop
      vertex 15.75 12.6 6.0393
      vertex 17.2172 9 6.35117
      vertex 17.2172 12.6 6.35117
    endloop
  endfacet
  facet normal -0.207916 0 0.978147
    outer loop
      vertex 15.75 29 6.0393
      vertex 17.2172 29 6.35117
      vertex 15.75 32.6 6.0393
    endloop
  endfacet
  facet normal 0 -1 0
    outer loop
      vertex 15.75 29 6.0393
      vertex 30 29 6
      vertex 17.2172 29 6.35117
    endloop
  endfacet
  facet normal -0.207916 0 0.978147
    outer loop
      vertex 15.75 32.6 6.0393
      vertex 17.2172 29 6.35117
      vertex 17.2172 32.6 6.35117
    endloop
  endfacet
  facet normal -0.207916 0 0.978147
    outer loop
      vertex 15.75 9 6.0393
      vertex 17.2172 9 6.35117
      vertex 15.75 12.6 6.0393
    endloop
  endfacet
  facet normal 0 -1 0
    outer loop
      vertex 15.75 9 6.0393
      vertex 25.5 9 6
      vertex 17.2172 9 6.35117
    endloop
  endfacet
  facet normal -0.406768 0 0.913531
    outer loop
      vertex 15.958 12.6 10.2267
      vertex 16.55 12.6 10.4903
      vertex 15.958 17 10.2267
    endloop
  endfacet
  facet normal 0 -1 0
    outer loop
      vertex 15.958 12.6 10.2267
      vertex 17.2172 12.6 6.35117
      vertex 18.5875 12.6 6.96127
    endloop
  endfacet
  facet normal 0 -1 0
    outer loop
      vertex 15.958 12.6 10.2267
      vertex 18.5875 12.6 6.96127
      vertex 16.55 12.6 10.4903
    endloop
  endfacet
  facet normal -0.406768 0 -0.913531
    outer loop
      vertex 15.958 12.6 16.1233
      vertex 15.958 17 16.1233
      vertex 16.55 17 15.8597
    endloop
  endfacet
  facet normal 0 -1 0
    outer loop
      vertex 15.958 12.6 16.1233
      vertex 16.55 12.6 15.8597
      vertex 18.5875 12.6 19.3887
    endloop
  endfacet
  facet normal -0.406768 0 -0.913531
    outer loop
      vertex 15.958 12.6 16.1233
      vertex 16.55 17 15.8597
      vertex 16.55 12.6 15.8597
    endloop
  endfacet
  facet normal 0 -1 -0
    outer loop
      vertex 15.958 12.6 16.1233
      vertex 17.2172 12.6 19.9988
      vertex 17.2117 12.6 20
    endloop
  endfacet
  facet normal 0 -1 -0
    outer loop
      vertex 15.958 12.6 16.1233
      vertex 18.5875 12.6 19.3887
      vertex 17.2172 12.6 19.9988
    endloop
  endfacet
  facet normal -0.406768 0 0.913531
    outer loop
      vertex 15.958 17 10.2267
      vertex 16.55 12.6 10.4903
      vertex 16.55 17 10.4903
    endloop
  endfacet
  facet normal 0 1 0
    outer loop
      vertex 15.958 17 10.2267
      vertex 16.55 17 10.4903
      vertex 19 17 0
    endloop
  endfacet
  facet normal 0 1 0
    outer loop
      vertex 15.958 17 16.1233
      vertex 19 17 20
      vertex 16.55 17 15.8597
    endloop
  endfacet
  facet normal -0.406768 0 0.913531
    outer loop
      vertex 15.958 32.6 10.2267
      vertex 16.55 32.6 10.4903
      vertex 15.958 37 10.2267
    endloop
  endfacet
  facet normal 0 -1 0
    outer loop
      vertex 15.958 32.6 10.2267
      vertex 17.2172 32.6 6.35117
      vertex 18.5875 32.6 6.96127
    endloop
  endfacet
  facet normal 0 -1 0
    outer loop
      vertex 15.958 32.6 10.2267
      vertex 18.5875 32.6 6.96127
      vertex 16.55 32.6 10.4903
    endloop
  endfacet
  facet normal -0.406768 0 -0.913531
    outer loop
      vertex 15.958 32.6 16.1233
      vertex 15.958 37 16.1233
      vertex 16.55 37 15.8597
    endloop
  endfacet
  facet normal 0 -1 0
    outer loop
      vertex 15.958 32.6 16.1233
      vertex 16.55 32.6 15.8597
      vertex 18.5875 32.6 19.3887
    endloop
  endfacet
  facet normal -0.406768 0 -0.913531
    outer loop
      vertex 15.958 32.6 16.1233
      vertex 16.55 37 15.8597
      vertex 16.55 32.6 15.8597
    endloop
  endfacet
  facet normal 0 -1 -0
    outer loop
      vertex 15.958 32.6 16.1233
      vertex 17.2172 32.6 19.9988
      vertex 17.2117 32.6 20
    endloop
  endfacet
  facet normal 0 -1 -0
    outer loop
      vertex 15.958 32.6 16.1233
      vertex 18.5875 32.6 19.3887
      vertex 17.2172 32.6 19.9988
    endloop
  endfacet
  facet normal -0.406768 0 0.913531
    outer loop
      vertex 15.958 37 10.2267
      vertex 16.55 32.6 10.4903
      vertex 16.55 37 10.4903
    endloop
  endfacet
  facet normal 0 1 0
    outer loop
      vertex 15.958 37 10.2267
      vertex 16.55 37 10.4903
      vertex 19 37 0
    endloop
  endfacet
  facet normal 0 1 0
    outer loop
      vertex 15.958 37 16.1233
      vertex 19 37 20
      vertex 16.55 37 15.8597
    endloop
  endfacet
  facet normal -0.58786 0 0.808963
    outer loop
      vertex 16.55 12.6 10.4903
      vertex 17.0743 12.6 10.8713
      vertex 16.55 17 10.4903
    endloop
  endfacet
  facet normal 0 -1 0
    outer loop
      vertex 16.55 12.6 10.4903
      vertex 18.5875 12.6 6.96127
      vertex 19.801 12.6 7.84294
    endloop
  endfacet
  facet normal 0 -1 0
    outer loop
      vertex 16.55 12.6 10.4903
      vertex 19.801 12.6 7.84294
      vertex 17.0743 12.6 10.8713
    endloop
  endfacet
  facet normal -0.58786 0 -0.808963
    outer loop
      vertex 16.55 12.6 15.8597
      vertex 16.55 17 15.8597
      vertex 17.0743 17 15.4787
    endloop
  endfacet
  facet normal 0 -1 0
    outer loop
      vertex 16.55 12.6 15.8597
      vertex 17.0743 12.6 15.4787
      vertex 19.801 12.6 18.5071
    endloop
  endfacet
  facet normal -0.58786 0 -0.808963
    outer loop
      vertex 16.55 12.6 15.8597
      vertex 17.0743 17 15.4787
      vertex 17.0743 12.6 15.4787
    endloop
  endfacet
  facet normal 0 -1 -0
    outer loop
      vertex 16.55 12.6 15.8597
      vertex 19.801 12.6 18.5071
      vertex 18.5875 12.6 19.3887
    endloop
  endfacet
  facet normal -0.58786 0 0.808963
    outer loop
      vertex 16.55 17 10.4903
      vertex 17.0743 12.6 10.8713
      vertex 17.0743 17 10.8713
    endloop
  endfacet
  facet normal 0 1 0
    outer loop
      vertex 16.55 17 10.4903
      vertex 17.0743 17 10.8713
      vertex 19 17 0
    endloop
  endfacet
  facet normal 0 1 0
    outer loop
      vertex 16.55 17 15.8597
      vertex 19 17 20
      vertex 17.0743 17 15.4787
    endloop
  endfacet
  facet normal -0.58786 0 0.808963
    outer loop
      vertex 16.55 32.6 10.4903
      vertex 17.0743 32.6 10.8713
      vertex 16.55 37 10.4903
    endloop
  endfacet
  facet normal 0 -1 0
    outer loop
      vertex 16.55 32.6 10.4903
      vertex 18.5875 32.6 6.96127
      vertex 19.801 32.6 7.84294
    endloop
  endfacet
  facet normal 0 -1 0
    outer loop
      vertex 16.55 32.6 10.4903
      vertex 19.801 32.6 7.84294
      vertex 17.0743 32.6 10.8713
    endloop
  endfacet
  facet normal -0.58786 0 -0.808963
    outer loop
      vertex 16.55 32.6 15.8597
      vertex 16.55 37 15.8597
      vertex 17.0743 37 15.4787
    endloop
  endfacet
  facet normal 0 -1 0
    outer loop
      vertex 16.55 32.6 15.8597
      vertex 17.0743 32.6 15.4787
      vertex 19.801 32.6 18.5071
    endloop
  endfacet
  facet normal -0.58786 0 -0.808963
    outer loop
      vertex 16.55 32.6 15.8597
      vertex 17.0743 37 15.4787
      vertex 17.0743 32.6 15.4787
    endloop
  endfacet
  facet normal 0 -1 -0
    outer loop
      vertex 16.55 32.6 15.8597
      vertex 19.801 32.6 18.5071
      vertex 18.5875 32.6 19.3887
    endloop
  endfacet
  facet normal -0.58786 0 0.808963
    outer loop
      vertex 16.55 37 10.4903
      vertex 17.0743 32.6 10.8713
      vertex 17.0743 37 10.8713
    endloop
  endfacet
  facet normal 0 1 0
    outer loop
      vertex 16.55 37 10.4903
      vertex 17.0743 37 10.8713
      vertex 19 37 0
    endloop
  endfacet
  facet normal 0 1 0
    outer loop
      vertex 16.55 37 15.8597
      vertex 19 37 20
      vertex 17.0743 37 15.4787
    endloop
  endfacet
  facet normal -0.743095 0 0.669186
    outer loop
      vertex 17.0743 12.6 10.8713
      vertex 17.508 12.6 11.3529
      vertex 17.508 17 11.3529
    endloop
  endfacet
  facet normal -0.743095 0 0.669186
    outer loop
      vertex 17.0743 12.6 10.8713
      vertex 17.508 17 11.3529
      vertex 17.0743 17 10.8713
    endloop
  endfacet
  facet normal 0 -1 0
    outer loop
      vertex 17.0743 12.6 10.8713
      vertex 19.801 12.6 7.84294
      vertex 20.8047 12.6 8.95764
    endloop
  endfacet
  facet normal 0 -1 0
    outer loop
      vertex 17.0743 12.6 10.8713
      vertex 20.8047 12.6 8.95764
      vertex 17.508 12.6 11.3529
    endloop
  endfacet
  facet normal -0.743095 -0 -0.669186
    outer loop
      vertex 17.0743 12.6 15.4787
      vertex 17.0743 17 15.4787
      vertex 17.508 12.6 14.9971
    endloop
  endfacet
  facet normal 0 -1 0
    outer loop
      vertex 17.0743 12.6 15.4787
      vertex 17.508 12.6 14.9971
      vertex 20.8047 12.6 17.3924
    endloop
  endfacet
  facet normal 0 -1 -0
    outer loop
      vertex 17.0743 12.6 15.4787
      vertex 20.8047 12.6 17.3924
      vertex 19.801 12.6 18.5071
    endloop
  endfacet
  facet normal 0 1 0
    outer loop
      vertex 17.0743 17 10.8713
      vertex 17.508 17 11.3529
      vertex 19 17 0
    endloop
  endfacet
  facet normal -0.743095 0 -0.669186
    outer loop
      vertex 17.0743 17 15.4787
      vertex 17.508 17 14.9971
      vertex 17.508 12.6 14.9971
    endloop
  endfacet
  facet normal 0 1 0
    outer loop
      vertex 17.0743 17 15.4787
      vertex 19 17 20
      vertex 17.508 17 14.9971
    endloop
  endfacet
  facet normal -0.743095 0 0.669186
    outer loop
      vertex 17.0743 32.6 10.8713
      vertex 17.508 32.6 11.3529
      vertex 17.508 37 11.3529
    endloop
  endfacet
  facet normal -0.743095 0 0.669186
    outer loop
      vertex 17.0743 32.6 10.8713
      vertex 17.508 37 11.3529
      vertex 17.0743 37 10.8713
    endloop
  endfacet
  facet normal 0 -1 0
    outer loop
      vertex 17.0743 32.6 10.8713
      vertex 19.801 32.6 7.84294
      vertex 20.8047 32.6 8.95764
    endloop
  endfacet
  facet normal 0 -1 0
    outer loop
      vertex 17.0743 32.6 10.8713
      vertex 20.8047 32.6 8.95764
      vertex 17.508 32.6 11.3529
    endloop
  endfacet
  facet normal -0.743095 -0 -0.669186
    outer loop
      vertex 17.0743 32.6 15.4787
      vertex 17.0743 37 15.4787
      vertex 17.508 32.6 14.9971
    endloop
  endfacet
  facet normal 0 -1 0
    outer loop
      vertex 17.0743 32.6 15.4787
      vertex 17.508 32.6 14.9971
      vertex 20.8047 32.6 17.3924
    endloop
  endfacet
  facet normal 0 -1 -0
    outer loop
      vertex 17.0743 32.6 15.4787
      vertex 20.8047 32.6 17.3924
      vertex 19.801 32.6 18.5071
    endloop
  endfacet
  facet normal 0 1 0
    outer loop
      vertex 17.0743 37 10.8713
      vertex 17.508 37 11.3529
      vertex 19 37 0
    endloop
  endfacet
  facet normal -0.743095 0 -0.669186
    outer loop
      vertex 17.0743 37 15.4787
      vertex 17.508 37 14.9971
      vertex 17.508 32.6 14.9971
    endloop
  endfacet
  facet normal 0 1 0
    outer loop
      vertex 17.0743 37 15.4787
      vertex 19 37 20
      vertex 17.508 37 14.9971
    endloop
  endfacet
  facet normal 0 0 1
    outer loop
      vertex 17.2117 12.6 20
      vertex 19 15 20
      vertex 19 17 20
    endloop
  endfacet
  facet normal 0 0 1
    outer loop
      vertex 17.2117 12.6 20
      vertex 20.1971 15 20
      vertex 19 15 20
    endloop
  endfacet
  facet normal 0 0 1
    outer loop
      vertex 17.2117 12.6 20
      vertex 20.1971 9 20
      vertex 20.1971 15 20
    endloop
  endfacet
  facet normal -0.213167 0 -0.977016
    outer loop
      vertex 17.2117 29 20
      vertex 17.2117 32.6 20
      vertex 17.2172 32.6 19.9988
    endloop
  endfacet
  facet normal 0 -1 0
    outer loop
      vertex 17.2117 29 20
      vertex 17.2172 29 19.9988
      vertex 20.1971 29 20
    endloop
  endfacet
  facet normal -0.213167 0 -0.977016
    outer loop
      vertex 17.2117 29 20
      vertex 17.2172 32.6 19.9988
      vertex 17.2172 29 19.9988
    endloop
  endfacet
  facet normal 0 0 1
    outer loop
      vertex 17.2117 29 20
      vertex 20.1971 29 20
      vertex 17.2117 32.6 20
    endloop
  endfacet
  facet normal 0 0 1
    outer loop
      vertex 17.2117 32.6 20
      vertex 19 35 20
      vertex 19 37 20
    endloop
  endfacet
  facet normal 0 0 1
    outer loop
      vertex 17.2117 32.6 20
      vertex 20.1971 29 20
      vertex 20.1971 35 20
    endloop
  endfacet
  facet normal 0 0 1
    outer loop
      vertex 17.2117 32.6 20
      vertex 20.1971 35 20
      vertex 19 35 20
    endloop
  endfacet
  facet normal -0.213167 0 -0.977016
    outer loop
      vertex 17.2117 9 20
      vertex 17.2117 12.6 20
      vertex 17.2172 12.6 19.9988
    endloop
  endfacet
  facet normal -0.213167 0 -0.977016
    outer loop
      vertex 17.2117 9 20
      vertex 17.2172 12.6 19.9988
      vertex 17.2172 9 19.9988
    endloop
  endfacet
  facet normal 0 -1 0
    outer loop
      vertex 17.2117 9 20
      vertex 17.2172 9 19.9988
      vertex 20.1971 9 20
    endloop
  endfacet
  facet normal 0 0 1
    outer loop
      vertex 17.2117 9 20
      vertex 20.1971 9 20
      vertex 17.2117 12.6 20
    endloop
  endfacet
  facet normal -0.406738 0 0.913545
    outer loop
      vertex 17.2172 12.6 6.35117
      vertex 18.5875 9 6.96127
      vertex 18.5875 12.6 6.96127
    endloop
  endfacet
  facet normal -0.406738 0 -0.913545
    outer loop
      vertex 17.2172 29 19.9988
      vertex 17.2172 32.6 19.9988
      vertex 18.5875 32.6 19.3887
    endloop
  endfacet
  facet normal 0 -1 0
    outer loop
      vertex 17.2172 29 19.9988
      vertex 18.5875 29 19.3887
      vertex 20.1971 29 20
    endloop
  endfacet
  facet normal -0.406738 0 -0.913545
    outer loop
      vertex 17.2172 29 19.9988
      vertex 18.5875 32.6 19.3887
      vertex 18.5875 29 19.3887
    endloop
  endfacet
  facet normal -0.406738 0 0.913545
    outer loop
      vertex 17.2172 29 6.35117
      vertex 18.5875 29 6.96127
      vertex 17.2172 32.6 6.35117
    endloop
  endfacet
  facet normal 0 -1 0
    outer loop
      vertex 17.2172 29 6.35117
      vertex 30 29 6
      vertex 18.5875 29 6.96127
    endloop
  endfacet
  facet normal -0.406738 0 0.913545
    outer loop
      vertex 17.2172 32.6 6.35117
      vertex 18.5875 29 6.96127
      vertex 18.5875 32.6 6.96127
    endloop
  endfacet
  facet normal -0.406738 0 -0.913545
    outer loop
      vertex 17.2172 9 19.9988
      vertex 17.2172 12.6 19.9988
      vertex 18.5875 12.6 19.3887
    endloop
  endfacet
  facet normal -0.406738 0 -0.913545
    outer loop
      vertex 17.2172 9 19.9988
      vertex 18.5875 12.6 19.3887
      vertex 18.5875 9 19.3887
    endloop
  endfacet
  facet normal 0 -1 0
    outer loop
      vertex 17.2172 9 19.9988
      vertex 18.5875 9 19.3887
      vertex 20.1971 9 20
    endloop
  endfacet
  facet normal -0.406738 0 0.913545
    outer loop
      vertex 17.2172 9 6.35117
      vertex 18.5875 9 6.96127
      vertex 17.2172 12.6 6.35117
    endloop
  endfacet
  facet normal 0 -1 0
    outer loop
      vertex 17.2172 9 6.35117
      vertex 25.5 9 6
      vertex 18.5875 9 6.96127
    endloop
  endfacet
  facet normal -0.866031 0 0.49999
    outer loop
      vertex 17.508 12.6 11.3529
      vertex 17.832 12.6 11.9141
      vertex 17.832 17 11.9141
    endloop
  endfacet
  facet normal -0.866031 0 0.49999
    outer loop
      vertex 17.508 12.6 11.3529
      vertex 17.832 17 11.9141
      vertex 17.508 17 11.3529
    endloop
  endfacet
  facet normal 0 -1 0
    outer loop
      vertex 17.508 12.6 11.3529
      vertex 20.8047 12.6 8.95764
      vertex 21.5547 12.6 10.2567
    endloop
  endfacet
  facet normal 0 -1 0
    outer loop
      vertex 17.508 12.6 11.3529
      vertex 21.5547 12.6 10.2567
      vertex 17.832 12.6 11.9141
    endloop
  endfacet
  facet normal -0.866031 -0 -0.49999
    outer loop
      vertex 17.508 12.6 14.9971
      vertex 17.508 17 14.9971
      vertex 17.832 12.6 14.4359
    endloop
  endfacet
  facet normal 0 -1 0
    outer loop
      vertex 17.508 12.6 14.9971
      vertex 17.832 12.6 14.4359
      vertex 21.5547 12.6 16.0933
    endloop
  endfacet
  facet normal 0 -1 -0
    outer loop
      vertex 17.508 12.6 14.9971
      vertex 21.5547 12.6 16.0933
      vertex 20.8047 12.6 17.3924
    endloop
  endfacet
  facet normal 0 1 0
    outer loop
      vertex 17.508 17 11.3529
      vertex 17.832 17 11.9141
      vertex 19 17 0
    endloop
  endfacet
  facet normal -0.866031 0 -0.49999
    outer loop
      vertex 17.508 17 14.9971
      vertex 17.832 17 14.4359
      vertex 17.832 12.6 14.4359
    endloop
  endfacet
  facet normal 0 1 0
    outer loop
      vertex 17.508 17 14.9971
      vertex 19 17 20
      vertex 17.832 17 14.4359
    endloop
  endfacet
  facet normal -0.866031 0 0.49999
    outer loop
      vertex 17.508 32.6 11.3529
      vertex 17.832 32.6 11.9141
      vertex 17.832 37 11.9141
    endloop
  endfacet
  facet normal -0.866031 0 0.49999
    outer loop
      vertex 17.508 32.6 11.3529
      vertex 17.832 37 11.9141
      vertex 17.508 37 11.3529
    endloop
  endfacet
  facet normal 0 -1 0
    outer loop
      vertex 17.508 32.6 11.3529
      vertex 20.8047 32.6 8.95764
      vertex 21.5547 32.6 10.2567
    endloop
  endfacet
  facet normal 0 -1 0
    outer loop
      vertex 17.508 32.6 11.3529
      vertex 21.5547 32.6 10.2567
      vertex 17.832 32.6 11.9141
    endloop
  endfacet
  facet normal -0.866031 -0 -0.49999
    outer loop
      vertex 17.508 32.6 14.9971
      vertex 17.508 37 14.9971
      vertex 17.832 32.6 14.4359
    endloop
  endfacet
  facet normal 0 -1 0
    outer loop
      vertex 17.508 32.6 14.9971
      vertex 17.832 32.6 14.4359
      vertex 21.5547 32.6 16.0933
    endloop
  endfacet
  facet normal 0 -1 -0
    outer loop
      vertex 17.508 32.6 14.9971
      vertex 21.5547 32.6 16.0933
      vertex 20.8047 32.6 17.3924
    endloop
  endfacet
  facet normal 0 1 0
    outer loop
      vertex 17.508 37 11.3529
      vertex 17.832 37 11.9141
      vertex 19 37 0
    endloop
  endfacet
  facet normal -0.866031 0 -0.49999
    outer loop
      vertex 17.508 37 14.9971
      vertex 17.832 37 14.4359
      vertex 17.832 32.6 14.4359
    endloop
  endfacet
  facet normal 0 1 0
    outer loop
      vertex 17.508 37 14.9971
      vertex 19 37 20
      vertex 17.832 37 14.4359
    endloop
  endfacet
  facet normal -0.951048 0 0.309044
    outer loop
      vertex 17.832 12.6 11.9141
      vertex 18.0323 12.6 12.5305
      vertex 18.0323 17 12.5305
    endloop
  endfacet
  facet normal -0.951048 0 0.309044
    outer loop
      vertex 17.832 12.6 11.9141
      vertex 18.0323 17 12.5305
      vertex 17.832 17 11.9141
    endloop
  endfacet
  facet normal 0 -1 0
    outer loop
      vertex 17.832 12.6 11.9141
      vertex 21.5547 12.6 10.2567
      vertex 22.0182 12.6 11.6832
    endloop
  endfacet
  facet normal 0 -1 0
    outer loop
      vertex 17.832 12.6 11.9141
      vertex 22.0182 12.6 11.6832
      vertex 18.0323 12.6 12.5305
    endloop
  endfacet
  facet normal -0.951048 -0 -0.309044
    outer loop
      vertex 17.832 12.6 14.4359
      vertex 17.832 17 14.4359
      vertex 18.0323 12.6 13.8195
    endloop
  endfacet
  facet normal 0 -1 0
    outer loop
      vertex 17.832 12.6 14.4359
      vertex 18.0323 12.6 13.8195
      vertex 22.0182 12.6 14.6668
    endloop
  endfacet
  facet normal 0 -1 -0
    outer loop
      vertex 17.832 12.6 14.4359
      vertex 22.0182 12.6 14.6668
      vertex 21.5547 12.6 16.0933
    endloop
  endfacet
  facet normal 0 1 0
    outer loop
      vertex 17.832 17 11.9141
      vertex 18.0323 17 12.5305
      vertex 19 17 0
    endloop
  endfacet
  facet normal -0.951048 0 -0.309044
    outer loop
      vertex 17.832 17 14.4359
      vertex 18.0323 17 13.8195
      vertex 18.0323 12.6 13.8195
    endloop
  endfacet
  facet normal 0 1 0
    outer loop
      vertex 17.832 17 14.4359
      vertex 19 17 20
      vertex 18.0323 17 13.8195
    endloop
  endfacet
  facet normal -0.951048 0 0.309044
    outer loop
      vertex 17.832 32.6 11.9141
      vertex 18.0323 32.6 12.5305
      vertex 18.0323 37 12.5305
    endloop
  endfacet
  facet normal -0.951048 0 0.309044
    outer loop
      vertex 17.832 32.6 11.9141
      vertex 18.0323 37 12.5305
      vertex 17.832 37 11.9141
    endloop
  endfacet
  facet normal 0 -1 0
    outer loop
      vertex 17.832 32.6 11.9141
      vertex 21.5547 32.6 10.2567
      vertex 22.0182 32.6 11.6832
    endloop
  endfacet
  facet normal 0 -1 0
    outer loop
      vertex 17.832 32.6 11.9141
      vertex 22.0182 32.6 11.6832
      vertex 18.0323 32.6 12.5305
    endloop
  endfacet
  facet normal -0.951048 -0 -0.309044
    outer loop
      vertex 17.832 32.6 14.4359
      vertex 17.832 37 14.4359
      vertex 18.0323 32.6 13.8195
    endloop
  endfacet
  facet normal 0 -1 0
    outer loop
      vertex 17.832 32.6 14.4359
      vertex 18.0323 32.6 13.8195
      vertex 22.0182 32.6 14.6668
    endloop
  endfacet
  facet normal 0 -1 -0
    outer loop
      vertex 17.832 32.6 14.4359
      vertex 22.0182 32.6 14.6668
      vertex 21.5547 32.6 16.0933
    endloop
  endfacet
  facet normal 0 1 0
    outer loop
      vertex 17.832 37 11.9141
      vertex 18.0323 37 12.5305
      vertex 19 37 0
    endloop
  endfacet
  facet normal -0.951048 0 -0.309044
    outer loop
      vertex 17.832 37 14.4359
      vertex 18.0323 37 13.8195
      vertex 18.0323 32.6 13.8195
    endloop
  endfacet
  facet normal 0 1 0
    outer loop
      vertex 17.832 37 14.4359
      vertex 19 37 20
      vertex 18.0323 37 13.8195
    endloop
  endfacet
  facet normal -0.994528 0 0.104468
    outer loop
      vertex 18.0323 12.6 12.5305
      vertex 18.1 12.6 13.175
      vertex 18.1 17 13.175
    endloop
  endfacet
  facet normal -0.994528 0 0.104468
    outer loop
      vertex 18.0323 12.6 12.5305
      vertex 18.1 17 13.175
      vertex 18.0323 17 12.5305
    endloop
  endfacet
  facet normal 0 -1 0
    outer loop
      vertex 18.0323 12.6 12.5305
      vertex 22.0182 12.6 11.6832
      vertex 22.175 12.6 13.175
    endloop
  endfacet
  facet normal 0 -1 0
    outer loop
      vertex 18.0323 12.6 12.5305
      vertex 22.175 12.6 13.175
      vertex 18.1 12.6 13.175
    endloop
  endfacet
  facet normal -0.994528 -0 -0.104468
    outer loop
      vertex 18.0323 12.6 13.8195
      vertex 18.0323 17 13.8195
      vertex 18.1 12.6 13.175
    endloop
  endfacet
  facet normal 0 -1 0
    outer loop
      vertex 18.0323 12.6 13.8195
      vertex 18.1 12.6 13.175
      vertex 22.0182 12.6 14.6668
    endloop
  endfacet
  facet normal 0 1 0
    outer loop
      vertex 18.0323 17 12.5305
      vertex 18.1 17 13.175
      vertex 19 17 0
    endloop
  endfacet
  facet normal -0.994528 0 -0.104468
    outer loop
      vertex 18.0323 17 13.8195
      vertex 18.1 17 13.175
      vertex 18.1 12.6 13.175
    endloop
  endfacet
  facet normal 0 1 0
    outer loop
      vertex 18.0323 17 13.8195
      vertex 19 17 20
      vertex 18.1 17 13.175
    endloop
  endfacet
  facet normal -0.994528 0 0.104468
    outer loop
      vertex 18.0323 32.6 12.5305
      vertex 18.1 32.6 13.175
      vertex 18.1 37 13.175
    endloop
  endfacet
  facet normal -0.994528 0 0.104468
    outer loop
      vertex 18.0323 32.6 12.5305
      vertex 18.1 37 13.175
      vertex 18.0323 37 12.5305
    endloop
  endfacet
  facet normal 0 -1 0
    outer loop
      vertex 18.0323 32.6 12.5305
      vertex 22.0182 32.6 11.6832
      vertex 22.175 32.6 13.175
    endloop
  endfacet
  facet normal 0 -1 0
    outer loop
      vertex 18.0323 32.6 12.5305
      vertex 22.175 32.6 13.175
      vertex 18.1 32.6 13.175
    endloop
  endfacet
  facet normal -0.994528 -0 -0.104468
    outer loop
      vertex 18.0323 32.6 13.8195
      vertex 18.0323 37 13.8195
      vertex 18.1 32.6 13.175
    endloop
  endfacet
  facet normal 0 -1 0
    outer loop
      vertex 18.0323 32.6 13.8195
      vertex 18.1 32.6 13.175
      vertex 22.0182 32.6 14.6668
    endloop
  endfacet
  facet normal 0 1 0
    outer loop
      vertex 18.0323 37 12.5305
      vertex 18.1 37 13.175
      vertex 19 37 0
    endloop
  endfacet
  facet normal -0.994528 0 -0.104468
    outer loop
      vertex 18.0323 37 13.8195
      vertex 18.1 37 13.175
      vertex 18.1 32.6 13.175
    endloop
  endfacet
  facet normal 0 1 0
    outer loop
      vertex 18.0323 37 13.8195
      vertex 19 37 20
      vertex 18.1 37 13.175
    endloop
  endfacet
  facet normal 0 -1 0
    outer loop
      vertex 18.1 12.6 13.175
      vertex 22.175 12.6 13.175
      vertex 22.0182 12.6 14.6668
    endloop
  endfacet
  facet normal 0 1 -0
    outer loop
      vertex 18.1 17 13.175
      vertex 19 17 20
      vertex 19 17 0
    endloop
  endfacet
  facet normal 0 -1 0
    outer loop
      vertex 18.1 32.6 13.175
      vertex 22.175 32.6 13.175
      vertex 22.0182 32.6 14.6668
    endloop
  endfacet
  facet normal 0 1 -0
    outer loop
      vertex 18.1 37 13.175
      vertex 19 37 20
      vertex 19 37 0
    endloop
  endfacet
  facet normal -0.58779 0 0.809014
    outer loop
      vertex 18.5875 12.6 6.96127
      vertex 19.801 9 7.84294
      vertex 19.801 12.6 7.84294
    endloop
  endfacet
  facet normal -0.587759 0 -0.809036
    outer loop
      vertex 18.5875 29 19.3887
      vertex 18.5875 32.6 19.3887
      vertex 19.801 32.6 18.5071
    endloop
  endfacet
  facet normal 0 -1 0
    outer loop
      vertex 18.5875 29 19.3887
      vertex 19.801 29 18.5071
      vertex 20.1971 29 20
    endloop
  endfacet
  facet normal -0.587759 0 -0.809036
    outer loop
      vertex 18.5875 29 19.3887
      vertex 19.801 32.6 18.5071
      vertex 19.801 29 18.5071
    endloop
  endfacet
  facet normal -0.58779 0 0.809014
    outer loop
      vertex 18.5875 29 6.96127
      vertex 19.801 29 7.84294
      vertex 18.5875 32.6 6.96127
    endloop
  endfacet
  facet normal 0 -1 0
    outer loop
      vertex 18.5875 29 6.96127
      vertex 30 29 6
      vertex 19.801 29 7.84294
    endloop
  endfacet
  facet normal -0.58779 0 0.809014
    outer loop
      vertex 18.5875 32.6 6.96127
      vertex 19.801 29 7.84294
      vertex 19.801 32.6 7.84294
    endloop
  endfacet
  facet normal -0.587759 0 -0.809036
    outer loop
      vertex 18.5875 9 19.3887
      vertex 18.5875 12.6 19.3887
      vertex 19.801 12.6 18.5071
    endloop
  endfacet
  facet normal -0.587759 0 -0.809036
    outer loop
      vertex 18.5875 9 19.3887
      vertex 19.801 12.6 18.5071
      vertex 19.801 9 18.5071
    endloop
  endfacet
  facet normal 0 -1 0
    outer loop
      vertex 18.5875 9 19.3887
      vertex 19.801 9 18.5071
      vertex 20.1971 9 20
    endloop
  endfacet
  facet normal -0.58779 0 0.809014
    outer loop
      vertex 18.5875 9 6.96127
      vertex 19.801 9 7.84294
      vertex 18.5875 12.6 6.96127
    endloop
  endfacet
  facet normal 0 -1 0
    outer loop
      vertex 18.5875 9 6.96127
      vertex 25.5 9 6
      vertex 19.801 9 7.84294
    endloop
  endfacet
  facet normal 0 1 0
    outer loop
      vertex 19 15 0
      vertex 19 15 20
      vertex 20.1971 15 20
    endloop
  endfacet
  facet normal 1 0 0
    outer loop
      vertex 19 15 0
      vertex 19 17 0
      vertex 19 15 20
    endloop
  endfacet
  facet normal 0 1 0
    outer loop
      vertex 19 15 0
      vertex 20.1971 15 20
      vertex 30 15 6
    endloop
  endfacet
  facet normal -0 0 -1
    outer loop
      vertex 19 15 0
      vertex 30 15 0
      vertex 25.5 9 0
    endloop
  endfacet
  facet normal 0 1 0
    outer loop
      vertex 19 15 0
      vertex 30 15 6
      vertex 30 15 0
    endloop
  endfacet
  facet normal 1 -0 0
    outer loop
      vertex 19 15 20
      vertex 19 17 0
      vertex 19 17 20
    endloop
  endfacet
  facet normal 0 1 0
    outer loop
      vertex 19 35 0
      vertex 19 35 20
      vertex 20.1971 35 20
    endloop
  endfacet
  facet normal 1 0 0
    outer loop
      vertex 19 35 0
      vertex 19 37 0
      vertex 19 35 20
    endloop
  endfacet
  facet normal 0 1 0
    outer loop
      vertex 19 35 0
      vertex 20.1971 35 20
      vertex 30 35 6
    endloop
  endfacet
  facet normal 0 1 0
    outer loop
      vertex 19 35 0
      vertex 30 35 6
      vertex 38 35 0
    endloop
  endfacet
  facet normal 0 0 -1
    outer loop
      vertex 19 35 0
      vertex 38 35 0
      vertex 36.5 24.9 0
    endloop
  endfacet
  facet normal 1 -0 0
    outer loop
      vertex 19 35 20
      vertex 19 37 0
      vertex 19 37 20
    endloop
  endfacet
  facet normal -0.743138 0 -0.669138
    outer loop
      vertex 19.801 12.6 18.5071
      vertex 20.8047 12.6 17.3924
      vertex 20.8047 9 17.3924
    endloop
  endfacet
  facet normal -0.743138 -0 -0.669138
    outer loop
      vertex 19.801 29 18.5071
      vertex 19.801 32.6 18.5071
      vertex 20.8047 29 17.3924
    endloop
  endfacet
  facet normal 0 -1 0
    outer loop
      vertex 19.801 29 18.5071
      vertex 20.8047 29 17.3924
      vertex 20.1971 29 20
    endloop
  endfacet
  facet normal -0.743138 0 0.669138
    outer loop
      vertex 19.801 29 7.84294
      vertex 20.8047 29 8.95764
      vertex 20.8047 32.6 8.95764
    endloop
  endfacet
  facet normal -0.743138 0 0.669138
    outer loop
      vertex 19.801 29 7.84294
      vertex 20.8047 32.6 8.95764
      vertex 19.801 32.6 7.84294
    endloop
  endfacet
  facet normal 0 -1 0
    outer loop
      vertex 19.801 29 7.84294
      vertex 30 29 6
      vertex 20.8047 29 8.95764
    endloop
  endfacet
  facet normal -0.743138 0 -0.669138
    outer loop
      vertex 19.801 32.6 18.5071
      vertex 20.8047 32.6 17.3924
      vertex 20.8047 29 17.3924
    endloop
  endfacet
  facet normal -0.743138 -0 -0.669138
    outer loop
      vertex 19.801 9 18.5071
      vertex 19.801 12.6 18.5071
      vertex 20.8047 9 17.3924
    endloop
  endfacet
  facet normal 0 -1 0
    outer loop
      vertex 19.801 9 18.5071
      vertex 20.8047 9 17.3924
      vertex 20.1971 9 20
    endloop
  endfacet
  facet normal -0.743138 0 0.669138
    outer loop
      vertex 19.801 9 7.84294
      vertex 20.8047 12.6 8.95764
      vertex 19.801 12.6 7.84294
    endloop
  endfacet
  facet normal -0.743138 0 0.669138
    outer loop
      vertex 19.801 9 7.84294
      vertex 20.8047 9 8.95764
      vertex 20.8047 12.6 8.95764
    endloop
  endfacet
  facet normal 0 -1 0
    outer loop
      vertex 19.801 9 7.84294
      vertex 25.5 9 6
      vertex 20.8047 9 8.95764
    endloop
  endfacet
  facet normal 0 -1 0
    outer loop
      vertex 20.1971 29 20
      vertex 20.8047 29 17.3924
      vertex 21.5547 29 16.0933
    endloop
  endfacet
  facet normal 0 -1 0
    outer loop
      vertex 20.1971 29 20
      vertex 21.5547 29 16.0933
      vertex 30 29 6
    endloop
  endfacet
  facet normal 0.819152 0 0.573576
    outer loop
      vertex 20.1971 29 20
      vertex 30 29 6
      vertex 30 35 6
    endloop
  endfacet
  facet normal 0.819152 -0 0.573576
    outer loop
      vertex 20.1971 29 20
      vertex 30 35 6
      vertex 20.1971 35 20
    endloop
  endfacet
  facet normal 0 -1 0
    outer loop
      vertex 20.1971 9 20
      vertex 20.8047 9 17.3924
      vertex 21.5547 9 16.0933
    endloop
  endfacet
  facet normal 0 -1 0
    outer loop
      vertex 20.1971 9 20
      vertex 21.5547 9 16.0933
      vertex 30 9 6
    endloop
  endfacet
  facet normal 0.819152 -0 0.573576
    outer loop
      vertex 20.1971 9 20
      vertex 30 15 6
      vertex 20.1971 15 20
    endloop
  endfacet
  facet normal 0.819152 0 0.573576
    outer loop
      vertex 20.1971 9 20
      vertex 30 9 6
      vertex 30 15 6
    endloop
  endfacet
  facet normal -0.866036 0 -0.499982
    outer loop
      vertex 20.8047 12.6 17.3924
      vertex 21.5547 12.6 16.0933
      vertex 21.5547 9 16.0933
    endloop
  endfacet
  facet normal -0.866036 -0 -0.499982
    outer loop
      vertex 20.8047 29 17.3924
      vertex 20.8047 32.6 17.3924
      vertex 21.5547 29 16.0933
    endloop
  endfacet
  facet normal -0.866029 0 0.499994
    outer loop
      vertex 20.8047 29 8.95764
      vertex 21.5547 29 10.2567
      vertex 21.5547 32.6 10.2567
    endloop
  endfacet
  facet normal -0.866029 0 0.499994
    outer loop
      vertex 20.8047 29 8.95764
      vertex 21.5547 32.6 10.2567
      vertex 20.8047 32.6 8.95764
    endloop
  endfacet
  facet normal 0 -1 0
    outer loop
      vertex 20.8047 29 8.95764
      vertex 30 29 6
      vertex 21.5547 29 10.2567
    endloop
  endfacet
  facet normal -0.866036 0 -0.499982
    outer loop
      vertex 20.8047 32.6 17.3924
      vertex 21.5547 32.6 16.0933
      vertex 21.5547 29 16.0933
    endloop
  endfacet
  facet normal -0.866036 -0 -0.499982
    outer loop
      vertex 20.8047 9 17.3924
      vertex 20.8047 12.6 17.3924
      vertex 21.5547 9 16.0933
    endloop
  endfacet
  facet normal -0.866029 0 0.499994
    outer loop
      vertex 20.8047 9 8.95764
      vertex 21.5547 12.6 10.2567
      vertex 20.8047 12.6 8.95764
    endloop
  endfacet
  facet normal -0.866029 0 0.499994
    outer loop
      vertex 20.8047 9 8.95764
      vertex 21.5547 9 10.2567
      vertex 21.5547 12.6 10.2567
    endloop
  endfacet
  facet normal 0 -1 0
    outer loop
      vertex 20.8047 9 8.95764
      vertex 25.5 9 6
      vertex 21.5547 9 10.2567
    endloop
  endfacet
  facet normal -0.951056 0 -0.309018
    outer loop
      vertex 21.5547 12.6 16.0933
      vertex 22.0182 12.6 14.6668
      vertex 22.0182 9 14.6668
    endloop
  endfacet
  facet normal -0.951056 0 0.309018
    outer loop
      vertex 21.5547 29 10.2567
      vertex 22.0182 29 11.6832
      vertex 22.0182 32.6 11.6832
    endloop
  endfacet
  facet normal -0.951056 0 0.309018
    outer loop
      vertex 21.5547 29 10.2567
      vertex 22.0182 32.6 11.6832
      vertex 21.5547 32.6 10.2567
    endloop
  endfacet
  facet normal 0 -1 0
    outer loop
      vertex 21.5547 29 10.2567
      vertex 30 29 6
      vertex 22.0182 29 11.6832
    endloop
  endfacet
  facet normal -0.951056 -0 -0.309018
    outer loop
      vertex 21.5547 29 16.0933
      vertex 21.5547 32.6 16.0933
      vertex 22.0182 29 14.6668
    endloop
  endfacet
  facet normal 0 -1 0
    outer loop
      vertex 21.5547 29 16.0933
      vertex 22.0182 29 14.6668
      vertex 30 29 6
    endloop
  endfacet
  facet normal -0.951056 0 -0.309018
    outer loop
      vertex 21.5547 32.6 16.0933
      vertex 22.0182 32.6 14.6668
      vertex 22.0182 29 14.6668
    endloop
  endfacet
  facet normal -0.951056 0 0.309018
    outer loop
      vertex 21.5547 9 10.2567
      vertex 22.0182 12.6 11.6832
      vertex 21.5547 12.6 10.2567
    endloop
  endfacet
  facet normal -0.951056 0 0.309018
    outer loop
      vertex 21.5547 9 10.2567
      vertex 22.0182 9 11.6832
      vertex 22.0182 12.6 11.6832
    endloop
  endfacet
  facet normal 0 -1 0
    outer loop
      vertex 21.5547 9 10.2567
      vertex 25.5 9 6
      vertex 22.0182 9 11.6832
    endloop
  endfacet
  facet normal -0.951056 -0 -0.309018
    outer loop
      vertex 21.5547 9 16.0933
      vertex 21.5547 12.6 16.0933
      vertex 22.0182 9 14.6668
    endloop
  endfacet
  facet normal 0 -1 0
    outer loop
      vertex 21.5547 9 16.0933
      vertex 22.0182 9 14.6668
      vertex 30 9 6
    endloop
  endfacet
  facet normal -0.994522 0 -0.104532
    outer loop
      vertex 22.0182 12.6 14.6668
      vertex 22.175 12.6 13.175
      vertex 22.175 9 13.175
    endloop
  endfacet
  facet normal -0.994522 0 0.104532
    outer loop
      vertex 22.0182 29 11.6832
      vertex 22.175 29 13.175
      vertex 22.175 32.6 13.175
    endloop
  endfacet
  facet normal -0.994522 0 0.104532
    outer loop
      vertex 22.0182 29 11.6832
      vertex 22.175 32.6 13.175
      vertex 22.0182 32.6 11.6832
    endloop
  endfacet
  facet normal 0 -1 0
    outer loop
      vertex 22.0182 29 11.6832
      vertex 30 29 6
      vertex 22.175 29 13.175
    endloop
  endfacet
  facet normal -0.994522 -0 -0.104532
    outer loop
      vertex 22.0182 29 14.6668
      vertex 22.0182 32.6 14.6668
      vertex 22.175 29 13.175
    endloop
  endfacet
  facet normal 0 -1 0
    outer loop
      vertex 22.0182 29 14.6668
      vertex 22.175 29 13.175
      vertex 30 29 6
    endloop
  endfacet
  facet normal -0.994522 0 -0.104532
    outer loop
      vertex 22.0182 32.6 14.6668
      vertex 22.175 32.6 13.175
      vertex 22.175 29 13.175
    endloop
  endfacet
  facet normal -0.994522 0 0.104532
    outer loop
      vertex 22.0182 9 11.6832
      vertex 22.175 12.6 13.175
      vertex 22.0182 12.6 11.6832
    endloop
  endfacet
  facet normal -0.994522 0 0.104532
    outer loop
      vertex 22.0182 9 11.6832
      vertex 22.175 9 13.175
      vertex 22.175 12.6 13.175
    endloop
  endfacet
  facet normal 0 -1 0
    outer loop
      vertex 22.0182 9 11.6832
      vertex 25.5 9 6
      vertex 30 9 6
    endloop
  endfacet
  facet normal 0 -1 0
    outer loop
      vertex 22.0182 9 11.6832
      vertex 30 9 6
      vertex 22.175 9 13.175
    endloop
  endfacet
  facet normal -0.994522 -0 -0.104532
    outer loop
      vertex 22.0182 9 14.6668
      vertex 22.0182 12.6 14.6668
      vertex 22.175 9 13.175
    endloop
  endfacet
  facet normal 0 -1 0
    outer loop
      vertex 22.0182 9 14.6668
      vertex 22.175 9 13.175
      vertex 30 9 6
    endloop
  endfacet
  facet normal 1 0 0
    outer loop
      vertex 25.5 0 0
      vertex 25.5 3 3
      vertex 25.5 0 6
    endloop
  endfacet
  facet normal 1 0 0
    outer loop
      vertex 25.5 0 0
      vertex 25.5 4.9 3
      vertex 25.5 3 3
    endloop
  endfacet
  facet normal 1 0 0
    outer loop
      vertex 25.5 0 0
      vertex 25.5 9 0
      vertex 25.5 4.9 3
    endloop
  endfacet
  facet normal 1 0 0
    outer loop
      vertex 25.5 0 6
      vertex 25.5 3 3
      vertex 25.5 3 6
    endloop
  endfacet
  facet normal 1 0 0
    outer loop
      vertex 25.5 4.9 3
      vertex 25.5 9 0
      vertex 25.5 9 6
    endloop
  endfacet
  facet normal 1 0 0
    outer loop
      vertex 25.5 4.9 3
      vertex 25.5 9 6
      vertex 25.5 4.9 6
    endloop
  endfacet
  facet normal 0 0 -1
    outer loop
      vertex 25.5 9 0
      vertex 30 15 0
      vertex 30 9 0
    endloop
  endfacet
  facet normal 0 -1 -0
    outer loop
      vertex 25.5 9 0
      vertex 30 9 0
      vertex 30 9 6
    endloop
  endfacet
  facet normal 0 -1 0
    outer loop
      vertex 25.5 9 0
      vertex 30 9 6
      vertex 25.5 9 6
    endloop
  endfacet
  facet normal 0 0 1
    outer loop
      vertex 30 20 6
      vertex 37 20 6
      vertex 30 29 6
    endloop
  endfacet
  facet normal 0 -1 0
    outer loop
      vertex 30 20 6
      vertex 38 20 0
      vertex 37 20 6
    endloop
  endfacet
  facet normal 0 0 1
    outer loop
      vertex 30 29 6
      vertex 37 20 6
      vertex 37 35 6
    endloop
  endfacet
  facet normal 0 0 1
    outer loop
      vertex 30 29 6
      vertex 37 35 6
      vertex 30 35 6
    endloop
  endfacet
  facet normal 0 1 0
    outer loop
      vertex 30 35 6
      vertex 37 35 6
      vertex 38 35 0
    endloop
  endfacet
  facet normal 1 0 0
    outer loop
      vertex 30 9 0
      vertex 30 15 0
      vertex 30 9 6
    endloop
  endfacet
  facet normal 1 -0 0
    outer loop
      vertex 30 9 6
      vertex 30 15 0
      vertex 30 15 6
    endloop
  endfacet
  facet normal -1 -0 0
    outer loop
      vertex 36.5 23 0
      vertex 36.5 23 4.9
      vertex 36.5 24.9 4.9
    endloop
  endfacet
  facet normal 0 0 -1
    outer loop
      vertex 36.5 23 0
      vertex 36.5 24.9 0
      vertex 38 20 0
    endloop
  endfacet
  facet normal -1 0 0
    outer loop
      vertex 36.5 23 0
      vertex 36.5 24.9 4.9
      vertex 36.5 24.9 0
    endloop
  endfacet
  facet normal 0 0 -1
    outer loop
      vertex 36.5 24.9 0
      vertex 38 35 0
      vertex 38 20 0
    endloop
  endfacet
  facet normal 0 -1 0
    outer loop
      vertex 37 20 6
      vertex 38 20 0
      vertex 38 20 5
    endloop
  endfacet
  facet normal 0.707107 0 0.707107
    outer loop
      vertex 37 20 6
      vertex 38 20 5
      vertex 38 35 5
    endloop
  endfacet
  facet normal 0.707107 -0 0.707107
    outer loop
      vertex 37 20 6
      vertex 38 35 5
      vertex 37 35 6
    endloop
  endfacet
  facet normal 0 1 -0
    outer loop
      vertex 37 35 6
      vertex 38 35 5
      vertex 38 35 0
    endloop
  endfacet
  facet normal 1 0 0
    outer loop
      vertex 38 20 0
      vertex 38 35 0
      vertex 38 20 5
    endloop
  endfacet
  facet normal 1 -0 0
    outer loop
      vertex 38 20 5
      vertex 38 35 0
      vertex 38 35 5
    endloop
  endfacet
  facet normal 0 -1 -0
    outer loop
      vertex 6.5 0 0
      vertex 25.5 0 0
      vertex 25.5 0 6
    endloop
  endfacet
  facet normal 0 -1 0
    outer loop
      vertex 6.5 0 0
      vertex 25.5 0 6
      vertex 6.5 0 6
    endloop
  endfacet
  facet normal -1 0 0
    outer loop
      vertex 6.5 0 0
      vertex 6.5 0 6
      vertex 6.5 3 3
    endloop
  endfacet
  facet normal -1 -0 0
    outer loop
      vertex 6.5 0 0
      vertex 6.5 3 3
      vertex 6.5 4.9 3
    endloop
  endfacet
  facet normal -1 0 0
    outer loop
      vertex 6.5 0 0
      vertex 6.5 4.9 3
      vertex 6.5 9 0
    endloop
  endfacet
  facet normal 0 0 -1
    outer loop
      vertex 6.5 0 0
      vertex 6.5 9 0
      vertex 25.5 0 0
    endloop
  endfacet
  facet normal 0 0 1
    outer loop
      vertex 6.5 0 6
      vertex 25.5 0 6
      vertex 6.5 3 6
    endloop
  endfacet
  facet normal -1 0 0
    outer loop
      vertex 6.5 0 6
      vertex 6.5 3 6
      vertex 6.5 3 3
    endloop
  endfacet
  facet normal 0 0 1
    outer loop
      vertex 6.5 3 3
      vertex 25.5 3 3
      vertex 6.5 4.9 3
    endloop
  endfacet
  facet normal 0 1 0
    outer loop
      vertex 6.5 3 3
      vertex 6.5 3 6
      vertex 25.5 3 3
    endloop
  endfacet
  facet normal -0 0 1
    outer loop
      vertex 6.5 3 6
      vertex 25.5 0 6
      vertex 25.5 3 6
    endloop
  endfacet
  facet normal 0 1 -0
    outer loop
      vertex 6.5 3 6
      vertex 25.5 3 6
      vertex 25.5 3 3
    endloop
  endfacet
  facet normal -0 0 1
    outer loop
      vertex 6.5 4.9 3
      vertex 25.5 3 3
      vertex 25.5 4.9 3
    endloop
  endfacet
  facet normal 0 -1 -0
    outer loop
      vertex 6.5 4.9 3
      vertex 25.5 4.9 3
      vertex 25.5 4.9 6
    endloop
  endfacet
  facet normal 0 -1 0
    outer loop
      vertex 6.5 4.9 3
      vertex 25.5 4.9 6
      vertex 6.5 4.9 6
    endloop
  endfacet
  facet normal -1 -0 0
    outer loop
      vertex 6.5 4.9 3
      vertex 6.5 4.9 6
      vertex 6.5 9 6
    endloop
  endfacet
  facet normal -1 0 0
    outer loop
      vertex 6.5 4.9 3
      vertex 6.5 9 6
      vertex 6.5 9 0
    endloop
  endfacet
  facet normal 0 0 1
    outer loop
      vertex 6.5 4.9 6
      vertex 25.5 4.9 6
      vertex 6.5 9 6
    endloop
  endfacet
  facet normal -0 0 -1
    outer loop
      vertex 6.5 9 0
      vertex 11 15 0
      vertex 19 15 0
    endloop
  endfacet
  facet normal 0 0 -1
    outer loop
      vertex 6.5 9 0
      vertex 19 15 0
      vertex 25.5 9 0
    endloop
  endfacet
  facet normal 0 0 -1
    outer loop
      vertex 6.5 9 0
      vertex 25.5 9 0
      vertex 25.5 0 0
    endloop
  endfacet
  facet normal 0 -1 -0
    outer loop
      vertex 6.5 9 6
      vertex 10.199 9 7.84294
      vertex 9.1953 9 8.95764
    endloop
  endfacet
  facet normal 0 -1 -0
    outer loop
      vertex 6.5 9 6
      vertex 11.4125 9 6.96127
      vertex 10.199 9 7.84294
    endloop
  endfacet
  facet normal 0 -1 -0
    outer loop
      vertex 6.5 9 6
      vertex 12.7828 9 6.35117
      vertex 11.4125 9 6.96127
    endloop
  endfacet
  facet normal 0 -1 -0
    outer loop
      vertex 6.5 9 6
      vertex 14.25 9 6.0393
      vertex 12.7828 9 6.35117
    endloop
  endfacet
  facet normal 0 -1 -0
    outer loop
      vertex 6.5 9 6
      vertex 15.75 9 6.0393
      vertex 14.25 9 6.0393
    endloop
  endfacet
  facet normal -0 0 1
    outer loop
      vertex 6.5 9 6
      vertex 25.5 4.9 6
      vertex 25.5 9 6
    endloop
  endfacet
  facet normal 0 -1 0
    outer loop
      vertex 6.5 9 6
      vertex 25.5 9 6
      vertex 15.75 9 6.0393
    endloop
  endfacet
  facet normal 0 -1 -0
    outer loop
      vertex 6.5 9 6
      vertex 8.44531 9 10.2567
      vertex 7.98179 9 11.6832
    endloop
  endfacet
  facet normal 0 -1 -0
    outer loop
      vertex 6.5 9 6
      vertex 9.1953 9 8.95764
      vertex 8.44531 9 10.2567
    endloop
  endfacet
  facet normal 0 -1 0
    outer loop
      vertex 7.825 12.6 13.175
      vertex 11.9 12.6 13.175
      vertex 11.9677 12.6 13.8195
    endloop
  endfacet
  facet normal 0 -1 0
    outer loop
      vertex 7.825 12.6 13.175
      vertex 11.9677 12.6 12.5305
      vertex 11.9 12.6 13.175
    endloop
  endfacet
  facet normal 0 -1 0
    outer loop
      vertex 7.825 12.6 13.175
      vertex 11.9677 12.6 13.8195
      vertex 7.98179 12.6 14.6668
    endloop
  endfacet
  facet normal 0 -1 0
    outer loop
      vertex 7.825 12.6 13.175
      vertex 7.98179 12.6 11.6832
      vertex 11.9677 12.6 12.5305
    endloop
  endfacet
  facet normal 0.994522 0 -0.104525
    outer loop
      vertex 7.825 12.6 13.175
      vertex 7.98179 12.6 14.6668
      vertex 7.98179 9 14.6668
    endloop
  endfacet
  facet normal 0.994522 0 -0.104525
    outer loop
      vertex 7.825 29 13.175
      vertex 7.825 32.6 13.175
      vertex 7.98179 29 14.6668
    endloop
  endfacet
  facet normal 0.994522 0 0.104525
    outer loop
      vertex 7.825 29 13.175
      vertex 7.98179 29 11.6832
      vertex 7.98179 32.6 11.6832
    endloop
  endfacet
  facet normal 0.994522 -0 0.104525
    outer loop
      vertex 7.825 29 13.175
      vertex 7.98179 32.6 11.6832
      vertex 7.825 32.6 13.175
    endloop
  endfacet
  facet normal 0 -1 0
    outer loop
      vertex 7.825 32.6 13.175
      vertex 11.9 32.6 13.175
      vertex 11.9677 32.6 13.8195
    endloop
  endfacet
  facet normal 0 -1 0
    outer loop
      vertex 7.825 32.6 13.175
      vertex 11.9677 32.6 12.5305
      vertex 11.9 32.6 13.175
    endloop
  endfacet
  facet normal 0 -1 0
    outer loop
      vertex 7.825 32.6 13.175
      vertex 11.9677 32.6 13.8195
      vertex 7.98179 32.6 14.6668
    endloop
  endfacet
  facet normal 0 -1 0
    outer loop
      vertex 7.825 32.6 13.175
      vertex 7.98179 32.6 11.6832
      vertex 11.9677 32.6 12.5305
    endloop
  endfacet
  facet normal 0.994522 0 -0.104525
    outer loop
      vertex 7.825 32.6 13.175
      vertex 7.98179 32.6 14.6668
      vertex 7.98179 29 14.6668
    endloop
  endfacet
  facet normal 0.994522 0 -0.104525
    outer loop
      vertex 7.825 9 13.175
      vertex 7.825 12.6 13.175
      vertex 7.98179 9 14.6668
    endloop
  endfacet
  facet normal 0.994522 -0 0.104525
    outer loop
      vertex 7.825 9 13.175
      vertex 7.98179 12.6 11.6832
      vertex 7.825 12.6 13.175
    endloop
  endfacet
  facet normal 0.994522 0 0.104525
    outer loop
      vertex 7.825 9 13.175
      vertex 7.98179 9 11.6832
      vertex 7.98179 12.6 11.6832
    endloop
  endfacet
  facet normal 0 -1 -0
    outer loop
      vertex 7.98179 12.6 11.6832
      vertex 12.168 12.6 11.9141
      vertex 11.9677 12.6 12.5305
    endloop
  endfacet
  facet normal 0 -1 0
    outer loop
      vertex 7.98179 12.6 11.6832
      vertex 8.44531 12.6 10.2567
      vertex 12.168 12.6 11.9141
    endloop
  endfacet
  facet normal 0 -1 0
    outer loop
      vertex 7.98179 12.6 14.6668
      vertex 11.9677 12.6 13.8195
      vertex 12.168 12.6 14.4359
    endloop
  endfacet
  facet normal 0 -1 0
    outer loop
      vertex 7.98179 12.6 14.6668
      vertex 12.168 12.6 14.4359
      vertex 8.44531 12.6 16.0933
    endloop
  endfacet
  facet normal 0.951052 0 -0.30903
    outer loop
      vertex 7.98179 12.6 14.6668
      vertex 8.44531 12.6 16.0933
      vertex 8.44531 9 16.0933
    endloop
  endfacet
  facet normal 0.951052 0 0.30903
    outer loop
      vertex 7.98179 29 11.6832
      vertex 8.44531 29 10.2567
      vertex 8.44531 32.6 10.2567
    endloop
  endfacet
  facet normal 0.951052 -0 0.30903
    outer loop
      vertex 7.98179 29 11.6832
      vertex 8.44531 32.6 10.2567
      vertex 7.98179 32.6 11.6832
    endloop
  endfacet
  facet normal 0.951052 0 -0.30903
    outer loop
      vertex 7.98179 29 14.6668
      vertex 7.98179 32.6 14.6668
      vertex 8.44531 29 16.0933
    endloop
  endfacet
  facet normal 0 -1 -0
    outer loop
      vertex 7.98179 32.6 11.6832
      vertex 12.168 32.6 11.9141
      vertex 11.9677 32.6 12.5305
    endloop
  endfacet
  facet normal 0 -1 0
    outer loop
      vertex 7.98179 32.6 11.6832
      vertex 8.44531 32.6 10.2567
      vertex 12.168 32.6 11.9141
    endloop
  endfacet
  facet normal 0 -1 0
    outer loop
      vertex 7.98179 32.6 14.6668
      vertex 11.9677 32.6 13.8195
      vertex 12.168 32.6 14.4359
    endloop
  endfacet
  facet normal 0 -1 0
    outer loop
      vertex 7.98179 32.6 14.6668
      vertex 12.168 32.6 14.4359
      vertex 8.44531 32.6 16.0933
    endloop
  endfacet
  facet normal 0.951052 0 -0.30903
    outer loop
      vertex 7.98179 32.6 14.6668
      vertex 8.44531 32.6 16.0933
      vertex 8.44531 29 16.0933
    endloop
  endfacet
  facet normal 0.951052 -0 0.30903
    outer loop
      vertex 7.98179 9 11.6832
      vertex 8.44531 12.6 10.2567
      vertex 7.98179 12.6 11.6832
    endloop
  endfacet
  facet normal 0.951052 0 0.30903
    outer loop
      vertex 7.98179 9 11.6832
      vertex 8.44531 9 10.2567
      vertex 8.44531 12.6 10.2567
    endloop
  endfacet
  facet normal 0.951052 0 -0.30903
    outer loop
      vertex 7.98179 9 14.6668
      vertex 7.98179 12.6 14.6668
      vertex 8.44531 9 16.0933
    endloop
  endfacet
  facet normal 0 -1 -0
    outer loop
      vertex 8.44531 12.6 10.2567
      vertex 12.492 12.6 11.3529
      vertex 12.168 12.6 11.9141
    endloop
  endfacet
  facet normal 0 -1 0
    outer loop
      vertex 8.44531 12.6 10.2567
      vertex 9.1953 12.6 8.95764
      vertex 12.492 12.6 11.3529
    endloop
  endfacet
  facet normal 0 -1 0
    outer loop
      vertex 8.44531 12.6 16.0933
      vertex 12.168 12.6 14.4359
      vertex 12.492 12.6 14.9971
    endloop
  endfacet
  facet normal 0 -1 0
    outer loop
      vertex 8.44531 12.6 16.0933
      vertex 12.492 12.6 14.9971
      vertex 9.1953 12.6 17.3924
    endloop
  endfacet
  facet normal 0.866039 0 -0.499977
    outer loop
      vertex 8.44531 12.6 16.0933
      vertex 9.1953 12.6 17.3924
      vertex 9.1953 9 17.3924
    endloop
  endfacet
  facet normal 0.866032 0 0.499989
    outer loop
      vertex 8.44531 29 10.2567
      vertex 9.1953 29 8.95764
      vertex 9.1953 32.6 8.95764
    endloop
  endfacet
  facet normal 0.866032 -0 0.499989
    outer loop
      vertex 8.44531 29 10.2567
      vertex 9.1953 32.6 8.95764
      vertex 8.44531 32.6 10.2567
    endloop
  endfacet
  facet normal 0.866039 0 -0.499977
    outer loop
      vertex 8.44531 29 16.0933
      vertex 8.44531 32.6 16.0933
      vertex 9.1953 29 17.3924
    endloop
  endfacet
  facet normal 0 -1 0
    outer loop
      vertex 8.44531 29 16.0933
      vertex 9.1953 29 17.3924
      vertex 9.80291 29 20
    endloop
  endfacet
  facet normal 0 -1 -0
    outer loop
      vertex 8.44531 32.6 10.2567
      vertex 12.492 32.6 11.3529
      vertex 12.168 32.6 11.9141
    endloop
  endfacet
  facet normal 0 -1 0
    outer loop
      vertex 8.44531 32.6 10.2567
      vertex 9.1953 32.6 8.95764
      vertex 12.492 32.6 11.3529
    endloop
  endfacet
  facet normal 0 -1 0
    outer loop
      vertex 8.44531 32.6 16.0933
      vertex 12.168 32.6 14.4359
      vertex 12.492 32.6 14.9971
    endloop
  endfacet
  facet normal 0 -1 0
    outer loop
      vertex 8.44531 32.6 16.0933
      vertex 12.492 32.6 14.9971
      vertex 9.1953 32.6 17.3924
    endloop
  endfacet
  facet normal 0.866039 0 -0.499977
    outer loop
      vertex 8.44531 32.6 16.0933
      vertex 9.1953 32.6 17.3924
      vertex 9.1953 29 17.3924
    endloop
  endfacet
  facet normal 0.866032 -0 0.499989
    outer loop
      vertex 8.44531 9 10.2567
      vertex 9.1953 12.6 8.95764
      vertex 8.44531 12.6 10.2567
    endloop
  endfacet
  facet normal 0.866032 0 0.499989
    outer loop
      vertex 8.44531 9 10.2567
      vertex 9.1953 9 8.95764
      vertex 9.1953 12.6 8.95764
    endloop
  endfacet
  facet normal 0.866039 0 -0.499977
    outer loop
      vertex 8.44531 9 16.0933
      vertex 8.44531 12.6 16.0933
      vertex 9.1953 9 17.3924
    endloop
  endfacet
  facet normal 0 -1 0
    outer loop
      vertex 8.44531 9 16.0933
      vertex 9.1953 9 17.3924
      vertex 9.80291 9 20
    endloop
  endfacet
  facet normal 0.743138 0 -0.669138
    outer loop
      vertex 9.1953 12.6 17.3924
      vertex 10.199 12.6 18.5071
      vertex 10.199 9 18.5071
    endloop
  endfacet
  facet normal 0 -1 0
    outer loop
      vertex 9.1953 12.6 17.3924
      vertex 12.492 12.6 14.9971
      vertex 12.9257 12.6 15.4787
    endloop
  endfacet
  facet normal 0 -1 0
    outer loop
      vertex 9.1953 12.6 17.3924
      vertex 12.9257 12.6 15.4787
      vertex 10.199 12.6 18.5071
    endloop
  endfacet
  facet normal 0 -1 0
    outer loop
      vertex 9.1953 12.6 8.95764
      vertex 10.199 12.6 7.84294
      vertex 12.9257 12.6 10.8713
    endloop
  endfacet
  facet normal 0 -1 -0
    outer loop
      vertex 9.1953 12.6 8.95764
      vertex 12.9257 12.6 10.8713
      vertex 12.492 12.6 11.3529
    endloop
  endfacet
  facet normal 0 -1 -0
    outer loop
      vertex 9.1953 29 17.3924
      vertex 10.199 29 18.5071
      vertex 9.80291 29 20
    endloop
  endfacet
  facet normal 0.743138 0 -0.669138
    outer loop
      vertex 9.1953 29 17.3924
      vertex 9.1953 32.6 17.3924
      vertex 10.199 29 18.5071
    endloop
  endfacet
  facet normal 0.743138 0 0.669138
    outer loop
      vertex 9.1953 29 8.95764
      vertex 10.199 29 7.84294
      vertex 10.199 32.6 7.84294
    endloop
  endfacet
  facet normal 0.743138 -0 0.669138
    outer loop
      vertex 9.1953 29 8.95764
      vertex 10.199 32.6 7.84294
      vertex 9.1953 32.6 8.95764
    endloop
  endfacet
  facet normal 0.743138 0 -0.669138
    outer loop
      vertex 9.1953 32.6 17.3924
      vertex 10.199 32.6 18.5071
      vertex 10.199 29 18.5071
    endloop
  endfacet
  facet normal 0 -1 0
    outer loop
      vertex 9.1953 32.6 17.3924
      vertex 12.492 32.6 14.9971
      vertex 12.9257 32.6 15.4787
    endloop
  endfacet
  facet normal 0 -1 0
    outer loop
      vertex 9.1953 32.6 17.3924
      vertex 12.9257 32.6 15.4787
      vertex 10.199 32.6 18.5071
    endloop
  endfacet
  facet normal 0 -1 0
    outer loop
      vertex 9.1953 32.6 8.95764
      vertex 10.199 32.6 7.84294
      vertex 12.9257 32.6 10.8713
    endloop
  endfacet
  facet normal 0 -1 -0
    outer loop
      vertex 9.1953 32.6 8.95764
      vertex 12.9257 32.6 10.8713
      vertex 12.492 32.6 11.3529
    endloop
  endfacet
  facet normal 0 -1 -0
    outer loop
      vertex 9.1953 9 17.3924
      vertex 10.199 9 18.5071
      vertex 9.80291 9 20
    endloop
  endfacet
  facet normal 0.743138 0 -0.669138
    outer loop
      vertex 9.1953 9 17.3924
      vertex 9.1953 12.6 17.3924
      vertex 10.199 9 18.5071
    endloop
  endfacet
  facet normal 0.743138 -0 0.669138
    outer loop
      vertex 9.1953 9 8.95764
      vertex 10.199 12.6 7.84294
      vertex 9.1953 12.6 8.95764
    endloop
  endfacet
  facet normal 0.743138 0 0.669138
    outer loop
      vertex 9.1953 9 8.95764
      vertex 10.199 9 7.84294
      vertex 10.199 12.6 7.84294
    endloop
  endfacet
  facet normal 0 1 -0
    outer loop
      vertex 9.80291 15 20
      vertex 11 15 20
      vertex 11 15 0
    endloop
  endfacet
  facet normal -0 0 1
    outer loop
      vertex 9.80291 15 20
      vertex 12.7883 12.6 20
      vertex 11 15 20
    endloop
  endfacet
  facet normal 0 -1 0
    outer loop
      vertex 9.80291 29 20
      vertex 10.199 29 18.5071
      vertex 11.4125 29 19.3887
    endloop
  endfacet
  facet normal 0 -1 0
    outer loop
      vertex 9.80291 29 20
      vertex 11.4125 29 19.3887
      vertex 12.7828 29 19.9988
    endloop
  endfacet
  facet normal 0 -1 0
    outer loop
      vertex 9.80291 29 20
      vertex 12.7828 29 19.9988
      vertex 12.7883 29 20
    endloop
  endfacet
  facet normal 0 0 1
    outer loop
      vertex 9.80291 29 20
      vertex 12.7883 29 20
      vertex 12.7883 32.6 20
    endloop
  endfacet
  facet normal 0 0 1
    outer loop
      vertex 9.80291 29 20
      vertex 12.7883 32.6 20
      vertex 9.80291 35 20
    endloop
  endfacet
  facet normal 0 1 -0
    outer loop
      vertex 9.80291 35 20
      vertex 11 35 20
      vertex 11 35 0
    endloop
  endfacet
  facet normal -0 0 1
    outer loop
      vertex 9.80291 35 20
      vertex 12.7883 32.6 20
      vertex 11 35 20
    endloop
  endfacet
  facet normal 0 -1 0
    outer loop
      vertex 9.80291 9 20
      vertex 10.199 9 18.5071
      vertex 11.4125 9 19.3887
    endloop
  endfacet
  facet normal 0 -1 0
    outer loop
      vertex 9.80291 9 20
      vertex 11.4125 9 19.3887
      vertex 12.7828 9 19.9988
    endloop
  endfacet
  facet normal 0 -1 0
    outer loop
      vertex 9.80291 9 20
      vertex 12.7828 9 19.9988
      vertex 12.7883 9 20
    endloop
  endfacet
  facet normal 0 0 1
    outer loop
      vertex 9.80291 9 20
      vertex 12.7883 12.6 20
      vertex 9.80291 15 20
    endloop
  endfacet
  facet normal 0 0 1
    outer loop
      vertex 9.80291 9 20
      vertex 12.7883 9 20
      vertex 12.7883 12.6 20
    endloop
  endfacet
endsolid model
