solid OpenSCAD_Model
  facet normal 1 -0 0
    outer loop
      vertex 5 21.7404 9.18292
      vertex 5 25 5.49496
      vertex 5 25 13
    endloop
  endfacet
  facet normal 1 0 0
    outer loop
      vertex 5 25 5.49496
      vertex 5 21.7404 9.18292
      vertex 5 21.7404 8.81707
    endloop
  endfacet
  facet normal 1 0 0
    outer loop
      vertex 5 25 13
      vertex 5 21.6643 9.54078
      vertex 5 21.7404 9.18292
    endloop
  endfacet
  facet normal 1 0 0
    outer loop
      vertex 5 25 13
      vertex 5 21.5155 9.875
      vertex 5 21.6643 9.54078
    endloop
  endfacet
  facet normal 1 0 0
    outer loop
      vertex 5 25 13
      vertex 5 21.3005 10.171
      vertex 5 21.5155 9.875
    endloop
  endfacet
  facet normal 1 0 0
    outer loop
      vertex 5 25 13
      vertex 5 21.0286 10.4158
      vertex 5 21.3005 10.171
    endloop
  endfacet
  facet normal 1 0 0
    outer loop
      vertex 5 25 13
      vertex 5 20.7118 10.5987
      vertex 5 21.0286 10.4158
    endloop
  endfacet
  facet normal 1 0 0
    outer loop
      vertex 5 25 13
      vertex 5 20.3638 10.7118
      vertex 5 20.7118 10.5987
    endloop
  endfacet
  facet normal 1 0 0
    outer loop
      vertex 5 25 13
      vertex 5 20 10.75
      vertex 5 20.3638 10.7118
    endloop
  endfacet
  facet normal 1 0 0
    outer loop
      vertex 5 25 13
      vertex 5 19.6362 10.7118
      vertex 5 20 10.75
    endloop
  endfacet
  facet normal 1 0 0
    outer loop
      vertex 5 10 28
      vertex 5 19.6362 10.7118
      vertex 5 25 13
    endloop
  endfacet
  facet normal 1 0 0
    outer loop
      vertex 5 18.3357 9.54078
      vertex 5 8 18
      vertex 5 18.2596 9.18292
    endloop
  endfacet
  facet normal 1 0 0
    outer loop
      vertex 5 18.4845 9.875
      vertex 5 8 18
      vertex 5 18.3357 9.54078
    endloop
  endfacet
  facet normal 1 0 0
    outer loop
      vertex 5 18.6995 10.171
      vertex 5 8 18
      vertex 5 18.4845 9.875
    endloop
  endfacet
  facet normal 1 0 0
    outer loop
      vertex 5 18.9714 10.4158
      vertex 5 8 18
      vertex 5 18.6995 10.171
    endloop
  endfacet
  facet normal 1 0 0
    outer loop
      vertex 5 19.2882 10.5987
      vertex 5 8 18
      vertex 5 18.9714 10.4158
    endloop
  endfacet
  facet normal 1 0 0
    outer loop
      vertex 5 19.6362 10.7118
      vertex 5 8 18
      vertex 5 19.2882 10.5987
    endloop
  endfacet
  facet normal 1 -0 0
    outer loop
      vertex 5 8 18
      vertex 5 19.6362 10.7118
      vertex 5 10 28
    endloop
  endfacet
  facet normal 1 0 0
    outer loop
      vertex 5 25 5.49496
      vertex 5 21.7404 8.81707
      vertex 5 21.6643 8.45922
    endloop
  endfacet
  facet normal 1 -0 0
    outer loop
      vertex 5 21.5155 8.125
      vertex 5 25 5.49496
      vertex 5 21.6643 8.45922
    endloop
  endfacet
  facet normal 1 -0 0
    outer loop
      vertex 5 21.3005 7.82902
      vertex 5 25 5.49496
      vertex 5 21.5155 8.125
    endloop
  endfacet
  facet normal 1 -0 0
    outer loop
      vertex 5 21.0286 7.58422
      vertex 5 25 5.49496
      vertex 5 21.3005 7.82902
    endloop
  endfacet
  facet normal 1 -0 0
    outer loop
      vertex 5 20.7118 7.40129
      vertex 5 25 5.49496
      vertex 5 21.0286 7.58422
    endloop
  endfacet
  facet normal 1 -0 0
    outer loop
      vertex 5 20.3638 7.28824
      vertex 5 25 5.49496
      vertex 5 20.7118 7.40129
    endloop
  endfacet
  facet normal 1 0 0
    outer loop
      vertex 5 25 5.49496
      vertex 5 20.3638 7.28824
      vertex 5 23 0
    endloop
  endfacet
  facet normal 1 -0 0
    outer loop
      vertex 5 20 7.25
      vertex 5 23 0
      vertex 5 20.3638 7.28824
    endloop
  endfacet
  facet normal 1 0 0
    outer loop
      vertex 5 19.6362 7.28824
      vertex 5 23 0
      vertex 5 20 7.25
    endloop
  endfacet
  facet normal 1 0 0
    outer loop
      vertex 5 19.2882 7.40129
      vertex 5 23 0
      vertex 5 19.6362 7.28824
    endloop
  endfacet
  facet normal 1 0 0
    outer loop
      vertex 5 8 0
      vertex 5 19.2882 7.40129
      vertex 5 18.9714 7.58422
    endloop
  endfacet
  facet normal 1 0 0
    outer loop
      vertex 5 8 0
      vertex 5 18.9714 7.58422
      vertex 5 18.6995 7.82902
    endloop
  endfacet
  facet normal 1 0 0
    outer loop
      vertex 5 8 0
      vertex 5 18.6995 7.82902
      vertex 5 18.4845 8.125
    endloop
  endfacet
  facet normal 1 0 0
    outer loop
      vertex 5 18.2596 9.18292
      vertex 5 8 18
      vertex 5 18.2596 8.81707
    endloop
  endfacet
  facet normal 1 0 0
    outer loop
      vertex 5 8 18
      vertex 5 10 28
      vertex 5 8 28
    endloop
  endfacet
  facet normal 1 0 0
    outer loop
      vertex 5 8 0
      vertex 5 18.2596 8.81707
      vertex 5 8 18
    endloop
  endfacet
  facet normal 1 0 0
    outer loop
      vertex 5 18.2596 8.81707
      vertex 5 8 0
      vertex 5 18.3357 8.45922
    endloop
  endfacet
  facet normal 1 0 0
    outer loop
      vertex 5 18.3357 8.45922
      vertex 5 8 0
      vertex 5 18.4845 8.125
    endloop
  endfacet
  facet normal 1 0 0
    outer loop
      vertex 5 19.2882 7.40129
      vertex 5 8 0
      vertex 5 23 0
    endloop
  endfacet
  facet normal -1 0 0
    outer loop
      vertex 19 25 5.49496
      vertex 19 21.6643 8.45922
      vertex 19 21.7404 8.81707
    endloop
  endfacet
  facet normal -1 0 0
    outer loop
      vertex 19 25 5.49496
      vertex 19 21.5155 8.125
      vertex 19 21.6643 8.45922
    endloop
  endfacet
  facet normal -1 0 0
    outer loop
      vertex 19 25 5.49496
      vertex 19 21.3005 7.82902
      vertex 19 21.5155 8.125
    endloop
  endfacet
  facet normal -1 0 0
    outer loop
      vertex 19 25 5.49496
      vertex 19 21.0286 7.58422
      vertex 19 21.3005 7.82902
    endloop
  endfacet
  facet normal -1 0 0
    outer loop
      vertex 19 25 5.49496
      vertex 19 20.7118 7.40129
      vertex 19 21.0286 7.58422
    endloop
  endfacet
  facet normal -1 0 0
    outer loop
      vertex 19 25 5.49496
      vertex 19 20.3638 7.28824
      vertex 19 20.7118 7.40129
    endloop
  endfacet
  facet normal -1 0 0
    outer loop
      vertex 19 23 0
      vertex 19 20 7.25
      vertex 19 20.3638 7.28824
    endloop
  endfacet
  facet normal -1 0 0
    outer loop
      vertex 19 23 0
      vertex 19 19.6362 7.28824
      vertex 19 20 7.25
    endloop
  endfacet
  facet normal -1 0 0
    outer loop
      vertex 19 23 0
      vertex 19 19.2882 7.40129
      vertex 19 19.6362 7.28824
    endloop
  endfacet
  facet normal -1 0 0
    outer loop
      vertex 19 8 0
      vertex 19 19.2882 7.40129
      vertex 19 23 0
    endloop
  endfacet
  facet normal -1 -0 0
    outer loop
      vertex 19 19.2882 7.40129
      vertex 19 8 0
      vertex 19 18.9714 7.58422
    endloop
  endfacet
  facet normal -1 -0 0
    outer loop
      vertex 19 18.9714 7.58422
      vertex 19 8 0
      vertex 19 18.6995 7.82902
    endloop
  endfacet
  facet normal -1 0 0
    outer loop
      vertex 19 8 18
      vertex 19 18.2596 9.18292
      vertex 19 18.2596 8.81707
    endloop
  endfacet
  facet normal -1 0 0
    outer loop
      vertex 19 8 0
      vertex 19 18.2596 8.81707
      vertex 19 18.3357 8.45922
    endloop
  endfacet
  facet normal -1 -0 0
    outer loop
      vertex 19 18.6995 7.82902
      vertex 19 8 0
      vertex 19 18.4845 8.125
    endloop
  endfacet
  facet normal -1 0 0
    outer loop
      vertex 19 8 0
      vertex 19 18.3357 8.45922
      vertex 19 18.4845 8.125
    endloop
  endfacet
  facet normal -1 -0 0
    outer loop
      vertex 19 18.2596 8.81707
      vertex 19 8 0
      vertex 19 8 18
    endloop
  endfacet
  facet normal -1 0 0
    outer loop
      vertex 19 18.2596 9.18292
      vertex 19 8 18
      vertex 19 10 28
    endloop
  endfacet
  facet normal -1 -0 0
    outer loop
      vertex 19 10 28
      vertex 19 8 18
      vertex 19 8 28
    endloop
  endfacet
  facet normal -1 0 0
    outer loop
      vertex 19 20.3638 7.28824
      vertex 19 25 5.49496
      vertex 19 23 0
    endloop
  endfacet
  facet normal -1 0 0
    outer loop
      vertex 19 21.7404 9.18292
      vertex 19 25 5.49496
      vertex 19 21.7404 8.81707
    endloop
  endfacet
  facet normal -1 0 0
    outer loop
      vertex 19 25 5.49496
      vertex 19 21.7404 9.18292
      vertex 19 25 13
    endloop
  endfacet
  facet normal -1 0 0
    outer loop
      vertex 19 21.6643 9.54078
      vertex 19 25 13
      vertex 19 21.7404 9.18292
    endloop
  endfacet
  facet normal -1 0 0
    outer loop
      vertex 19 21.5155 9.875
      vertex 19 25 13
      vertex 19 21.6643 9.54078
    endloop
  endfacet
  facet normal -1 0 0
    outer loop
      vertex 19 21.3005 10.171
      vertex 19 25 13
      vertex 19 21.5155 9.875
    endloop
  endfacet
  facet normal -1 0 0
    outer loop
      vertex 19 21.0286 10.4158
      vertex 19 25 13
      vertex 19 21.3005 10.171
    endloop
  endfacet
  facet normal -1 0 0
    outer loop
      vertex 19 20.7118 10.5987
      vertex 19 25 13
      vertex 19 21.0286 10.4158
    endloop
  endfacet
  facet normal -1 0 0
    outer loop
      vertex 19 20.3638 10.7118
      vertex 19 25 13
      vertex 19 20.7118 10.5987
    endloop
  endfacet
  facet normal -1 0 0
    outer loop
      vertex 19 20 10.75
      vertex 19 25 13
      vertex 19 20.3638 10.7118
    endloop
  endfacet
  facet normal -1 0 0
    outer loop
      vertex 19 19.6362 10.7118
      vertex 19 25 13
      vertex 19 20 10.75
    endloop
  endfacet
  facet normal -1 0 0
    outer loop
      vertex 19 10 28
      vertex 19 19.6362 10.7118
      vertex 19 19.2882 10.5987
    endloop
  endfacet
  facet normal -1 0 0
    outer loop
      vertex 19 19.6362 10.7118
      vertex 19 10 28
      vertex 19 25 13
    endloop
  endfacet
  facet normal -1 0 0
    outer loop
      vertex 19 18.9714 10.4158
      vertex 19 10 28
      vertex 19 19.2882 10.5987
    endloop
  endfacet
  facet normal -1 0 0
    outer loop
      vertex 19 18.6995 10.171
      vertex 19 10 28
      vertex 19 18.9714 10.4158
    endloop
  endfacet
  facet normal -1 0 0
    outer loop
      vertex 19 18.4845 9.875
      vertex 19 10 28
      vertex 19 18.6995 10.171
    endloop
  endfacet
  facet normal -1 0 0
    outer loop
      vertex 19 18.3357 9.54078
      vertex 19 10 28
      vertex 19 18.4845 9.875
    endloop
  endfacet
  facet normal -1 0 0
    outer loop
      vertex 19 10 28
      vertex 19 18.3357 9.54078
      vertex 19 18.2596 9.18292
    endloop
  endfacet
  facet normal 0 1 0
    outer loop
      vertex 19 8 28
      vertex 12.7317 8 24.9617
      vertex 5 8 28
    endloop
  endfacet
  facet normal 0 1 0
    outer loop
      vertex 19 8 28
      vertex 14.1631 8 24.6574
      vertex 12.7317 8 24.9617
    endloop
  endfacet
  facet normal 0 1 0
    outer loop
      vertex 19 8 28
      vertex 15.5 8 24.0622
      vertex 14.1631 8 24.6574
    endloop
  endfacet
  facet normal 0 1 0
    outer loop
      vertex 19 8 28
      vertex 16.6839 8 23.202
      vertex 15.5 8 24.0622
    endloop
  endfacet
  facet normal 0 1 0
    outer loop
      vertex 19 8 28
      vertex 17.6631 8 22.1145
      vertex 16.6839 8 23.202
    endloop
  endfacet
  facet normal 0 1 0
    outer loop
      vertex 19 8 28
      vertex 18.3948 8 20.8472
      vertex 17.6631 8 22.1145
    endloop
  endfacet
  facet normal 0 1 0
    outer loop
      vertex 19 8 28
      vertex 18.847 8 19.4554
      vertex 18.3948 8 20.8472
    endloop
  endfacet
  facet normal -0 1 0
    outer loop
      vertex 18.847 8 19.4554
      vertex 19 8 28
      vertex 19 8 18
    endloop
  endfacet
  facet normal 0 1 -0
    outer loop
      vertex 11.2683 8 24.9617
      vertex 5 8 28
      vertex 12.7317 8 24.9617
    endloop
  endfacet
  facet normal 0 1 -0
    outer loop
      vertex 9.83688 8 24.6574
      vertex 5 8 28
      vertex 11.2683 8 24.9617
    endloop
  endfacet
  facet normal 0 1 -0
    outer loop
      vertex 8.5 8 24.0622
      vertex 5 8 28
      vertex 9.83688 8 24.6574
    endloop
  endfacet
  facet normal 0 1 -0
    outer loop
      vertex 7.31608 8 23.202
      vertex 5 8 28
      vertex 8.5 8 24.0622
    endloop
  endfacet
  facet normal 0 1 -0
    outer loop
      vertex 6.33688 8 22.1145
      vertex 5 8 28
      vertex 7.31608 8 23.202
    endloop
  endfacet
  facet normal 0 1 -0
    outer loop
      vertex 5.60518 8 20.8472
      vertex 5 8 28
      vertex 6.33688 8 22.1145
    endloop
  endfacet
  facet normal 0 1 -0
    outer loop
      vertex 5.15297 8 19.4554
      vertex 5 8 28
      vertex 5.60518 8 20.8472
    endloop
  endfacet
  facet normal 0 1 -0
    outer loop
      vertex 5.12849 8 19.2225
      vertex 5 8 28
      vertex 5.15297 8 19.4554
    endloop
  endfacet
  facet normal 0 1 0
    outer loop
      vertex 5 8 28
      vertex 5.12849 8 19.2225
      vertex 5 8 18
    endloop
  endfacet
  facet normal 0 1 0
    outer loop
      vertex 12.7317 8 11.0383
      vertex 19 8 0
      vertex 11.2683 8 11.0383
    endloop
  endfacet
  facet normal 0 1 0
    outer loop
      vertex 14.1631 8 11.3426
      vertex 19 8 0
      vertex 12.7317 8 11.0383
    endloop
  endfacet
  facet normal 0 1 0
    outer loop
      vertex 15.5 8 11.9378
      vertex 19 8 0
      vertex 14.1631 8 11.3426
    endloop
  endfacet
  facet normal 0 1 0
    outer loop
      vertex 16.6839 8 12.798
      vertex 19 8 0
      vertex 15.5 8 11.9378
    endloop
  endfacet
  facet normal 0 1 0
    outer loop
      vertex 17.6631 8 13.8855
      vertex 19 8 0
      vertex 16.6839 8 12.798
    endloop
  endfacet
  facet normal 0 1 0
    outer loop
      vertex 18.3948 8 15.1528
      vertex 19 8 0
      vertex 17.6631 8 13.8855
    endloop
  endfacet
  facet normal 0 1 0
    outer loop
      vertex 18.847 8 16.5446
      vertex 19 8 0
      vertex 18.3948 8 15.1528
    endloop
  endfacet
  facet normal 0 1 -0
    outer loop
      vertex 19 8 0
      vertex 18.847 8 16.5446
      vertex 19 8 18
    endloop
  endfacet
  facet normal 0 1 0
    outer loop
      vertex 5 8 0
      vertex 11.2683 8 11.0383
      vertex 19 8 0
    endloop
  endfacet
  facet normal 0 1 0
    outer loop
      vertex 11.2683 8 11.0383
      vertex 5 8 0
      vertex 9.83688 8 11.3426
    endloop
  endfacet
  facet normal 0 1 0
    outer loop
      vertex 9.83688 8 11.3426
      vertex 5 8 0
      vertex 8.5 8 11.9378
    endloop
  endfacet
  facet normal 0 1 0
    outer loop
      vertex 5.02447 8 17.7671
      vertex 5 8 0
      vertex 5 8 18
    endloop
  endfacet
  facet normal 0 1 0
    outer loop
      vertex 5.15297 8 16.5446
      vertex 5 8 0
      vertex 5.02447 8 17.7671
    endloop
  endfacet
  facet normal 0 1 0
    outer loop
      vertex 5.60518 8 15.1528
      vertex 5 8 0
      vertex 5.15297 8 16.5446
    endloop
  endfacet
  facet normal 0 1 0
    outer loop
      vertex 6.33688 8 13.8855
      vertex 5 8 0
      vertex 5.60518 8 15.1528
    endloop
  endfacet
  facet normal 0 1 0
    outer loop
      vertex 7.31608 8 12.798
      vertex 5 8 0
      vertex 6.33688 8 13.8855
    endloop
  endfacet
  facet normal 0 1 0
    outer loop
      vertex 8.5 8 11.9378
      vertex 5 8 0
      vertex 7.31608 8 12.798
    endloop
  endfacet
  facet normal 0 -0.104528 0.994522
    outer loop
      vertex 2.4 20.3638 7.28824
      vertex 5 20 7.25
      vertex 5 20.3638 7.28824
    endloop
  endfacet
  facet normal 0 -0.104528 0.994522
    outer loop
      vertex 5 20 7.25
      vertex 2.4 20.3638 7.28824
      vertex 2.4 20 7.25
    endloop
  endfacet
  facet normal 0 -0.104528 0.994522
    outer loop
      vertex 19 20.3638 7.28824
      vertex 24 20 7.25
      vertex 24 20.3638 7.28824
    endloop
  endfacet
  facet normal 0 -0.104528 0.994522
    outer loop
      vertex 24 20 7.25
      vertex 19 20.3638 7.28824
      vertex 19 20 7.25
    endloop
  endfacet
  facet normal 0 -0.10453 -0.994522
    outer loop
      vertex 2.4 20 10.75
      vertex 5 20.3638 10.7118
      vertex 5 20 10.75
    endloop
  endfacet
  facet normal -0 -0.10453 -0.994522
    outer loop
      vertex 5 20.3638 10.7118
      vertex 2.4 20 10.75
      vertex 2.4 20.3638 10.7118
    endloop
  endfacet
  facet normal 0 -0.10453 -0.994522
    outer loop
      vertex 19 20 10.75
      vertex 24 20.3638 10.7118
      vertex 24 20 10.75
    endloop
  endfacet
  facet normal -0 -0.10453 -0.994522
    outer loop
      vertex 24 20.3638 10.7118
      vertex 19 20 10.75
      vertex 19 20.3638 10.7118
    endloop
  endfacet
  facet normal 0 1 -0
    outer loop
      vertex 5 18.2596 8.81707
      vertex 2.4 18.2596 9.18292
      vertex 5 18.2596 9.18292
    endloop
  endfacet
  facet normal 0 1 0
    outer loop
      vertex 2.4 18.2596 9.18292
      vertex 5 18.2596 8.81707
      vertex 2.4 18.2596 8.81707
    endloop
  endfacet
  facet normal 0 1 -0
    outer loop
      vertex 24 18.2596 8.81707
      vertex 19 18.2596 9.18292
      vertex 24 18.2596 9.18292
    endloop
  endfacet
  facet normal 0 1 0
    outer loop
      vertex 19 18.2596 9.18292
      vertex 24 18.2596 8.81707
      vertex 19 18.2596 8.81707
    endloop
  endfacet
  facet normal 0 -0.309017 0.951057
    outer loop
      vertex 2.4 20.7118 7.40129
      vertex 5 20.3638 7.28824
      vertex 5 20.7118 7.40129
    endloop
  endfacet
  facet normal 0 -0.309017 0.951057
    outer loop
      vertex 5 20.3638 7.28824
      vertex 2.4 20.7118 7.40129
      vertex 2.4 20.3638 7.28824
    endloop
  endfacet
  facet normal 0 -0.309017 0.951057
    outer loop
      vertex 19 20.7118 7.40129
      vertex 24 20.3638 7.28824
      vertex 24 20.7118 7.40129
    endloop
  endfacet
  facet normal 0 -0.309017 0.951057
    outer loop
      vertex 24 20.3638 7.28824
      vertex 19 20.7118 7.40129
      vertex 19 20.3638 7.28824
    endloop
  endfacet
  facet normal 0 -0.809016 -0.587787
    outer loop
      vertex 2.4 21.5155 9.875
      vertex 5 21.3005 10.171
      vertex 2.4 21.3005 10.171
    endloop
  endfacet
  facet normal 0 -0.809016 -0.587787
    outer loop
      vertex 5 21.3005 10.171
      vertex 2.4 21.5155 9.875
      vertex 5 21.5155 9.875
    endloop
  endfacet
  facet normal 0 -0.809016 -0.587787
    outer loop
      vertex 19 21.5155 9.875
      vertex 24 21.3005 10.171
      vertex 19 21.3005 10.171
    endloop
  endfacet
  facet normal 0 -0.809016 -0.587787
    outer loop
      vertex 24 21.3005 10.171
      vertex 19 21.5155 9.875
      vertex 24 21.5155 9.875
    endloop
  endfacet
  facet normal 0 -0.913546 -0.406734
    outer loop
      vertex 2.4 21.6643 9.54078
      vertex 5 21.5155 9.875
      vertex 2.4 21.5155 9.875
    endloop
  endfacet
  facet normal 0 -0.913546 -0.406734
    outer loop
      vertex 5 21.5155 9.875
      vertex 2.4 21.6643 9.54078
      vertex 5 21.6643 9.54078
    endloop
  endfacet
  facet normal 0 -0.913546 -0.406734
    outer loop
      vertex 19 21.6643 9.54078
      vertex 24 21.5155 9.875
      vertex 19 21.5155 9.875
    endloop
  endfacet
  facet normal 0 -0.913546 -0.406734
    outer loop
      vertex 24 21.5155 9.875
      vertex 19 21.6643 9.54078
      vertex 24 21.6643 9.54078
    endloop
  endfacet
  facet normal -0 0.499998 0.866026
    outer loop
      vertex 2.4 19.2882 7.40129
      vertex 5 18.9714 7.58422
      vertex 5 19.2882 7.40129
    endloop
  endfacet
  facet normal 0 0.499998 0.866026
    outer loop
      vertex 5 18.9714 7.58422
      vertex 2.4 19.2882 7.40129
      vertex 2.4 18.9714 7.58422
    endloop
  endfacet
  facet normal -0 0.499998 0.866026
    outer loop
      vertex 19 19.2882 7.40129
      vertex 24 18.9714 7.58422
      vertex 24 19.2882 7.40129
    endloop
  endfacet
  facet normal 0 0.499998 0.866026
    outer loop
      vertex 24 18.9714 7.58422
      vertex 19 19.2882 7.40129
      vertex 19 18.9714 7.58422
    endloop
  endfacet
  facet normal 0 -0.5 0.866025
    outer loop
      vertex 2.4 21.0286 7.58422
      vertex 5 20.7118 7.40129
      vertex 5 21.0286 7.58422
    endloop
  endfacet
  facet normal 0 -0.5 0.866025
    outer loop
      vertex 5 20.7118 7.40129
      vertex 2.4 21.0286 7.58422
      vertex 2.4 20.7118 7.40129
    endloop
  endfacet
  facet normal 0 -0.5 0.866025
    outer loop
      vertex 19 21.0286 7.58422
      vertex 24 20.7118 7.40129
      vertex 24 21.0286 7.58422
    endloop
  endfacet
  facet normal 0 -0.5 0.866025
    outer loop
      vertex 24 20.7118 7.40129
      vertex 19 21.0286 7.58422
      vertex 19 20.7118 7.40129
    endloop
  endfacet
  facet normal 0 -0.978147 0.207913
    outer loop
      vertex 2.4 21.6643 8.45922
      vertex 5 21.7404 8.81707
      vertex 2.4 21.7404 8.81707
    endloop
  endfacet
  facet normal 0 -0.978147 0.207913
    outer loop
      vertex 5 21.7404 8.81707
      vertex 2.4 21.6643 8.45922
      vertex 5 21.6643 8.45922
    endloop
  endfacet
  facet normal 0 -0.978147 0.207913
    outer loop
      vertex 19 21.6643 8.45922
      vertex 24 21.7404 8.81707
      vertex 19 21.7404 8.81707
    endloop
  endfacet
  facet normal 0 -0.978147 0.207913
    outer loop
      vertex 24 21.7404 8.81707
      vertex 19 21.6643 8.45922
      vertex 24 21.6643 8.45922
    endloop
  endfacet
  facet normal 0 -0.809016 0.587786
    outer loop
      vertex 2.4 21.3005 7.82902
      vertex 5 21.5155 8.125
      vertex 2.4 21.5155 8.125
    endloop
  endfacet
  facet normal 0 -0.809016 0.587786
    outer loop
      vertex 5 21.5155 8.125
      vertex 2.4 21.3005 7.82902
      vertex 5 21.3005 7.82902
    endloop
  endfacet
  facet normal 0 -0.809016 0.587786
    outer loop
      vertex 19 21.3005 7.82902
      vertex 24 21.5155 8.125
      vertex 19 21.5155 8.125
    endloop
  endfacet
  facet normal 0 -0.809016 0.587786
    outer loop
      vertex 24 21.5155 8.125
      vertex 19 21.3005 7.82902
      vertex 24 21.3005 7.82902
    endloop
  endfacet
  facet normal 0 -0.5 -0.866025
    outer loop
      vertex 2.4 20.7118 10.5987
      vertex 5 21.0286 10.4158
      vertex 5 20.7118 10.5987
    endloop
  endfacet
  facet normal -0 -0.5 -0.866025
    outer loop
      vertex 5 21.0286 10.4158
      vertex 2.4 20.7118 10.5987
      vertex 2.4 21.0286 10.4158
    endloop
  endfacet
  facet normal 0 -0.5 -0.866025
    outer loop
      vertex 19 20.7118 10.5987
      vertex 24 21.0286 10.4158
      vertex 24 20.7118 10.5987
    endloop
  endfacet
  facet normal -0 -0.5 -0.866025
    outer loop
      vertex 24 21.0286 10.4158
      vertex 19 20.7118 10.5987
      vertex 19 21.0286 10.4158
    endloop
  endfacet
  facet normal 0 -0.66913 -0.743146
    outer loop
      vertex 2.4 21.0286 10.4158
      vertex 5 21.3005 10.171
      vertex 5 21.0286 10.4158
    endloop
  endfacet
  facet normal -0 -0.66913 -0.743146
    outer loop
      vertex 5 21.3005 10.171
      vertex 2.4 21.0286 10.4158
      vertex 2.4 21.3005 10.171
    endloop
  endfacet
  facet normal 0 -0.66913 -0.743146
    outer loop
      vertex 19 21.0286 10.4158
      vertex 24 21.3005 10.171
      vertex 24 21.0286 10.4158
    endloop
  endfacet
  facet normal -0 -0.66913 -0.743146
    outer loop
      vertex 24 21.3005 10.171
      vertex 19 21.0286 10.4158
      vertex 19 21.3005 10.171
    endloop
  endfacet
  facet normal 0 -0.309017 -0.951057
    outer loop
      vertex 2.4 20.3638 10.7118
      vertex 5 20.7118 10.5987
      vertex 5 20.3638 10.7118
    endloop
  endfacet
  facet normal -0 -0.309017 -0.951057
    outer loop
      vertex 5 20.7118 10.5987
      vertex 2.4 20.3638 10.7118
      vertex 2.4 20.7118 10.5987
    endloop
  endfacet
  facet normal 0 -0.309017 -0.951057
    outer loop
      vertex 19 20.3638 10.7118
      vertex 24 20.7118 10.5987
      vertex 24 20.3638 10.7118
    endloop
  endfacet
  facet normal -0 -0.309017 -0.951057
    outer loop
      vertex 24 20.7118 10.5987
      vertex 19 20.3638 10.7118
      vertex 19 20.7118 10.5987
    endloop
  endfacet
  facet normal 0 -0.978147 -0.207913
    outer loop
      vertex 2.4 21.7404 9.18292
      vertex 5 21.6643 9.54078
      vertex 2.4 21.6643 9.54078
    endloop
  endfacet
  facet normal 0 -0.978147 -0.207913
    outer loop
      vertex 5 21.6643 9.54078
      vertex 2.4 21.7404 9.18292
      vertex 5 21.7404 9.18292
    endloop
  endfacet
  facet normal 0 -0.978147 -0.207913
    outer loop
      vertex 19 21.7404 9.18292
      vertex 24 21.6643 9.54078
      vertex 19 21.6643 9.54078
    endloop
  endfacet
  facet normal 0 -0.978147 -0.207913
    outer loop
      vertex 24 21.6643 9.54078
      vertex 19 21.7404 9.18292
      vertex 24 21.7404 9.18292
    endloop
  endfacet
  facet normal -0 0.104528 0.994522
    outer loop
      vertex 2.4 20 7.25
      vertex 5 19.6362 7.28824
      vertex 5 20 7.25
    endloop
  endfacet
  facet normal 0 0.104528 0.994522
    outer loop
      vertex 5 19.6362 7.28824
      vertex 2.4 20 7.25
      vertex 2.4 19.6362 7.28824
    endloop
  endfacet
  facet normal -0 0.104528 0.994522
    outer loop
      vertex 19 20 7.25
      vertex 24 19.6362 7.28824
      vertex 24 20 7.25
    endloop
  endfacet
  facet normal 0 0.104528 0.994522
    outer loop
      vertex 24 19.6362 7.28824
      vertex 19 20 7.25
      vertex 19 19.6362 7.28824
    endloop
  endfacet
  facet normal 0 0.978147 0.207913
    outer loop
      vertex 5 18.3357 8.45922
      vertex 2.4 18.2596 8.81707
      vertex 5 18.2596 8.81707
    endloop
  endfacet
  facet normal 0 0.978147 0.207913
    outer loop
      vertex 2.4 18.2596 8.81707
      vertex 5 18.3357 8.45922
      vertex 2.4 18.3357 8.45922
    endloop
  endfacet
  facet normal 0 0.978147 0.207913
    outer loop
      vertex 24 18.3357 8.45922
      vertex 19 18.2596 8.81707
      vertex 24 18.2596 8.81707
    endloop
  endfacet
  facet normal 0 0.978147 0.207913
    outer loop
      vertex 19 18.2596 8.81707
      vertex 24 18.3357 8.45922
      vertex 19 18.3357 8.45922
    endloop
  endfacet
  facet normal 0 -0.66913 0.743146
    outer loop
      vertex 2.4 21.3005 7.82902
      vertex 5 21.0286 7.58422
      vertex 5 21.3005 7.82902
    endloop
  endfacet
  facet normal 0 -0.66913 0.743146
    outer loop
      vertex 5 21.0286 7.58422
      vertex 2.4 21.3005 7.82902
      vertex 2.4 21.0286 7.58422
    endloop
  endfacet
  facet normal 0 -0.66913 0.743146
    outer loop
      vertex 19 21.3005 7.82902
      vertex 24 21.0286 7.58422
      vertex 24 21.3005 7.82902
    endloop
  endfacet
  facet normal 0 -0.66913 0.743146
    outer loop
      vertex 24 21.0286 7.58422
      vertex 19 21.3005 7.82902
      vertex 19 21.0286 7.58422
    endloop
  endfacet
  facet normal 0 -1 0
    outer loop
      vertex 2.4 21.7404 8.81707
      vertex 5 21.7404 9.18292
      vertex 2.4 21.7404 9.18292
    endloop
  endfacet
  facet normal 0 -1 -0
    outer loop
      vertex 5 21.7404 9.18292
      vertex 2.4 21.7404 8.81707
      vertex 5 21.7404 8.81707
    endloop
  endfacet
  facet normal 0 -1 0
    outer loop
      vertex 19 21.7404 8.81707
      vertex 24 21.7404 9.18292
      vertex 19 21.7404 9.18292
    endloop
  endfacet
  facet normal 0 -1 -0
    outer loop
      vertex 24 21.7404 9.18292
      vertex 19 21.7404 8.81707
      vertex 24 21.7404 8.81707
    endloop
  endfacet
  facet normal 0 -0.913546 0.406735
    outer loop
      vertex 2.4 21.5155 8.125
      vertex 5 21.6643 8.45922
      vertex 2.4 21.6643 8.45922
    endloop
  endfacet
  facet normal 0 -0.913546 0.406735
    outer loop
      vertex 5 21.6643 8.45922
      vertex 2.4 21.5155 8.125
      vertex 5 21.5155 8.125
    endloop
  endfacet
  facet normal 0 -0.913546 0.406735
    outer loop
      vertex 19 21.5155 8.125
      vertex 24 21.6643 8.45922
      vertex 19 21.6643 8.45922
    endloop
  endfacet
  facet normal 0 -0.913546 0.406735
    outer loop
      vertex 24 21.6643 8.45922
      vertex 19 21.5155 8.125
      vertex 24 21.5155 8.125
    endloop
  endfacet
  facet normal 0 0.809016 0.587786
    outer loop
      vertex 5 18.6995 7.82902
      vertex 2.4 18.4845 8.125
      vertex 5 18.4845 8.125
    endloop
  endfacet
  facet normal 0 0.809016 0.587786
    outer loop
      vertex 2.4 18.4845 8.125
      vertex 5 18.6995 7.82902
      vertex 2.4 18.6995 7.82902
    endloop
  endfacet
  facet normal 0 0.809016 0.587786
    outer loop
      vertex 24 18.6995 7.82902
      vertex 19 18.4845 8.125
      vertex 24 18.4845 8.125
    endloop
  endfacet
  facet normal 0 0.809016 0.587786
    outer loop
      vertex 19 18.4845 8.125
      vertex 24 18.6995 7.82902
      vertex 19 18.6995 7.82902
    endloop
  endfacet
  facet normal -0 0.669132 0.743143
    outer loop
      vertex 2.4 18.9714 7.58422
      vertex 5 18.6995 7.82902
      vertex 5 18.9714 7.58422
    endloop
  endfacet
  facet normal 0 0.669132 0.743143
    outer loop
      vertex 5 18.6995 7.82902
      vertex 2.4 18.9714 7.58422
      vertex 2.4 18.6995 7.82902
    endloop
  endfacet
  facet normal -0 0.669132 0.743143
    outer loop
      vertex 19 18.9714 7.58422
      vertex 24 18.6995 7.82902
      vertex 24 18.9714 7.58422
    endloop
  endfacet
  facet normal 0 0.669132 0.743143
    outer loop
      vertex 24 18.6995 7.82902
      vertex 19 18.9714 7.58422
      vertex 19 18.6995 7.82902
    endloop
  endfacet
  facet normal -0 0.309017 0.951057
    outer loop
      vertex 2.4 19.6362 7.28824
      vertex 5 19.2882 7.40129
      vertex 5 19.6362 7.28824
    endloop
  endfacet
  facet normal 0 0.309017 0.951057
    outer loop
      vertex 5 19.2882 7.40129
      vertex 2.4 19.6362 7.28824
      vertex 2.4 19.2882 7.40129
    endloop
  endfacet
  facet normal -0 0.309017 0.951057
    outer loop
      vertex 19 19.6362 7.28824
      vertex 24 19.2882 7.40129
      vertex 24 19.6362 7.28824
    endloop
  endfacet
  facet normal 0 0.309017 0.951057
    outer loop
      vertex 24 19.2882 7.40129
      vertex 19 19.6362 7.28824
      vertex 19 19.2882 7.40129
    endloop
  endfacet
  facet normal 0 0.669132 -0.743143
    outer loop
      vertex 2.4 18.6995 10.171
      vertex 5 18.9714 10.4158
      vertex 5 18.6995 10.171
    endloop
  endfacet
  facet normal 0 0.669132 -0.743143
    outer loop
      vertex 5 18.9714 10.4158
      vertex 2.4 18.6995 10.171
      vertex 2.4 18.9714 10.4158
    endloop
  endfacet
  facet normal 0 0.669132 -0.743143
    outer loop
      vertex 19 18.6995 10.171
      vertex 24 18.9714 10.4158
      vertex 24 18.6995 10.171
    endloop
  endfacet
  facet normal 0 0.669132 -0.743143
    outer loop
      vertex 24 18.9714 10.4158
      vertex 19 18.6995 10.171
      vertex 19 18.9714 10.4158
    endloop
  endfacet
  facet normal 0 0.913546 0.406735
    outer loop
      vertex 5 18.4845 8.125
      vertex 2.4 18.3357 8.45922
      vertex 5 18.3357 8.45922
    endloop
  endfacet
  facet normal 0 0.913546 0.406735
    outer loop
      vertex 2.4 18.3357 8.45922
      vertex 5 18.4845 8.125
      vertex 2.4 18.4845 8.125
    endloop
  endfacet
  facet normal 0 0.913546 0.406735
    outer loop
      vertex 24 18.4845 8.125
      vertex 19 18.3357 8.45922
      vertex 24 18.3357 8.45922
    endloop
  endfacet
  facet normal 0 0.913546 0.406735
    outer loop
      vertex 19 18.3357 8.45922
      vertex 24 18.4845 8.125
      vertex 19 18.4845 8.125
    endloop
  endfacet
  facet normal 0 0.978147 -0.207913
    outer loop
      vertex 5 18.2596 9.18292
      vertex 2.4 18.3357 9.54078
      vertex 5 18.3357 9.54078
    endloop
  endfacet
  facet normal 0 0.978147 -0.207913
    outer loop
      vertex 2.4 18.3357 9.54078
      vertex 5 18.2596 9.18292
      vertex 2.4 18.2596 9.18292
    endloop
  endfacet
  facet normal 0 0.978147 -0.207913
    outer loop
      vertex 24 18.2596 9.18292
      vertex 19 18.3357 9.54078
      vertex 24 18.3357 9.54078
    endloop
  endfacet
  facet normal 0 0.978147 -0.207913
    outer loop
      vertex 19 18.3357 9.54078
      vertex 24 18.2596 9.18292
      vertex 19 18.2596 9.18292
    endloop
  endfacet
  facet normal 0 0.499998 -0.866026
    outer loop
      vertex 2.4 18.9714 10.4158
      vertex 5 19.2882 10.5987
      vertex 5 18.9714 10.4158
    endloop
  endfacet
  facet normal 0 0.499998 -0.866026
    outer loop
      vertex 5 19.2882 10.5987
      vertex 2.4 18.9714 10.4158
      vertex 2.4 19.2882 10.5987
    endloop
  endfacet
  facet normal 0 0.499998 -0.866026
    outer loop
      vertex 19 18.9714 10.4158
      vertex 24 19.2882 10.5987
      vertex 24 18.9714 10.4158
    endloop
  endfacet
  facet normal 0 0.499998 -0.866026
    outer loop
      vertex 24 19.2882 10.5987
      vertex 19 18.9714 10.4158
      vertex 19 19.2882 10.5987
    endloop
  endfacet
  facet normal 0 0.309017 -0.951057
    outer loop
      vertex 2.4 19.2882 10.5987
      vertex 5 19.6362 10.7118
      vertex 5 19.2882 10.5987
    endloop
  endfacet
  facet normal 0 0.309017 -0.951057
    outer loop
      vertex 5 19.6362 10.7118
      vertex 2.4 19.2882 10.5987
      vertex 2.4 19.6362 10.7118
    endloop
  endfacet
  facet normal 0 0.309017 -0.951057
    outer loop
      vertex 19 19.2882 10.5987
      vertex 24 19.6362 10.7118
      vertex 24 19.2882 10.5987
    endloop
  endfacet
  facet normal 0 0.309017 -0.951057
    outer loop
      vertex 24 19.6362 10.7118
      vertex 19 19.2882 10.5987
      vertex 19 19.6362 10.7118
    endloop
  endfacet
  facet normal 0 0.10453 -0.994522
    outer loop
      vertex 2.4 19.6362 10.7118
      vertex 5 20 10.75
      vertex 5 19.6362 10.7118
    endloop
  endfacet
  facet normal 0 0.10453 -0.994522
    outer loop
      vertex 5 20 10.75
      vertex 2.4 19.6362 10.7118
      vertex 2.4 20 10.75
    endloop
  endfacet
  facet normal 0 0.10453 -0.994522
    outer loop
      vertex 19 19.6362 10.7118
      vertex 24 20 10.75
      vertex 24 19.6362 10.7118
    endloop
  endfacet
  facet normal 0 0.10453 -0.994522
    outer loop
      vertex 24 20 10.75
      vertex 19 19.6362 10.7118
      vertex 19 20 10.75
    endloop
  endfacet
  facet normal 0 0.913546 -0.406734
    outer loop
      vertex 5 18.3357 9.54078
      vertex 2.4 18.4845 9.875
      vertex 5 18.4845 9.875
    endloop
  endfacet
  facet normal 0 0.913546 -0.406734
    outer loop
      vertex 2.4 18.4845 9.875
      vertex 5 18.3357 9.54078
      vertex 2.4 18.3357 9.54078
    endloop
  endfacet
  facet normal 0 0.913546 -0.406734
    outer loop
      vertex 24 18.3357 9.54078
      vertex 19 18.4845 9.875
      vertex 24 18.4845 9.875
    endloop
  endfacet
  facet normal 0 0.913546 -0.406734
    outer loop
      vertex 19 18.4845 9.875
      vertex 24 18.3357 9.54078
      vertex 19 18.3357 9.54078
    endloop
  endfacet
  facet normal 0 0.809016 -0.587787
    outer loop
      vertex 5 18.4845 9.875
      vertex 2.4 18.6995 10.171
      vertex 5 18.6995 10.171
    endloop
  endfacet
  facet normal 0 0.809016 -0.587787
    outer loop
      vertex 2.4 18.6995 10.171
      vertex 5 18.4845 9.875
      vertex 2.4 18.4845 9.875
    endloop
  endfacet
  facet normal 0 0.809016 -0.587787
    outer loop
      vertex 24 18.4845 9.875
      vertex 19 18.6995 10.171
      vertex 24 18.6995 10.171
    endloop
  endfacet
  facet normal 0 0.809016 -0.587787
    outer loop
      vertex 19 18.6995 10.171
      vertex 24 18.4845 9.875
      vertex 19 18.4845 9.875
    endloop
  endfacet
  facet normal -0.994522 0 0.10453
    outer loop
      vertex 15.179 0 17.3243
      vertex 15.25 4 18
      vertex 15.179 4 17.3243
    endloop
  endfacet
  facet normal -0.994522 0 0.10453
    outer loop
      vertex 15.25 4 18
      vertex 15.179 0 17.3243
      vertex 15.25 0 18
    endloop
  endfacet
  facet normal 0.994517 0 -0.104575
    outer loop
      vertex 8.82074 0 18.673
      vertex 8.82102 4 18.6757
      vertex 8.82102 0 18.6757
    endloop
  endfacet
  facet normal 0.994522 -3.25632e-008 -0.104528
    outer loop
      vertex 8.82102 4 18.6757
      vertex 8.82074 0 18.673
      vertex 8.80937 4 18.5649
    endloop
  endfacet
  facet normal -0 0 1
    outer loop
      vertex 11.6603 4 14.7678
      vertex 12.3397 0 14.7678
      vertex 12.3397 4 14.7678
    endloop
  endfacet
  facet normal 0 0 1
    outer loop
      vertex 12.3397 0 14.7678
      vertex 11.6603 4 14.7678
      vertex 11.6603 0 14.7678
    endloop
  endfacet
  facet normal -0.743146 0 0.66913
    outer loop
      vertex 14.1747 0 15.5848
      vertex 14.6293 4 16.0897
      vertex 14.1747 4 15.5848
    endloop
  endfacet
  facet normal -0.743146 0 0.66913
    outer loop
      vertex 14.6293 4 16.0897
      vertex 14.1747 0 15.5848
      vertex 14.6293 0 16.0897
    endloop
  endfacet
  facet normal 0.743146 -0 0.66913
    outer loop
      vertex 9.37069 0 16.0897
      vertex 9.82533 4 15.5848
      vertex 9.37069 4 16.0897
    endloop
  endfacet
  facet normal 0.743146 0 0.66913
    outer loop
      vertex 9.82533 4 15.5848
      vertex 9.37069 0 16.0897
      vertex 9.82533 0 15.5848
    endloop
  endfacet
  facet normal 0.406737 0 0.913545
    outer loop
      vertex 10.375 4 15.1854
      vertex 10.9957 0 14.9091
      vertex 10.9957 4 14.9091
    endloop
  endfacet
  facet normal 0.406737 0 0.913545
    outer loop
      vertex 10.9957 0 14.9091
      vertex 10.375 4 15.1854
      vertex 10.375 0 15.1854
    endloop
  endfacet
  facet normal -0.866025 0 -0.500001
    outer loop
      vertex 14.969 0 19.3219
      vertex 14.892 4 19.4554
      vertex 14.969 4 19.3219
    endloop
  endfacet
  facet normal -0.866026 -4.25014e-008 -0.5
    outer loop
      vertex 14.6293 0 19.9103
      vertex 14.892 4 19.4554
      vertex 14.969 0 19.3219
    endloop
  endfacet
  facet normal -0.866026 0 -0.499999
    outer loop
      vertex 14.892 4 19.4554
      vertex 14.6293 0 19.9103
      vertex 14.6293 4 19.9103
    endloop
  endfacet
  facet normal -0.866025 0 0.500001
    outer loop
      vertex 14.6293 0 16.0897
      vertex 14.969 4 16.6781
      vertex 14.6293 4 16.0897
    endloop
  endfacet
  facet normal -0.866025 0 0.500001
    outer loop
      vertex 14.969 4 16.6781
      vertex 14.6293 0 16.0897
      vertex 14.969 0 16.6781
    endloop
  endfacet
  facet normal -0.951057 0 0.309016
    outer loop
      vertex 14.969 0 16.6781
      vertex 15.179 4 17.3243
      vertex 14.969 4 16.6781
    endloop
  endfacet
  facet normal -0.951057 0 0.309016
    outer loop
      vertex 15.179 4 17.3243
      vertex 14.969 0 16.6781
      vertex 15.179 0 17.3243
    endloop
  endfacet
  facet normal -0.406736 0 0.913546
    outer loop
      vertex 13.0043 4 14.9091
      vertex 13.625 0 15.1854
      vertex 13.625 4 15.1854
    endloop
  endfacet
  facet normal -0.406736 0 0.913546
    outer loop
      vertex 13.625 0 15.1854
      vertex 13.0043 4 14.9091
      vertex 13.0043 0 14.9091
    endloop
  endfacet
  facet normal -0.207912 0 0.978147
    outer loop
      vertex 12.3397 4 14.7678
      vertex 13.0043 0 14.9091
      vertex 13.0043 4 14.9091
    endloop
  endfacet
  facet normal -0.207912 0 0.978147
    outer loop
      vertex 13.0043 0 14.9091
      vertex 12.3397 4 14.7678
      vertex 12.3397 0 14.7678
    endloop
  endfacet
  facet normal -0.587785 0 0.809017
    outer loop
      vertex 13.625 4 15.1854
      vertex 14.1747 0 15.5848
      vertex 14.1747 4 15.5848
    endloop
  endfacet
  facet normal -0.587785 0 0.809017
    outer loop
      vertex 14.1747 0 15.5848
      vertex 13.625 4 15.1854
      vertex 13.625 0 15.1854
    endloop
  endfacet
  facet normal 0.951057 -0 0.309016
    outer loop
      vertex 8.82102 0 17.3243
      vertex 9.03098 4 16.6781
      vertex 8.82102 4 17.3243
    endloop
  endfacet
  facet normal 0.951057 0 0.309016
    outer loop
      vertex 9.03098 4 16.6781
      vertex 8.82102 0 17.3243
      vertex 9.03098 0 16.6781
    endloop
  endfacet
  facet normal 0.866025 -0 0.500001
    outer loop
      vertex 9.03098 0 16.6781
      vertex 9.37069 4 16.0897
      vertex 9.03098 4 16.6781
    endloop
  endfacet
  facet normal 0.866025 0 0.500001
    outer loop
      vertex 9.37069 4 16.0897
      vertex 9.03098 0 16.6781
      vertex 9.37069 0 16.0897
    endloop
  endfacet
  facet normal 0.994522 6.42022e-009 0.104528
    outer loop
      vertex 8.82102 0 17.3243
      vertex 8.76165 4 17.8892
      vertex 8.75028 0 17.9973
    endloop
  endfacet
  facet normal 0.994522 0 0.104528
    outer loop
      vertex 8.76165 4 17.8892
      vertex 8.82102 0 17.3243
      vertex 8.82102 4 17.3243
    endloop
  endfacet
  facet normal 0.587785 0 0.809017
    outer loop
      vertex 9.82533 4 15.5848
      vertex 10.375 0 15.1854
      vertex 10.375 4 15.1854
    endloop
  endfacet
  facet normal 0.587785 0 0.809017
    outer loop
      vertex 10.375 0 15.1854
      vertex 9.82533 4 15.5848
      vertex 9.82533 0 15.5848
    endloop
  endfacet
  facet normal 0.207912 0 0.978147
    outer loop
      vertex 10.9957 4 14.9091
      vertex 11.6603 0 14.7678
      vertex 11.6603 4 14.7678
    endloop
  endfacet
  facet normal 0.207912 0 0.978147
    outer loop
      vertex 11.6603 0 14.7678
      vertex 10.9957 4 14.9091
      vertex 10.9957 0 14.9091
    endloop
  endfacet
  facet normal -0.207914 0 -0.978147
    outer loop
      vertex 12.3397 0 21.2322
      vertex 13.0043 4 21.0909
      vertex 13.0043 0 21.0909
    endloop
  endfacet
  facet normal -0.207914 0 -0.978147
    outer loop
      vertex 13.0043 4 21.0909
      vertex 12.3397 0 21.2322
      vertex 12.3397 4 21.2322
    endloop
  endfacet
  facet normal -0.587786 0 -0.809016
    outer loop
      vertex 13.625 0 20.8146
      vertex 14.1747 4 20.4152
      vertex 14.1747 0 20.4152
    endloop
  endfacet
  facet normal -0.587786 0 -0.809016
    outer loop
      vertex 14.1747 4 20.4152
      vertex 13.625 0 20.8146
      vertex 13.625 4 20.8146
    endloop
  endfacet
  facet normal 0.587786 0 -0.809016
    outer loop
      vertex 9.82533 0 20.4152
      vertex 10.375 4 20.8146
      vertex 10.375 0 20.8146
    endloop
  endfacet
  facet normal 0.587786 0 -0.809016
    outer loop
      vertex 10.375 4 20.8146
      vertex 9.82533 0 20.4152
      vertex 9.82533 4 20.4152
    endloop
  endfacet
  facet normal 0.207914 0 -0.978147
    outer loop
      vertex 10.9957 0 21.0909
      vertex 11.6603 4 21.2322
      vertex 11.6603 0 21.2322
    endloop
  endfacet
  facet normal 0.207914 0 -0.978147
    outer loop
      vertex 11.6603 4 21.2322
      vertex 10.9957 0 21.0909
      vertex 10.9957 4 21.0909
    endloop
  endfacet
  facet normal 0.743145 0 -0.66913
    outer loop
      vertex 9.82533 0 20.4152
      vertex 9.37069 4 19.9103
      vertex 9.82533 4 20.4152
    endloop
  endfacet
  facet normal 0.743145 0 -0.66913
    outer loop
      vertex 9.37069 4 19.9103
      vertex 9.82533 0 20.4152
      vertex 9.37069 0 19.9103
    endloop
  endfacet
  facet normal 0.951056 0 -0.309017
    outer loop
      vertex 9.03098 0 19.3219
      vertex 8.82102 4 18.6757
      vertex 9.03098 4 19.3219
    endloop
  endfacet
  facet normal 0.951056 0 -0.309017
    outer loop
      vertex 8.82102 4 18.6757
      vertex 9.03098 0 19.3219
      vertex 8.82102 0 18.6757
    endloop
  endfacet
  facet normal 0.994525 0 0.104502
    outer loop
      vertex 8.75028 0 17.9973
      vertex 8.75 4 18
      vertex 8.75 0 18
    endloop
  endfacet
  facet normal 0.994522 -1.72794e-008 0.104528
    outer loop
      vertex 8.75 4 18
      vertex 8.75028 0 17.9973
      vertex 8.76165 4 17.8892
    endloop
  endfacet
  facet normal 0.994522 -4.82563e-008 -0.104528
    outer loop
      vertex 8.75 0 18
      vertex 8.80937 4 18.5649
      vertex 8.82074 0 18.673
    endloop
  endfacet
  facet normal 0.994522 0 -0.104528
    outer loop
      vertex 8.80937 4 18.5649
      vertex 8.75 0 18
      vertex 8.75 4 18
    endloop
  endfacet
  facet normal -0.406735 0 -0.913546
    outer loop
      vertex 13.0043 0 21.0909
      vertex 13.625 4 20.8146
      vertex 13.625 0 20.8146
    endloop
  endfacet
  facet normal -0.406735 0 -0.913546
    outer loop
      vertex 13.625 4 20.8146
      vertex 13.0043 0 21.0909
      vertex 13.0043 4 21.0909
    endloop
  endfacet
  facet normal -0.743145 0 -0.66913
    outer loop
      vertex 14.6293 0 19.9103
      vertex 14.1747 4 20.4152
      vertex 14.6293 4 19.9103
    endloop
  endfacet
  facet normal -0.743145 -0 -0.66913
    outer loop
      vertex 14.1747 4 20.4152
      vertex 14.6293 0 19.9103
      vertex 14.1747 0 20.4152
    endloop
  endfacet
  facet normal -0.951056 0 -0.309017
    outer loop
      vertex 15.179 0 18.6757
      vertex 14.969 4 19.3219
      vertex 15.179 4 18.6757
    endloop
  endfacet
  facet normal -0.951056 -0 -0.309017
    outer loop
      vertex 14.969 4 19.3219
      vertex 15.179 0 18.6757
      vertex 14.969 0 19.3219
    endloop
  endfacet
  facet normal -0.994522 0 -0.10453
    outer loop
      vertex 15.25 0 18
      vertex 15.179 4 18.6757
      vertex 15.25 4 18
    endloop
  endfacet
  facet normal -0.994522 -0 -0.10453
    outer loop
      vertex 15.179 4 18.6757
      vertex 15.25 0 18
      vertex 15.179 0 18.6757
    endloop
  endfacet
  facet normal 0.406735 0 -0.913546
    outer loop
      vertex 10.375 0 20.8146
      vertex 10.9957 4 21.0909
      vertex 10.9957 0 21.0909
    endloop
  endfacet
  facet normal 0.406735 0 -0.913546
    outer loop
      vertex 10.9957 4 21.0909
      vertex 10.375 0 20.8146
      vertex 10.375 4 20.8146
    endloop
  endfacet
  facet normal 0 0 -1
    outer loop
      vertex 11.6603 0 21.2322
      vertex 12.3397 4 21.2322
      vertex 12.3397 0 21.2322
    endloop
  endfacet
  facet normal -0 0 -1
    outer loop
      vertex 12.3397 4 21.2322
      vertex 11.6603 0 21.2322
      vertex 11.6603 4 21.2322
    endloop
  endfacet
  facet normal 0.866026 0 -0.499999
    outer loop
      vertex 9.37069 0 19.9103
      vertex 9.10805 4 19.4554
      vertex 9.37069 4 19.9103
    endloop
  endfacet
  facet normal 0.866026 -4.25014e-008 -0.5
    outer loop
      vertex 9.03098 0 19.3219
      vertex 9.10805 4 19.4554
      vertex 9.37069 0 19.9103
    endloop
  endfacet
  facet normal 0.866025 0 -0.500001
    outer loop
      vertex 9.10805 4 19.4554
      vertex 9.03098 0 19.3219
      vertex 9.03098 4 19.3219
    endloop
  endfacet
  facet normal -0.207912 0 -0.978147
    outer loop
      vertex 12.7317 4 24.9617
      vertex 14.1631 8 24.6574
      vertex 14.1631 4 24.6574
    endloop
  endfacet
  facet normal -0.207912 0 -0.978147
    outer loop
      vertex 14.1631 8 24.6574
      vertex 12.7317 4 24.9617
      vertex 12.7317 8 24.9617
    endloop
  endfacet
  facet normal -0.587786 0 0.809017
    outer loop
      vertex 15.5 8 11.9378
      vertex 16.6839 4 12.798
      vertex 16.6839 8 12.798
    endloop
  endfacet
  facet normal -0.587786 0 0.809017
    outer loop
      vertex 16.6839 4 12.798
      vertex 15.5 8 11.9378
      vertex 15.5 4 11.9378
    endloop
  endfacet
  facet normal -0.994522 0 0.104529
    outer loop
      vertex 18.847 4 16.5446
      vertex 19 8 18
      vertex 18.847 8 16.5446
    endloop
  endfacet
  facet normal -0.994522 0 0.104529
    outer loop
      vertex 19 8 18
      vertex 18.847 4 16.5446
      vertex 19 4 18
    endloop
  endfacet
  facet normal 0.994522 0 -0.104528
    outer loop
      vertex 5.15297 8 19.4554
      vertex 5.15297 4 19.4554
      vertex 5.12849 8 19.2225
    endloop
  endfacet
  facet normal 2.84817e-008 1 1.33996e-007
    outer loop
      vertex 11.2683 4 11.0383
      vertex 9.83688 4 11.3426
      vertex 5.15297 4 19.4554
    endloop
  endfacet
  facet normal 0.207912 0 0.978148
    outer loop
      vertex 9.83688 8 11.3426
      vertex 11.2683 4 11.0383
      vertex 11.2683 8 11.0383
    endloop
  endfacet
  facet normal 0.207912 0 0.978148
    outer loop
      vertex 11.2683 4 11.0383
      vertex 9.83688 8 11.3426
      vertex 9.83688 4 11.3426
    endloop
  endfacet
  facet normal 2.48921e-007 1 2.2413e-007
    outer loop
      vertex 7.31608 4 12.798
      vertex 6.33688 4 13.8855
      vertex 5.15297 4 19.4554
    endloop
  endfacet
  facet normal 0.743145 -0 0.66913
    outer loop
      vertex 6.33688 4 13.8855
      vertex 7.31608 8 12.798
      vertex 6.33688 8 13.8855
    endloop
  endfacet
  facet normal 0.743145 0 0.66913
    outer loop
      vertex 7.31608 8 12.798
      vertex 6.33688 4 13.8855
      vertex 7.31608 4 12.798
    endloop
  endfacet
  facet normal -7.04458e-008 1 1.58224e-007
    outer loop
      vertex 18.847 4 19.4554
      vertex 15.5 4 11.9378
      vertex 14.1631 4 11.3426
    endloop
  endfacet
  facet normal -0.406736 0 -0.913546
    outer loop
      vertex 14.1631 4 24.6574
      vertex 15.5 8 24.0622
      vertex 15.5 4 24.0622
    endloop
  endfacet
  facet normal -0.406736 0 -0.913546
    outer loop
      vertex 15.5 8 24.0622
      vertex 14.1631 4 24.6574
      vertex 14.1631 8 24.6574
    endloop
  endfacet
  facet normal 0 1 0
    outer loop
      vertex 18.847 4 19.4554
      vertex 14.969 4 19.3219
      vertex 14.892 4 19.4554
    endloop
  endfacet
  facet normal 0 1 0
    outer loop
      vertex 18.847 4 19.4554
      vertex 15.179 4 18.6757
      vertex 14.969 4 19.3219
    endloop
  endfacet
  facet normal -7.33596e-008 1 3.4513e-007
    outer loop
      vertex 18.847 4 19.4554
      vertex 15.25 4 18
      vertex 15.179 4 18.6757
    endloop
  endfacet
  facet normal 6.92259e-008 1 -7.27602e-009
    outer loop
      vertex 18.847 4 19.4554
      vertex 15.179 4 17.3243
      vertex 15.25 4 18
    endloop
  endfacet
  facet normal 8.0124e-008 1 -2.60338e-008
    outer loop
      vertex 18.847 4 19.4554
      vertex 14.969 4 16.6781
      vertex 15.179 4 17.3243
    endloop
  endfacet
  facet normal -3.89932e-007 1 6.30322e-007
    outer loop
      vertex 18.847 4 19.4554
      vertex 14.6293 4 16.0897
      vertex 14.969 4 16.6781
    endloop
  endfacet
  facet normal 5.38788e-008 1 7.41577e-008
    outer loop
      vertex 12.7317 4 11.0383
      vertex 14.6293 4 16.0897
      vertex 18.847 4 19.4554
    endloop
  endfacet
  facet normal 0 1 1.27857e-007
    outer loop
      vertex 12.3397 4 14.7678
      vertex 12.7317 4 11.0383
      vertex 11.6603 4 14.7678
    endloop
  endfacet
  facet normal -2.65831e-008 1 1.25063e-007
    outer loop
      vertex 13.0043 4 14.9091
      vertex 12.7317 4 11.0383
      vertex 12.3397 4 14.7678
    endloop
  endfacet
  facet normal -5.66235e-008 1 1.27179e-007
    outer loop
      vertex 13.625 4 15.1854
      vertex 12.7317 4 11.0383
      vertex 13.0043 4 14.9091
    endloop
  endfacet
  facet normal -9.90388e-008 1 1.36315e-007
    outer loop
      vertex 14.1747 4 15.5848
      vertex 12.7317 4 11.0383
      vertex 13.625 4 15.1854
    endloop
  endfacet
  facet normal -1.79895e-007 1 1.61978e-007
    outer loop
      vertex 14.6293 4 16.0897
      vertex 12.7317 4 11.0383
      vertex 14.1747 4 15.5848
    endloop
  endfacet
  facet normal 0 1 -0
    outer loop
      vertex 9.03098 4 19.3219
      vertex 5.15297 4 19.4554
      vertex 9.10805 4 19.4554
    endloop
  endfacet
  facet normal 0 1 -0
    outer loop
      vertex 8.82102 4 18.6757
      vertex 5.15297 4 19.4554
      vertex 9.03098 4 19.3219
    endloop
  endfacet
  facet normal 0 1 -0
    outer loop
      vertex 8.80937 4 18.5649
      vertex 5.15297 4 19.4554
      vertex 8.82102 4 18.6757
    endloop
  endfacet
  facet normal 1.00223e-007 1 4.11524e-007
    outer loop
      vertex 8.75 4 18
      vertex 5.15297 4 19.4554
      vertex 8.80937 4 18.5649
    endloop
  endfacet
  facet normal -6.92259e-008 1 -7.27586e-009
    outer loop
      vertex 8.76165 4 17.8892
      vertex 5.15297 4 19.4554
      vertex 8.75 4 18
    endloop
  endfacet
  facet normal -6.92259e-008 1 -7.27593e-009
    outer loop
      vertex 8.82102 4 17.3243
      vertex 5.15297 4 19.4554
      vertex 8.76165 4 17.8892
    endloop
  endfacet
  facet normal -8.0124e-008 1 -2.60338e-008
    outer loop
      vertex 9.03098 4 16.6781
      vertex 5.15297 4 19.4554
      vertex 8.82102 4 17.3243
    endloop
  endfacet
  facet normal 3.89932e-007 1 6.30322e-007
    outer loop
      vertex 9.37069 4 16.0897
      vertex 5.15297 4 19.4554
      vertex 9.03098 4 16.6781
    endloop
  endfacet
  facet normal 1.79895e-007 1 1.61978e-007
    outer loop
      vertex 11.2683 4 11.0383
      vertex 9.37069 4 16.0897
      vertex 9.82533 4 15.5848
    endloop
  endfacet
  facet normal -0 1 1.27857e-007
    outer loop
      vertex 11.2683 4 11.0383
      vertex 11.6603 4 14.7678
      vertex 12.7317 4 11.0383
    endloop
  endfacet
  facet normal 2.65831e-008 1 1.25063e-007
    outer loop
      vertex 11.6603 4 14.7678
      vertex 11.2683 4 11.0383
      vertex 10.9957 4 14.9091
    endloop
  endfacet
  facet normal 5.66236e-008 1 1.27179e-007
    outer loop
      vertex 10.9957 4 14.9091
      vertex 11.2683 4 11.0383
      vertex 10.375 4 15.1854
    endloop
  endfacet
  facet normal 9.90385e-008 1 1.36315e-007
    outer loop
      vertex 10.375 4 15.1854
      vertex 11.2683 4 11.0383
      vertex 9.82533 4 15.5848
    endloop
  endfacet
  facet normal -5.38788e-008 1 7.41577e-008
    outer loop
      vertex 9.37069 4 16.0897
      vertex 11.2683 4 11.0383
      vertex 5.15297 4 19.4554
    endloop
  endfacet
  facet normal 1.00836e-006 1 3.27637e-007
    outer loop
      vertex 5.60518 4 15.1528
      vertex 5.15297 4 16.5446
      vertex 5.15297 4 19.4554
    endloop
  endfacet
  facet normal 1.36239e-007 1 1.87517e-007
    outer loop
      vertex 8.5 4 11.9378
      vertex 7.31608 4 12.798
      vertex 5.15297 4 19.4554
    endloop
  endfacet
  facet normal 0.587785 0 0.809017
    outer loop
      vertex 7.31608 8 12.798
      vertex 8.5 4 11.9378
      vertex 8.5 8 11.9378
    endloop
  endfacet
  facet normal 0.587785 0 0.809017
    outer loop
      vertex 8.5 4 11.9378
      vertex 7.31608 8 12.798
      vertex 7.31608 4 12.798
    endloop
  endfacet
  facet normal -2.84817e-008 1 1.33996e-007
    outer loop
      vertex 18.847 4 19.4554
      vertex 14.1631 4 11.3426
      vertex 12.7317 4 11.0383
    endloop
  endfacet
  facet normal -1.00836e-006 1 3.27637e-007
    outer loop
      vertex 18.847 4 19.4554
      vertex 18.847 4 16.5446
      vertex 18.3948 4 15.1528
    endloop
  endfacet
  facet normal -0.951057 0 -0.309017
    outer loop
      vertex 18.847 4 19.4554
      vertex 18.3948 8 20.8472
      vertex 18.847 8 19.4554
    endloop
  endfacet
  facet normal -0.951057 -0 -0.309017
    outer loop
      vertex 18.3948 8 20.8472
      vertex 18.847 4 19.4554
      vertex 18.3948 4 20.8472
    endloop
  endfacet
  facet normal -4.69361e-007 1 2.70986e-007
    outer loop
      vertex 18.847 4 19.4554
      vertex 18.3948 4 15.1528
      vertex 17.6631 4 13.8855
    endloop
  endfacet
  facet normal 0.951056 -0 0.309017
    outer loop
      vertex 5.15297 4 16.5446
      vertex 5.60518 8 15.1528
      vertex 5.15297 8 16.5446
    endloop
  endfacet
  facet normal 0.951056 0 0.309017
    outer loop
      vertex 5.60518 8 15.1528
      vertex 5.15297 4 16.5446
      vertex 5.60518 4 15.1528
    endloop
  endfacet
  facet normal 3.11727e-006 1 3.27637e-007
    outer loop
      vertex 5.15297 4 19.4554
      vertex 5.15297 4 16.5446
      vertex 5 4 18
    endloop
  endfacet
  facet normal 0.866026 -0 0.5
    outer loop
      vertex 5.60518 4 15.1528
      vertex 6.33688 8 13.8855
      vertex 5.60518 8 15.1528
    endloop
  endfacet
  facet normal 0.866026 0 0.5
    outer loop
      vertex 6.33688 8 13.8855
      vertex 5.60518 4 15.1528
      vertex 6.33688 4 13.8855
    endloop
  endfacet
  facet normal 4.69361e-007 1 2.70986e-007
    outer loop
      vertex 6.33688 4 13.8855
      vertex 5.60518 4 15.1528
      vertex 5.15297 4 19.4554
    endloop
  endfacet
  facet normal 0.994522 3.4648e-008 0.104528
    outer loop
      vertex 5.15297 4 16.5446
      vertex 5.02447 8 17.7671
      vertex 5 4 18
    endloop
  endfacet
  facet normal 0.994522 0 0.104528
    outer loop
      vertex 5.02447 8 17.7671
      vertex 5.15297 4 16.5446
      vertex 5.15297 8 16.5446
    endloop
  endfacet
  facet normal 0.406737 0 0.913545
    outer loop
      vertex 8.5 8 11.9378
      vertex 9.83688 4 11.3426
      vertex 9.83688 8 11.3426
    endloop
  endfacet
  facet normal 0.406737 0 0.913545
    outer loop
      vertex 9.83688 4 11.3426
      vertex 8.5 8 11.9378
      vertex 8.5 4 11.9378
    endloop
  endfacet
  facet normal 7.04459e-008 1 1.58224e-007
    outer loop
      vertex 9.83688 4 11.3426
      vertex 8.5 4 11.9378
      vertex 5.15297 4 19.4554
    endloop
  endfacet
  facet normal -0.994522 0 -0.104529
    outer loop
      vertex 19 4 18
      vertex 18.847 8 19.4554
      vertex 19 8 18
    endloop
  endfacet
  facet normal -0.994522 -0 -0.104529
    outer loop
      vertex 18.847 8 19.4554
      vertex 19 4 18
      vertex 18.847 4 19.4554
    endloop
  endfacet
  facet normal -3.11725e-006 1 3.27637e-007
    outer loop
      vertex 19 4 18
      vertex 18.847 4 16.5446
      vertex 18.847 4 19.4554
    endloop
  endfacet
  facet normal 0 1 0
    outer loop
      vertex 12.3397 4 21.2322
      vertex 12.7317 4 24.9617
      vertex 14.1631 4 24.6574
    endloop
  endfacet
  facet normal 0 1 0
    outer loop
      vertex 12.7317 4 24.9617
      vertex 12.3397 4 21.2322
      vertex 11.2683 4 24.9617
    endloop
  endfacet
  facet normal 0 1 0
    outer loop
      vertex 13.0043 4 21.0909
      vertex 14.1631 4 24.6574
      vertex 15.5 4 24.0622
    endloop
  endfacet
  facet normal 0 1 -0
    outer loop
      vertex 11.6603 4 21.2322
      vertex 11.2683 4 24.9617
      vertex 12.3397 4 21.2322
    endloop
  endfacet
  facet normal 0 1 0
    outer loop
      vertex 13.625 4 20.8146
      vertex 15.5 4 24.0622
      vertex 16.6839 4 23.202
    endloop
  endfacet
  facet normal 0 1 0
    outer loop
      vertex 11.2683 4 24.9617
      vertex 11.6603 4 21.2322
      vertex 9.83688 4 24.6574
    endloop
  endfacet
  facet normal 0 1 0
    outer loop
      vertex 14.1747 4 20.4152
      vertex 16.6839 4 23.202
      vertex 17.6631 4 22.1145
    endloop
  endfacet
  facet normal 0 1 -0
    outer loop
      vertex 10.9957 4 21.0909
      vertex 9.83688 4 24.6574
      vertex 11.6603 4 21.2322
    endloop
  endfacet
  facet normal 0 1 0
    outer loop
      vertex 9.83688 4 24.6574
      vertex 10.9957 4 21.0909
      vertex 8.5 4 24.0622
    endloop
  endfacet
  facet normal 0 1 0
    outer loop
      vertex 14.1631 4 24.6574
      vertex 13.0043 4 21.0909
      vertex 12.3397 4 21.2322
    endloop
  endfacet
  facet normal 0 1 0
    outer loop
      vertex 14.892 4 19.4554
      vertex 17.6631 4 22.1145
      vertex 18.3948 4 20.8472
    endloop
  endfacet
  facet normal 0 1 0
    outer loop
      vertex 15.5 4 24.0622
      vertex 13.625 4 20.8146
      vertex 13.0043 4 21.0909
    endloop
  endfacet
  facet normal 0 1 0
    outer loop
      vertex 16.6839 4 23.202
      vertex 14.1747 4 20.4152
      vertex 13.625 4 20.8146
    endloop
  endfacet
  facet normal 0 1 0
    outer loop
      vertex 17.6631 4 22.1145
      vertex 14.6293 4 19.9103
      vertex 14.1747 4 20.4152
    endloop
  endfacet
  facet normal 0 1 0
    outer loop
      vertex 14.892 4 19.4554
      vertex 18.3948 4 20.8472
      vertex 18.847 4 19.4554
    endloop
  endfacet
  facet normal 0 1 0
    outer loop
      vertex 17.6631 4 22.1145
      vertex 14.892 4 19.4554
      vertex 14.6293 4 19.9103
    endloop
  endfacet
  facet normal 0 1 -0
    outer loop
      vertex 10.375 4 20.8146
      vertex 8.5 4 24.0622
      vertex 10.9957 4 21.0909
    endloop
  endfacet
  facet normal 0 1 0
    outer loop
      vertex 8.5 4 24.0622
      vertex 10.375 4 20.8146
      vertex 7.31608 4 23.202
    endloop
  endfacet
  facet normal 0 1 -0
    outer loop
      vertex 9.82533 4 20.4152
      vertex 7.31608 4 23.202
      vertex 10.375 4 20.8146
    endloop
  endfacet
  facet normal 0 1 0
    outer loop
      vertex 7.31608 4 23.202
      vertex 9.82533 4 20.4152
      vertex 6.33688 4 22.1145
    endloop
  endfacet
  facet normal 0 1 -0
    outer loop
      vertex 9.37069 4 19.9103
      vertex 6.33688 4 22.1145
      vertex 9.82533 4 20.4152
    endloop
  endfacet
  facet normal 0 1 -0
    outer loop
      vertex 9.10805 4 19.4554
      vertex 6.33688 4 22.1145
      vertex 9.37069 4 19.9103
    endloop
  endfacet
  facet normal 0 1 0
    outer loop
      vertex 6.33688 4 22.1145
      vertex 9.10805 4 19.4554
      vertex 5.60518 4 20.8472
    endloop
  endfacet
  facet normal 0 1 0
    outer loop
      vertex 5.60518 4 20.8472
      vertex 9.10805 4 19.4554
      vertex 5.15297 4 19.4554
    endloop
  endfacet
  facet normal -0.743145 0 0.66913
    outer loop
      vertex 16.6839 4 12.798
      vertex 17.6631 8 13.8855
      vertex 16.6839 8 12.798
    endloop
  endfacet
  facet normal -0.743145 0 0.66913
    outer loop
      vertex 17.6631 8 13.8855
      vertex 16.6839 4 12.798
      vertex 17.6631 4 13.8855
    endloop
  endfacet
  facet normal -0.207912 0 0.978148
    outer loop
      vertex 12.7317 8 11.0383
      vertex 14.1631 4 11.3426
      vertex 14.1631 8 11.3426
    endloop
  endfacet
  facet normal -0.207912 0 0.978148
    outer loop
      vertex 14.1631 4 11.3426
      vertex 12.7317 8 11.0383
      vertex 12.7317 4 11.0383
    endloop
  endfacet
  facet normal -0.406736 0 0.913546
    outer loop
      vertex 14.1631 8 11.3426
      vertex 15.5 4 11.9378
      vertex 15.5 8 11.9378
    endloop
  endfacet
  facet normal -0.406736 0 0.913546
    outer loop
      vertex 15.5 4 11.9378
      vertex 14.1631 8 11.3426
      vertex 14.1631 4 11.3426
    endloop
  endfacet
  facet normal -0 0 1
    outer loop
      vertex 11.2683 8 11.0383
      vertex 12.7317 4 11.0383
      vertex 12.7317 8 11.0383
    endloop
  endfacet
  facet normal 0 0 1
    outer loop
      vertex 12.7317 4 11.0383
      vertex 11.2683 8 11.0383
      vertex 11.2683 4 11.0383
    endloop
  endfacet
  facet normal 0.994522 0 0.104528
    outer loop
      vertex 5.02447 8 17.7671
      vertex 5 8 18
      vertex 5 4 18
    endloop
  endfacet
  facet normal 0.994522 0 -0.104528
    outer loop
      vertex 5.12849 8 19.2225
      vertex 5 4 18
      vertex 5 8 18
    endloop
  endfacet
  facet normal 0.994522 7.22006e-009 -0.104528
    outer loop
      vertex 5 4 18
      vertex 5.12849 8 19.2225
      vertex 5.15297 4 19.4554
    endloop
  endfacet
  facet normal -0.743145 0 -0.66913
    outer loop
      vertex 17.6631 4 22.1145
      vertex 16.6839 8 23.202
      vertex 17.6631 8 22.1145
    endloop
  endfacet
  facet normal -0.743145 -0 -0.66913
    outer loop
      vertex 16.6839 8 23.202
      vertex 17.6631 4 22.1145
      vertex 16.6839 4 23.202
    endloop
  endfacet
  facet normal -0.866025 0 -0.5
    outer loop
      vertex 18.3948 4 20.8472
      vertex 17.6631 8 22.1145
      vertex 18.3948 8 20.8472
    endloop
  endfacet
  facet normal -0.866025 -0 -0.5
    outer loop
      vertex 17.6631 8 22.1145
      vertex 18.3948 4 20.8472
      vertex 17.6631 4 22.1145
    endloop
  endfacet
  facet normal -0.866026 0 0.5
    outer loop
      vertex 17.6631 4 13.8855
      vertex 18.3948 8 15.1528
      vertex 17.6631 8 13.8855
    endloop
  endfacet
  facet normal -0.866026 0 0.5
    outer loop
      vertex 18.3948 8 15.1528
      vertex 17.6631 4 13.8855
      vertex 18.3948 4 15.1528
    endloop
  endfacet
  facet normal -0.951056 0 0.309017
    outer loop
      vertex 18.3948 4 15.1528
      vertex 18.847 8 16.5446
      vertex 18.3948 8 15.1528
    endloop
  endfacet
  facet normal -0.951056 0 0.309017
    outer loop
      vertex 18.847 8 16.5446
      vertex 18.3948 4 15.1528
      vertex 18.847 4 16.5446
    endloop
  endfacet
  facet normal -2.48921e-007 1 2.2413e-007
    outer loop
      vertex 18.847 4 19.4554
      vertex 17.6631 4 13.8855
      vertex 16.6839 4 12.798
    endloop
  endfacet
  facet normal -1.36239e-007 1 1.87517e-007
    outer loop
      vertex 18.847 4 19.4554
      vertex 16.6839 4 12.798
      vertex 15.5 4 11.9378
    endloop
  endfacet
  facet normal 0.406736 0 -0.913546
    outer loop
      vertex 8.5 4 24.0622
      vertex 9.83688 8 24.6574
      vertex 9.83688 4 24.6574
    endloop
  endfacet
  facet normal 0.406736 0 -0.913546
    outer loop
      vertex 9.83688 8 24.6574
      vertex 8.5 4 24.0622
      vertex 8.5 8 24.0622
    endloop
  endfacet
  facet normal 0.743145 0 -0.66913
    outer loop
      vertex 7.31608 4 23.202
      vertex 6.33688 8 22.1145
      vertex 7.31608 8 23.202
    endloop
  endfacet
  facet normal 0.743145 0 -0.66913
    outer loop
      vertex 6.33688 8 22.1145
      vertex 7.31608 4 23.202
      vertex 6.33688 4 22.1145
    endloop
  endfacet
  facet normal 0.951057 0 -0.309017
    outer loop
      vertex 5.60518 4 20.8472
      vertex 5.15297 8 19.4554
      vertex 5.60518 8 20.8472
    endloop
  endfacet
  facet normal 0.951057 0 -0.309017
    outer loop
      vertex 5.15297 8 19.4554
      vertex 5.60518 4 20.8472
      vertex 5.15297 4 19.4554
    endloop
  endfacet
  facet normal -0.587786 0 -0.809017
    outer loop
      vertex 15.5 4 24.0622
      vertex 16.6839 8 23.202
      vertex 16.6839 4 23.202
    endloop
  endfacet
  facet normal -0.587786 0 -0.809017
    outer loop
      vertex 16.6839 8 23.202
      vertex 15.5 4 24.0622
      vertex 15.5 8 24.0622
    endloop
  endfacet
  facet normal 0.207912 0 -0.978147
    outer loop
      vertex 9.83688 4 24.6574
      vertex 11.2683 8 24.9617
      vertex 11.2683 4 24.9617
    endloop
  endfacet
  facet normal 0.207912 0 -0.978147
    outer loop
      vertex 11.2683 8 24.9617
      vertex 9.83688 4 24.6574
      vertex 9.83688 8 24.6574
    endloop
  endfacet
  facet normal 0.587786 0 -0.809017
    outer loop
      vertex 7.31608 4 23.202
      vertex 8.5 8 24.0622
      vertex 8.5 4 24.0622
    endloop
  endfacet
  facet normal 0.587786 0 -0.809017
    outer loop
      vertex 8.5 8 24.0622
      vertex 7.31608 4 23.202
      vertex 7.31608 8 23.202
    endloop
  endfacet
  facet normal 0.866025 0 -0.5
    outer loop
      vertex 6.33688 4 22.1145
      vertex 5.60518 8 20.8472
      vertex 6.33688 8 22.1145
    endloop
  endfacet
  facet normal 0.866025 0 -0.5
    outer loop
      vertex 5.60518 8 20.8472
      vertex 6.33688 4 22.1145
      vertex 5.60518 4 20.8472
    endloop
  endfacet
  facet normal 0 0 -1
    outer loop
      vertex 11.2683 4 24.9617
      vertex 12.7317 8 24.9617
      vertex 12.7317 4 24.9617
    endloop
  endfacet
  facet normal -0 0 -1
    outer loop
      vertex 12.7317 8 24.9617
      vertex 11.2683 4 24.9617
      vertex 11.2683 8 24.9617
    endloop
  endfacet
  facet normal -0 0 1
    outer loop
      vertex 0 1 3
      vertex 24 0 3
      vertex 24 1 3
    endloop
  endfacet
  facet normal 0 0 1
    outer loop
      vertex 24 0 3
      vertex 0 1 3
      vertex 0 0 3
    endloop
  endfacet
  facet normal 0 -1 0
    outer loop
      vertex 0 1 3
      vertex 24 1 14
      vertex 0 1 14
    endloop
  endfacet
  facet normal 0 -1 -0
    outer loop
      vertex 24 1 14
      vertex 0 1 3
      vertex 24 1 3
    endloop
  endfacet
  facet normal 0 -1 0
    outer loop
      vertex 0 1 22
      vertex 24 1 28
      vertex 0 1 28
    endloop
  endfacet
  facet normal 0 -1 -0
    outer loop
      vertex 24 1 28
      vertex 0 1 22
      vertex 24 1 22
    endloop
  endfacet
  facet normal -0 0 1
    outer loop
      vertex 0 1 22
      vertex 24 0 22
      vertex 24 1 22
    endloop
  endfacet
  facet normal 0 0 1
    outer loop
      vertex 24 0 22
      vertex 0 1 22
      vertex 0 0 22
    endloop
  endfacet
  facet normal 0 -0.34202 -0.939693
    outer loop
      vertex 0 0 14.364
      vertex 24 1 14
      vertex 24 0 14.364
    endloop
  endfacet
  facet normal -0 -0.34202 -0.939693
    outer loop
      vertex 24 1 14
      vertex 0 0 14.364
      vertex 0 1 14
    endloop
  endfacet
  facet normal 0 -0.5 0.866025
    outer loop
      vertex 0 22.9012 7.325
      vertex 2.4 20 5.65
      vertex 2.4 22.9012 7.325
    endloop
  endfacet
  facet normal 0 -0.5 0.866025
    outer loop
      vertex 2.4 20 5.65
      vertex 0 22.9012 7.325
      vertex 0 20 5.65
    endloop
  endfacet
  facet normal 0 0.5 -0.866025
    outer loop
      vertex 0 17.0988 10.675
      vertex 2.4 20 12.35
      vertex 2.4 17.0988 10.675
    endloop
  endfacet
  facet normal 0 0.5 -0.866025
    outer loop
      vertex 2.4 20 12.35
      vertex 0 17.0988 10.675
      vertex 0 20 12.35
    endloop
  endfacet
  facet normal -1 0 0
    outer loop
      vertex 2.4 22.9012 7.325
      vertex 2.4 21.7404 8.81707
      vertex 2.4 22.9012 10.675
    endloop
  endfacet
  facet normal -1 0 0
    outer loop
      vertex 2.4 22.9012 7.325
      vertex 2.4 21.6643 8.45922
      vertex 2.4 21.7404 8.81707
    endloop
  endfacet
  facet normal -1 0 0
    outer loop
      vertex 2.4 22.9012 7.325
      vertex 2.4 21.5155 8.125
      vertex 2.4 21.6643 8.45922
    endloop
  endfacet
  facet normal -1 0 0
    outer loop
      vertex 2.4 22.9012 7.325
      vertex 2.4 21.3005 7.82902
      vertex 2.4 21.5155 8.125
    endloop
  endfacet
  facet normal -1 0 0
    outer loop
      vertex 2.4 22.9012 7.325
      vertex 2.4 21.0286 7.58422
      vertex 2.4 21.3005 7.82902
    endloop
  endfacet
  facet normal -1 0 0
    outer loop
      vertex 2.4 22.9012 7.325
      vertex 2.4 20.7118 7.40129
      vertex 2.4 21.0286 7.58422
    endloop
  endfacet
  facet normal -1 0 0
    outer loop
      vertex 2.4 20 5.65
      vertex 2.4 20.7118 7.40129
      vertex 2.4 22.9012 7.325
    endloop
  endfacet
  facet normal -1 0 0
    outer loop
      vertex 2.4 20.7118 7.40129
      vertex 2.4 20 5.65
      vertex 2.4 20.3638 7.28824
    endloop
  endfacet
  facet normal -1 0 0
    outer loop
      vertex 2.4 20 5.65
      vertex 2.4 20 7.25
      vertex 2.4 20.3638 7.28824
    endloop
  endfacet
  facet normal -1 0 0
    outer loop
      vertex 2.4 20 5.65
      vertex 2.4 19.6362 7.28824
      vertex 2.4 20 7.25
    endloop
  endfacet
  facet normal -1 0 0
    outer loop
      vertex 2.4 20 5.65
      vertex 2.4 19.2882 7.40129
      vertex 2.4 19.6362 7.28824
    endloop
  endfacet
  facet normal -1 0 0
    outer loop
      vertex 2.4 20 5.65
      vertex 2.4 18.9714 7.58422
      vertex 2.4 19.2882 7.40129
    endloop
  endfacet
  facet normal -1 0 0
    outer loop
      vertex 2.4 17.0988 7.325
      vertex 2.4 18.9714 7.58422
      vertex 2.4 20 5.65
    endloop
  endfacet
  facet normal -1 -0 0
    outer loop
      vertex 2.4 18.9714 7.58422
      vertex 2.4 17.0988 7.325
      vertex 2.4 18.6995 7.82902
    endloop
  endfacet
  facet normal -1 -0 0
    outer loop
      vertex 2.4 18.2596 8.81707
      vertex 2.4 17.0988 7.325
      vertex 2.4 18.2596 9.18292
    endloop
  endfacet
  facet normal -1 -0 0
    outer loop
      vertex 2.4 18.3357 8.45922
      vertex 2.4 17.0988 7.325
      vertex 2.4 18.2596 8.81707
    endloop
  endfacet
  facet normal -1 -0 0
    outer loop
      vertex 2.4 18.4845 8.125
      vertex 2.4 17.0988 7.325
      vertex 2.4 18.3357 8.45922
    endloop
  endfacet
  facet normal -1 -0 0
    outer loop
      vertex 2.4 18.6995 7.82902
      vertex 2.4 17.0988 7.325
      vertex 2.4 18.4845 8.125
    endloop
  endfacet
  facet normal -1 0 0
    outer loop
      vertex 2.4 21.7404 9.18292
      vertex 2.4 22.9012 10.675
      vertex 2.4 21.7404 8.81707
    endloop
  endfacet
  facet normal -1 0 0
    outer loop
      vertex 2.4 21.6643 9.54078
      vertex 2.4 22.9012 10.675
      vertex 2.4 21.7404 9.18292
    endloop
  endfacet
  facet normal -1 0 0
    outer loop
      vertex 2.4 21.5155 9.875
      vertex 2.4 22.9012 10.675
      vertex 2.4 21.6643 9.54078
    endloop
  endfacet
  facet normal -1 0 0
    outer loop
      vertex 2.4 21.3005 10.171
      vertex 2.4 22.9012 10.675
      vertex 2.4 21.5155 9.875
    endloop
  endfacet
  facet normal -1 0 0
    outer loop
      vertex 2.4 21.0286 10.4158
      vertex 2.4 22.9012 10.675
      vertex 2.4 21.3005 10.171
    endloop
  endfacet
  facet normal -1 0 0
    outer loop
      vertex 2.4 20.7118 10.5987
      vertex 2.4 22.9012 10.675
      vertex 2.4 21.0286 10.4158
    endloop
  endfacet
  facet normal -1 0 0
    outer loop
      vertex 2.4 20 12.35
      vertex 2.4 20.7118 10.5987
      vertex 2.4 20.3638 10.7118
    endloop
  endfacet
  facet normal -1 0 0
    outer loop
      vertex 2.4 20 12.35
      vertex 2.4 20.3638 10.7118
      vertex 2.4 20 10.75
    endloop
  endfacet
  facet normal -1 0 0
    outer loop
      vertex 2.4 20.7118 10.5987
      vertex 2.4 20 12.35
      vertex 2.4 22.9012 10.675
    endloop
  endfacet
  facet normal -1 0 0
    outer loop
      vertex 2.4 19.6362 10.7118
      vertex 2.4 20 12.35
      vertex 2.4 20 10.75
    endloop
  endfacet
  facet normal -1 0 0
    outer loop
      vertex 2.4 19.2882 10.5987
      vertex 2.4 20 12.35
      vertex 2.4 19.6362 10.7118
    endloop
  endfacet
  facet normal -1 0 0
    outer loop
      vertex 2.4 18.9714 10.4158
      vertex 2.4 20 12.35
      vertex 2.4 19.2882 10.5987
    endloop
  endfacet
  facet normal -1 0 0
    outer loop
      vertex 2.4 17.0988 10.675
      vertex 2.4 18.9714 10.4158
      vertex 2.4 18.6995 10.171
    endloop
  endfacet
  facet normal -1 0 0
    outer loop
      vertex 2.4 17.0988 10.675
      vertex 2.4 18.6995 10.171
      vertex 2.4 18.4845 9.875
    endloop
  endfacet
  facet normal -1 0 0
    outer loop
      vertex 2.4 17.0988 10.675
      vertex 2.4 18.2596 9.18292
      vertex 2.4 17.0988 7.325
    endloop
  endfacet
  facet normal -1 0 0
    outer loop
      vertex 2.4 18.2596 9.18292
      vertex 2.4 17.0988 10.675
      vertex 2.4 18.3357 9.54078
    endloop
  endfacet
  facet normal -1 0 0
    outer loop
      vertex 2.4 18.9714 10.4158
      vertex 2.4 17.0988 10.675
      vertex 2.4 20 12.35
    endloop
  endfacet
  facet normal -1 0 0
    outer loop
      vertex 2.4 18.3357 9.54078
      vertex 2.4 17.0988 10.675
      vertex 2.4 18.4845 9.875
    endloop
  endfacet
  facet normal 0 -0.5 -0.866025
    outer loop
      vertex 0 20 12.35
      vertex 2.4 22.9012 10.675
      vertex 2.4 20 12.35
    endloop
  endfacet
  facet normal -0 -0.5 -0.866025
    outer loop
      vertex 2.4 22.9012 10.675
      vertex 0 20 12.35
      vertex 0 22.9012 10.675
    endloop
  endfacet
  facet normal 0 -1 0
    outer loop
      vertex 0 22.9012 7.325
      vertex 2.4 22.9012 10.675
      vertex 0 22.9012 10.675
    endloop
  endfacet
  facet normal 0 -1 -0
    outer loop
      vertex 2.4 22.9012 10.675
      vertex 0 22.9012 7.325
      vertex 2.4 22.9012 7.325
    endloop
  endfacet
  facet normal -0 0.5 0.866025
    outer loop
      vertex 0 20 5.65
      vertex 2.4 17.0988 7.325
      vertex 2.4 20 5.65
    endloop
  endfacet
  facet normal 0 0.5 0.866025
    outer loop
      vertex 2.4 17.0988 7.325
      vertex 0 20 5.65
      vertex 0 17.0988 7.325
    endloop
  endfacet
  facet normal 0 1 -0
    outer loop
      vertex 2.4 17.0988 7.325
      vertex 0 17.0988 10.675
      vertex 2.4 17.0988 10.675
    endloop
  endfacet
  facet normal 0 1 0
    outer loop
      vertex 0 17.0988 10.675
      vertex 2.4 17.0988 7.325
      vertex 0 17.0988 7.325
    endloop
  endfacet
  facet normal 0 -0.906308 -0.422618
    outer loop
      vertex 0 1 0
      vertex 24 0 2.14451
      vertex 0 0 2.14451
    endloop
  endfacet
  facet normal 0 -0.906308 -0.422618
    outer loop
      vertex 24 0 2.14451
      vertex 0 1 0
      vertex 24 1 0
    endloop
  endfacet
  facet normal -0 0.707107 0.707107
    outer loop
      vertex 0 25 13
      vertex 5 10 28
      vertex 5 25 13
    endloop
  endfacet
  facet normal 0 0.707107 0.707107
    outer loop
      vertex 5 10 28
      vertex 0 25 13
      vertex 0 10 28
    endloop
  endfacet
  facet normal -0 0.707107 0.707107
    outer loop
      vertex 19 25 13
      vertex 24 10 28
      vertex 24 25 13
    endloop
  endfacet
  facet normal 0 0.707107 0.707107
    outer loop
      vertex 24 10 28
      vertex 19 25 13
      vertex 19 10 28
    endloop
  endfacet
  facet normal 0 0.939693 -0.34202
    outer loop
      vertex 5 23 0
      vertex 0 25 5.49496
      vertex 5 25 5.49496
    endloop
  endfacet
  facet normal 0 0.939693 -0.34202
    outer loop
      vertex 0 25 5.49496
      vertex 5 23 0
      vertex 0 23 0
    endloop
  endfacet
  facet normal 0 0.939693 -0.34202
    outer loop
      vertex 24 23 0
      vertex 19 25 5.49496
      vertex 24 25 5.49496
    endloop
  endfacet
  facet normal 0 0.939693 -0.34202
    outer loop
      vertex 19 25 5.49496
      vertex 24 23 0
      vertex 19 23 0
    endloop
  endfacet
  facet normal -1 0 0
    outer loop
      vertex 0 0 14.364
      vertex 0 1 22
      vertex 0 1 14
    endloop
  endfacet
  facet normal -1 -0 0
    outer loop
      vertex 0 1 22
      vertex 0 0 14.364
      vertex 0 0 22
    endloop
  endfacet
  facet normal -1 0 0
    outer loop
      vertex 0 0 2.14451
      vertex 0 1 3
      vertex 0 1 0
    endloop
  endfacet
  facet normal -1 -0 0
    outer loop
      vertex 0 1 3
      vertex 0 0 2.14451
      vertex 0 0 3
    endloop
  endfacet
  facet normal -1 0 0
    outer loop
      vertex 0 25 5.49496
      vertex 0 20 5.65
      vertex 0 22.9012 7.325
    endloop
  endfacet
  facet normal -1 0 0
    outer loop
      vertex 0 23 0
      vertex 0 17.0988 7.325
      vertex 0 20 5.65
    endloop
  endfacet
  facet normal -1 0 0
    outer loop
      vertex 0 1 14
      vertex 0 17.0988 10.675
      vertex 0 17.0988 7.325
    endloop
  endfacet
  facet normal -1 0 0
    outer loop
      vertex 0 1 0
      vertex 0 17.0988 7.325
      vertex 0 23 0
    endloop
  endfacet
  facet normal -1 0 0
    outer loop
      vertex 0 1 3
      vertex 0 17.0988 7.325
      vertex 0 1 0
    endloop
  endfacet
  facet normal -1 0 0
    outer loop
      vertex 0 1 14
      vertex 0 17.0988 7.325
      vertex 0 1 3
    endloop
  endfacet
  facet normal -1 0 0
    outer loop
      vertex 0 17.0988 10.675
      vertex 0 1 14
      vertex 0 10 28
    endloop
  endfacet
  facet normal -1 0 0
    outer loop
      vertex 0 1 22
      vertex 0 10 28
      vertex 0 1 14
    endloop
  endfacet
  facet normal -1 -0 0
    outer loop
      vertex 0 10 28
      vertex 0 1 22
      vertex 0 1 28
    endloop
  endfacet
  facet normal -1 0 0
    outer loop
      vertex 0 20 5.65
      vertex 0 25 5.49496
      vertex 0 23 0
    endloop
  endfacet
  facet normal -1 0 0
    outer loop
      vertex 0 22.9012 10.675
      vertex 0 25 5.49496
      vertex 0 22.9012 7.325
    endloop
  endfacet
  facet normal -1 0 0
    outer loop
      vertex 0 25 5.49496
      vertex 0 22.9012 10.675
      vertex 0 25 13
    endloop
  endfacet
  facet normal -1 0 0
    outer loop
      vertex 0 20 12.35
      vertex 0 25 13
      vertex 0 22.9012 10.675
    endloop
  endfacet
  facet normal -1 0 0
    outer loop
      vertex 0 20 12.35
      vertex 0 10 28
      vertex 0 25 13
    endloop
  endfacet
  facet normal -1 0 0
    outer loop
      vertex 0 10 28
      vertex 0 20 12.35
      vertex 0 17.0988 10.675
    endloop
  endfacet
  facet normal 0 0 1
    outer loop
      vertex 5 10 28
      vertex 0 10 28
      vertex 5 8 28
    endloop
  endfacet
  facet normal 0 0 1
    outer loop
      vertex 19 8 28
      vertex 24 10 28
      vertex 19 10 28
    endloop
  endfacet
  facet normal 0 0 1
    outer loop
      vertex 24 10 28
      vertex 19 8 28
      vertex 24 1 28
    endloop
  endfacet
  facet normal -0 0 1
    outer loop
      vertex 5 8 28
      vertex 24 1 28
      vertex 19 8 28
    endloop
  endfacet
  facet normal 0 0 1
    outer loop
      vertex 5 8 28
      vertex 0 1 28
      vertex 24 1 28
    endloop
  endfacet
  facet normal 0 0 1
    outer loop
      vertex 0 1 28
      vertex 5 8 28
      vertex 0 10 28
    endloop
  endfacet
  facet normal 1 0 0
    outer loop
      vertex 24 0 14.364
      vertex 24 1 22
      vertex 24 0 22
    endloop
  endfacet
  facet normal 1 0 0
    outer loop
      vertex 24 1 22
      vertex 24 0 14.364
      vertex 24 1 14
    endloop
  endfacet
  facet normal 1 -0 0
    outer loop
      vertex 24 21.7404 9.18292
      vertex 24 25 5.49496
      vertex 24 25 13
    endloop
  endfacet
  facet normal 1 0 0
    outer loop
      vertex 24 25 5.49496
      vertex 24 21.7404 9.18292
      vertex 24 21.7404 8.81707
    endloop
  endfacet
  facet normal 1 0 0
    outer loop
      vertex 24 25 13
      vertex 24 21.6643 9.54078
      vertex 24 21.7404 9.18292
    endloop
  endfacet
  facet normal 1 0 0
    outer loop
      vertex 24 25 13
      vertex 24 21.5155 9.875
      vertex 24 21.6643 9.54078
    endloop
  endfacet
  facet normal 1 0 0
    outer loop
      vertex 24 25 13
      vertex 24 21.3005 10.171
      vertex 24 21.5155 9.875
    endloop
  endfacet
  facet normal 1 0 0
    outer loop
      vertex 24 25 13
      vertex 24 21.0286 10.4158
      vertex 24 21.3005 10.171
    endloop
  endfacet
  facet normal 1 0 0
    outer loop
      vertex 24 25 13
      vertex 24 20.7118 10.5987
      vertex 24 21.0286 10.4158
    endloop
  endfacet
  facet normal 1 0 0
    outer loop
      vertex 24 25 13
      vertex 24 20.3638 10.7118
      vertex 24 20.7118 10.5987
    endloop
  endfacet
  facet normal 1 0 0
    outer loop
      vertex 24 25 13
      vertex 24 20 10.75
      vertex 24 20.3638 10.7118
    endloop
  endfacet
  facet normal 1 0 0
    outer loop
      vertex 24 25 13
      vertex 24 19.6362 10.7118
      vertex 24 20 10.75
    endloop
  endfacet
  facet normal 1 0 0
    outer loop
      vertex 24 10 28
      vertex 24 19.6362 10.7118
      vertex 24 25 13
    endloop
  endfacet
  facet normal 1 0 0
    outer loop
      vertex 24 18.3357 9.54078
      vertex 24 1 14
      vertex 24 18.2596 9.18292
    endloop
  endfacet
  facet normal 1 0 0
    outer loop
      vertex 24 18.4845 9.875
      vertex 24 1 14
      vertex 24 18.3357 9.54078
    endloop
  endfacet
  facet normal 1 0 0
    outer loop
      vertex 24 18.6995 10.171
      vertex 24 1 14
      vertex 24 18.4845 9.875
    endloop
  endfacet
  facet normal 1 -0 0
    outer loop
      vertex 24 1 14
      vertex 24 18.6995 10.171
      vertex 24 10 28
    endloop
  endfacet
  facet normal 1 0 0
    outer loop
      vertex 24 18.9714 10.4158
      vertex 24 10 28
      vertex 24 18.6995 10.171
    endloop
  endfacet
  facet normal 1 0 0
    outer loop
      vertex 24 19.2882 10.5987
      vertex 24 10 28
      vertex 24 18.9714 10.4158
    endloop
  endfacet
  facet normal 1 0 0
    outer loop
      vertex 24 19.6362 10.7118
      vertex 24 10 28
      vertex 24 19.2882 10.5987
    endloop
  endfacet
  facet normal 1 0 0
    outer loop
      vertex 24 25 5.49496
      vertex 24 21.7404 8.81707
      vertex 24 21.6643 8.45922
    endloop
  endfacet
  facet normal 1 -0 0
    outer loop
      vertex 24 21.5155 8.125
      vertex 24 25 5.49496
      vertex 24 21.6643 8.45922
    endloop
  endfacet
  facet normal 1 -0 0
    outer loop
      vertex 24 21.3005 7.82902
      vertex 24 25 5.49496
      vertex 24 21.5155 8.125
    endloop
  endfacet
  facet normal 1 -0 0
    outer loop
      vertex 24 21.0286 7.58422
      vertex 24 25 5.49496
      vertex 24 21.3005 7.82902
    endloop
  endfacet
  facet normal 1 -0 0
    outer loop
      vertex 24 20.7118 7.40129
      vertex 24 25 5.49496
      vertex 24 21.0286 7.58422
    endloop
  endfacet
  facet normal 1 -0 0
    outer loop
      vertex 24 20.3638 7.28824
      vertex 24 25 5.49496
      vertex 24 20.7118 7.40129
    endloop
  endfacet
  facet normal 1 0 0
    outer loop
      vertex 24 25 5.49496
      vertex 24 20.3638 7.28824
      vertex 24 23 0
    endloop
  endfacet
  facet normal 1 -0 0
    outer loop
      vertex 24 20 7.25
      vertex 24 23 0
      vertex 24 20.3638 7.28824
    endloop
  endfacet
  facet normal 1 0 0
    outer loop
      vertex 24 19.6362 7.28824
      vertex 24 23 0
      vertex 24 20 7.25
    endloop
  endfacet
  facet normal 1 0 0
    outer loop
      vertex 24 19.2882 7.40129
      vertex 24 23 0
      vertex 24 19.6362 7.28824
    endloop
  endfacet
  facet normal 1 0 0
    outer loop
      vertex 24 18.9714 7.58422
      vertex 24 23 0
      vertex 24 19.2882 7.40129
    endloop
  endfacet
  facet normal 1 0 0
    outer loop
      vertex 24 1 0
      vertex 24 18.9714 7.58422
      vertex 24 18.6995 7.82902
    endloop
  endfacet
  facet normal 1 0 0
    outer loop
      vertex 24 1 3
      vertex 24 18.6995 7.82902
      vertex 24 18.4845 8.125
    endloop
  endfacet
  facet normal 1 0 0
    outer loop
      vertex 24 18.2596 9.18292
      vertex 24 1 14
      vertex 24 18.2596 8.81707
    endloop
  endfacet
  facet normal 1 0 0
    outer loop
      vertex 24 1 22
      vertex 24 10 28
      vertex 24 1 28
    endloop
  endfacet
  facet normal 1 0 0
    outer loop
      vertex 24 1 14
      vertex 24 10 28
      vertex 24 1 22
    endloop
  endfacet
  facet normal 1 0 0
    outer loop
      vertex 24 1 3
      vertex 24 18.2596 8.81707
      vertex 24 1 14
    endloop
  endfacet
  facet normal 1 0 0
    outer loop
      vertex 24 18.2596 8.81707
      vertex 24 1 3
      vertex 24 18.3357 8.45922
    endloop
  endfacet
  facet normal 1 0 0
    outer loop
      vertex 24 18.3357 8.45922
      vertex 24 1 3
      vertex 24 18.4845 8.125
    endloop
  endfacet
  facet normal 1 0 0
    outer loop
      vertex 24 18.6995 7.82902
      vertex 24 1 3
      vertex 24 1 0
    endloop
  endfacet
  facet normal 1 0 0
    outer loop
      vertex 24 18.9714 7.58422
      vertex 24 1 0
      vertex 24 23 0
    endloop
  endfacet
  facet normal 1 0 0
    outer loop
      vertex 24 0 2.14451
      vertex 24 1 3
      vertex 24 0 3
    endloop
  endfacet
  facet normal 1 0 0
    outer loop
      vertex 24 1 3
      vertex 24 0 2.14451
      vertex 24 1 0
    endloop
  endfacet
  facet normal 0 1 -0
    outer loop
      vertex 5 25 5.49496
      vertex 0 25 13
      vertex 5 25 13
    endloop
  endfacet
  facet normal 0 1 0
    outer loop
      vertex 0 25 13
      vertex 5 25 5.49496
      vertex 0 25 5.49496
    endloop
  endfacet
  facet normal 0 1 -0
    outer loop
      vertex 24 25 5.49496
      vertex 19 25 13
      vertex 24 25 13
    endloop
  endfacet
  facet normal 0 1 0
    outer loop
      vertex 19 25 13
      vertex 24 25 5.49496
      vertex 19 25 5.49496
    endloop
  endfacet
  facet normal 0 0 -1
    outer loop
      vertex 24 1 0
      vertex 19 8 0
      vertex 24 23 0
    endloop
  endfacet
  facet normal 0 0 -1
    outer loop
      vertex 24 1 0
      vertex 5 8 0
      vertex 19 8 0
    endloop
  endfacet
  facet normal 0 0 -1
    outer loop
      vertex 0 1 0
      vertex 5 8 0
      vertex 24 1 0
    endloop
  endfacet
  facet normal 0 0 -1
    outer loop
      vertex 0 23 0
      vertex 5 8 0
      vertex 0 1 0
    endloop
  endfacet
  facet normal 0 0 -1
    outer loop
      vertex 5 8 0
      vertex 0 23 0
      vertex 5 23 0
    endloop
  endfacet
  facet normal -0 0 -1
    outer loop
      vertex 24 23 0
      vertex 19 8 0
      vertex 19 23 0
    endloop
  endfacet
  facet normal 0 -1 0
    outer loop
      vertex 0 0 2.14451
      vertex 24 0 3
      vertex 0 0 3
    endloop
  endfacet
  facet normal 0 -1 -0
    outer loop
      vertex 24 0 3
      vertex 0 0 2.14451
      vertex 24 0 2.14451
    endloop
  endfacet
  facet normal 0 -1 0
    outer loop
      vertex 0 0 22
      vertex 11.6603 0 21.2322
      vertex 24 0 22
    endloop
  endfacet
  facet normal 0 -1 0
    outer loop
      vertex 0 0 22
      vertex 10.9957 0 21.0909
      vertex 11.6603 0 21.2322
    endloop
  endfacet
  facet normal 0 -1 0
    outer loop
      vertex 0 0 22
      vertex 10.375 0 20.8146
      vertex 10.9957 0 21.0909
    endloop
  endfacet
  facet normal 0 -1 0
    outer loop
      vertex 0 0 22
      vertex 9.82533 0 20.4152
      vertex 10.375 0 20.8146
    endloop
  endfacet
  facet normal 0 -1 0
    outer loop
      vertex 0 0 22
      vertex 9.37069 0 19.9103
      vertex 9.82533 0 20.4152
    endloop
  endfacet
  facet normal 0 -1 0
    outer loop
      vertex 0 0 22
      vertex 9.03098 0 19.3219
      vertex 9.37069 0 19.9103
    endloop
  endfacet
  facet normal 0 -1 0
    outer loop
      vertex 0 0 22
      vertex 8.82102 0 18.6757
      vertex 9.03098 0 19.3219
    endloop
  endfacet
  facet normal 0 -1 0
    outer loop
      vertex 0 0 22
      vertex 8.82074 0 18.673
      vertex 8.82102 0 18.6757
    endloop
  endfacet
  facet normal 0 -1 0
    outer loop
      vertex 0 0 22
      vertex 8.75 0 18
      vertex 8.82074 0 18.673
    endloop
  endfacet
  facet normal 0 -1 0
    outer loop
      vertex 0 0 14.364
      vertex 8.75 0 18
      vertex 0 0 22
    endloop
  endfacet
  facet normal 0 -1 -0
    outer loop
      vertex 8.75 0 18
      vertex 0 0 14.364
      vertex 8.75028 0 17.9973
    endloop
  endfacet
  facet normal 0 -1 -0
    outer loop
      vertex 8.75028 0 17.9973
      vertex 0 0 14.364
      vertex 8.82102 0 17.3243
    endloop
  endfacet
  facet normal 0 -1 -0
    outer loop
      vertex 8.82102 0 17.3243
      vertex 0 0 14.364
      vertex 9.03098 0 16.6781
    endloop
  endfacet
  facet normal 0 -1 -0
    outer loop
      vertex 9.03098 0 16.6781
      vertex 0 0 14.364
      vertex 9.37069 0 16.0897
    endloop
  endfacet
  facet normal 0 -1 -0
    outer loop
      vertex 9.37069 0 16.0897
      vertex 0 0 14.364
      vertex 9.82533 0 15.5848
    endloop
  endfacet
  facet normal 0 -1 -0
    outer loop
      vertex 11.6603 0 14.7678
      vertex 0 0 14.364
      vertex 12.3397 0 14.7678
    endloop
  endfacet
  facet normal 0 -1 -0
    outer loop
      vertex 10.9957 0 14.9091
      vertex 0 0 14.364
      vertex 11.6603 0 14.7678
    endloop
  endfacet
  facet normal 0 -1 -0
    outer loop
      vertex 10.375 0 15.1854
      vertex 0 0 14.364
      vertex 10.9957 0 14.9091
    endloop
  endfacet
  facet normal 0 -1 -0
    outer loop
      vertex 9.82533 0 15.5848
      vertex 0 0 14.364
      vertex 10.375 0 15.1854
    endloop
  endfacet
  facet normal 0 -1 0
    outer loop
      vertex 12.3397 0 21.2322
      vertex 24 0 22
      vertex 11.6603 0 21.2322
    endloop
  endfacet
  facet normal 0 -1 0
    outer loop
      vertex 13.0043 0 21.0909
      vertex 24 0 22
      vertex 12.3397 0 21.2322
    endloop
  endfacet
  facet normal 0 -1 0
    outer loop
      vertex 13.625 0 20.8146
      vertex 24 0 22
      vertex 13.0043 0 21.0909
    endloop
  endfacet
  facet normal 0 -1 0
    outer loop
      vertex 14.1747 0 20.4152
      vertex 24 0 22
      vertex 13.625 0 20.8146
    endloop
  endfacet
  facet normal 0 -1 0
    outer loop
      vertex 14.6293 0 19.9103
      vertex 24 0 22
      vertex 14.1747 0 20.4152
    endloop
  endfacet
  facet normal 0 -1 0
    outer loop
      vertex 14.969 0 19.3219
      vertex 24 0 22
      vertex 14.6293 0 19.9103
    endloop
  endfacet
  facet normal 0 -1 0
    outer loop
      vertex 15.179 0 18.6757
      vertex 24 0 22
      vertex 14.969 0 19.3219
    endloop
  endfacet
  facet normal 0 -1 0
    outer loop
      vertex 15.25 0 18
      vertex 24 0 22
      vertex 15.179 0 18.6757
    endloop
  endfacet
  facet normal 0 -1 0
    outer loop
      vertex 24 0 14.364
      vertex 15.25 0 18
      vertex 15.179 0 17.3243
    endloop
  endfacet
  facet normal 0 -1 0
    outer loop
      vertex 24 0 14.364
      vertex 15.179 0 17.3243
      vertex 14.969 0 16.6781
    endloop
  endfacet
  facet normal 0 -1 0
    outer loop
      vertex 24 0 14.364
      vertex 14.969 0 16.6781
      vertex 14.6293 0 16.0897
    endloop
  endfacet
  facet normal 0 -1 0
    outer loop
      vertex 24 0 14.364
      vertex 14.6293 0 16.0897
      vertex 14.1747 0 15.5848
    endloop
  endfacet
  facet normal 0 -1 0
    outer loop
      vertex 24 0 14.364
      vertex 14.1747 0 15.5848
      vertex 13.625 0 15.1854
    endloop
  endfacet
  facet normal 0 -1 0
    outer loop
      vertex 15.25 0 18
      vertex 24 0 14.364
      vertex 24 0 22
    endloop
  endfacet
  facet normal 0 -1 0
    outer loop
      vertex 13.0043 0 14.9091
      vertex 24 0 14.364
      vertex 13.625 0 15.1854
    endloop
  endfacet
  facet normal 0 -1 0
    outer loop
      vertex 12.3397 0 14.7678
      vertex 24 0 14.364
      vertex 13.0043 0 14.9091
    endloop
  endfacet
  facet normal 0 -1 0
    outer loop
      vertex 24 0 14.364
      vertex 12.3397 0 14.7678
      vertex 0 0 14.364
    endloop
  endfacet
endsolid OpenSCAD_Model
