solid model
  facet normal -1 -0 0
    outer loop
      vertex 0 0 14.364
      vertex 0 0 22
      vertex 0 1 22
    endloop
  endfacet
  facet normal -0 -0.34202 -0.939693
    outer loop
      vertex 0 0 14.364
      vertex 0 1 14
      vertex 24.35 1 14
    endloop
  endfacet
  facet normal -1 0 0
    outer loop
      vertex 0 0 14.364
      vertex 0 1 22
      vertex 0 1 14
    endloop
  endfacet
  facet normal 0 -1 -0
    outer loop
      vertex 0 0 14.364
      vertex 10.0003 0 15.5848
      vertex 9.54569 0 16.0897
    endloop
  endfacet
  facet normal 0 -1 -0
    outer loop
      vertex 0 0 14.364
      vertex 10.55 0 15.1854
      vertex 10.0003 0 15.5848
    endloop
  endfacet
  facet normal 0 -1 -0
    outer loop
      vertex 0 0 14.364
      vertex 11.1707 0 14.9091
      vertex 10.55 0 15.1854
    endloop
  endfacet
  facet normal 0 -1 -0
    outer loop
      vertex 0 0 14.364
      vertex 11.8353 0 14.7678
      vertex 11.1707 0 14.9091
    endloop
  endfacet
  facet normal 0 -1 -0
    outer loop
      vertex 0 0 14.364
      vertex 12.5147 0 14.7678
      vertex 11.8353 0 14.7678
    endloop
  endfacet
  facet normal 0 -1 0
    outer loop
      vertex 0 0 14.364
      vertex 24.35 0 14.364
      vertex 12.5147 0 14.7678
    endloop
  endfacet
  facet normal 0 -0.34202 -0.939693
    outer loop
      vertex 0 0 14.364
      vertex 24.35 1 14
      vertex 24.35 0 14.364
    endloop
  endfacet
  facet normal 0 -1 0
    outer loop
      vertex 0 0 14.364
      vertex 8.925 0 18
      vertex 0 0 22
    endloop
  endfacet
  facet normal 0 -1 -0
    outer loop
      vertex 0 0 14.364
      vertex 8.92528 0 17.9973
      vertex 8.925 0 18
    endloop
  endfacet
  facet normal 0 -1 -0
    outer loop
      vertex 0 0 14.364
      vertex 8.99602 0 17.3243
      vertex 8.92528 0 17.9973
    endloop
  endfacet
  facet normal 0 -1 -0
    outer loop
      vertex 0 0 14.364
      vertex 9.20598 0 16.6781
      vertex 8.99602 0 17.3243
    endloop
  endfacet
  facet normal 0 -1 -0
    outer loop
      vertex 0 0 14.364
      vertex 9.54569 0 16.0897
      vertex 9.20598 0 16.6781
    endloop
  endfacet
  facet normal -1 -0 0
    outer loop
      vertex 0 0 2.14451
      vertex 0 0 3
      vertex 0 1 3
    endloop
  endfacet
  facet normal 0 -0.906308 -0.422618
    outer loop
      vertex 0 0 2.14451
      vertex 0 1 0
      vertex 24.35 0 2.14451
    endloop
  endfacet
  facet normal -1 0 0
    outer loop
      vertex 0 0 2.14451
      vertex 0 1 3
      vertex 0 1 0
    endloop
  endfacet
  facet normal 0 -1 -0
    outer loop
      vertex 0 0 2.14451
      vertex 24.35 0 2.14451
      vertex 24.35 0 3
    endloop
  endfacet
  facet normal 0 -1 0
    outer loop
      vertex 0 0 2.14451
      vertex 24.35 0 3
      vertex 0 0 3
    endloop
  endfacet
  facet normal 0 -1 0
    outer loop
      vertex 0 0 22
      vertex 10.0003 0 20.4152
      vertex 10.55 0 20.8146
    endloop
  endfacet
  facet normal 0 -1 0
    outer loop
      vertex 0 0 22
      vertex 10.55 0 20.8146
      vertex 11.1707 0 21.0909
    endloop
  endfacet
  facet normal 0 -1 0
    outer loop
      vertex 0 0 22
      vertex 11.1707 0 21.0909
      vertex 11.8353 0 21.2322
    endloop
  endfacet
  facet normal 0 -1 0
    outer loop
      vertex 0 0 22
      vertex 11.8353 0 21.2322
      vertex 24.35 0 22
    endloop
  endfacet
  facet normal 0 0 1
    outer loop
      vertex 0 0 22
      vertex 24.35 0 22
      vertex 0 1 22
    endloop
  endfacet
  facet normal 0 -1 0
    outer loop
      vertex 0 0 22
      vertex 8.925 0 18
      vertex 8.99574 0 18.673
    endloop
  endfacet
  facet normal 0 -1 0
    outer loop
      vertex 0 0 22
      vertex 8.99574 0 18.673
      vertex 8.99602 0 18.6757
    endloop
  endfacet
  facet normal 0 -1 0
    outer loop
      vertex 0 0 22
      vertex 8.99602 0 18.6757
      vertex 9.20598 0 19.3219
    endloop
  endfacet
  facet normal 0 -1 0
    outer loop
      vertex 0 0 22
      vertex 9.20598 0 19.3219
      vertex 9.54569 0 19.9103
    endloop
  endfacet
  facet normal 0 -1 0
    outer loop
      vertex 0 0 22
      vertex 9.54569 0 19.9103
      vertex 10.0003 0 20.4152
    endloop
  endfacet
  facet normal 0 0 1
    outer loop
      vertex 0 0 3
      vertex 24.35 0 3
      vertex 0 1 3
    endloop
  endfacet
  facet normal -1 0 0
    outer loop
      vertex 0 1 0
      vertex 0 1 3
      vertex 0 17.0988 7.325
    endloop
  endfacet
  facet normal -1 0 0
    outer loop
      vertex 0 1 0
      vertex 0 17.0988 7.325
      vertex 0 23 0
    endloop
  endfacet
  facet normal 0 0 -1
    outer loop
      vertex 0 1 0
      vertex 0 23 0
      vertex 5 8 0
    endloop
  endfacet
  facet normal 0 -0.906308 -0.422618
    outer loop
      vertex 0 1 0
      vertex 24.35 1 0
      vertex 24.35 0 2.14451
    endloop
  endfacet
  facet normal 0 0 -1
    outer loop
      vertex 0 1 0
      vertex 5 8 0
      vertex 24.35 1 0
    endloop
  endfacet
  facet normal -1 0 0
    outer loop
      vertex 0 1 14
      vertex 0 1 22
      vertex 0 10 28
    endloop
  endfacet
  facet normal -1 0 0
    outer loop
      vertex 0 1 14
      vertex 0 10 28
      vertex 0 17.0988 10.675
    endloop
  endfacet
  facet normal -1 0 0
    outer loop
      vertex 0 1 14
      vertex 0 17.0988 10.675
      vertex 0 17.0988 7.325
    endloop
  endfacet
  facet normal -1 -0 0
    outer loop
      vertex 0 1 22
      vertex 0 1 28
      vertex 0 10 28
    endloop
  endfacet
  facet normal -0 0 1
    outer loop
      vertex 0 1 22
      vertex 24.35 0 22
      vertex 24.35 1 22
    endloop
  endfacet
  facet normal 0 -1 -0
    outer loop
      vertex 0 1 22
      vertex 24.35 1 22
      vertex 24.35 1 28
    endloop
  endfacet
  facet normal 0 -1 0
    outer loop
      vertex 0 1 22
      vertex 24.35 1 28
      vertex 0 1 28
    endloop
  endfacet
  facet normal 0 0 1
    outer loop
      vertex 0 1 28
      vertex 24.35 1 28
      vertex 5 8 28
    endloop
  endfacet
  facet normal 0 0 1
    outer loop
      vertex 0 1 28
      vertex 5 8 28
      vertex 0 10 28
    endloop
  endfacet
  facet normal -1 0 0
    outer loop
      vertex 0 1 3
      vertex 0 1 14
      vertex 0 17.0988 7.325
    endloop
  endfacet
  facet normal -0 0 1
    outer loop
      vertex 0 1 3
      vertex 24.35 0 3
      vertex 24.35 1 3
    endloop
  endfacet
  facet normal 0 -1 0
    outer loop
      vertex 0 1 3
      vertex 24.35 1 14
      vertex 0 1 14
    endloop
  endfacet
  facet normal 0 -1 -0
    outer loop
      vertex 0 1 3
      vertex 24.35 1 3
      vertex 24.35 1 14
    endloop
  endfacet
  facet normal -1 0 0
    outer loop
      vertex 0 10 28
      vertex 0 20 12.35
      vertex 0 17.0988 10.675
    endloop
  endfacet
  facet normal -1 0 0
    outer loop
      vertex 0 10 28
      vertex 0 25 13
      vertex 0 20 12.35
    endloop
  endfacet
  facet normal 0 0.707107 0.707107
    outer loop
      vertex 0 10 28
      vertex 5 10 28
      vertex 0 25 13
    endloop
  endfacet
  facet normal 0 0 1
    outer loop
      vertex 0 10 28
      vertex 5 8 28
      vertex 5 10 28
    endloop
  endfacet
  facet normal 0 0.5 -0.866025
    outer loop
      vertex 0 17.0988 10.675
      vertex 0 20 12.35
      vertex 2.4 20 12.35
    endloop
  endfacet
  facet normal 0 1 -0
    outer loop
      vertex 0 17.0988 10.675
      vertex 2.4 17.0988 10.675
      vertex 2.4 17.0988 7.325
    endloop
  endfacet
  facet normal 0 0.5 -0.866025
    outer loop
      vertex 0 17.0988 10.675
      vertex 2.4 20 12.35
      vertex 2.4 17.0988 10.675
    endloop
  endfacet
  facet normal 0 1 0
    outer loop
      vertex 0 17.0988 7.325
      vertex 0 17.0988 10.675
      vertex 2.4 17.0988 7.325
    endloop
  endfacet
  facet normal -1 0 0
    outer loop
      vertex 0 17.0988 7.325
      vertex 0 20 5.65
      vertex 0 23 0
    endloop
  endfacet
  facet normal 0 0.5 0.866025
    outer loop
      vertex 0 17.0988 7.325
      vertex 2.4 17.0988 7.325
      vertex 0 20 5.65
    endloop
  endfacet
  facet normal -0 -0.5 -0.866025
    outer loop
      vertex 0 20 12.35
      vertex 0 22.9012 10.675
      vertex 2.4 22.9012 10.675
    endloop
  endfacet
  facet normal -1 0 0
    outer loop
      vertex 0 20 12.35
      vertex 0 25 13
      vertex 0 22.9012 10.675
    endloop
  endfacet
  facet normal 0 -0.5 -0.866025
    outer loop
      vertex 0 20 12.35
      vertex 2.4 22.9012 10.675
      vertex 2.4 20 12.35
    endloop
  endfacet
  facet normal -1 0 0
    outer loop
      vertex 0 20 5.65
      vertex 0 22.9012 7.325
      vertex 0 25 5.49496
    endloop
  endfacet
  facet normal -1 0 0
    outer loop
      vertex 0 20 5.65
      vertex 0 25 5.49496
      vertex 0 23 0
    endloop
  endfacet
  facet normal -0 0.5 0.866025
    outer loop
      vertex 0 20 5.65
      vertex 2.4 17.0988 7.325
      vertex 2.4 20 5.65
    endloop
  endfacet
  facet normal 0 -0.5 0.866025
    outer loop
      vertex 0 20 5.65
      vertex 2.4 20 5.65
      vertex 0 22.9012 7.325
    endloop
  endfacet
  facet normal -1 0 0
    outer loop
      vertex 0 22.9012 10.675
      vertex 0 25 13
      vertex 0 25 5.49496
    endloop
  endfacet
  facet normal -1 0 0
    outer loop
      vertex 0 22.9012 7.325
      vertex 0 22.9012 10.675
      vertex 0 25 5.49496
    endloop
  endfacet
  facet normal 0 -0.5 0.866025
    outer loop
      vertex 0 22.9012 7.325
      vertex 2.4 20 5.65
      vertex 2.4 22.9012 7.325
    endloop
  endfacet
  facet normal 0 -1 0
    outer loop
      vertex 0 22.9012 7.325
      vertex 2.4 22.9012 10.675
      vertex 0 22.9012 10.675
    endloop
  endfacet
  facet normal 0 -1 -0
    outer loop
      vertex 0 22.9012 7.325
      vertex 2.4 22.9012 7.325
      vertex 2.4 22.9012 10.675
    endloop
  endfacet
  facet normal 0 0.939693 -0.34202
    outer loop
      vertex 0 23 0
      vertex 0 25 5.49496
      vertex 5 23 0
    endloop
  endfacet
  facet normal 0 0 -1
    outer loop
      vertex 0 23 0
      vertex 5 23 0
      vertex 5 8 0
    endloop
  endfacet
  facet normal -0 0.707107 0.707107
    outer loop
      vertex 0 25 13
      vertex 5 10 28
      vertex 5 25 13
    endloop
  endfacet
  facet normal 0 1 -0
    outer loop
      vertex 0 25 13
      vertex 5 25 13
      vertex 5 25 5.49496
    endloop
  endfacet
  facet normal 0 1 0
    outer loop
      vertex 0 25 5.49496
      vertex 0 25 13
      vertex 5 25 5.49496
    endloop
  endfacet
  facet normal 0 0.939693 -0.34202
    outer loop
      vertex 0 25 5.49496
      vertex 5 25 5.49496
      vertex 5 23 0
    endloop
  endfacet
  facet normal 0.587785 0 0.809017
    outer loop
      vertex 10.0003 0 15.5848
      vertex 10.55 0 15.1854
      vertex 10.0003 4.4 15.5848
    endloop
  endfacet
  facet normal 0.587786 0 -0.809016
    outer loop
      vertex 10.0003 0 20.4152
      vertex 10.0003 4.4 20.4152
      vertex 10.55 4.4 20.8146
    endloop
  endfacet
  facet normal 0.587786 0 -0.809016
    outer loop
      vertex 10.0003 0 20.4152
      vertex 10.55 4.4 20.8146
      vertex 10.55 0 20.8146
    endloop
  endfacet
  facet normal 0.587785 0 0.809017
    outer loop
      vertex 10.0003 4.4 15.5848
      vertex 10.55 0 15.1854
      vertex 10.55 4.4 15.1854
    endloop
  endfacet
  facet normal 0.406736 0 0.913546
    outer loop
      vertex 10.55 0 15.1854
      vertex 11.1707 0 14.9091
      vertex 10.55 4.4 15.1854
    endloop
  endfacet
  facet normal 0.406735 0 -0.913546
    outer loop
      vertex 10.55 0 20.8146
      vertex 10.55 4.4 20.8146
      vertex 11.1707 4.4 21.0909
    endloop
  endfacet
  facet normal 0.406735 0 -0.913546
    outer loop
      vertex 10.55 0 20.8146
      vertex 11.1707 4.4 21.0909
      vertex 11.1707 0 21.0909
    endloop
  endfacet
  facet normal 0.406736 0 0.913546
    outer loop
      vertex 10.55 4.4 15.1854
      vertex 11.1707 0 14.9091
      vertex 11.1707 4.4 14.9091
    endloop
  endfacet
  facet normal 0.207912 0 0.978147
    outer loop
      vertex 11.1707 0 14.9091
      vertex 11.8353 0 14.7678
      vertex 11.1707 4.4 14.9091
    endloop
  endfacet
  facet normal 0.207914 0 -0.978147
    outer loop
      vertex 11.1707 0 21.0909
      vertex 11.1707 4.4 21.0909
      vertex 11.8353 4.4 21.2322
    endloop
  endfacet
  facet normal 0.207914 0 -0.978147
    outer loop
      vertex 11.1707 0 21.0909
      vertex 11.8353 4.4 21.2322
      vertex 11.8353 0 21.2322
    endloop
  endfacet
  facet normal 0.207912 0 0.978147
    outer loop
      vertex 11.1707 4.4 14.9091
      vertex 11.8353 0 14.7678
      vertex 11.8353 4.4 14.7678
    endloop
  endfacet
  facet normal 0 1 0
    outer loop
      vertex 11.425 4.4 10.8643
      vertex 11.8353 4.4 14.7678
      vertex 12.925 4.4 10.8643
    endloop
  endfacet
  facet normal 0 0 1
    outer loop
      vertex 11.425 4.4 10.8643
      vertex 12.925 4.4 10.8643
      vertex 11.425 8 10.8643
    endloop
  endfacet
  facet normal -0 0 -1
    outer loop
      vertex 11.425 4.4 25.1357
      vertex 11.425 8 25.1357
      vertex 12.925 8 25.1357
    endloop
  endfacet
  facet normal 0 1 -0
    outer loop
      vertex 11.425 4.4 25.1357
      vertex 12.5147 4.4 21.2322
      vertex 11.8353 4.4 21.2322
    endloop
  endfacet
  facet normal 0 1 0
    outer loop
      vertex 11.425 4.4 25.1357
      vertex 12.925 4.4 25.1357
      vertex 12.5147 4.4 21.2322
    endloop
  endfacet
  facet normal 0 0 -1
    outer loop
      vertex 11.425 4.4 25.1357
      vertex 12.925 8 25.1357
      vertex 12.925 4.4 25.1357
    endloop
  endfacet
  facet normal -0 0 1
    outer loop
      vertex 11.425 8 10.8643
      vertex 12.925 4.4 10.8643
      vertex 12.925 8 10.8643
    endloop
  endfacet
  facet normal 0 1 0
    outer loop
      vertex 11.425 8 10.8643
      vertex 12.925 8 10.8643
      vertex 19.35 8 0
    endloop
  endfacet
  facet normal 0 0 1
    outer loop
      vertex 11.8353 0 14.7678
      vertex 12.5147 0 14.7678
      vertex 11.8353 4.4 14.7678
    endloop
  endfacet
  facet normal -0 0 -1
    outer loop
      vertex 11.8353 0 21.2322
      vertex 11.8353 4.4 21.2322
      vertex 12.5147 4.4 21.2322
    endloop
  endfacet
  facet normal 0 -1 0
    outer loop
      vertex 11.8353 0 21.2322
      vertex 12.5147 0 21.2322
      vertex 24.35 0 22
    endloop
  endfacet
  facet normal 0 0 -1
    outer loop
      vertex 11.8353 0 21.2322
      vertex 12.5147 4.4 21.2322
      vertex 12.5147 0 21.2322
    endloop
  endfacet
  facet normal -0 0 1
    outer loop
      vertex 11.8353 4.4 14.7678
      vertex 12.5147 0 14.7678
      vertex 12.5147 4.4 14.7678
    endloop
  endfacet
  facet normal 0 1 0
    outer loop
      vertex 11.8353 4.4 14.7678
      vertex 12.5147 4.4 14.7678
      vertex 12.925 4.4 10.8643
    endloop
  endfacet
  facet normal -0.207912 0 0.978147
    outer loop
      vertex 12.5147 0 14.7678
      vertex 13.1793 0 14.9091
      vertex 12.5147 4.4 14.7678
    endloop
  endfacet
  facet normal 0 -1 0
    outer loop
      vertex 12.5147 0 14.7678
      vertex 24.35 0 14.364
      vertex 13.1793 0 14.9091
    endloop
  endfacet
  facet normal -0.207914 0 -0.978147
    outer loop
      vertex 12.5147 0 21.2322
      vertex 12.5147 4.4 21.2322
      vertex 13.1793 4.4 21.0909
    endloop
  endfacet
  facet normal 0 -1 0
    outer loop
      vertex 12.5147 0 21.2322
      vertex 13.1793 0 21.0909
      vertex 24.35 0 22
    endloop
  endfacet
  facet normal -0.207914 0 -0.978147
    outer loop
      vertex 12.5147 0 21.2322
      vertex 13.1793 4.4 21.0909
      vertex 13.1793 0 21.0909
    endloop
  endfacet
  facet normal -0.207912 0 0.978147
    outer loop
      vertex 12.5147 4.4 14.7678
      vertex 13.1793 0 14.9091
      vertex 13.1793 4.4 14.9091
    endloop
  endfacet
  facet normal 0 1 0
    outer loop
      vertex 12.5147 4.4 14.7678
      vertex 13.1793 4.4 14.9091
      vertex 14.3922 4.4 11.1762
    endloop
  endfacet
  facet normal 0 1 -0
    outer loop
      vertex 12.5147 4.4 14.7678
      vertex 14.3922 4.4 11.1762
      vertex 12.925 4.4 10.8643
    endloop
  endfacet
  facet normal 0 1 0
    outer loop
      vertex 12.5147 4.4 21.2322
      vertex 12.925 4.4 25.1357
      vertex 14.3922 4.4 24.8238
    endloop
  endfacet
  facet normal 0 1 0
    outer loop
      vertex 12.5147 4.4 21.2322
      vertex 14.3922 4.4 24.8238
      vertex 13.1793 4.4 21.0909
    endloop
  endfacet
  facet normal -0.207912 0 0.978147
    outer loop
      vertex 12.925 4.4 10.8643
      vertex 14.3922 4.4 11.1762
      vertex 12.925 8 10.8643
    endloop
  endfacet
  facet normal -0.207912 0 -0.978147
    outer loop
      vertex 12.925 4.4 25.1357
      vertex 12.925 8 25.1357
      vertex 14.3922 8 24.8238
    endloop
  endfacet
  facet normal -0.207912 0 -0.978147
    outer loop
      vertex 12.925 4.4 25.1357
      vertex 14.3922 8 24.8238
      vertex 14.3922 4.4 24.8238
    endloop
  endfacet
  facet normal -0.207912 0 0.978147
    outer loop
      vertex 12.925 8 10.8643
      vertex 14.3922 4.4 11.1762
      vertex 14.3922 8 11.1762
    endloop
  endfacet
  facet normal 0 1 0
    outer loop
      vertex 12.925 8 10.8643
      vertex 14.3922 8 11.1762
      vertex 19.35 8 0
    endloop
  endfacet
  facet normal 0 1 0
    outer loop
      vertex 12.925 8 25.1357
      vertex 19.35 8 28
      vertex 14.3922 8 24.8238
    endloop
  endfacet
  facet normal -0.406737 0 0.913545
    outer loop
      vertex 13.1793 0 14.9091
      vertex 13.8 0 15.1854
      vertex 13.1793 4.4 14.9091
    endloop
  endfacet
  facet normal 0 -1 0
    outer loop
      vertex 13.1793 0 14.9091
      vertex 24.35 0 14.364
      vertex 13.8 0 15.1854
    endloop
  endfacet
  facet normal -0.406736 0 -0.913546
    outer loop
      vertex 13.1793 0 21.0909
      vertex 13.1793 4.4 21.0909
      vertex 13.8 4.4 20.8146
    endloop
  endfacet
  facet normal 0 -1 0
    outer loop
      vertex 13.1793 0 21.0909
      vertex 13.8 0 20.8146
      vertex 24.35 0 22
    endloop
  endfacet
  facet normal -0.406736 0 -0.913546
    outer loop
      vertex 13.1793 0 21.0909
      vertex 13.8 4.4 20.8146
      vertex 13.8 0 20.8146
    endloop
  endfacet
  facet normal -0.406737 0 0.913545
    outer loop
      vertex 13.1793 4.4 14.9091
      vertex 13.8 0 15.1854
      vertex 13.8 4.4 15.1854
    endloop
  endfacet
  facet normal 0 1 0
    outer loop
      vertex 13.1793 4.4 14.9091
      vertex 13.8 4.4 15.1854
      vertex 15.7625 4.4 11.7863
    endloop
  endfacet
  facet normal 0 1 -0
    outer loop
      vertex 13.1793 4.4 14.9091
      vertex 15.7625 4.4 11.7863
      vertex 14.3922 4.4 11.1762
    endloop
  endfacet
  facet normal 0 1 0
    outer loop
      vertex 13.1793 4.4 21.0909
      vertex 14.3922 4.4 24.8238
      vertex 15.7625 4.4 24.2137
    endloop
  endfacet
  facet normal 0 1 0
    outer loop
      vertex 13.1793 4.4 21.0909
      vertex 15.7625 4.4 24.2137
      vertex 13.8 4.4 20.8146
    endloop
  endfacet
  facet normal -0.587785 0 0.809017
    outer loop
      vertex 13.8 0 15.1854
      vertex 14.3497 0 15.5848
      vertex 13.8 4.4 15.1854
    endloop
  endfacet
  facet normal 0 -1 0
    outer loop
      vertex 13.8 0 15.1854
      vertex 24.35 0 14.364
      vertex 14.3497 0 15.5848
    endloop
  endfacet
  facet normal -0.587786 0 -0.809017
    outer loop
      vertex 13.8 0 20.8146
      vertex 13.8 4.4 20.8146
      vertex 14.3497 4.4 20.4152
    endloop
  endfacet
  facet normal 0 -1 0
    outer loop
      vertex 13.8 0 20.8146
      vertex 14.3497 0 20.4152
      vertex 24.35 0 22
    endloop
  endfacet
  facet normal -0.587786 0 -0.809017
    outer loop
      vertex 13.8 0 20.8146
      vertex 14.3497 4.4 20.4152
      vertex 14.3497 0 20.4152
    endloop
  endfacet
  facet normal -0.587785 0 0.809017
    outer loop
      vertex 13.8 4.4 15.1854
      vertex 14.3497 0 15.5848
      vertex 14.3497 4.4 15.5848
    endloop
  endfacet
  facet normal 0 1 0
    outer loop
      vertex 13.8 4.4 15.1854
      vertex 14.3497 4.4 15.5848
      vertex 16.976 4.4 12.6679
    endloop
  endfacet
  facet normal 0 1 -0
    outer loop
      vertex 13.8 4.4 15.1854
      vertex 16.976 4.4 12.6679
      vertex 15.7625 4.4 11.7863
    endloop
  endfacet
  facet normal 0 1 0
    outer loop
      vertex 13.8 4.4 20.8146
      vertex 15.7625 4.4 24.2137
      vertex 16.976 4.4 23.3321
    endloop
  endfacet
  facet normal 0 1 0
    outer loop
      vertex 13.8 4.4 20.8146
      vertex 16.976 4.4 23.3321
      vertex 14.3497 4.4 20.4152
    endloop
  endfacet
  facet normal -0.743146 0 0.66913
    outer loop
      vertex 14.3497 0 15.5848
      vertex 14.8043 0 16.0897
      vertex 14.8043 4.4 16.0897
    endloop
  endfacet
  facet normal -0.743146 0 0.66913
    outer loop
      vertex 14.3497 0 15.5848
      vertex 14.8043 4.4 16.0897
      vertex 14.3497 4.4 15.5848
    endloop
  endfacet
  facet normal 0 -1 0
    outer loop
      vertex 14.3497 0 15.5848
      vertex 24.35 0 14.364
      vertex 14.8043 0 16.0897
    endloop
  endfacet
  facet normal -0.743145 -0 -0.66913
    outer loop
      vertex 14.3497 0 20.4152
      vertex 14.3497 4.4 20.4152
      vertex 14.8043 0 19.9103
    endloop
  endfacet
  facet normal 0 -1 0
    outer loop
      vertex 14.3497 0 20.4152
      vertex 14.8043 0 19.9103
      vertex 24.35 0 22
    endloop
  endfacet
  facet normal 0 1 0
    outer loop
      vertex 14.3497 4.4 15.5848
      vertex 14.8043 4.4 16.0897
      vertex 17.9797 4.4 13.7826
    endloop
  endfacet
  facet normal 0 1 -0
    outer loop
      vertex 14.3497 4.4 15.5848
      vertex 17.9797 4.4 13.7826
      vertex 16.976 4.4 12.6679
    endloop
  endfacet
  facet normal -0.743145 0 -0.66913
    outer loop
      vertex 14.3497 4.4 20.4152
      vertex 14.8043 4.4 19.9103
      vertex 14.8043 0 19.9103
    endloop
  endfacet
  facet normal 0 1 0
    outer loop
      vertex 14.3497 4.4 20.4152
      vertex 16.976 4.4 23.3321
      vertex 17.9797 4.4 22.2174
    endloop
  endfacet
  facet normal 0 1 0
    outer loop
      vertex 14.3497 4.4 20.4152
      vertex 17.9797 4.4 22.2174
      vertex 14.8043 4.4 19.9103
    endloop
  endfacet
  facet normal -0.406736 0 0.913546
    outer loop
      vertex 14.3922 4.4 11.1762
      vertex 15.7625 4.4 11.7863
      vertex 14.3922 8 11.1762
    endloop
  endfacet
  facet normal -0.406736 0 -0.913546
    outer loop
      vertex 14.3922 4.4 24.8238
      vertex 14.3922 8 24.8238
      vertex 15.7625 8 24.2137
    endloop
  endfacet
  facet normal -0.406736 0 -0.913546
    outer loop
      vertex 14.3922 4.4 24.8238
      vertex 15.7625 8 24.2137
      vertex 15.7625 4.4 24.2137
    endloop
  endfacet
  facet normal -0.406736 0 0.913546
    outer loop
      vertex 14.3922 8 11.1762
      vertex 15.7625 4.4 11.7863
      vertex 15.7625 8 11.7863
    endloop
  endfacet
  facet normal 0 1 0
    outer loop
      vertex 14.3922 8 11.1762
      vertex 15.7625 8 11.7863
      vertex 19.35 8 0
    endloop
  endfacet
  facet normal 0 1 0
    outer loop
      vertex 14.3922 8 24.8238
      vertex 19.35 8 28
      vertex 15.7625 8 24.2137
    endloop
  endfacet
  facet normal -0.866025 0 0.500001
    outer loop
      vertex 14.8043 0 16.0897
      vertex 15.144 0 16.6781
      vertex 15.144 4.4 16.6781
    endloop
  endfacet
  facet normal -0.866025 0 0.500001
    outer loop
      vertex 14.8043 0 16.0897
      vertex 15.144 4.4 16.6781
      vertex 14.8043 4.4 16.0897
    endloop
  endfacet
  facet normal 0 -1 0
    outer loop
      vertex 14.8043 0 16.0897
      vertex 24.35 0 14.364
      vertex 15.144 0 16.6781
    endloop
  endfacet
  facet normal -0.866026 -0 -0.5
    outer loop
      vertex 14.8043 0 19.9103
      vertex 14.8043 4.4 19.9103
      vertex 15.144 0 19.3219
    endloop
  endfacet
  facet normal 0 -1 0
    outer loop
      vertex 14.8043 0 19.9103
      vertex 15.144 0 19.3219
      vertex 24.35 0 22
    endloop
  endfacet
  facet normal 0 1 0
    outer loop
      vertex 14.8043 4.4 16.0897
      vertex 15.144 4.4 16.6781
      vertex 18.7297 4.4 15.0817
    endloop
  endfacet
  facet normal 0 1 -0
    outer loop
      vertex 14.8043 4.4 16.0897
      vertex 18.7297 4.4 15.0817
      vertex 17.9797 4.4 13.7826
    endloop
  endfacet
  facet normal -0.866026 0 -0.5
    outer loop
      vertex 14.8043 4.4 19.9103
      vertex 15.144 4.4 19.3219
      vertex 15.144 0 19.3219
    endloop
  endfacet
  facet normal 0 1 0
    outer loop
      vertex 14.8043 4.4 19.9103
      vertex 17.9797 4.4 22.2174
      vertex 18.7297 4.4 20.9183
    endloop
  endfacet
  facet normal 0 1 0
    outer loop
      vertex 14.8043 4.4 19.9103
      vertex 18.7297 4.4 20.9183
      vertex 15.144 4.4 19.3219
    endloop
  endfacet
  facet normal -0.951057 0 0.309016
    outer loop
      vertex 15.144 0 16.6781
      vertex 15.354 0 17.3243
      vertex 15.354 4.4 17.3243
    endloop
  endfacet
  facet normal -0.951057 0 0.309016
    outer loop
      vertex 15.144 0 16.6781
      vertex 15.354 4.4 17.3243
      vertex 15.144 4.4 16.6781
    endloop
  endfacet
  facet normal 0 -1 0
    outer loop
      vertex 15.144 0 16.6781
      vertex 24.35 0 14.364
      vertex 15.354 0 17.3243
    endloop
  endfacet
  facet normal -0.951056 -0 -0.309017
    outer loop
      vertex 15.144 0 19.3219
      vertex 15.144 4.4 19.3219
      vertex 15.354 0 18.6757
    endloop
  endfacet
  facet normal 0 -1 0
    outer loop
      vertex 15.144 0 19.3219
      vertex 15.354 0 18.6757
      vertex 24.35 0 22
    endloop
  endfacet
  facet normal 0 1 0
    outer loop
      vertex 15.144 4.4 16.6781
      vertex 15.354 4.4 17.3243
      vertex 19.1932 4.4 16.5082
    endloop
  endfacet
  facet normal 0 1 -0
    outer loop
      vertex 15.144 4.4 16.6781
      vertex 19.1932 4.4 16.5082
      vertex 18.7297 4.4 15.0817
    endloop
  endfacet
  facet normal -0.951056 0 -0.309017
    outer loop
      vertex 15.144 4.4 19.3219
      vertex 15.354 4.4 18.6757
      vertex 15.354 0 18.6757
    endloop
  endfacet
  facet normal 0 1 0
    outer loop
      vertex 15.144 4.4 19.3219
      vertex 18.7297 4.4 20.9183
      vertex 19.1932 4.4 19.4918
    endloop
  endfacet
  facet normal 0 1 0
    outer loop
      vertex 15.144 4.4 19.3219
      vertex 19.1932 4.4 19.4918
      vertex 15.354 4.4 18.6757
    endloop
  endfacet
  facet normal -0.994522 0 0.104528
    outer loop
      vertex 15.354 0 17.3243
      vertex 15.425 0 18
      vertex 15.425 4.4 18
    endloop
  endfacet
  facet normal -0.994522 0 0.104528
    outer loop
      vertex 15.354 0 17.3243
      vertex 15.425 4.4 18
      vertex 15.354 4.4 17.3243
    endloop
  endfacet
  facet normal 0 -1 0
    outer loop
      vertex 15.354 0 17.3243
      vertex 24.35 0 14.364
      vertex 15.425 0 18
    endloop
  endfacet
  facet normal -0.994522 -0 -0.104528
    outer loop
      vertex 15.354 0 18.6757
      vertex 15.354 4.4 18.6757
      vertex 15.425 0 18
    endloop
  endfacet
  facet normal 0 -1 0
    outer loop
      vertex 15.354 0 18.6757
      vertex 15.425 0 18
      vertex 24.35 0 22
    endloop
  endfacet
  facet normal 0 1 0
    outer loop
      vertex 15.354 4.4 17.3243
      vertex 15.425 4.4 18
      vertex 19.35 4.4 18
    endloop
  endfacet
  facet normal 0 1 -0
    outer loop
      vertex 15.354 4.4 17.3243
      vertex 19.35 4.4 18
      vertex 19.1932 4.4 16.5082
    endloop
  endfacet
  facet normal -0.994522 0 -0.104528
    outer loop
      vertex 15.354 4.4 18.6757
      vertex 15.425 4.4 18
      vertex 15.425 0 18
    endloop
  endfacet
  facet normal 0 1 0
    outer loop
      vertex 15.354 4.4 18.6757
      vertex 19.1932 4.4 19.4918
      vertex 19.35 4.4 18
    endloop
  endfacet
  facet normal 0 1 0
    outer loop
      vertex 15.354 4.4 18.6757
      vertex 19.35 4.4 18
      vertex 15.425 4.4 18
    endloop
  endfacet
  facet normal 0 -1 0
    outer loop
      vertex 15.425 0 18
      vertex 24.35 0 14.364
      vertex 24.35 0 22
    endloop
  endfacet
  facet normal -0.587785 0 0.809017
    outer loop
      vertex 15.7625 4.4 11.7863
      vertex 16.976 4.4 12.6679
      vertex 15.7625 8 11.7863
    endloop
  endfacet
  facet normal -0.587785 0 -0.809017
    outer loop
      vertex 15.7625 4.4 24.2137
      vertex 15.7625 8 24.2137
      vertex 16.976 8 23.3321
    endloop
  endfacet
  facet normal -0.587785 0 -0.809017
    outer loop
      vertex 15.7625 4.4 24.2137
      vertex 16.976 8 23.3321
      vertex 16.976 4.4 23.3321
    endloop
  endfacet
  facet normal -0.587785 0 0.809017
    outer loop
      vertex 15.7625 8 11.7863
      vertex 16.976 4.4 12.6679
      vertex 16.976 8 12.6679
    endloop
  endfacet
  facet normal 0 1 0
    outer loop
      vertex 15.7625 8 11.7863
      vertex 16.976 8 12.6679
      vertex 19.35 8 0
    endloop
  endfacet
  facet normal 0 1 0
    outer loop
      vertex 15.7625 8 24.2137
      vertex 19.35 8 28
      vertex 16.976 8 23.3321
    endloop
  endfacet
  facet normal -0.743145 0 0.669131
    outer loop
      vertex 16.976 4.4 12.6679
      vertex 17.9797 4.4 13.7826
      vertex 17.9797 8 13.7826
    endloop
  endfacet
  facet normal -0.743145 0 0.669131
    outer loop
      vertex 16.976 4.4 12.6679
      vertex 17.9797 8 13.7826
      vertex 16.976 8 12.6679
    endloop
  endfacet
  facet normal -0.743145 -0 -0.66913
    outer loop
      vertex 16.976 4.4 23.3321
      vertex 16.976 8 23.3321
      vertex 17.9797 4.4 22.2174
    endloop
  endfacet
  facet normal 0 1 0
    outer loop
      vertex 16.976 8 12.6679
      vertex 17.9797 8 13.7826
      vertex 19.35 8 0
    endloop
  endfacet
  facet normal -0.743145 0 -0.66913
    outer loop
      vertex 16.976 8 23.3321
      vertex 17.9797 8 22.2174
      vertex 17.9797 4.4 22.2174
    endloop
  endfacet
  facet normal 0 1 0
    outer loop
      vertex 16.976 8 23.3321
      vertex 19.35 8 28
      vertex 17.9797 8 22.2174
    endloop
  endfacet
  facet normal -0.866025 0 0.5
    outer loop
      vertex 17.9797 4.4 13.7826
      vertex 18.7297 4.4 15.0817
      vertex 18.7297 8 15.0817
    endloop
  endfacet
  facet normal -0.866025 0 0.5
    outer loop
      vertex 17.9797 4.4 13.7826
      vertex 18.7297 8 15.0817
      vertex 17.9797 8 13.7826
    endloop
  endfacet
  facet normal -0.866025 -0 -0.500001
    outer loop
      vertex 17.9797 4.4 22.2174
      vertex 17.9797 8 22.2174
      vertex 18.7297 4.4 20.9183
    endloop
  endfacet
  facet normal 0 1 0
    outer loop
      vertex 17.9797 8 13.7826
      vertex 18.7297 8 15.0817
      vertex 19.35 8 0
    endloop
  endfacet
  facet normal -0.866025 0 -0.500001
    outer loop
      vertex 17.9797 8 22.2174
      vertex 18.7297 8 20.9183
      vertex 18.7297 4.4 20.9183
    endloop
  endfacet
  facet normal 0 1 0
    outer loop
      vertex 17.9797 8 22.2174
      vertex 19.35 8 28
      vertex 18.7297 8 20.9183
    endloop
  endfacet
  facet normal -0.951057 0 0.309017
    outer loop
      vertex 18.7297 4.4 15.0817
      vertex 19.1932 4.4 16.5082
      vertex 19.1932 8 16.5082
    endloop
  endfacet
  facet normal -0.951057 0 0.309017
    outer loop
      vertex 18.7297 4.4 15.0817
      vertex 19.1932 8 16.5082
      vertex 18.7297 8 15.0817
    endloop
  endfacet
  facet normal -0.951057 -0 -0.309017
    outer loop
      vertex 18.7297 4.4 20.9183
      vertex 18.7297 8 20.9183
      vertex 19.1932 4.4 19.4918
    endloop
  endfacet
  facet normal 0 1 0
    outer loop
      vertex 18.7297 8 15.0817
      vertex 19.1932 8 16.5082
      vertex 19.35 8 0
    endloop
  endfacet
  facet normal -0.951057 0 -0.309017
    outer loop
      vertex 18.7297 8 20.9183
      vertex 19.1932 8 19.4918
      vertex 19.1932 4.4 19.4918
    endloop
  endfacet
  facet normal 0 1 0
    outer loop
      vertex 18.7297 8 20.9183
      vertex 19.35 8 28
      vertex 19.1932 8 19.4918
    endloop
  endfacet
  facet normal -0.994522 0 0.104528
    outer loop
      vertex 19.1932 4.4 16.5082
      vertex 19.35 4.4 18
      vertex 19.35 8 18
    endloop
  endfacet
  facet normal -0.994522 0 0.104528
    outer loop
      vertex 19.1932 4.4 16.5082
      vertex 19.35 8 18
      vertex 19.1932 8 16.5082
    endloop
  endfacet
  facet normal -0.994522 -0 -0.104528
    outer loop
      vertex 19.1932 4.4 19.4918
      vertex 19.1932 8 19.4918
      vertex 19.35 4.4 18
    endloop
  endfacet
  facet normal 0 1 -0
    outer loop
      vertex 19.1932 8 16.5082
      vertex 19.35 8 18
      vertex 19.35 8 0
    endloop
  endfacet
  facet normal -0.994522 0 -0.104528
    outer loop
      vertex 19.1932 8 19.4918
      vertex 19.35 8 18
      vertex 19.35 4.4 18
    endloop
  endfacet
  facet normal -0 1 0
    outer loop
      vertex 19.1932 8 19.4918
      vertex 19.35 8 28
      vertex 19.35 8 18
    endloop
  endfacet
  facet normal -1 0 0
    outer loop
      vertex 19.35 10 28
      vertex 19.35 18.3357 9.54078
      vertex 19.35 18.2596 9.18292
    endloop
  endfacet
  facet normal -1 0 0
    outer loop
      vertex 19.35 10 28
      vertex 19.35 18.4845 9.875
      vertex 19.35 18.3357 9.54078
    endloop
  endfacet
  facet normal -1 0 0
    outer loop
      vertex 19.35 10 28
      vertex 19.35 18.6995 10.171
      vertex 19.35 18.4845 9.875
    endloop
  endfacet
  facet normal -1 0 0
    outer loop
      vertex 19.35 10 28
      vertex 19.35 18.9714 10.4158
      vertex 19.35 18.6995 10.171
    endloop
  endfacet
  facet normal -1 0 0
    outer loop
      vertex 19.35 10 28
      vertex 19.35 19.2882 10.5987
      vertex 19.35 18.9714 10.4158
    endloop
  endfacet
  facet normal -1 0 0
    outer loop
      vertex 19.35 10 28
      vertex 19.35 19.6362 10.7118
      vertex 19.35 19.2882 10.5987
    endloop
  endfacet
  facet normal -1 0 0
    outer loop
      vertex 19.35 10 28
      vertex 19.35 25 13
      vertex 19.35 19.6362 10.7118
    endloop
  endfacet
  facet normal 0 0.707107 0.707107
    outer loop
      vertex 19.35 10 28
      vertex 24.35 10 28
      vertex 19.35 25 13
    endloop
  endfacet
  facet normal 0 1 0
    outer loop
      vertex 19.35 18.2596 8.81707
      vertex 19.35 18.2596 9.18292
      vertex 24.35 18.2596 8.81707
    endloop
  endfacet
  facet normal 0 0.978147 0.207913
    outer loop
      vertex 19.35 18.2596 8.81707
      vertex 24.35 18.2596 8.81707
      vertex 24.35 18.3357 8.45922
    endloop
  endfacet
  facet normal 0 0.978147 0.207913
    outer loop
      vertex 19.35 18.2596 8.81707
      vertex 24.35 18.3357 8.45922
      vertex 19.35 18.3357 8.45922
    endloop
  endfacet
  facet normal 0 0.978147 -0.207913
    outer loop
      vertex 19.35 18.2596 9.18292
      vertex 19.35 18.3357 9.54078
      vertex 24.35 18.2596 9.18292
    endloop
  endfacet
  facet normal 0 1 -0
    outer loop
      vertex 19.35 18.2596 9.18292
      vertex 24.35 18.2596 9.18292
      vertex 24.35 18.2596 8.81707
    endloop
  endfacet
  facet normal 0 0.913546 0.406735
    outer loop
      vertex 19.35 18.3357 8.45922
      vertex 24.35 18.3357 8.45922
      vertex 24.35 18.4845 8.125
    endloop
  endfacet
  facet normal 0 0.913546 0.406735
    outer loop
      vertex 19.35 18.3357 8.45922
      vertex 24.35 18.4845 8.125
      vertex 19.35 18.4845 8.125
    endloop
  endfacet
  facet normal 0 0.913546 -0.406734
    outer loop
      vertex 19.35 18.3357 9.54078
      vertex 19.35 18.4845 9.875
      vertex 24.35 18.3357 9.54078
    endloop
  endfacet
  facet normal 0 0.978147 -0.207913
    outer loop
      vertex 19.35 18.3357 9.54078
      vertex 24.35 18.3357 9.54078
      vertex 24.35 18.2596 9.18292
    endloop
  endfacet
  facet normal 0 0.809016 0.587786
    outer loop
      vertex 19.35 18.4845 8.125
      vertex 24.35 18.4845 8.125
      vertex 24.35 18.6995 7.82902
    endloop
  endfacet
  facet normal 0 0.809016 0.587786
    outer loop
      vertex 19.35 18.4845 8.125
      vertex 24.35 18.6995 7.82902
      vertex 19.35 18.6995 7.82902
    endloop
  endfacet
  facet normal 0 0.809016 -0.587787
    outer loop
      vertex 19.35 18.4845 9.875
      vertex 19.35 18.6995 10.171
      vertex 24.35 18.4845 9.875
    endloop
  endfacet
  facet normal 0 0.913546 -0.406734
    outer loop
      vertex 19.35 18.4845 9.875
      vertex 24.35 18.4845 9.875
      vertex 24.35 18.3357 9.54078
    endloop
  endfacet
  facet normal 0 0.669132 -0.743143
    outer loop
      vertex 19.35 18.6995 10.171
      vertex 19.35 18.9714 10.4158
      vertex 24.35 18.9714 10.4158
    endloop
  endfacet
  facet normal 0 0.809016 -0.587787
    outer loop
      vertex 19.35 18.6995 10.171
      vertex 24.35 18.6995 10.171
      vertex 24.35 18.4845 9.875
    endloop
  endfacet
  facet normal 0 0.669132 -0.743143
    outer loop
      vertex 19.35 18.6995 10.171
      vertex 24.35 18.9714 10.4158
      vertex 24.35 18.6995 10.171
    endloop
  endfacet
  facet normal 0 0.669132 0.743143
    outer loop
      vertex 19.35 18.6995 7.82902
      vertex 24.35 18.6995 7.82902
      vertex 19.35 18.9714 7.58422
    endloop
  endfacet
  facet normal 0 0.499998 -0.866026
    outer loop
      vertex 19.35 18.9714 10.4158
      vertex 19.35 19.2882 10.5987
      vertex 24.35 19.2882 10.5987
    endloop
  endfacet
  facet normal 0 0.499998 -0.866026
    outer loop
      vertex 19.35 18.9714 10.4158
      vertex 24.35 19.2882 10.5987
      vertex 24.35 18.9714 10.4158
    endloop
  endfacet
  facet normal -0 0.669132 0.743143
    outer loop
      vertex 19.35 18.9714 7.58422
      vertex 24.35 18.6995 7.82902
      vertex 24.35 18.9714 7.58422
    endloop
  endfacet
  facet normal 0 0.499998 0.866026
    outer loop
      vertex 19.35 18.9714 7.58422
      vertex 24.35 18.9714 7.58422
      vertex 19.35 19.2882 7.40129
    endloop
  endfacet
  facet normal 0 0.309017 -0.951057
    outer loop
      vertex 19.35 19.2882 10.5987
      vertex 19.35 19.6362 10.7118
      vertex 24.35 19.6362 10.7118
    endloop
  endfacet
  facet normal 0 0.309017 -0.951057
    outer loop
      vertex 19.35 19.2882 10.5987
      vertex 24.35 19.6362 10.7118
      vertex 24.35 19.2882 10.5987
    endloop
  endfacet
  facet normal -1 0 0
    outer loop
      vertex 19.35 19.2882 7.40129
      vertex 19.35 19.6362 7.28824
      vertex 19.35 23 0
    endloop
  endfacet
  facet normal -0 0.499998 0.866026
    outer loop
      vertex 19.35 19.2882 7.40129
      vertex 24.35 18.9714 7.58422
      vertex 24.35 19.2882 7.40129
    endloop
  endfacet
  facet normal 0 0.309017 0.951057
    outer loop
      vertex 19.35 19.2882 7.40129
      vertex 24.35 19.2882 7.40129
      vertex 19.35 19.6362 7.28824
    endloop
  endfacet
  facet normal 0 0.10453 -0.994522
    outer loop
      vertex 19.35 19.6362 10.7118
      vertex 19.35 20 10.75
      vertex 24.35 20 10.75
    endloop
  endfacet
  facet normal -1 0 0
    outer loop
      vertex 19.35 19.6362 10.7118
      vertex 19.35 25 13
      vertex 19.35 20 10.75
    endloop
  endfacet
  facet normal 0 0.10453 -0.994522
    outer loop
      vertex 19.35 19.6362 10.7118
      vertex 24.35 20 10.75
      vertex 24.35 19.6362 10.7118
    endloop
  endfacet
  facet normal -1 0 0
    outer loop
      vertex 19.35 19.6362 7.28824
      vertex 19.35 20 7.25
      vertex 19.35 23 0
    endloop
  endfacet
  facet normal -0 0.309017 0.951057
    outer loop
      vertex 19.35 19.6362 7.28824
      vertex 24.35 19.2882 7.40129
      vertex 24.35 19.6362 7.28824
    endloop
  endfacet
  facet normal 0 0.104528 0.994522
    outer loop
      vertex 19.35 19.6362 7.28824
      vertex 24.35 19.6362 7.28824
      vertex 19.35 20 7.25
    endloop
  endfacet
  facet normal -0 -0.10453 -0.994522
    outer loop
      vertex 19.35 20 10.75
      vertex 19.35 20.3638 10.7118
      vertex 24.35 20.3638 10.7118
    endloop
  endfacet
  facet normal -1 0 0
    outer loop
      vertex 19.35 20 10.75
      vertex 19.35 25 13
      vertex 19.35 20.3638 10.7118
    endloop
  endfacet
  facet normal 0 -0.10453 -0.994522
    outer loop
      vertex 19.35 20 10.75
      vertex 24.35 20.3638 10.7118
      vertex 24.35 20 10.75
    endloop
  endfacet
  facet normal -1 0 0
    outer loop
      vertex 19.35 20 7.25
      vertex 19.35 20.3638 7.28824
      vertex 19.35 23 0
    endloop
  endfacet
  facet normal -0 0.104528 0.994522
    outer loop
      vertex 19.35 20 7.25
      vertex 24.35 19.6362 7.28824
      vertex 24.35 20 7.25
    endloop
  endfacet
  facet normal 0 -0.104528 0.994522
    outer loop
      vertex 19.35 20 7.25
      vertex 24.35 20 7.25
      vertex 19.35 20.3638 7.28824
    endloop
  endfacet
  facet normal -0 -0.309017 -0.951057
    outer loop
      vertex 19.35 20.3638 10.7118
      vertex 19.35 20.7118 10.5987
      vertex 24.35 20.7118 10.5987
    endloop
  endfacet
  facet normal -1 0 0
    outer loop
      vertex 19.35 20.3638 10.7118
      vertex 19.35 25 13
      vertex 19.35 20.7118 10.5987
    endloop
  endfacet
  facet normal 0 -0.309017 -0.951057
    outer loop
      vertex 19.35 20.3638 10.7118
      vertex 24.35 20.7118 10.5987
      vertex 24.35 20.3638 10.7118
    endloop
  endfacet
  facet normal -1 0 0
    outer loop
      vertex 19.35 20.3638 7.28824
      vertex 19.35 20.7118 7.40129
      vertex 19.35 25 5.49496
    endloop
  endfacet
  facet normal -1 0 0
    outer loop
      vertex 19.35 20.3638 7.28824
      vertex 19.35 25 5.49496
      vertex 19.35 23 0
    endloop
  endfacet
  facet normal 0 -0.104528 0.994522
    outer loop
      vertex 19.35 20.3638 7.28824
      vertex 24.35 20 7.25
      vertex 24.35 20.3638 7.28824
    endloop
  endfacet
  facet normal 0 -0.309017 0.951057
    outer loop
      vertex 19.35 20.3638 7.28824
      vertex 24.35 20.3638 7.28824
      vertex 19.35 20.7118 7.40129
    endloop
  endfacet
  facet normal -0 -0.5 -0.866025
    outer loop
      vertex 19.35 20.7118 10.5987
      vertex 19.35 21.0286 10.4158
      vertex 24.35 21.0286 10.4158
    endloop
  endfacet
  facet normal -1 0 0
    outer loop
      vertex 19.35 20.7118 10.5987
      vertex 19.35 25 13
      vertex 19.35 21.0286 10.4158
    endloop
  endfacet
  facet normal 0 -0.5 -0.866025
    outer loop
      vertex 19.35 20.7118 10.5987
      vertex 24.35 21.0286 10.4158
      vertex 24.35 20.7118 10.5987
    endloop
  endfacet
  facet normal -1 0 0
    outer loop
      vertex 19.35 20.7118 7.40129
      vertex 19.35 21.0286 7.58422
      vertex 19.35 25 5.49496
    endloop
  endfacet
  facet normal 0 -0.309017 0.951057
    outer loop
      vertex 19.35 20.7118 7.40129
      vertex 24.35 20.3638 7.28824
      vertex 24.35 20.7118 7.40129
    endloop
  endfacet
  facet normal 0 -0.5 0.866025
    outer loop
      vertex 19.35 20.7118 7.40129
      vertex 24.35 20.7118 7.40129
      vertex 19.35 21.0286 7.58422
    endloop
  endfacet
  facet normal -0 -0.66913 -0.743146
    outer loop
      vertex 19.35 21.0286 10.4158
      vertex 19.35 21.3005 10.171
      vertex 24.35 21.3005 10.171
    endloop
  endfacet
  facet normal -1 0 0
    outer loop
      vertex 19.35 21.0286 10.4158
      vertex 19.35 25 13
      vertex 19.35 21.3005 10.171
    endloop
  endfacet
  facet normal 0 -0.66913 -0.743146
    outer loop
      vertex 19.35 21.0286 10.4158
      vertex 24.35 21.3005 10.171
      vertex 24.35 21.0286 10.4158
    endloop
  endfacet
  facet normal -1 0 0
    outer loop
      vertex 19.35 21.0286 7.58422
      vertex 19.35 21.3005 7.82902
      vertex 19.35 25 5.49496
    endloop
  endfacet
  facet normal 0 -0.5 0.866025
    outer loop
      vertex 19.35 21.0286 7.58422
      vertex 24.35 20.7118 7.40129
      vertex 24.35 21.0286 7.58422
    endloop
  endfacet
  facet normal 0 -0.66913 0.743146
    outer loop
      vertex 19.35 21.0286 7.58422
      vertex 24.35 21.0286 7.58422
      vertex 19.35 21.3005 7.82902
    endloop
  endfacet
  facet normal 0 -0.809016 -0.587787
    outer loop
      vertex 19.35 21.3005 10.171
      vertex 19.35 21.5155 9.875
      vertex 24.35 21.3005 10.171
    endloop
  endfacet
  facet normal -1 0 0
    outer loop
      vertex 19.35 21.3005 10.171
      vertex 19.35 25 13
      vertex 19.35 21.5155 9.875
    endloop
  endfacet
  facet normal -1 0 0
    outer loop
      vertex 19.35 21.3005 7.82902
      vertex 19.35 21.5155 8.125
      vertex 19.35 25 5.49496
    endloop
  endfacet
  facet normal 0 -0.66913 0.743146
    outer loop
      vertex 19.35 21.3005 7.82902
      vertex 24.35 21.0286 7.58422
      vertex 24.35 21.3005 7.82902
    endloop
  endfacet
  facet normal 0 -0.809016 0.587786
    outer loop
      vertex 19.35 21.3005 7.82902
      vertex 24.35 21.3005 7.82902
      vertex 24.35 21.5155 8.125
    endloop
  endfacet
  facet normal 0 -0.809016 0.587786
    outer loop
      vertex 19.35 21.3005 7.82902
      vertex 24.35 21.5155 8.125
      vertex 19.35 21.5155 8.125
    endloop
  endfacet
  facet normal -1 0 0
    outer loop
      vertex 19.35 21.5155 8.125
      vertex 19.35 21.6643 8.45922
      vertex 19.35 25 5.49496
    endloop
  endfacet
  facet normal 0 -0.913546 0.406735
    outer loop
      vertex 19.35 21.5155 8.125
      vertex 24.35 21.5155 8.125
      vertex 24.35 21.6643 8.45922
    endloop
  endfacet
  facet normal 0 -0.913546 0.406735
    outer loop
      vertex 19.35 21.5155 8.125
      vertex 24.35 21.6643 8.45922
      vertex 19.35 21.6643 8.45922
    endloop
  endfacet
  facet normal 0 -0.913546 -0.406734
    outer loop
      vertex 19.35 21.5155 9.875
      vertex 19.35 21.6643 9.54078
      vertex 24.35 21.5155 9.875
    endloop
  endfacet
  facet normal -1 0 0
    outer loop
      vertex 19.35 21.5155 9.875
      vertex 19.35 25 13
      vertex 19.35 21.6643 9.54078
    endloop
  endfacet
  facet normal 0 -0.809016 -0.587787
    outer loop
      vertex 19.35 21.5155 9.875
      vertex 24.35 21.5155 9.875
      vertex 24.35 21.3005 10.171
    endloop
  endfacet
  facet normal -1 0 0
    outer loop
      vertex 19.35 21.6643 8.45922
      vertex 19.35 21.7404 8.81707
      vertex 19.35 25 5.49496
    endloop
  endfacet
  facet normal 0 -0.978147 0.207913
    outer loop
      vertex 19.35 21.6643 8.45922
      vertex 24.35 21.6643 8.45922
      vertex 24.35 21.7404 8.81707
    endloop
  endfacet
  facet normal 0 -0.978147 0.207913
    outer loop
      vertex 19.35 21.6643 8.45922
      vertex 24.35 21.7404 8.81707
      vertex 19.35 21.7404 8.81707
    endloop
  endfacet
  facet normal 0 -0.978147 -0.207913
    outer loop
      vertex 19.35 21.6643 9.54078
      vertex 19.35 21.7404 9.18292
      vertex 24.35 21.6643 9.54078
    endloop
  endfacet
  facet normal -1 0 0
    outer loop
      vertex 19.35 21.6643 9.54078
      vertex 19.35 25 13
      vertex 19.35 21.7404 9.18292
    endloop
  endfacet
  facet normal 0 -0.913546 -0.406734
    outer loop
      vertex 19.35 21.6643 9.54078
      vertex 24.35 21.6643 9.54078
      vertex 24.35 21.5155 9.875
    endloop
  endfacet
  facet normal -1 0 0
    outer loop
      vertex 19.35 21.7404 8.81707
      vertex 19.35 21.7404 9.18292
      vertex 19.35 25 5.49496
    endloop
  endfacet
  facet normal 0 -1 -0
    outer loop
      vertex 19.35 21.7404 8.81707
      vertex 24.35 21.7404 8.81707
      vertex 24.35 21.7404 9.18292
    endloop
  endfacet
  facet normal 0 -1 0
    outer loop
      vertex 19.35 21.7404 8.81707
      vertex 24.35 21.7404 9.18292
      vertex 19.35 21.7404 9.18292
    endloop
  endfacet
  facet normal -1 0 0
    outer loop
      vertex 19.35 21.7404 9.18292
      vertex 19.35 25 13
      vertex 19.35 25 5.49496
    endloop
  endfacet
  facet normal 0 -0.978147 -0.207913
    outer loop
      vertex 19.35 21.7404 9.18292
      vertex 24.35 21.7404 9.18292
      vertex 24.35 21.6643 9.54078
    endloop
  endfacet
  facet normal 0 0.939693 -0.34202
    outer loop
      vertex 19.35 23 0
      vertex 19.35 25 5.49496
      vertex 24.35 23 0
    endloop
  endfacet
  facet normal -0 0.707107 0.707107
    outer loop
      vertex 19.35 25 13
      vertex 24.35 10 28
      vertex 24.35 25 13
    endloop
  endfacet
  facet normal 0 1 -0
    outer loop
      vertex 19.35 25 13
      vertex 24.35 25 13
      vertex 24.35 25 5.49496
    endloop
  endfacet
  facet normal 0 1 0
    outer loop
      vertex 19.35 25 5.49496
      vertex 19.35 25 13
      vertex 24.35 25 5.49496
    endloop
  endfacet
  facet normal 0 0.939693 -0.34202
    outer loop
      vertex 19.35 25 5.49496
      vertex 24.35 25 5.49496
      vertex 24.35 23 0
    endloop
  endfacet
  facet normal -1 0 0
    outer loop
      vertex 19.35 8 0
      vertex 19.35 18.2596 8.81707
      vertex 19.35 18.3357 8.45922
    endloop
  endfacet
  facet normal -1 0 0
    outer loop
      vertex 19.35 8 0
      vertex 19.35 18.3357 8.45922
      vertex 19.35 18.4845 8.125
    endloop
  endfacet
  facet normal -1 -0 0
    outer loop
      vertex 19.35 8 0
      vertex 19.35 18.4845 8.125
      vertex 19.35 18.6995 7.82902
    endloop
  endfacet
  facet normal -1 -0 0
    outer loop
      vertex 19.35 8 0
      vertex 19.35 18.6995 7.82902
      vertex 19.35 18.9714 7.58422
    endloop
  endfacet
  facet normal -1 -0 0
    outer loop
      vertex 19.35 8 0
      vertex 19.35 18.9714 7.58422
      vertex 19.35 19.2882 7.40129
    endloop
  endfacet
  facet normal -1 0 0
    outer loop
      vertex 19.35 8 0
      vertex 19.35 19.2882 7.40129
      vertex 19.35 23 0
    endloop
  endfacet
  facet normal -0 0 -1
    outer loop
      vertex 19.35 8 0
      vertex 19.35 23 0
      vertex 24.35 23 0
    endloop
  endfacet
  facet normal -1 -0 0
    outer loop
      vertex 19.35 8 0
      vertex 19.35 8 18
      vertex 19.35 18.2596 8.81707
    endloop
  endfacet
  facet normal 0 0 -1
    outer loop
      vertex 19.35 8 0
      vertex 24.35 23 0
      vertex 24.35 1 0
    endloop
  endfacet
  facet normal -1 0 0
    outer loop
      vertex 19.35 8 18
      vertex 19.35 10 28
      vertex 19.35 18.2596 9.18292
    endloop
  endfacet
  facet normal -1 0 0
    outer loop
      vertex 19.35 8 18
      vertex 19.35 18.2596 9.18292
      vertex 19.35 18.2596 8.81707
    endloop
  endfacet
  facet normal -1 -0 0
    outer loop
      vertex 19.35 8 18
      vertex 19.35 8 28
      vertex 19.35 10 28
    endloop
  endfacet
  facet normal 0 0 1
    outer loop
      vertex 19.35 8 28
      vertex 24.35 1 28
      vertex 24.35 10 28
    endloop
  endfacet
  facet normal 0 0 1
    outer loop
      vertex 19.35 8 28
      vertex 24.35 10 28
      vertex 19.35 10 28
    endloop
  endfacet
  facet normal -1 0 0
    outer loop
      vertex 2.4 17.0988 10.675
      vertex 2.4 18.3357 9.54078
      vertex 2.4 18.2596 9.18292
    endloop
  endfacet
  facet normal -1 0 0
    outer loop
      vertex 2.4 17.0988 10.675
      vertex 2.4 18.4845 9.875
      vertex 2.4 18.3357 9.54078
    endloop
  endfacet
  facet normal -1 0 0
    outer loop
      vertex 2.4 17.0988 10.675
      vertex 2.4 18.6995 10.171
      vertex 2.4 18.4845 9.875
    endloop
  endfacet
  facet normal -1 0 0
    outer loop
      vertex 2.4 17.0988 10.675
      vertex 2.4 18.9714 10.4158
      vertex 2.4 18.6995 10.171
    endloop
  endfacet
  facet normal -1 0 0
    outer loop
      vertex 2.4 17.0988 10.675
      vertex 2.4 20 12.35
      vertex 2.4 18.9714 10.4158
    endloop
  endfacet
  facet normal -1 0 0
    outer loop
      vertex 2.4 17.0988 7.325
      vertex 2.4 17.0988 10.675
      vertex 2.4 18.2596 9.18292
    endloop
  endfacet
  facet normal -1 -0 0
    outer loop
      vertex 2.4 17.0988 7.325
      vertex 2.4 18.2596 8.81707
      vertex 2.4 18.3357 8.45922
    endloop
  endfacet
  facet normal -1 -0 0
    outer loop
      vertex 2.4 17.0988 7.325
      vertex 2.4 18.2596 9.18292
      vertex 2.4 18.2596 8.81707
    endloop
  endfacet
  facet normal -1 -0 0
    outer loop
      vertex 2.4 17.0988 7.325
      vertex 2.4 18.3357 8.45922
      vertex 2.4 18.4845 8.125
    endloop
  endfacet
  facet normal -1 -0 0
    outer loop
      vertex 2.4 17.0988 7.325
      vertex 2.4 18.4845 8.125
      vertex 2.4 18.6995 7.82902
    endloop
  endfacet
  facet normal -1 -0 0
    outer loop
      vertex 2.4 17.0988 7.325
      vertex 2.4 18.6995 7.82902
      vertex 2.4 18.9714 7.58422
    endloop
  endfacet
  facet normal -1 0 0
    outer loop
      vertex 2.4 17.0988 7.325
      vertex 2.4 18.9714 7.58422
      vertex 2.4 20 5.65
    endloop
  endfacet
  facet normal 0 1 0
    outer loop
      vertex 2.4 18.2596 8.81707
      vertex 2.4 18.2596 9.18292
      vertex 5 18.2596 8.81707
    endloop
  endfacet
  facet normal 0 0.978147 0.207913
    outer loop
      vertex 2.4 18.2596 8.81707
      vertex 5 18.2596 8.81707
      vertex 5 18.3357 8.45922
    endloop
  endfacet
  facet normal 0 0.978147 0.207913
    outer loop
      vertex 2.4 18.2596 8.81707
      vertex 5 18.3357 8.45922
      vertex 2.4 18.3357 8.45922
    endloop
  endfacet
  facet normal 0 0.978147 -0.207913
    outer loop
      vertex 2.4 18.2596 9.18292
      vertex 2.4 18.3357 9.54078
      vertex 5 18.2596 9.18292
    endloop
  endfacet
  facet normal 0 1 -0
    outer loop
      vertex 2.4 18.2596 9.18292
      vertex 5 18.2596 9.18292
      vertex 5 18.2596 8.81707
    endloop
  endfacet
  facet normal 0 0.913546 0.406735
    outer loop
      vertex 2.4 18.3357 8.45922
      vertex 5 18.3357 8.45922
      vertex 5 18.4845 8.125
    endloop
  endfacet
  facet normal 0 0.913546 0.406735
    outer loop
      vertex 2.4 18.3357 8.45922
      vertex 5 18.4845 8.125
      vertex 2.4 18.4845 8.125
    endloop
  endfacet
  facet normal 0 0.913546 -0.406734
    outer loop
      vertex 2.4 18.3357 9.54078
      vertex 2.4 18.4845 9.875
      vertex 5 18.3357 9.54078
    endloop
  endfacet
  facet normal 0 0.978147 -0.207913
    outer loop
      vertex 2.4 18.3357 9.54078
      vertex 5 18.3357 9.54078
      vertex 5 18.2596 9.18292
    endloop
  endfacet
  facet normal 0 0.809016 0.587786
    outer loop
      vertex 2.4 18.4845 8.125
      vertex 5 18.4845 8.125
      vertex 5 18.6995 7.82902
    endloop
  endfacet
  facet normal 0 0.809016 0.587786
    outer loop
      vertex 2.4 18.4845 8.125
      vertex 5 18.6995 7.82902
      vertex 2.4 18.6995 7.82902
    endloop
  endfacet
  facet normal 0 0.809016 -0.587787
    outer loop
      vertex 2.4 18.4845 9.875
      vertex 2.4 18.6995 10.171
      vertex 5 18.4845 9.875
    endloop
  endfacet
  facet normal 0 0.913546 -0.406734
    outer loop
      vertex 2.4 18.4845 9.875
      vertex 5 18.4845 9.875
      vertex 5 18.3357 9.54078
    endloop
  endfacet
  facet normal 0 0.669132 -0.743143
    outer loop
      vertex 2.4 18.6995 10.171
      vertex 2.4 18.9714 10.4158
      vertex 5 18.9714 10.4158
    endloop
  endfacet
  facet normal 0 0.809016 -0.587787
    outer loop
      vertex 2.4 18.6995 10.171
      vertex 5 18.6995 10.171
      vertex 5 18.4845 9.875
    endloop
  endfacet
  facet normal 0 0.669132 -0.743143
    outer loop
      vertex 2.4 18.6995 10.171
      vertex 5 18.9714 10.4158
      vertex 5 18.6995 10.171
    endloop
  endfacet
  facet normal 0 0.669132 0.743143
    outer loop
      vertex 2.4 18.6995 7.82902
      vertex 5 18.6995 7.82902
      vertex 2.4 18.9714 7.58422
    endloop
  endfacet
  facet normal 0 0.499998 -0.866026
    outer loop
      vertex 2.4 18.9714 10.4158
      vertex 2.4 19.2882 10.5987
      vertex 5 19.2882 10.5987
    endloop
  endfacet
  facet normal -1 0 0
    outer loop
      vertex 2.4 18.9714 10.4158
      vertex 2.4 20 12.35
      vertex 2.4 19.2882 10.5987
    endloop
  endfacet
  facet normal 0 0.499998 -0.866026
    outer loop
      vertex 2.4 18.9714 10.4158
      vertex 5 19.2882 10.5987
      vertex 5 18.9714 10.4158
    endloop
  endfacet
  facet normal -1 0 0
    outer loop
      vertex 2.4 18.9714 7.58422
      vertex 2.4 19.2882 7.40129
      vertex 2.4 20 5.65
    endloop
  endfacet
  facet normal -0 0.669132 0.743143
    outer loop
      vertex 2.4 18.9714 7.58422
      vertex 5 18.6995 7.82902
      vertex 5 18.9714 7.58422
    endloop
  endfacet
  facet normal 0 0.499998 0.866026
    outer loop
      vertex 2.4 18.9714 7.58422
      vertex 5 18.9714 7.58422
      vertex 2.4 19.2882 7.40129
    endloop
  endfacet
  facet normal 0 0.309017 -0.951057
    outer loop
      vertex 2.4 19.2882 10.5987
      vertex 2.4 19.6362 10.7118
      vertex 5 19.6362 10.7118
    endloop
  endfacet
  facet normal -1 0 0
    outer loop
      vertex 2.4 19.2882 10.5987
      vertex 2.4 20 12.35
      vertex 2.4 19.6362 10.7118
    endloop
  endfacet
  facet normal 0 0.309017 -0.951057
    outer loop
      vertex 2.4 19.2882 10.5987
      vertex 5 19.6362 10.7118
      vertex 5 19.2882 10.5987
    endloop
  endfacet
  facet normal -1 0 0
    outer loop
      vertex 2.4 19.2882 7.40129
      vertex 2.4 19.6362 7.28824
      vertex 2.4 20 5.65
    endloop
  endfacet
  facet normal -0 0.499998 0.866026
    outer loop
      vertex 2.4 19.2882 7.40129
      vertex 5 18.9714 7.58422
      vertex 5 19.2882 7.40129
    endloop
  endfacet
  facet normal 0 0.309017 0.951057
    outer loop
      vertex 2.4 19.2882 7.40129
      vertex 5 19.2882 7.40129
      vertex 2.4 19.6362 7.28824
    endloop
  endfacet
  facet normal 0 0.10453 -0.994522
    outer loop
      vertex 2.4 19.6362 10.7118
      vertex 2.4 20 10.75
      vertex 5 20 10.75
    endloop
  endfacet
  facet normal -1 0 0
    outer loop
      vertex 2.4 19.6362 10.7118
      vertex 2.4 20 12.35
      vertex 2.4 20 10.75
    endloop
  endfacet
  facet normal 0 0.10453 -0.994522
    outer loop
      vertex 2.4 19.6362 10.7118
      vertex 5 20 10.75
      vertex 5 19.6362 10.7118
    endloop
  endfacet
  facet normal -1 0 0
    outer loop
      vertex 2.4 19.6362 7.28824
      vertex 2.4 20 7.25
      vertex 2.4 20 5.65
    endloop
  endfacet
  facet normal -0 0.309017 0.951057
    outer loop
      vertex 2.4 19.6362 7.28824
      vertex 5 19.2882 7.40129
      vertex 5 19.6362 7.28824
    endloop
  endfacet
  facet normal 0 0.104528 0.994522
    outer loop
      vertex 2.4 19.6362 7.28824
      vertex 5 19.6362 7.28824
      vertex 2.4 20 7.25
    endloop
  endfacet
  facet normal -1 0 0
    outer loop
      vertex 2.4 20 10.75
      vertex 2.4 20 12.35
      vertex 2.4 20.3638 10.7118
    endloop
  endfacet
  facet normal -0 -0.10453 -0.994522
    outer loop
      vertex 2.4 20 10.75
      vertex 2.4 20.3638 10.7118
      vertex 5 20.3638 10.7118
    endloop
  endfacet
  facet normal 0 -0.10453 -0.994522
    outer loop
      vertex 2.4 20 10.75
      vertex 5 20.3638 10.7118
      vertex 5 20 10.75
    endloop
  endfacet
  facet normal -1 0 0
    outer loop
      vertex 2.4 20 12.35
      vertex 2.4 20.7118 10.5987
      vertex 2.4 20.3638 10.7118
    endloop
  endfacet
  facet normal -1 0 0
    outer loop
      vertex 2.4 20 12.35
      vertex 2.4 22.9012 10.675
      vertex 2.4 20.7118 10.5987
    endloop
  endfacet
  facet normal -1 0 0
    outer loop
      vertex 2.4 20 5.65
      vertex 2.4 20 7.25
      vertex 2.4 20.3638 7.28824
    endloop
  endfacet
  facet normal -1 0 0
    outer loop
      vertex 2.4 20 5.65
      vertex 2.4 20.3638 7.28824
      vertex 2.4 20.7118 7.40129
    endloop
  endfacet
  facet normal -1 0 0
    outer loop
      vertex 2.4 20 5.65
      vertex 2.4 20.7118 7.40129
      vertex 2.4 22.9012 7.325
    endloop
  endfacet
  facet normal -0 0.104528 0.994522
    outer loop
      vertex 2.4 20 7.25
      vertex 5 19.6362 7.28824
      vertex 5 20 7.25
    endloop
  endfacet
  facet normal 0 -0.104528 0.994522
    outer loop
      vertex 2.4 20 7.25
      vertex 5 20 7.25
      vertex 2.4 20.3638 7.28824
    endloop
  endfacet
  facet normal -0 -0.309017 -0.951057
    outer loop
      vertex 2.4 20.3638 10.7118
      vertex 2.4 20.7118 10.5987
      vertex 5 20.7118 10.5987
    endloop
  endfacet
  facet normal 0 -0.309017 -0.951057
    outer loop
      vertex 2.4 20.3638 10.7118
      vertex 5 20.7118 10.5987
      vertex 5 20.3638 10.7118
    endloop
  endfacet
  facet normal 0 -0.104528 0.994522
    outer loop
      vertex 2.4 20.3638 7.28824
      vertex 5 20 7.25
      vertex 5 20.3638 7.28824
    endloop
  endfacet
  facet normal 0 -0.309017 0.951057
    outer loop
      vertex 2.4 20.3638 7.28824
      vertex 5 20.3638 7.28824
      vertex 2.4 20.7118 7.40129
    endloop
  endfacet
  facet normal -0 -0.5 -0.866025
    outer loop
      vertex 2.4 20.7118 10.5987
      vertex 2.4 21.0286 10.4158
      vertex 5 21.0286 10.4158
    endloop
  endfacet
  facet normal -1 0 0
    outer loop
      vertex 2.4 20.7118 10.5987
      vertex 2.4 22.9012 10.675
      vertex 2.4 21.0286 10.4158
    endloop
  endfacet
  facet normal 0 -0.5 -0.866025
    outer loop
      vertex 2.4 20.7118 10.5987
      vertex 5 21.0286 10.4158
      vertex 5 20.7118 10.5987
    endloop
  endfacet
  facet normal -1 0 0
    outer loop
      vertex 2.4 20.7118 7.40129
      vertex 2.4 21.0286 7.58422
      vertex 2.4 22.9012 7.325
    endloop
  endfacet
  facet normal 0 -0.309017 0.951057
    outer loop
      vertex 2.4 20.7118 7.40129
      vertex 5 20.3638 7.28824
      vertex 5 20.7118 7.40129
    endloop
  endfacet
  facet normal 0 -0.5 0.866025
    outer loop
      vertex 2.4 20.7118 7.40129
      vertex 5 20.7118 7.40129
      vertex 2.4 21.0286 7.58422
    endloop
  endfacet
  facet normal -0 -0.66913 -0.743146
    outer loop
      vertex 2.4 21.0286 10.4158
      vertex 2.4 21.3005 10.171
      vertex 5 21.3005 10.171
    endloop
  endfacet
  facet normal -1 0 0
    outer loop
      vertex 2.4 21.0286 10.4158
      vertex 2.4 22.9012 10.675
      vertex 2.4 21.3005 10.171
    endloop
  endfacet
  facet normal 0 -0.66913 -0.743146
    outer loop
      vertex 2.4 21.0286 10.4158
      vertex 5 21.3005 10.171
      vertex 5 21.0286 10.4158
    endloop
  endfacet
  facet normal -1 0 0
    outer loop
      vertex 2.4 21.0286 7.58422
      vertex 2.4 21.3005 7.82902
      vertex 2.4 22.9012 7.325
    endloop
  endfacet
  facet normal 0 -0.5 0.866025
    outer loop
      vertex 2.4 21.0286 7.58422
      vertex 5 20.7118 7.40129
      vertex 5 21.0286 7.58422
    endloop
  endfacet
  facet normal 0 -0.66913 0.743146
    outer loop
      vertex 2.4 21.0286 7.58422
      vertex 5 21.0286 7.58422
      vertex 2.4 21.3005 7.82902
    endloop
  endfacet
  facet normal 0 -0.809016 -0.587787
    outer loop
      vertex 2.4 21.3005 10.171
      vertex 2.4 21.5155 9.875
      vertex 5 21.3005 10.171
    endloop
  endfacet
  facet normal -1 0 0
    outer loop
      vertex 2.4 21.3005 10.171
      vertex 2.4 22.9012 10.675
      vertex 2.4 21.5155 9.875
    endloop
  endfacet
  facet normal -1 0 0
    outer loop
      vertex 2.4 21.3005 7.82902
      vertex 2.4 21.5155 8.125
      vertex 2.4 22.9012 7.325
    endloop
  endfacet
  facet normal 0 -0.66913 0.743146
    outer loop
      vertex 2.4 21.3005 7.82902
      vertex 5 21.0286 7.58422
      vertex 5 21.3005 7.82902
    endloop
  endfacet
  facet normal 0 -0.809016 0.587786
    outer loop
      vertex 2.4 21.3005 7.82902
      vertex 5 21.3005 7.82902
      vertex 5 21.5155 8.125
    endloop
  endfacet
  facet normal 0 -0.809016 0.587786
    outer loop
      vertex 2.4 21.3005 7.82902
      vertex 5 21.5155 8.125
      vertex 2.4 21.5155 8.125
    endloop
  endfacet
  facet normal -1 0 0
    outer loop
      vertex 2.4 21.5155 8.125
      vertex 2.4 21.6643 8.45922
      vertex 2.4 22.9012 7.325
    endloop
  endfacet
  facet normal 0 -0.913546 0.406735
    outer loop
      vertex 2.4 21.5155 8.125
      vertex 5 21.5155 8.125
      vertex 5 21.6643 8.45922
    endloop
  endfacet
  facet normal 0 -0.913546 0.406735
    outer loop
      vertex 2.4 21.5155 8.125
      vertex 5 21.6643 8.45922
      vertex 2.4 21.6643 8.45922
    endloop
  endfacet
  facet normal 0 -0.913546 -0.406734
    outer loop
      vertex 2.4 21.5155 9.875
      vertex 2.4 21.6643 9.54078
      vertex 5 21.5155 9.875
    endloop
  endfacet
  facet normal -1 0 0
    outer loop
      vertex 2.4 21.5155 9.875
      vertex 2.4 22.9012 10.675
      vertex 2.4 21.6643 9.54078
    endloop
  endfacet
  facet normal 0 -0.809016 -0.587787
    outer loop
      vertex 2.4 21.5155 9.875
      vertex 5 21.5155 9.875
      vertex 5 21.3005 10.171
    endloop
  endfacet
  facet normal -1 0 0
    outer loop
      vertex 2.4 21.6643 8.45922
      vertex 2.4 21.7404 8.81707
      vertex 2.4 22.9012 7.325
    endloop
  endfacet
  facet normal 0 -0.978147 0.207913
    outer loop
      vertex 2.4 21.6643 8.45922
      vertex 5 21.6643 8.45922
      vertex 5 21.7404 8.81707
    endloop
  endfacet
  facet normal 0 -0.978147 0.207913
    outer loop
      vertex 2.4 21.6643 8.45922
      vertex 5 21.7404 8.81707
      vertex 2.4 21.7404 8.81707
    endloop
  endfacet
  facet normal 0 -0.978147 -0.207913
    outer loop
      vertex 2.4 21.6643 9.54078
      vertex 2.4 21.7404 9.18292
      vertex 5 21.6643 9.54078
    endloop
  endfacet
  facet normal -1 0 0
    outer loop
      vertex 2.4 21.6643 9.54078
      vertex 2.4 22.9012 10.675
      vertex 2.4 21.7404 9.18292
    endloop
  endfacet
  facet normal 0 -0.913546 -0.406734
    outer loop
      vertex 2.4 21.6643 9.54078
      vertex 5 21.6643 9.54078
      vertex 5 21.5155 9.875
    endloop
  endfacet
  facet normal -1 0 0
    outer loop
      vertex 2.4 21.7404 8.81707
      vertex 2.4 21.7404 9.18292
      vertex 2.4 22.9012 10.675
    endloop
  endfacet
  facet normal -1 0 0
    outer loop
      vertex 2.4 21.7404 8.81707
      vertex 2.4 22.9012 10.675
      vertex 2.4 22.9012 7.325
    endloop
  endfacet
  facet normal 0 -1 -0
    outer loop
      vertex 2.4 21.7404 8.81707
      vertex 5 21.7404 8.81707
      vertex 5 21.7404 9.18292
    endloop
  endfacet
  facet normal 0 -1 0
    outer loop
      vertex 2.4 21.7404 8.81707
      vertex 5 21.7404 9.18292
      vertex 2.4 21.7404 9.18292
    endloop
  endfacet
  facet normal 0 -0.978147 -0.207913
    outer loop
      vertex 2.4 21.7404 9.18292
      vertex 5 21.7404 9.18292
      vertex 5 21.6643 9.54078
    endloop
  endfacet
  facet normal 1 0 0
    outer loop
      vertex 24.35 0 14.364
      vertex 24.35 1 14
      vertex 24.35 1 22
    endloop
  endfacet
  facet normal 1 0 0
    outer loop
      vertex 24.35 0 14.364
      vertex 24.35 1 22
      vertex 24.35 0 22
    endloop
  endfacet
  facet normal 1 0 0
    outer loop
      vertex 24.35 0 2.14451
      vertex 24.35 1 0
      vertex 24.35 1 3
    endloop
  endfacet
  facet normal 1 0 0
    outer loop
      vertex 24.35 0 2.14451
      vertex 24.35 1 3
      vertex 24.35 0 3
    endloop
  endfacet
  facet normal 1 0 0
    outer loop
      vertex 24.35 1 0
      vertex 24.35 18.6995 7.82902
      vertex 24.35 1 3
    endloop
  endfacet
  facet normal 1 0 0
    outer loop
      vertex 24.35 1 0
      vertex 24.35 18.9714 7.58422
      vertex 24.35 18.6995 7.82902
    endloop
  endfacet
  facet normal 1 0 0
    outer loop
      vertex 24.35 1 0
      vertex 24.35 23 0
      vertex 24.35 18.9714 7.58422
    endloop
  endfacet
  facet normal 1 0 0
    outer loop
      vertex 24.35 1 14
      vertex 24.35 10 28
      vertex 24.35 1 22
    endloop
  endfacet
  facet normal 1 0 0
    outer loop
      vertex 24.35 1 14
      vertex 24.35 18.2596 8.81707
      vertex 24.35 18.2596 9.18292
    endloop
  endfacet
  facet normal 1 0 0
    outer loop
      vertex 24.35 1 14
      vertex 24.35 18.2596 9.18292
      vertex 24.35 18.3357 9.54078
    endloop
  endfacet
  facet normal 1 0 0
    outer loop
      vertex 24.35 1 14
      vertex 24.35 18.3357 9.54078
      vertex 24.35 18.4845 9.875
    endloop
  endfacet
  facet normal 1 0 0
    outer loop
      vertex 24.35 1 14
      vertex 24.35 18.4845 9.875
      vertex 24.35 18.6995 10.171
    endloop
  endfacet
  facet normal 1 -0 0
    outer loop
      vertex 24.35 1 14
      vertex 24.35 18.6995 10.171
      vertex 24.35 10 28
    endloop
  endfacet
  facet normal 1 0 0
    outer loop
      vertex 24.35 1 22
      vertex 24.35 10 28
      vertex 24.35 1 28
    endloop
  endfacet
  facet normal 1 0 0
    outer loop
      vertex 24.35 1 3
      vertex 24.35 18.2596 8.81707
      vertex 24.35 1 14
    endloop
  endfacet
  facet normal 1 0 0
    outer loop
      vertex 24.35 1 3
      vertex 24.35 18.3357 8.45922
      vertex 24.35 18.2596 8.81707
    endloop
  endfacet
  facet normal 1 0 0
    outer loop
      vertex 24.35 1 3
      vertex 24.35 18.4845 8.125
      vertex 24.35 18.3357 8.45922
    endloop
  endfacet
  facet normal 1 0 0
    outer loop
      vertex 24.35 1 3
      vertex 24.35 18.6995 7.82902
      vertex 24.35 18.4845 8.125
    endloop
  endfacet
  facet normal 1 0 0
    outer loop
      vertex 24.35 10 28
      vertex 24.35 18.6995 10.171
      vertex 24.35 18.9714 10.4158
    endloop
  endfacet
  facet normal 1 0 0
    outer loop
      vertex 24.35 10 28
      vertex 24.35 18.9714 10.4158
      vertex 24.35 19.2882 10.5987
    endloop
  endfacet
  facet normal 1 0 0
    outer loop
      vertex 24.35 10 28
      vertex 24.35 19.2882 10.5987
      vertex 24.35 19.6362 10.7118
    endloop
  endfacet
  facet normal 1 0 0
    outer loop
      vertex 24.35 10 28
      vertex 24.35 19.6362 10.7118
      vertex 24.35 25 13
    endloop
  endfacet
  facet normal 1 0 0
    outer loop
      vertex 24.35 18.9714 7.58422
      vertex 24.35 23 0
      vertex 24.35 19.2882 7.40129
    endloop
  endfacet
  facet normal 1 0 0
    outer loop
      vertex 24.35 19.2882 7.40129
      vertex 24.35 23 0
      vertex 24.35 19.6362 7.28824
    endloop
  endfacet
  facet normal 1 0 0
    outer loop
      vertex 24.35 19.6362 10.7118
      vertex 24.35 20 10.75
      vertex 24.35 25 13
    endloop
  endfacet
  facet normal 1 0 0
    outer loop
      vertex 24.35 19.6362 7.28824
      vertex 24.35 23 0
      vertex 24.35 20 7.25
    endloop
  endfacet
  facet normal 1 0 0
    outer loop
      vertex 24.35 20 10.75
      vertex 24.35 20.3638 10.7118
      vertex 24.35 25 13
    endloop
  endfacet
  facet normal 1 -0 0
    outer loop
      vertex 24.35 20 7.25
      vertex 24.35 23 0
      vertex 24.35 20.3638 7.28824
    endloop
  endfacet
  facet normal 1 0 0
    outer loop
      vertex 24.35 20.3638 10.7118
      vertex 24.35 20.7118 10.5987
      vertex 24.35 25 13
    endloop
  endfacet
  facet normal 1 0 0
    outer loop
      vertex 24.35 20.3638 7.28824
      vertex 24.35 23 0
      vertex 24.35 25 5.49496
    endloop
  endfacet
  facet normal 1 -0 0
    outer loop
      vertex 24.35 20.3638 7.28824
      vertex 24.35 25 5.49496
      vertex 24.35 20.7118 7.40129
    endloop
  endfacet
  facet normal 1 0 0
    outer loop
      vertex 24.35 20.7118 10.5987
      vertex 24.35 21.0286 10.4158
      vertex 24.35 25 13
    endloop
  endfacet
  facet normal 1 -0 0
    outer loop
      vertex 24.35 20.7118 7.40129
      vertex 24.35 25 5.49496
      vertex 24.35 21.0286 7.58422
    endloop
  endfacet
  facet normal 1 0 0
    outer loop
      vertex 24.35 21.0286 10.4158
      vertex 24.35 21.3005 10.171
      vertex 24.35 25 13
    endloop
  endfacet
  facet normal 1 -0 0
    outer loop
      vertex 24.35 21.0286 7.58422
      vertex 24.35 25 5.49496
      vertex 24.35 21.3005 7.82902
    endloop
  endfacet
  facet normal 1 0 0
    outer loop
      vertex 24.35 21.3005 10.171
      vertex 24.35 21.5155 9.875
      vertex 24.35 25 13
    endloop
  endfacet
  facet normal 1 -0 0
    outer loop
      vertex 24.35 21.3005 7.82902
      vertex 24.35 25 5.49496
      vertex 24.35 21.5155 8.125
    endloop
  endfacet
  facet normal 1 -0 0
    outer loop
      vertex 24.35 21.5155 8.125
      vertex 24.35 25 5.49496
      vertex 24.35 21.6643 8.45922
    endloop
  endfacet
  facet normal 1 0 0
    outer loop
      vertex 24.35 21.5155 9.875
      vertex 24.35 21.6643 9.54078
      vertex 24.35 25 13
    endloop
  endfacet
  facet normal 1 0 0
    outer loop
      vertex 24.35 21.6643 8.45922
      vertex 24.35 25 5.49496
      vertex 24.35 21.7404 8.81707
    endloop
  endfacet
  facet normal 1 0 0
    outer loop
      vertex 24.35 21.6643 9.54078
      vertex 24.35 21.7404 9.18292
      vertex 24.35 25 13
    endloop
  endfacet
  facet normal 1 0 0
    outer loop
      vertex 24.35 21.7404 8.81707
      vertex 24.35 25 5.49496
      vertex 24.35 21.7404 9.18292
    endloop
  endfacet
  facet normal 1 -0 0
    outer loop
      vertex 24.35 21.7404 9.18292
      vertex 24.35 25 5.49496
      vertex 24.35 25 13
    endloop
  endfacet
  facet normal 1 0 0
    outer loop
      vertex 5 10 28
      vertex 5 19.6362 10.7118
      vertex 5 25 13
    endloop
  endfacet
  facet normal 1 0 0
    outer loop
      vertex 5 19.2882 7.40129
      vertex 5 23 0
      vertex 5 19.6362 7.28824
    endloop
  endfacet
  facet normal 1 0 0
    outer loop
      vertex 5 19.6362 10.7118
      vertex 5 20 10.75
      vertex 5 25 13
    endloop
  endfacet
  facet normal 1 0 0
    outer loop
      vertex 5 19.6362 7.28824
      vertex 5 23 0
      vertex 5 20 7.25
    endloop
  endfacet
  facet normal 1 0 0
    outer loop
      vertex 5 20 10.75
      vertex 5 20.3638 10.7118
      vertex 5 25 13
    endloop
  endfacet
  facet normal 1 -0 0
    outer loop
      vertex 5 20 7.25
      vertex 5 23 0
      vertex 5 20.3638 7.28824
    endloop
  endfacet
  facet normal 1 0 0
    outer loop
      vertex 5 20.3638 10.7118
      vertex 5 20.7118 10.5987
      vertex 5 25 13
    endloop
  endfacet
  facet normal 1 0 0
    outer loop
      vertex 5 20.3638 7.28824
      vertex 5 23 0
      vertex 5 25 5.49496
    endloop
  endfacet
  facet normal 1 -0 0
    outer loop
      vertex 5 20.3638 7.28824
      vertex 5 25 5.49496
      vertex 5 20.7118 7.40129
    endloop
  endfacet
  facet normal 1 0 0
    outer loop
      vertex 5 20.7118 10.5987
      vertex 5 21.0286 10.4158
      vertex 5 25 13
    endloop
  endfacet
  facet normal 1 -0 0
    outer loop
      vertex 5 20.7118 7.40129
      vertex 5 25 5.49496
      vertex 5 21.0286 7.58422
    endloop
  endfacet
  facet normal 1 0 0
    outer loop
      vertex 5 21.0286 10.4158
      vertex 5 21.3005 10.171
      vertex 5 25 13
    endloop
  endfacet
  facet normal 1 -0 0
    outer loop
      vertex 5 21.0286 7.58422
      vertex 5 25 5.49496
      vertex 5 21.3005 7.82902
    endloop
  endfacet
  facet normal 1 0 0
    outer loop
      vertex 5 21.3005 10.171
      vertex 5 21.5155 9.875
      vertex 5 25 13
    endloop
  endfacet
  facet normal 1 -0 0
    outer loop
      vertex 5 21.3005 7.82902
      vertex 5 25 5.49496
      vertex 5 21.5155 8.125
    endloop
  endfacet
  facet normal 1 -0 0
    outer loop
      vertex 5 21.5155 8.125
      vertex 5 25 5.49496
      vertex 5 21.6643 8.45922
    endloop
  endfacet
  facet normal 1 0 0
    outer loop
      vertex 5 21.5155 9.875
      vertex 5 21.6643 9.54078
      vertex 5 25 13
    endloop
  endfacet
  facet normal 1 0 0
    outer loop
      vertex 5 21.6643 8.45922
      vertex 5 25 5.49496
      vertex 5 21.7404 8.81707
    endloop
  endfacet
  facet normal 1 0 0
    outer loop
      vertex 5 21.6643 9.54078
      vertex 5 21.7404 9.18292
      vertex 5 25 13
    endloop
  endfacet
  facet normal 1 0 0
    outer loop
      vertex 5 21.7404 8.81707
      vertex 5 25 5.49496
      vertex 5 21.7404 9.18292
    endloop
  endfacet
  facet normal 1 -0 0
    outer loop
      vertex 5 21.7404 9.18292
      vertex 5 25 5.49496
      vertex 5 25 13
    endloop
  endfacet
  facet normal 0.994522 0 -0.104528
    outer loop
      vertex 5 4.4 18
      vertex 5 8 18
      vertex 5.13421 8 19.277
    endloop
  endfacet
  facet normal 0.994522 0 0.104527
    outer loop
      vertex 5 4.4 18
      vertex 5.02258 8 17.7852
      vertex 5 8 18
    endloop
  endfacet
  facet normal 0.994522 -5.28212e-08 -0.104528
    outer loop
      vertex 5 4.4 18
      vertex 5.13421 8 19.277
      vertex 5.15679 4.4 19.4918
    endloop
  endfacet
  facet normal 0.994522 4.48463e-08 0.104528
    outer loop
      vertex 5 4.4 18
      vertex 5.15679 4.4 16.5082
      vertex 5.02258 8 17.7852
    endloop
  endfacet
  facet normal 0 1 0
    outer loop
      vertex 5 4.4 18
      vertex 5.15679 4.4 19.4918
      vertex 8.98324 4.4 18.5541
    endloop
  endfacet
  facet normal 0 1 0
    outer loop
      vertex 5 4.4 18
      vertex 8.925 4.4 18
      vertex 8.93778 4.4 17.8784
    endloop
  endfacet
  facet normal 0 1 0
    outer loop
      vertex 5 4.4 18
      vertex 8.93778 4.4 17.8784
      vertex 5.15679 4.4 16.5082
    endloop
  endfacet
  facet normal 0 1 0
    outer loop
      vertex 5 4.4 18
      vertex 8.98324 4.4 18.5541
      vertex 8.925 4.4 18
    endloop
  endfacet
  facet normal 0 1 0
    outer loop
      vertex 5 8 0
      vertex 11.425 8 10.8643
      vertex 19.35 8 0
    endloop
  endfacet
  facet normal 0 0 -1
    outer loop
      vertex 5 8 0
      vertex 19.35 8 0
      vertex 24.35 1 0
    endloop
  endfacet
  facet normal 1 0 0
    outer loop
      vertex 5 8 0
      vertex 5 18.2596 8.81707
      vertex 5 8 18
    endloop
  endfacet
  facet normal 1 0 0
    outer loop
      vertex 5 8 0
      vertex 5 18.3357 8.45922
      vertex 5 18.2596 8.81707
    endloop
  endfacet
  facet normal 1 0 0
    outer loop
      vertex 5 8 0
      vertex 5 18.4845 8.125
      vertex 5 18.3357 8.45922
    endloop
  endfacet
  facet normal 1 0 0
    outer loop
      vertex 5 8 0
      vertex 5 18.6995 7.82902
      vertex 5 18.4845 8.125
    endloop
  endfacet
  facet normal 1 0 0
    outer loop
      vertex 5 8 0
      vertex 5 18.9714 7.58422
      vertex 5 18.6995 7.82902
    endloop
  endfacet
  facet normal 1 0 0
    outer loop
      vertex 5 8 0
      vertex 5 19.2882 7.40129
      vertex 5 18.9714 7.58422
    endloop
  endfacet
  facet normal 1 0 0
    outer loop
      vertex 5 8 0
      vertex 5 23 0
      vertex 5 19.2882 7.40129
    endloop
  endfacet
  facet normal 0 1 0
    outer loop
      vertex 5 8 0
      vertex 5 8 18
      vertex 5.02258 8 17.7852
    endloop
  endfacet
  facet normal 0 1 0
    outer loop
      vertex 5 8 0
      vertex 5.02258 8 17.7852
      vertex 5.15679 8 16.5082
    endloop
  endfacet
  facet normal 0 1 0
    outer loop
      vertex 5 8 0
      vertex 5.15679 8 16.5082
      vertex 5.62031 8 15.0817
    endloop
  endfacet
  facet normal 0 1 0
    outer loop
      vertex 5 8 0
      vertex 5.62031 8 15.0817
      vertex 6.3703 8 13.7826
    endloop
  endfacet
  facet normal 0 1 0
    outer loop
      vertex 5 8 0
      vertex 6.3703 8 13.7826
      vertex 7.37399 8 12.6679
    endloop
  endfacet
  facet normal 0 1 0
    outer loop
      vertex 5 8 0
      vertex 7.37399 8 12.6679
      vertex 8.5875 8 11.7863
    endloop
  endfacet
  facet normal 0 1 0
    outer loop
      vertex 5 8 0
      vertex 8.5875 8 11.7863
      vertex 9.9578 8 11.1762
    endloop
  endfacet
  facet normal 0 1 0
    outer loop
      vertex 5 8 0
      vertex 9.9578 8 11.1762
      vertex 11.425 8 10.8643
    endloop
  endfacet
  facet normal 1 0 0
    outer loop
      vertex 5 8 18
      vertex 5 10 28
      vertex 5 8 28
    endloop
  endfacet
  facet normal 1 0 0
    outer loop
      vertex 5 8 18
      vertex 5 18.2596 8.81707
      vertex 5 18.2596 9.18292
    endloop
  endfacet
  facet normal 1 0 0
    outer loop
      vertex 5 8 18
      vertex 5 18.2596 9.18292
      vertex 5 18.3357 9.54078
    endloop
  endfacet
  facet normal 1 0 0
    outer loop
      vertex 5 8 18
      vertex 5 18.3357 9.54078
      vertex 5 18.4845 9.875
    endloop
  endfacet
  facet normal 1 0 0
    outer loop
      vertex 5 8 18
      vertex 5 18.4845 9.875
      vertex 5 18.6995 10.171
    endloop
  endfacet
  facet normal 1 0 0
    outer loop
      vertex 5 8 18
      vertex 5 18.6995 10.171
      vertex 5 18.9714 10.4158
    endloop
  endfacet
  facet normal 1 0 0
    outer loop
      vertex 5 8 18
      vertex 5 18.9714 10.4158
      vertex 5 19.2882 10.5987
    endloop
  endfacet
  facet normal 1 0 0
    outer loop
      vertex 5 8 18
      vertex 5 19.2882 10.5987
      vertex 5 19.6362 10.7118
    endloop
  endfacet
  facet normal 1 -0 0
    outer loop
      vertex 5 8 18
      vertex 5 19.6362 10.7118
      vertex 5 10 28
    endloop
  endfacet
  facet normal 0 1 0
    outer loop
      vertex 5 8 18
      vertex 5 8 28
      vertex 5.13421 8 19.277
    endloop
  endfacet
  facet normal 0 1 -0
    outer loop
      vertex 5 8 28
      vertex 11.425 8 25.1357
      vertex 9.9578 8 24.8238
    endloop
  endfacet
  facet normal 0 1 -0
    outer loop
      vertex 5 8 28
      vertex 12.925 8 25.1357
      vertex 11.425 8 25.1357
    endloop
  endfacet
  facet normal 0 1 0
    outer loop
      vertex 5 8 28
      vertex 19.35 8 28
      vertex 12.925 8 25.1357
    endloop
  endfacet
  facet normal -0 0 1
    outer loop
      vertex 5 8 28
      vertex 24.35 1 28
      vertex 19.35 8 28
    endloop
  endfacet
  facet normal 0 1 -0
    outer loop
      vertex 5 8 28
      vertex 5.15679 8 19.4918
      vertex 5.13421 8 19.277
    endloop
  endfacet
  facet normal 0 1 -0
    outer loop
      vertex 5 8 28
      vertex 5.62031 8 20.9183
      vertex 5.15679 8 19.4918
    endloop
  endfacet
  facet normal 0 1 -0
    outer loop
      vertex 5 8 28
      vertex 6.3703 8 22.2174
      vertex 5.62031 8 20.9183
    endloop
  endfacet
  facet normal 0 1 -0
    outer loop
      vertex 5 8 28
      vertex 7.37399 8 23.3321
      vertex 6.3703 8 22.2174
    endloop
  endfacet
  facet normal 0 1 -0
    outer loop
      vertex 5 8 28
      vertex 8.5875 8 24.2137
      vertex 7.37399 8 23.3321
    endloop
  endfacet
  facet normal 0 1 -0
    outer loop
      vertex 5 8 28
      vertex 9.9578 8 24.8238
      vertex 8.5875 8 24.2137
    endloop
  endfacet
  facet normal 0.994522 0 0.104528
    outer loop
      vertex 5.02258 8 17.7852
      vertex 5.15679 4.4 16.5082
      vertex 5.15679 8 16.5082
    endloop
  endfacet
  facet normal 0.994522 0 -0.104527
    outer loop
      vertex 5.13421 8 19.277
      vertex 5.15679 8 19.4918
      vertex 5.15679 4.4 19.4918
    endloop
  endfacet
  facet normal 0.951057 0 0.309017
    outer loop
      vertex 5.15679 4.4 16.5082
      vertex 5.62031 4.4 15.0817
      vertex 5.62031 8 15.0817
    endloop
  endfacet
  facet normal 0.951057 -0 0.309017
    outer loop
      vertex 5.15679 4.4 16.5082
      vertex 5.62031 8 15.0817
      vertex 5.15679 8 16.5082
    endloop
  endfacet
  facet normal 0 1 0
    outer loop
      vertex 5.15679 4.4 16.5082
      vertex 8.93778 4.4 17.8784
      vertex 8.99602 4.4 17.3243
    endloop
  endfacet
  facet normal 0 1 0
    outer loop
      vertex 5.15679 4.4 16.5082
      vertex 8.99602 4.4 17.3243
      vertex 9.20598 4.4 16.6781
    endloop
  endfacet
  facet normal 0 1 0
    outer loop
      vertex 5.15679 4.4 16.5082
      vertex 9.20598 4.4 16.6781
      vertex 5.62031 4.4 15.0817
    endloop
  endfacet
  facet normal 0.951057 0 -0.309017
    outer loop
      vertex 5.15679 4.4 19.4918
      vertex 5.15679 8 19.4918
      vertex 5.62031 4.4 20.9183
    endloop
  endfacet
  facet normal 0 1 0
    outer loop
      vertex 5.15679 4.4 19.4918
      vertex 5.62031 4.4 20.9183
      vertex 9.20598 4.4 19.3219
    endloop
  endfacet
  facet normal 0 1 -0
    outer loop
      vertex 5.15679 4.4 19.4918
      vertex 8.99602 4.4 18.6757
      vertex 8.98324 4.4 18.5541
    endloop
  endfacet
  facet normal 0 1 -0
    outer loop
      vertex 5.15679 4.4 19.4918
      vertex 9.20598 4.4 19.3219
      vertex 8.99602 4.4 18.6757
    endloop
  endfacet
  facet normal 0.951057 0 -0.309017
    outer loop
      vertex 5.15679 8 19.4918
      vertex 5.62031 8 20.9183
      vertex 5.62031 4.4 20.9183
    endloop
  endfacet
  facet normal 0.866025 0 0.5
    outer loop
      vertex 5.62031 4.4 15.0817
      vertex 6.3703 4.4 13.7826
      vertex 6.3703 8 13.7826
    endloop
  endfacet
  facet normal 0.866025 -0 0.5
    outer loop
      vertex 5.62031 4.4 15.0817
      vertex 6.3703 8 13.7826
      vertex 5.62031 8 15.0817
    endloop
  endfacet
  facet normal 0 1 0
    outer loop
      vertex 5.62031 4.4 15.0817
      vertex 9.20598 4.4 16.6781
      vertex 9.54569 4.4 16.0897
    endloop
  endfacet
  facet normal 0 1 0
    outer loop
      vertex 5.62031 4.4 15.0817
      vertex 9.54569 4.4 16.0897
      vertex 6.3703 4.4 13.7826
    endloop
  endfacet
  facet normal 0.866025 0 -0.5
    outer loop
      vertex 5.62031 4.4 20.9183
      vertex 5.62031 8 20.9183
      vertex 6.3703 4.4 22.2174
    endloop
  endfacet
  facet normal 0 1 0
    outer loop
      vertex 5.62031 4.4 20.9183
      vertex 6.3703 4.4 22.2174
      vertex 9.54569 4.4 19.9103
    endloop
  endfacet
  facet normal 0 1 -0
    outer loop
      vertex 5.62031 4.4 20.9183
      vertex 9.54569 4.4 19.9103
      vertex 9.20598 4.4 19.3219
    endloop
  endfacet
  facet normal 0.866025 0 -0.5
    outer loop
      vertex 5.62031 8 20.9183
      vertex 6.3703 8 22.2174
      vertex 6.3703 4.4 22.2174
    endloop
  endfacet
  facet normal 0 1 0
    outer loop
      vertex 6.3703 4.4 13.7826
      vertex 10.0003 4.4 15.5848
      vertex 7.37399 4.4 12.6679
    endloop
  endfacet
  facet normal 0.743145 0 0.669131
    outer loop
      vertex 6.3703 4.4 13.7826
      vertex 7.37399 4.4 12.6679
      vertex 7.37399 8 12.6679
    endloop
  endfacet
  facet normal 0.743145 -0 0.669131
    outer loop
      vertex 6.3703 4.4 13.7826
      vertex 7.37399 8 12.6679
      vertex 6.3703 8 13.7826
    endloop
  endfacet
  facet normal 0 1 0
    outer loop
      vertex 6.3703 4.4 13.7826
      vertex 9.54569 4.4 16.0897
      vertex 10.0003 4.4 15.5848
    endloop
  endfacet
  facet normal 0 1 -0
    outer loop
      vertex 6.3703 4.4 22.2174
      vertex 10.0003 4.4 20.4152
      vertex 9.54569 4.4 19.9103
    endloop
  endfacet
  facet normal 0.743145 0 -0.66913
    outer loop
      vertex 6.3703 4.4 22.2174
      vertex 6.3703 8 22.2174
      vertex 7.37399 4.4 23.3321
    endloop
  endfacet
  facet normal 0 1 0
    outer loop
      vertex 6.3703 4.4 22.2174
      vertex 7.37399 4.4 23.3321
      vertex 10.0003 4.4 20.4152
    endloop
  endfacet
  facet normal 0.743145 0 -0.66913
    outer loop
      vertex 6.3703 8 22.2174
      vertex 7.37399 8 23.3321
      vertex 7.37399 4.4 23.3321
    endloop
  endfacet
  facet normal 0 1 0
    outer loop
      vertex 7.37399 4.4 12.6679
      vertex 10.0003 4.4 15.5848
      vertex 10.55 4.4 15.1854
    endloop
  endfacet
  facet normal 0 1 0
    outer loop
      vertex 7.37399 4.4 12.6679
      vertex 10.55 4.4 15.1854
      vertex 8.5875 4.4 11.7863
    endloop
  endfacet
  facet normal 0.587785 0 0.809017
    outer loop
      vertex 7.37399 4.4 12.6679
      vertex 8.5875 4.4 11.7863
      vertex 7.37399 8 12.6679
    endloop
  endfacet
  facet normal 0 1 -0
    outer loop
      vertex 7.37399 4.4 23.3321
      vertex 10.55 4.4 20.8146
      vertex 10.0003 4.4 20.4152
    endloop
  endfacet
  facet normal 0.587785 0 -0.809017
    outer loop
      vertex 7.37399 4.4 23.3321
      vertex 7.37399 8 23.3321
      vertex 8.5875 8 24.2137
    endloop
  endfacet
  facet normal 0 1 0
    outer loop
      vertex 7.37399 4.4 23.3321
      vertex 8.5875 4.4 24.2137
      vertex 10.55 4.4 20.8146
    endloop
  endfacet
  facet normal 0.587785 0 -0.809017
    outer loop
      vertex 7.37399 4.4 23.3321
      vertex 8.5875 8 24.2137
      vertex 8.5875 4.4 24.2137
    endloop
  endfacet
  facet normal 0.587785 0 0.809017
    outer loop
      vertex 7.37399 8 12.6679
      vertex 8.5875 4.4 11.7863
      vertex 8.5875 8 11.7863
    endloop
  endfacet
  facet normal 0 1 0
    outer loop
      vertex 8.5875 4.4 11.7863
      vertex 10.55 4.4 15.1854
      vertex 11.1707 4.4 14.9091
    endloop
  endfacet
  facet normal 0 1 0
    outer loop
      vertex 8.5875 4.4 11.7863
      vertex 11.1707 4.4 14.9091
      vertex 9.9578 4.4 11.1762
    endloop
  endfacet
  facet normal 0.406736 0 0.913546
    outer loop
      vertex 8.5875 4.4 11.7863
      vertex 9.9578 4.4 11.1762
      vertex 8.5875 8 11.7863
    endloop
  endfacet
  facet normal 0 1 -0
    outer loop
      vertex 8.5875 4.4 24.2137
      vertex 11.1707 4.4 21.0909
      vertex 10.55 4.4 20.8146
    endloop
  endfacet
  facet normal 0.406736 0 -0.913546
    outer loop
      vertex 8.5875 4.4 24.2137
      vertex 8.5875 8 24.2137
      vertex 9.9578 8 24.8238
    endloop
  endfacet
  facet normal 0 1 0
    outer loop
      vertex 8.5875 4.4 24.2137
      vertex 9.9578 4.4 24.8238
      vertex 11.1707 4.4 21.0909
    endloop
  endfacet
  facet normal 0.406736 0 -0.913546
    outer loop
      vertex 8.5875 4.4 24.2137
      vertex 9.9578 8 24.8238
      vertex 9.9578 4.4 24.8238
    endloop
  endfacet
  facet normal 0.406736 0 0.913546
    outer loop
      vertex 8.5875 8 11.7863
      vertex 9.9578 4.4 11.1762
      vertex 9.9578 8 11.1762
    endloop
  endfacet
  facet normal 0.994522 0 -0.104528
    outer loop
      vertex 8.925 0 18
      vertex 8.925 4.4 18
      vertex 8.98324 4.4 18.5541
    endloop
  endfacet
  facet normal 0.994525 0 0.104502
    outer loop
      vertex 8.925 0 18
      vertex 8.92528 0 17.9973
      vertex 8.925 4.4 18
    endloop
  endfacet
  facet normal 0.994522 7.31156e-08 -0.104528
    outer loop
      vertex 8.925 0 18
      vertex 8.98324 4.4 18.5541
      vertex 8.99574 0 18.673
    endloop
  endfacet
  facet normal 0.994522 -1.73341e-08 0.10453
    outer loop
      vertex 8.925 4.4 18
      vertex 8.92528 0 17.9973
      vertex 8.93778 4.4 17.8784
    endloop
  endfacet
  facet normal 0.994522 -6.51087e-08 0.104528
    outer loop
      vertex 8.92528 0 17.9973
      vertex 8.99602 0 17.3243
      vertex 8.93778 4.4 17.8784
    endloop
  endfacet
  facet normal 0.994522 0 0.104528
    outer loop
      vertex 8.93778 4.4 17.8784
      vertex 8.99602 0 17.3243
      vertex 8.99602 4.4 17.3243
    endloop
  endfacet
  facet normal 0.994522 -2.69716e-08 -0.104532
    outer loop
      vertex 8.98324 4.4 18.5541
      vertex 8.99602 4.4 18.6757
      vertex 8.99574 0 18.673
    endloop
  endfacet
  facet normal 0.994517 0 -0.104575
    outer loop
      vertex 8.99574 0 18.673
      vertex 8.99602 4.4 18.6757
      vertex 8.99602 0 18.6757
    endloop
  endfacet
  facet normal 0.951057 0 0.309016
    outer loop
      vertex 8.99602 0 17.3243
      vertex 9.20598 0 16.6781
      vertex 9.20598 4.4 16.6781
    endloop
  endfacet
  facet normal 0.951057 -0 0.309016
    outer loop
      vertex 8.99602 0 17.3243
      vertex 9.20598 4.4 16.6781
      vertex 8.99602 4.4 17.3243
    endloop
  endfacet
  facet normal 0.951056 0 -0.309017
    outer loop
      vertex 8.99602 0 18.6757
      vertex 8.99602 4.4 18.6757
      vertex 9.20598 0 19.3219
    endloop
  endfacet
  facet normal 0.951056 0 -0.309017
    outer loop
      vertex 8.99602 4.4 18.6757
      vertex 9.20598 4.4 19.3219
      vertex 9.20598 0 19.3219
    endloop
  endfacet
  facet normal 0.866024 0 0.500002
    outer loop
      vertex 9.20598 0 16.6781
      vertex 9.54569 0 16.0897
      vertex 9.54569 4.4 16.0897
    endloop
  endfacet
  facet normal 0.866024 -0 0.500002
    outer loop
      vertex 9.20598 0 16.6781
      vertex 9.54569 4.4 16.0897
      vertex 9.20598 4.4 16.6781
    endloop
  endfacet
  facet normal 0.866025 0 -0.500001
    outer loop
      vertex 9.20598 0 19.3219
      vertex 9.20598 4.4 19.3219
      vertex 9.54569 0 19.9103
    endloop
  endfacet
  facet normal 0.866025 0 -0.500001
    outer loop
      vertex 9.20598 4.4 19.3219
      vertex 9.54569 4.4 19.9103
      vertex 9.54569 0 19.9103
    endloop
  endfacet
  facet normal 0.743146 0 0.66913
    outer loop
      vertex 9.54569 0 16.0897
      vertex 10.0003 0 15.5848
      vertex 10.0003 4.4 15.5848
    endloop
  endfacet
  facet normal 0.743146 -0 0.66913
    outer loop
      vertex 9.54569 0 16.0897
      vertex 10.0003 4.4 15.5848
      vertex 9.54569 4.4 16.0897
    endloop
  endfacet
  facet normal 0.743145 0 -0.66913
    outer loop
      vertex 9.54569 0 19.9103
      vertex 9.54569 4.4 19.9103
      vertex 10.0003 0 20.4152
    endloop
  endfacet
  facet normal 0.743145 0 -0.66913
    outer loop
      vertex 9.54569 4.4 19.9103
      vertex 10.0003 4.4 20.4152
      vertex 10.0003 0 20.4152
    endloop
  endfacet
  facet normal 0 1 0
    outer loop
      vertex 9.9578 4.4 11.1762
      vertex 11.1707 4.4 14.9091
      vertex 11.8353 4.4 14.7678
    endloop
  endfacet
  facet normal 0.207912 0 0.978147
    outer loop
      vertex 9.9578 4.4 11.1762
      vertex 11.425 4.4 10.8643
      vertex 9.9578 8 11.1762
    endloop
  endfacet
  facet normal 0 1 0
    outer loop
      vertex 9.9578 4.4 11.1762
      vertex 11.8353 4.4 14.7678
      vertex 11.425 4.4 10.8643
    endloop
  endfacet
  facet normal 0 1 0
    outer loop
      vertex 9.9578 4.4 24.8238
      vertex 11.425 4.4 25.1357
      vertex 11.8353 4.4 21.2322
    endloop
  endfacet
  facet normal 0.207912 0 -0.978147
    outer loop
      vertex 9.9578 4.4 24.8238
      vertex 11.425 8 25.1357
      vertex 11.425 4.4 25.1357
    endloop
  endfacet
  facet normal 0 1 -0
    outer loop
      vertex 9.9578 4.4 24.8238
      vertex 11.8353 4.4 21.2322
      vertex 11.1707 4.4 21.0909
    endloop
  endfacet
  facet normal 0.207912 0 -0.978147
    outer loop
      vertex 9.9578 4.4 24.8238
      vertex 9.9578 8 24.8238
      vertex 11.425 8 25.1357
    endloop
  endfacet
  facet normal 0.207912 0 0.978147
    outer loop
      vertex 9.9578 8 11.1762
      vertex 11.425 4.4 10.8643
      vertex 11.425 8 10.8643
    endloop
  endfacet
endsolid model
