solid model
  facet normal -1 -0 0
    outer loop
      vertex 0 -0.5 -12.95
      vertex 0 -0.5 -5.05
      vertex 0 -6.18447e-16 -5.05
    endloop
  endfacet
  facet normal -0 0 -1
    outer loop
      vertex 0 -0.5 -12.95
      vertex 0 -1.58592e-15 -12.95
      vertex 42 -1.58592e-15 -12.95
    endloop
  endfacet
  facet normal -1 0 0
    outer loop
      vertex 0 -0.5 -12.95
      vertex 0 -6.18447e-16 -5.05
      vertex 0 -1.58592e-15 -12.95
    endloop
  endfacet
  facet normal 0 1 -0
    outer loop
      vertex 0 -0.5 -12.95
      vertex 42 -0.5 -12.95
      vertex 42 -0.5 -18
    endloop
  endfacet
  facet normal 0 0 -1
    outer loop
      vertex 0 -0.5 -12.95
      vertex 42 -1.58592e-15 -12.95
      vertex 42 -0.5 -12.95
    endloop
  endfacet
  facet normal 0 1 0
    outer loop
      vertex 0 -0.5 -18
      vertex 0 -0.5 -12.95
      vertex 42 -0.5 -18
    endloop
  endfacet
  facet normal 0 0 -1
    outer loop
      vertex 0 -0.5 -18
      vertex 13 -7 -18
      vertex 1.5 -7 -18
    endloop
  endfacet
  facet normal 0 0 -1
    outer loop
      vertex 0 -0.5 -18
      vertex 42 -0.5 -18
      vertex 13 -7 -18
    endloop
  endfacet
  facet normal 0 1 0
    outer loop
      vertex 0 -0.5 -5.05
      vertex 0 -0.5 6.12323e-17
      vertex 42 -0.5 -5.05
    endloop
  endfacet
  facet normal 0 0 1
    outer loop
      vertex 0 -0.5 -5.05
      vertex 42 -0.5 -5.05
      vertex 0 -6.18447e-16 -5.05
    endloop
  endfacet
  facet normal 0 1.22465e-16 1
    outer loop
      vertex 0 -0.5 6.12323e-17
      vertex 1.5 -7 8.57253e-16
      vertex 13 -7 8.57253e-16
    endloop
  endfacet
  facet normal -0 1.22465e-16 1
    outer loop
      vertex 0 -0.5 6.12323e-17
      vertex 13 -7 8.57253e-16
      vertex 42 -0.5 6.12323e-17
    endloop
  endfacet
  facet normal 0 1 -0
    outer loop
      vertex 0 -0.5 6.12323e-17
      vertex 42 -0.5 6.12323e-17
      vertex 42 -0.5 -5.05
    endloop
  endfacet
  facet normal 7.64132e-24 1 -1.22465e-16
    outer loop
      vertex 0 -1.58592e-15 -12.95
      vertex 0 -6.18447e-16 -5.05
      vertex 2.75 -1.10218e-15 -9
    endloop
  endfacet
  facet normal -1.73285e-23 1 -1.22465e-16
    outer loop
      vertex 0 -1.58592e-15 -12.95
      vertex 2.75 -1.10218e-15 -9
      vertex 2.81245 -1.17983e-15 -9.63404
    endloop
  endfacet
  facet normal -3.91934e-24 1 -1.22465e-16
    outer loop
      vertex 0 -1.58592e-15 -12.95
      vertex 2.81245 -1.17983e-15 -9.63404
      vertex 2.99739 -1.25449e-15 -10.2437
    endloop
  endfacet
  facet normal 3.63516e-23 1 -1.22465e-16
    outer loop
      vertex 0 -1.58592e-15 -12.95
      vertex 2.99739 -1.25449e-15 -10.2437
      vertex 3.29772 -1.3233e-15 -10.8056
    endloop
  endfacet
  facet normal 1.86252e-23 1 -1.22465e-16
    outer loop
      vertex 0 -1.58592e-15 -12.95
      vertex 3.29772 -1.3233e-15 -10.8056
      vertex 3.7019 -1.38362e-15 -11.2981
    endloop
  endfacet
  facet normal -4.87624e-23 1 -1.22465e-16
    outer loop
      vertex 0 -1.58592e-15 -12.95
      vertex 3.7019 -1.38362e-15 -11.2981
      vertex 4.1944 -1.43312e-15 -11.7023
    endloop
  endfacet
  facet normal -6.84959e-25 1 -1.22465e-16
    outer loop
      vertex 0 -1.58592e-15 -12.95
      vertex 4.1944 -1.43312e-15 -11.7023
      vertex 4.75628 -1.4699e-15 -12.0026
    endloop
  endfacet
  facet normal 7.60463e-24 1 -1.22465e-16
    outer loop
      vertex 0 -1.58592e-15 -12.95
      vertex 4.75628 -1.4699e-15 -12.0026
      vertex 5.36596 -1.49254e-15 -12.1876
    endloop
  endfacet
  facet normal 1.70769e-23 1 -1.22465e-16
    outer loop
      vertex 0 -1.58592e-15 -12.95
      vertex 5.36596 -1.49254e-15 -12.1876
      vertex 6 -1.50019e-15 -12.25
    endloop
  endfacet
  facet normal 0 1 -1.22465e-16
    outer loop
      vertex 0 -1.58592e-15 -12.95
      vertex 6 -1.50019e-15 -12.25
      vertex 42 -1.58592e-15 -12.95
    endloop
  endfacet
  facet normal -1 0 0
    outer loop
      vertex 0 -5.5 -18
      vertex 0 -0.5 -12.95
      vertex 0 -0.5 -18
    endloop
  endfacet
  facet normal 0 0 -1
    outer loop
      vertex 0 -5.5 -18
      vertex 0 -0.5 -18
      vertex 1.5 -7 -18
    endloop
  endfacet
  facet normal -1 -0 0
    outer loop
      vertex 0 -5.5 -18
      vertex 0 -0.5 -5.05
      vertex 0 -0.5 -12.95
    endloop
  endfacet
  facet normal -1 0 0
    outer loop
      vertex 0 -5.5 -18
      vertex 0 -5.5 6.73556e-16
      vertex 0 -0.5 -5.05
    endloop
  endfacet
  facet normal -0.707107 -0.707107 0
    outer loop
      vertex 0 -5.5 -18
      vertex 1.5 -7 -18
      vertex 0 -5.5 6.73556e-16
    endloop
  endfacet
  facet normal -1 0 0
    outer loop
      vertex 0 -5.5 6.73556e-16
      vertex 0 -0.5 6.12323e-17
      vertex 0 -0.5 -5.05
    endloop
  endfacet
  facet normal -0.707107 -0.707107 0
    outer loop
      vertex 0 -5.5 6.73556e-16
      vertex 1.5 -7 -18
      vertex 1.5 -7 8.57253e-16
    endloop
  endfacet
  facet normal -1.67642e-23 1.22465e-16 1
    outer loop
      vertex 0 -5.5 6.73556e-16
      vertex 1.5 -7 8.57253e-16
      vertex 0 -0.5 6.12323e-17
    endloop
  endfacet
  facet normal 5.2374e-23 1 -1.22465e-16
    outer loop
      vertex 0 -6.18447e-16 -5.05
      vertex 2.81245 -1.02453e-15 -8.36596
      vertex 2.75 -1.10218e-15 -9
    endloop
  endfacet
  facet normal 1.77839e-23 1 -1.22465e-16
    outer loop
      vertex 0 -6.18447e-16 -5.05
      vertex 2.99739 -9.4987e-16 -7.75628
      vertex 2.81245 -1.02453e-15 -8.36596
    endloop
  endfacet
  facet normal -2.44388e-23 1 -1.22465e-16
    outer loop
      vertex 0 -6.18447e-16 -5.05
      vertex 3.29772 -8.81059e-16 -7.1944
      vertex 2.99739 -9.4987e-16 -7.75628
    endloop
  endfacet
  facet normal -8.15789e-24 1 -1.22465e-16
    outer loop
      vertex 0 -6.18447e-16 -5.05
      vertex 3.7019 -8.20746e-16 -6.7019
      vertex 3.29772 -8.81059e-16 -7.1944
    endloop
  endfacet
  facet normal 0 1 -1.22465e-16
    outer loop
      vertex 0 -6.18447e-16 -5.05
      vertex 36 -7.04172e-16 -5.75
      vertex 6 -7.04172e-16 -5.75
    endloop
  endfacet
  facet normal -1.76962e-23 1 -1.22465e-16
    outer loop
      vertex 0 -6.18447e-16 -5.05
      vertex 4.1944 -7.71249e-16 -6.29772
      vertex 3.7019 -8.20746e-16 -6.7019
    endloop
  endfacet
  facet normal -7.42376e-24 1 -1.22465e-16
    outer loop
      vertex 0 -6.18447e-16 -5.05
      vertex 4.75628 -7.34469e-16 -5.99739
      vertex 4.1944 -7.71249e-16 -6.29772
    endloop
  endfacet
  facet normal -0 0 1
    outer loop
      vertex 0 -6.18447e-16 -5.05
      vertex 42 -0.5 -5.05
      vertex 42 -6.18447e-16 -5.05
    endloop
  endfacet
  facet normal 0 1 -1.22465e-16
    outer loop
      vertex 0 -6.18447e-16 -5.05
      vertex 42 -6.18447e-16 -5.05
      vertex 36 -7.04172e-16 -5.75
    endloop
  endfacet
  facet normal 2.0094e-23 1 -1.22465e-16
    outer loop
      vertex 0 -6.18447e-16 -5.05
      vertex 5.36596 -7.1182e-16 -5.81245
      vertex 4.75628 -7.34469e-16 -5.99739
    endloop
  endfacet
  facet normal -2.72418e-23 1 -1.22465e-16
    outer loop
      vertex 0 -6.18447e-16 -5.05
      vertex 6 -7.04172e-16 -5.75
      vertex 5.36596 -7.1182e-16 -5.81245
    endloop
  endfacet
  facet normal 0 -1 0
    outer loop
      vertex 1.5 -7 -18
      vertex 13 -7 -18
      vertex 6.63404 -7 -12.1876
    endloop
  endfacet
  facet normal 0 -1 0
    outer loop
      vertex 1.5 -7 -18
      vertex 2.75 -7 -9
      vertex 1.5 -7 8.57253e-16
    endloop
  endfacet
  facet normal 0 -1 -0
    outer loop
      vertex 1.5 -7 -18
      vertex 2.81245 -7 -9.63404
      vertex 2.75 -7 -9
    endloop
  endfacet
  facet normal 0 -1 -0
    outer loop
      vertex 1.5 -7 -18
      vertex 2.99739 -7 -10.2437
      vertex 2.81245 -7 -9.63404
    endloop
  endfacet
  facet normal 0 -1 -0
    outer loop
      vertex 1.5 -7 -18
      vertex 3.29772 -7 -10.8056
      vertex 2.99739 -7 -10.2437
    endloop
  endfacet
  facet normal 0 -1 -0
    outer loop
      vertex 1.5 -7 -18
      vertex 3.7019 -7 -11.2981
      vertex 3.29772 -7 -10.8056
    endloop
  endfacet
  facet normal 0 -1 -0
    outer loop
      vertex 1.5 -7 -18
      vertex 4.1944 -7 -11.7023
      vertex 3.7019 -7 -11.2981
    endloop
  endfacet
  facet normal 0 -1 -0
    outer loop
      vertex 1.5 -7 -18
      vertex 4.75628 -7 -12.0026
      vertex 4.1944 -7 -11.7023
    endloop
  endfacet
  facet normal 0 -1 -0
    outer loop
      vertex 1.5 -7 -18
      vertex 5.36596 -7 -12.1876
      vertex 4.75628 -7 -12.0026
    endloop
  endfacet
  facet normal 0 -1 -0
    outer loop
      vertex 1.5 -7 -18
      vertex 6 -7 -12.25
      vertex 5.36596 -7 -12.1876
    endloop
  endfacet
  facet normal 0 -1 0
    outer loop
      vertex 1.5 -7 -18
      vertex 6.63404 -7 -12.1876
      vertex 6 -7 -12.25
    endloop
  endfacet
  facet normal 0 -1 0
    outer loop
      vertex 1.5 -7 8.57253e-16
      vertex 2.75 -7 -9
      vertex 2.81245 -7 -8.36596
    endloop
  endfacet
  facet normal 0 -1 0
    outer loop
      vertex 1.5 -7 8.57253e-16
      vertex 2.81245 -7 -8.36596
      vertex 2.99739 -7 -7.75628
    endloop
  endfacet
  facet normal 0 -1 0
    outer loop
      vertex 1.5 -7 8.57253e-16
      vertex 2.99739 -7 -7.75628
      vertex 3.29772 -7 -7.1944
    endloop
  endfacet
  facet normal 0 -1 0
    outer loop
      vertex 1.5 -7 8.57253e-16
      vertex 3.29772 -7 -7.1944
      vertex 3.7019 -7 -6.7019
    endloop
  endfacet
  facet normal 0 -1 0
    outer loop
      vertex 1.5 -7 8.57253e-16
      vertex 3.7019 -7 -6.7019
      vertex 4.1944 -7 -6.29772
    endloop
  endfacet
  facet normal 0 -1 0
    outer loop
      vertex 1.5 -7 8.57253e-16
      vertex 4.1944 -7 -6.29772
      vertex 4.75628 -7 -5.99739
    endloop
  endfacet
  facet normal 0 -1 0
    outer loop
      vertex 1.5 -7 8.57253e-16
      vertex 4.75628 -7 -5.99739
      vertex 5.36596 -7 -5.81245
    endloop
  endfacet
  facet normal 0 -1 0
    outer loop
      vertex 1.5 -7 8.57253e-16
      vertex 5.36596 -7 -5.81245
      vertex 6 -7 -5.75
    endloop
  endfacet
  facet normal 0 -1 0
    outer loop
      vertex 1.5 -7 8.57253e-16
      vertex 6 -7 -5.75
      vertex 6.63404 -7 -5.81245
    endloop
  endfacet
  facet normal 0 -1 0
    outer loop
      vertex 1.5 -7 8.57253e-16
      vertex 6.63404 -7 -5.81245
      vertex 13 -7 8.57253e-16
    endloop
  endfacet
  facet normal 0 1 0
    outer loop
      vertex 13 -10.4 -10.5
      vertex 13 -10.4 -7
      vertex 29 -10.4 -10.5
    endloop
  endfacet
  facet normal -1 0 0
    outer loop
      vertex 13 -10.4 -10.5
      vertex 13 -8.3 -10.5
      vertex 13 -7 -18
    endloop
  endfacet
  facet normal 0 0 1
    outer loop
      vertex 13 -10.4 -10.5
      vertex 29 -10.4 -10.5
      vertex 13 -8.3 -10.5
    endloop
  endfacet
  facet normal -1 0 0
    outer loop
      vertex 13 -10.4 -7
      vertex 13 -7 8.57253e-16
      vertex 13 -8.3 -7
    endloop
  endfacet
  facet normal -0 0 -1
    outer loop
      vertex 13 -10.4 -7
      vertex 13 -8.3 -7
      vertex 29 -8.3 -7
    endloop
  endfacet
  facet normal 0 1 -0
    outer loop
      vertex 13 -10.4 -7
      vertex 29 -10.4 -7
      vertex 29 -10.4 -10.5
    endloop
  endfacet
  facet normal 0 0 -1
    outer loop
      vertex 13 -10.4 -7
      vertex 29 -8.3 -7
      vertex 29 -10.4 -7
    endloop
  endfacet
  facet normal -1 0 0
    outer loop
      vertex 13 -15.5 -18
      vertex 13 -10.4 -10.5
      vertex 13 -7 -18
    endloop
  endfacet
  facet normal -1 0 0
    outer loop
      vertex 13 -15.5 -18
      vertex 13 -15.5 1.8982e-15
      vertex 13 -10.4 -10.5
    endloop
  endfacet
  facet normal 0 0 -1
    outer loop
      vertex 13 -15.5 -18
      vertex 13 -7 -18
      vertex 15 -17.5 -18
    endloop
  endfacet
  facet normal -0.707107 -0.707107 0
    outer loop
      vertex 13 -15.5 -18
      vertex 15 -17.5 -18
      vertex 13 -15.5 1.8982e-15
    endloop
  endfacet
  facet normal -1 0 0
    outer loop
      vertex 13 -15.5 1.8982e-15
      vertex 13 -10.4 -7
      vertex 13 -10.4 -10.5
    endloop
  endfacet
  facet normal -1 0 0
    outer loop
      vertex 13 -15.5 1.8982e-15
      vertex 13 -7 8.57253e-16
      vertex 13 -10.4 -7
    endloop
  endfacet
  facet normal -0.707107 -0.707107 0
    outer loop
      vertex 13 -15.5 1.8982e-15
      vertex 15 -17.5 -18
      vertex 15 -17.5 2.14313e-15
    endloop
  endfacet
  facet normal -1.26519e-24 1.22465e-16 1
    outer loop
      vertex 13 -15.5 1.8982e-15
      vertex 15 -17.5 2.14313e-15
      vertex 16.85 -15.9 1.94719e-15
    endloop
  endfacet
  facet normal 1.04672e-23 1.22465e-16 1
    outer loop
      vertex 13 -15.5 1.8982e-15
      vertex 16.85 -15.9 1.94719e-15
      vertex 16.9297 -15.0904 1.84804e-15
    endloop
  endfacet
  facet normal 3.44217e-23 1.22465e-16 1
    outer loop
      vertex 13 -15.5 1.8982e-15
      vertex 16.9297 -15.0904 1.84804e-15
      vertex 17.1659 -14.3119 1.7527e-15
    endloop
  endfacet
  facet normal 2.4349e-24 1.22465e-16 1
    outer loop
      vertex 13 -15.5 1.8982e-15
      vertex 17.1659 -14.3119 1.7527e-15
      vertex 17.5494 -13.5944 1.66483e-15
    endloop
  endfacet
  facet normal -7.90279e-24 1.22465e-16 1
    outer loop
      vertex 13 -15.5 1.8982e-15
      vertex 17.5494 -13.5944 1.66483e-15
      vertex 13 -7 8.57253e-16
    endloop
  endfacet
  facet normal 0 0 -1
    outer loop
      vertex 13 -7 -18
      vertex 29 -7 -18
      vertex 15 -17.5 -18
    endloop
  endfacet
  facet normal 0 0 -1
    outer loop
      vertex 13 -7 -18
      vertex 42 -0.5 -18
      vertex 29 -7 -18
    endloop
  endfacet
  facet normal 1.7072e-23 1.22465e-16 1
    outer loop
      vertex 13 -7 8.57253e-16
      vertex 17.5494 -13.5944 1.66483e-15
      vertex 18.0655 -12.9655 1.58782e-15
    endloop
  endfacet
  facet normal 3.5501e-23 1.22465e-16 1
    outer loop
      vertex 13 -7 8.57253e-16
      vertex 18.0655 -12.9655 1.58782e-15
      vertex 18.6944 -12.4494 1.52461e-15
    endloop
  endfacet
  facet normal -1.05852e-24 1.22465e-16 1
    outer loop
      vertex 13 -7 8.57253e-16
      vertex 18.6944 -12.4494 1.52461e-15
      vertex 19.4119 -12.0659 1.47765e-15
    endloop
  endfacet
  facet normal 2.2504e-23 1.22465e-16 1
    outer loop
      vertex 13 -7 8.57253e-16
      vertex 19.4119 -12.0659 1.47765e-15
      vertex 20.1904 -11.8297 1.44873e-15
    endloop
  endfacet
  facet normal -6.45249e-23 1.22465e-16 1
    outer loop
      vertex 13 -7 8.57253e-16
      vertex 20.1904 -11.8297 1.44873e-15
      vertex 21 -11.75 1.43896e-15
    endloop
  endfacet
  facet normal -0 1.22465e-16 1
    outer loop
      vertex 13 -7 8.57253e-16
      vertex 21 -11.75 1.43896e-15
      vertex 29 -7 8.57253e-16
    endloop
  endfacet
  facet normal 0 1.22465e-16 1
    outer loop
      vertex 13 -7 8.57253e-16
      vertex 29 -7 8.57253e-16
      vertex 42 -0.5 6.12323e-17
    endloop
  endfacet
  facet normal -1 0 0
    outer loop
      vertex 13 -8.3 -10.5
      vertex 13 -7 8.57253e-16
      vertex 13 -7 -18
    endloop
  endfacet
  facet normal -1 0 0
    outer loop
      vertex 13 -8.3 -10.5
      vertex 13 -8.3 -7
      vertex 13 -7 8.57253e-16
    endloop
  endfacet
  facet normal -0 0 1
    outer loop
      vertex 13 -8.3 -10.5
      vertex 29 -10.4 -10.5
      vertex 29 -8.3 -10.5
    endloop
  endfacet
  facet normal 0 -1 -0
    outer loop
      vertex 13 -8.3 -10.5
      vertex 29 -8.3 -10.5
      vertex 29 -8.3 -7
    endloop
  endfacet
  facet normal 0 -1 0
    outer loop
      vertex 13 -8.3 -10.5
      vertex 29 -8.3 -7
      vertex 13 -8.3 -7
    endloop
  endfacet
  facet normal 0 -1 0
    outer loop
      vertex 15 -17.5 -18
      vertex 17.1722 -17.5 -13.9
      vertex 15 -17.5 2.14313e-15
    endloop
  endfacet
  facet normal 0 -1 -0
    outer loop
      vertex 15 -17.5 -18
      vertex 24.8278 -17.5 -13.9
      vertex 17.1722 -17.5 -13.9
    endloop
  endfacet
  facet normal 0 -1 0
    outer loop
      vertex 15 -17.5 -18
      vertex 27 -17.5 -18
      vertex 24.8278 -17.5 -13.9
    endloop
  endfacet
  facet normal 0 0 -1
    outer loop
      vertex 15 -17.5 -18
      vertex 29 -7 -18
      vertex 27 -17.5 -18
    endloop
  endfacet
  facet normal 2.29815e-23 1.22465e-16 1
    outer loop
      vertex 15 -17.5 2.14313e-15
      vertex 16.9297 -16.7096 2.04634e-15
      vertex 16.85 -15.9 1.94719e-15
    endloop
  endfacet
  facet normal -5.64745e-24 1.22465e-16 1
    outer loop
      vertex 15 -17.5 2.14313e-15
      vertex 17.1659 -17.4881 2.14168e-15
      vertex 16.9297 -16.7096 2.04634e-15
    endloop
  endfacet
  facet normal 0 -1 0
    outer loop
      vertex 15 -17.5 2.14313e-15
      vertex 17.1722 -17.5 -13.9
      vertex 17.1722 -17.5 2.14313e-15
    endloop
  endfacet
  facet normal 0 1.22464e-16 1
    outer loop
      vertex 15 -17.5 2.14313e-15
      vertex 17.1722 -17.5 2.14313e-15
      vertex 17.1659 -17.4881 2.14168e-15
    endloop
  endfacet
  facet normal 0.995185 0.0980187 0
    outer loop
      vertex 16.85 -15.9 -13.9
      vertex 16.85 -15.9 1.94719e-15
      vertex 16.9297 -16.7096 2.04634e-15
    endloop
  endfacet
  facet normal 0.995185 -0.0980188 0
    outer loop
      vertex 16.85 -15.9 -13.9
      vertex 16.9297 -15.0904 -13.9
      vertex 16.85 -15.9 1.94719e-15
    endloop
  endfacet
  facet normal 0 -0 1
    outer loop
      vertex 16.85 -15.9 -13.9
      vertex 16.9297 -16.7096 -13.9
      vertex 16.9297 -15.0904 -13.9
    endloop
  endfacet
  facet normal 0.995185 0.0980187 0
    outer loop
      vertex 16.85 -15.9 -13.9
      vertex 16.9297 -16.7096 2.04634e-15
      vertex 16.9297 -16.7096 -13.9
    endloop
  endfacet
  facet normal 0.995185 -0.0980188 0
    outer loop
      vertex 16.85 -15.9 1.94719e-15
      vertex 16.9297 -15.0904 -13.9
      vertex 16.9297 -15.0904 1.84804e-15
    endloop
  endfacet
  facet normal 0.956941 -0.290284 0
    outer loop
      vertex 16.9297 -15.0904 -13.9
      vertex 17.1659 -14.3119 -13.9
      vertex 16.9297 -15.0904 1.84804e-15
    endloop
  endfacet
  facet normal -0 0 1
    outer loop
      vertex 16.9297 -15.0904 -13.9
      vertex 17.1722 -17.5 -13.9
      vertex 17.1659 -14.3119 -13.9
    endloop
  endfacet
  facet normal 0.956941 -0.290284 0
    outer loop
      vertex 16.9297 -15.0904 1.84804e-15
      vertex 17.1659 -14.3119 -13.9
      vertex 17.1659 -14.3119 1.7527e-15
    endloop
  endfacet
  facet normal 0.95694 0.290284 0
    outer loop
      vertex 16.9297 -16.7096 -13.9
      vertex 16.9297 -16.7096 2.04634e-15
      vertex 17.1659 -17.4881 2.14168e-15
    endloop
  endfacet
  facet normal 0 0 1
    outer loop
      vertex 16.9297 -16.7096 -13.9
      vertex 17.1659 -17.4881 -13.9
      vertex 17.1722 -17.5 -13.9
    endloop
  endfacet
  facet normal 0.95694 0.290284 0
    outer loop
      vertex 16.9297 -16.7096 -13.9
      vertex 17.1659 -17.4881 2.14168e-15
      vertex 17.1659 -17.4881 -13.9
    endloop
  endfacet
  facet normal -0 0 1
    outer loop
      vertex 16.9297 -16.7096 -13.9
      vertex 17.1722 -17.5 -13.9
      vertex 16.9297 -15.0904 -13.9
    endloop
  endfacet
  facet normal -0 0 1
    outer loop
      vertex 17.1659 -14.3119 -13.9
      vertex 17.1722 -17.5 -13.9
      vertex 17.5494 -13.5944 -13.9
    endloop
  endfacet
  facet normal 0.881921 -0.471397 0
    outer loop
      vertex 17.1659 -14.3119 -13.9
      vertex 17.5494 -13.5944 -13.9
      vertex 17.1659 -14.3119 1.7527e-15
    endloop
  endfacet
  facet normal 0.881921 -0.471397 0
    outer loop
      vertex 17.1659 -14.3119 1.7527e-15
      vertex 17.5494 -13.5944 -13.9
      vertex 17.5494 -13.5944 1.66483e-15
    endloop
  endfacet
  facet normal 0.881901 0.471434 0
    outer loop
      vertex 17.1659 -17.4881 -13.9
      vertex 17.1659 -17.4881 2.14168e-15
      vertex 17.1722 -17.5 2.14313e-15
    endloop
  endfacet
  facet normal 0.881901 0.471434 0
    outer loop
      vertex 17.1659 -17.4881 -13.9
      vertex 17.1722 -17.5 2.14313e-15
      vertex 17.1722 -17.5 -13.9
    endloop
  endfacet
  facet normal 0 0 1
    outer loop
      vertex 17.1722 -17.5 -13.9
      vertex 24.8278 -17.5 -13.9
      vertex 17.5494 -13.5944 -13.9
    endloop
  endfacet
  facet normal 0.773011 -0.634393 0
    outer loop
      vertex 17.5494 -13.5944 -13.9
      vertex 18.0655 -12.9655 -13.9
      vertex 17.5494 -13.5944 1.66483e-15
    endloop
  endfacet
  facet normal -0 0 1
    outer loop
      vertex 17.5494 -13.5944 -13.9
      vertex 24.8278 -17.5 -13.9
      vertex 18.0655 -12.9655 -13.9
    endloop
  endfacet
  facet normal 0.773011 -0.634393 0
    outer loop
      vertex 17.5494 -13.5944 1.66483e-15
      vertex 18.0655 -12.9655 -13.9
      vertex 18.0655 -12.9655 1.58782e-15
    endloop
  endfacet
  facet normal 0.634394 -0.77301 0
    outer loop
      vertex 18.0655 -12.9655 -13.9
      vertex 18.6944 -12.4494 -13.9
      vertex 18.6944 -12.4494 1.52461e-15
    endloop
  endfacet
  facet normal 0.634394 -0.77301 0
    outer loop
      vertex 18.0655 -12.9655 -13.9
      vertex 18.6944 -12.4494 1.52461e-15
      vertex 18.0655 -12.9655 1.58782e-15
    endloop
  endfacet
  facet normal -0 0 1
    outer loop
      vertex 18.0655 -12.9655 -13.9
      vertex 24.8278 -17.5 -13.9
      vertex 18.6944 -12.4494 -13.9
    endloop
  endfacet
  facet normal 0.471396 -0.881922 0
    outer loop
      vertex 18.6944 -12.4494 -13.9
      vertex 19.4119 -12.0659 -13.9
      vertex 19.4119 -12.0659 1.47765e-15
    endloop
  endfacet
  facet normal 0.471396 -0.881922 0
    outer loop
      vertex 18.6944 -12.4494 -13.9
      vertex 19.4119 -12.0659 1.47765e-15
      vertex 18.6944 -12.4494 1.52461e-15
    endloop
  endfacet
  facet normal -0 0 1
    outer loop
      vertex 18.6944 -12.4494 -13.9
      vertex 24.8278 -17.5 -13.9
      vertex 19.4119 -12.0659 -13.9
    endloop
  endfacet
  facet normal 0.290285 -0.95694 0
    outer loop
      vertex 19.4119 -12.0659 -13.9
      vertex 20.1904 -11.8297 -13.9
      vertex 20.1904 -11.8297 1.44873e-15
    endloop
  endfacet
  facet normal 0.290285 -0.95694 0
    outer loop
      vertex 19.4119 -12.0659 -13.9
      vertex 20.1904 -11.8297 1.44873e-15
      vertex 19.4119 -12.0659 1.47765e-15
    endloop
  endfacet
  facet normal -0 0 1
    outer loop
      vertex 19.4119 -12.0659 -13.9
      vertex 24.8278 -17.5 -13.9
      vertex 20.1904 -11.8297 -13.9
    endloop
  endfacet
  facet normal 0.995185 0 -0.0980167
    outer loop
      vertex 2.75 -1.10218e-15 -9
      vertex 2.81245 -1.02453e-15 -8.36596
      vertex 2.81245 -7 -8.36596
    endloop
  endfacet
  facet normal 0.995185 0 -0.0980167
    outer loop
      vertex 2.75 -7 -9
      vertex 2.75 -1.10218e-15 -9
      vertex 2.81245 -7 -8.36596
    endloop
  endfacet
  facet normal 0.995185 -0 0.0980168
    outer loop
      vertex 2.75 -7 -9
      vertex 2.81245 -1.17983e-15 -9.63404
      vertex 2.75 -1.10218e-15 -9
    endloop
  endfacet
  facet normal 0.995185 0 0.0980168
    outer loop
      vertex 2.75 -7 -9
      vertex 2.81245 -7 -9.63404
      vertex 2.81245 -1.17983e-15 -9.63404
    endloop
  endfacet
  facet normal 0.956941 0 -0.290284
    outer loop
      vertex 2.81245 -1.02453e-15 -8.36596
      vertex 2.99739 -9.4987e-16 -7.75628
      vertex 2.99739 -7 -7.75628
    endloop
  endfacet
  facet normal 0.956941 0 -0.290284
    outer loop
      vertex 2.81245 -7 -8.36596
      vertex 2.81245 -1.02453e-15 -8.36596
      vertex 2.99739 -7 -7.75628
    endloop
  endfacet
  facet normal 0.956941 -0 0.290284
    outer loop
      vertex 2.81245 -7 -9.63404
      vertex 2.99739 -1.25449e-15 -10.2437
      vertex 2.81245 -1.17983e-15 -9.63404
    endloop
  endfacet
  facet normal 0.956941 0 0.290284
    outer loop
      vertex 2.81245 -7 -9.63404
      vertex 2.99739 -7 -10.2437
      vertex 2.99739 -1.25449e-15 -10.2437
    endloop
  endfacet
  facet normal 0.881921 -0 0.471397
    outer loop
      vertex 2.99739 -7 -10.2437
      vertex 3.29772 -1.3233e-15 -10.8056
      vertex 2.99739 -1.25449e-15 -10.2437
    endloop
  endfacet
  facet normal 0.881921 0 0.471397
    outer loop
      vertex 2.99739 -7 -10.2437
      vertex 3.29772 -7 -10.8056
      vertex 3.29772 -1.3233e-15 -10.8056
    endloop
  endfacet
  facet normal 0.881921 0 -0.471397
    outer loop
      vertex 2.99739 -7 -7.75628
      vertex 2.99739 -9.4987e-16 -7.75628
      vertex 3.29772 -7 -7.1944
    endloop
  endfacet
  facet normal 0.881921 0 -0.471397
    outer loop
      vertex 2.99739 -9.4987e-16 -7.75628
      vertex 3.29772 -8.81059e-16 -7.1944
      vertex 3.29772 -7 -7.1944
    endloop
  endfacet
  facet normal 0.0980164 -0.995185 0
    outer loop
      vertex 20.1904 -11.8297 -13.9
      vertex 21 -11.75 -13.9
      vertex 21 -11.75 1.43896e-15
    endloop
  endfacet
  facet normal 0.0980164 -0.995185 0
    outer loop
      vertex 20.1904 -11.8297 -13.9
      vertex 21 -11.75 1.43896e-15
      vertex 20.1904 -11.8297 1.44873e-15
    endloop
  endfacet
  facet normal -0 0 1
    outer loop
      vertex 20.1904 -11.8297 -13.9
      vertex 24.8278 -17.5 -13.9
      vertex 21 -11.75 -13.9
    endloop
  endfacet
  facet normal -0.0980166 -0.995185 -0
    outer loop
      vertex 21 -11.75 -13.9
      vertex 21.8096 -11.8297 -13.9
      vertex 21.8096 -11.8297 1.44873e-15
    endloop
  endfacet
  facet normal -0.0980166 -0.995185 0
    outer loop
      vertex 21 -11.75 -13.9
      vertex 21.8096 -11.8297 1.44873e-15
      vertex 21 -11.75 1.43896e-15
    endloop
  endfacet
  facet normal 0 0 1
    outer loop
      vertex 21 -11.75 -13.9
      vertex 24.8278 -17.5 -13.9
      vertex 21.8096 -11.8297 -13.9
    endloop
  endfacet
  facet normal 6.45251e-23 1.22465e-16 1
    outer loop
      vertex 21 -11.75 1.43896e-15
      vertex 21.8096 -11.8297 1.44873e-15
      vertex 29 -7 8.57253e-16
    endloop
  endfacet
  facet normal -0.290285 -0.95694 -0
    outer loop
      vertex 21.8096 -11.8297 -13.9
      vertex 22.5881 -12.0659 -13.9
      vertex 22.5881 -12.0659 1.47765e-15
    endloop
  endfacet
  facet normal -0.290285 -0.95694 0
    outer loop
      vertex 21.8096 -11.8297 -13.9
      vertex 22.5881 -12.0659 1.47765e-15
      vertex 21.8096 -11.8297 1.44873e-15
    endloop
  endfacet
  facet normal 0 0 1
    outer loop
      vertex 21.8096 -11.8297 -13.9
      vertex 24.8278 -17.5 -13.9
      vertex 22.5881 -12.0659 -13.9
    endloop
  endfacet
  facet normal -2.2504e-23 1.22465e-16 1
    outer loop
      vertex 21.8096 -11.8297 1.44873e-15
      vertex 22.5881 -12.0659 1.47765e-15
      vertex 29 -7 8.57253e-16
    endloop
  endfacet
  facet normal -0.471396 -0.881922 -0
    outer loop
      vertex 22.5881 -12.0659 -13.9
      vertex 23.3056 -12.4494 -13.9
      vertex 23.3056 -12.4494 1.52461e-15
    endloop
  endfacet
  facet normal -0.471396 -0.881922 0
    outer loop
      vertex 22.5881 -12.0659 -13.9
      vertex 23.3056 -12.4494 1.52461e-15
      vertex 22.5881 -12.0659 1.47765e-15
    endloop
  endfacet
  facet normal 0 0 1
    outer loop
      vertex 22.5881 -12.0659 -13.9
      vertex 24.8278 -17.5 -13.9
      vertex 23.3056 -12.4494 -13.9
    endloop
  endfacet
  facet normal 1.05852e-24 1.22465e-16 1
    outer loop
      vertex 22.5881 -12.0659 1.47765e-15
      vertex 23.3056 -12.4494 1.52461e-15
      vertex 29 -7 8.57253e-16
    endloop
  endfacet
  facet normal -0.634393 -0.773011 -0
    outer loop
      vertex 23.3056 -12.4494 -13.9
      vertex 23.9345 -12.9655 -13.9
      vertex 23.9345 -12.9655 1.58782e-15
    endloop
  endfacet
  facet normal -0.634393 -0.773011 0
    outer loop
      vertex 23.3056 -12.4494 -13.9
      vertex 23.9345 -12.9655 1.58782e-15
      vertex 23.3056 -12.4494 1.52461e-15
    endloop
  endfacet
  facet normal 0 0 1
    outer loop
      vertex 23.3056 -12.4494 -13.9
      vertex 24.8278 -17.5 -13.9
      vertex 23.9345 -12.9655 -13.9
    endloop
  endfacet
  facet normal -3.5501e-23 1.22465e-16 1
    outer loop
      vertex 23.3056 -12.4494 1.52461e-15
      vertex 23.9345 -12.9655 1.58782e-15
      vertex 29 -7 8.57253e-16
    endloop
  endfacet
  facet normal -0.773011 -0.634393 0
    outer loop
      vertex 23.9345 -12.9655 -13.9
      vertex 24.4506 -13.5944 -13.9
      vertex 23.9345 -12.9655 1.58782e-15
    endloop
  endfacet
  facet normal 0 0 1
    outer loop
      vertex 23.9345 -12.9655 -13.9
      vertex 24.8278 -17.5 -13.9
      vertex 24.4506 -13.5944 -13.9
    endloop
  endfacet
  facet normal -0.773011 -0.634393 0
    outer loop
      vertex 23.9345 -12.9655 1.58782e-15
      vertex 24.4506 -13.5944 -13.9
      vertex 24.4506 -13.5944 1.66483e-15
    endloop
  endfacet
  facet normal -1.7072e-23 1.22465e-16 1
    outer loop
      vertex 23.9345 -12.9655 1.58782e-15
      vertex 24.4506 -13.5944 1.66483e-15
      vertex 29 -7 8.57253e-16
    endloop
  endfacet
  facet normal 0 0 1
    outer loop
      vertex 24.4506 -13.5944 -13.9
      vertex 24.8278 -17.5 -13.9
      vertex 24.8341 -14.3119 -13.9
    endloop
  endfacet
  facet normal -0.881922 -0.471395 0
    outer loop
      vertex 24.4506 -13.5944 -13.9
      vertex 24.8341 -14.3119 -13.9
      vertex 24.4506 -13.5944 1.66483e-15
    endloop
  endfacet
  facet normal -0.881922 -0.471395 0
    outer loop
      vertex 24.4506 -13.5944 1.66483e-15
      vertex 24.8341 -14.3119 -13.9
      vertex 24.8341 -14.3119 1.7527e-15
    endloop
  endfacet
  facet normal -2.43489e-24 1.22465e-16 1
    outer loop
      vertex 24.4506 -13.5944 1.66483e-15
      vertex 24.8341 -14.3119 1.7527e-15
      vertex 29 -15.5 1.8982e-15
    endloop
  endfacet
  facet normal 7.90279e-24 1.22465e-16 1
    outer loop
      vertex 24.4506 -13.5944 1.66483e-15
      vertex 29 -15.5 1.8982e-15
      vertex 29 -7 8.57253e-16
    endloop
  endfacet
  facet normal -0.88196 0.471324 0
    outer loop
      vertex 24.8278 -17.5 -13.9
      vertex 24.8278 -17.5 2.14313e-15
      vertex 24.8341 -17.4881 2.14168e-15
    endloop
  endfacet
  facet normal 0 0 1
    outer loop
      vertex 24.8278 -17.5 -13.9
      vertex 24.8341 -17.4881 -13.9
      vertex 25.0703 -16.7096 -13.9
    endloop
  endfacet
  facet normal -0.88196 0.471324 0
    outer loop
      vertex 24.8278 -17.5 -13.9
      vertex 24.8341 -17.4881 2.14168e-15
      vertex 24.8341 -17.4881 -13.9
    endloop
  endfacet
  facet normal 0 0 1
    outer loop
      vertex 24.8278 -17.5 -13.9
      vertex 25.0703 -16.7096 -13.9
      vertex 24.8341 -14.3119 -13.9
    endloop
  endfacet
  facet normal 0 -1 0
    outer loop
      vertex 24.8278 -17.5 -13.9
      vertex 27 -17.5 -18
      vertex 27 -17.5 2.14313e-15
    endloop
  endfacet
  facet normal 0 -1 0
    outer loop
      vertex 24.8278 -17.5 -13.9
      vertex 27 -17.5 2.14313e-15
      vertex 24.8278 -17.5 2.14313e-15
    endloop
  endfacet
  facet normal 0 1.22464e-16 1
    outer loop
      vertex 24.8278 -17.5 2.14313e-15
      vertex 27 -17.5 2.14313e-15
      vertex 24.8341 -17.4881 2.14168e-15
    endloop
  endfacet
  facet normal -0.95694 -0.290286 0
    outer loop
      vertex 24.8341 -14.3119 -13.9
      vertex 25.0703 -15.0904 -13.9
      vertex 24.8341 -14.3119 1.7527e-15
    endloop
  endfacet
  facet normal 0 0 1
    outer loop
      vertex 24.8341 -14.3119 -13.9
      vertex 25.0703 -16.7096 -13.9
      vertex 25.0703 -15.0904 -13.9
    endloop
  endfacet
  facet normal -0.95694 -0.290286 0
    outer loop
      vertex 24.8341 -14.3119 1.7527e-15
      vertex 25.0703 -15.0904 -13.9
      vertex 25.0703 -15.0904 1.84804e-15
    endloop
  endfacet
  facet normal -3.44217e-23 1.22465e-16 1
    outer loop
      vertex 24.8341 -14.3119 1.7527e-15
      vertex 25.0703 -15.0904 1.84804e-15
      vertex 29 -15.5 1.8982e-15
    endloop
  endfacet
  facet normal -0.95694 0.290286 0
    outer loop
      vertex 24.8341 -17.4881 -13.9
      vertex 24.8341 -17.4881 2.14168e-15
      vertex 25.0703 -16.7096 2.04634e-15
    endloop
  endfacet
  facet normal -0.95694 0.290286 0
    outer loop
      vertex 24.8341 -17.4881 -13.9
      vertex 25.0703 -16.7096 2.04634e-15
      vertex 25.0703 -16.7096 -13.9
    endloop
  endfacet
  facet normal 5.64745e-24 1.22465e-16 1
    outer loop
      vertex 24.8341 -17.4881 2.14168e-15
      vertex 27 -17.5 2.14313e-15
      vertex 25.0703 -16.7096 2.04634e-15
    endloop
  endfacet
  facet normal -0.995185 -0.0980165 0
    outer loop
      vertex 25.0703 -15.0904 -13.9
      vertex 25.15 -15.9 -13.9
      vertex 25.0703 -15.0904 1.84804e-15
    endloop
  endfacet
  facet normal -0.995185 -0.0980165 0
    outer loop
      vertex 25.0703 -15.0904 1.84804e-15
      vertex 25.15 -15.9 -13.9
      vertex 25.15 -15.9 1.94719e-15
    endloop
  endfacet
  facet normal -1.04672e-23 1.22465e-16 1
    outer loop
      vertex 25.0703 -15.0904 1.84804e-15
      vertex 25.15 -15.9 1.94719e-15
      vertex 29 -15.5 1.8982e-15
    endloop
  endfacet
  facet normal -0.995185 0.0980164 0
    outer loop
      vertex 25.0703 -16.7096 -13.9
      vertex 25.0703 -16.7096 2.04634e-15
      vertex 25.15 -15.9 1.94719e-15
    endloop
  endfacet
  facet normal 0 0 1
    outer loop
      vertex 25.0703 -16.7096 -13.9
      vertex 25.15 -15.9 -13.9
      vertex 25.0703 -15.0904 -13.9
    endloop
  endfacet
  facet normal -0.995185 0.0980164 0
    outer loop
      vertex 25.0703 -16.7096 -13.9
      vertex 25.15 -15.9 1.94719e-15
      vertex 25.15 -15.9 -13.9
    endloop
  endfacet
  facet normal -2.29815e-23 1.22465e-16 1
    outer loop
      vertex 25.0703 -16.7096 2.04634e-15
      vertex 27 -17.5 2.14313e-15
      vertex 25.15 -15.9 1.94719e-15
    endloop
  endfacet
  facet normal 1.26519e-24 1.22465e-16 1
    outer loop
      vertex 25.15 -15.9 1.94719e-15
      vertex 27 -17.5 2.14313e-15
      vertex 29 -15.5 1.8982e-15
    endloop
  endfacet
  facet normal 0.707107 -0.707107 0
    outer loop
      vertex 27 -17.5 -18
      vertex 29 -15.5 -18
      vertex 27 -17.5 2.14313e-15
    endloop
  endfacet
  facet normal -0 0 -1
    outer loop
      vertex 27 -17.5 -18
      vertex 29 -7 -18
      vertex 29 -15.5 -18
    endloop
  endfacet
  facet normal 0.707107 -0.707107 0
    outer loop
      vertex 27 -17.5 2.14313e-15
      vertex 29 -15.5 -18
      vertex 29 -15.5 1.8982e-15
    endloop
  endfacet
  facet normal 1 -0 0
    outer loop
      vertex 29 -10.4 -10.5
      vertex 29 -7 -18
      vertex 29 -8.3 -10.5
    endloop
  endfacet
  facet normal 1 0 0
    outer loop
      vertex 29 -10.4 -7
      vertex 29 -8.3 -7
      vertex 29 -7 8.57253e-16
    endloop
  endfacet
  facet normal 1 0 0
    outer loop
      vertex 29 -15.5 -18
      vertex 29 -10.4 -10.5
      vertex 29 -15.5 1.8982e-15
    endloop
  endfacet
  facet normal 1 0 0
    outer loop
      vertex 29 -15.5 -18
      vertex 29 -7 -18
      vertex 29 -10.4 -10.5
    endloop
  endfacet
  facet normal 1 0 0
    outer loop
      vertex 29 -15.5 1.8982e-15
      vertex 29 -10.4 -10.5
      vertex 29 -10.4 -7
    endloop
  endfacet
  facet normal 1 0 0
    outer loop
      vertex 29 -15.5 1.8982e-15
      vertex 29 -10.4 -7
      vertex 29 -7 8.57253e-16
    endloop
  endfacet
  facet normal 0 -1 0
    outer loop
      vertex 29 -7 -18
      vertex 32.75 -7 -9
      vertex 29 -7 8.57253e-16
    endloop
  endfacet
  facet normal 0 -1 -0
    outer loop
      vertex 29 -7 -18
      vertex 32.8124 -7 -9.63404
      vertex 32.75 -7 -9
    endloop
  endfacet
  facet normal 0 -1 -0
    outer loop
      vertex 29 -7 -18
      vertex 32.9974 -7 -10.2437
      vertex 32.8124 -7 -9.63404
    endloop
  endfacet
  facet normal 0 -1 -0
    outer loop
      vertex 29 -7 -18
      vertex 33.2977 -7 -10.8056
      vertex 32.9974 -7 -10.2437
    endloop
  endfacet
  facet normal 0 -1 -0
    outer loop
      vertex 29 -7 -18
      vertex 33.7019 -7 -11.2981
      vertex 33.2977 -7 -10.8056
    endloop
  endfacet
  facet normal 0 -1 -0
    outer loop
      vertex 29 -7 -18
      vertex 34.1944 -7 -11.7023
      vertex 33.7019 -7 -11.2981
    endloop
  endfacet
  facet normal 0 -1 -0
    outer loop
      vertex 29 -7 -18
      vertex 34.7563 -7 -12.0026
      vertex 34.1944 -7 -11.7023
    endloop
  endfacet
  facet normal 0 -1 -0
    outer loop
      vertex 29 -7 -18
      vertex 35.366 -7 -12.1876
      vertex 34.7563 -7 -12.0026
    endloop
  endfacet
  facet normal 0 -1 0
    outer loop
      vertex 29 -7 -18
      vertex 40.5 -7 -18
      vertex 35.366 -7 -12.1876
    endloop
  endfacet
  facet normal 0 0 -1
    outer loop
      vertex 29 -7 -18
      vertex 42 -0.5 -18
      vertex 40.5 -7 -18
    endloop
  endfacet
  facet normal 0 -1 0
    outer loop
      vertex 29 -7 8.57253e-16
      vertex 32.75 -7 -9
      vertex 32.8124 -7 -8.36596
    endloop
  endfacet
  facet normal 0 -1 0
    outer loop
      vertex 29 -7 8.57253e-16
      vertex 32.8124 -7 -8.36596
      vertex 32.9974 -7 -7.75628
    endloop
  endfacet
  facet normal 0 -1 0
    outer loop
      vertex 29 -7 8.57253e-16
      vertex 32.9974 -7 -7.75628
      vertex 33.2977 -7 -7.1944
    endloop
  endfacet
  facet normal 0 -1 0
    outer loop
      vertex 29 -7 8.57253e-16
      vertex 33.2977 -7 -7.1944
      vertex 33.7019 -7 -6.7019
    endloop
  endfacet
  facet normal 0 -1 0
    outer loop
      vertex 29 -7 8.57253e-16
      vertex 33.7019 -7 -6.7019
      vertex 34.1944 -7 -6.29772
    endloop
  endfacet
  facet normal 0 -1 0
    outer loop
      vertex 29 -7 8.57253e-16
      vertex 34.1944 -7 -6.29772
      vertex 34.7563 -7 -5.99739
    endloop
  endfacet
  facet normal 0 -1 0
    outer loop
      vertex 29 -7 8.57253e-16
      vertex 34.7563 -7 -5.99739
      vertex 35.366 -7 -5.81245
    endloop
  endfacet
  facet normal 0 -1 0
    outer loop
      vertex 29 -7 8.57253e-16
      vertex 35.366 -7 -5.81245
      vertex 40.5 -7 8.57253e-16
    endloop
  endfacet
  facet normal 0 1.22465e-16 1
    outer loop
      vertex 29 -7 8.57253e-16
      vertex 40.5 -7 8.57253e-16
      vertex 42 -0.5 6.12323e-17
    endloop
  endfacet
  facet normal 1 0 0
    outer loop
      vertex 29 -8.3 -10.5
      vertex 29 -7 -18
      vertex 29 -7 8.57253e-16
    endloop
  endfacet
  facet normal 1 0 0
    outer loop
      vertex 29 -8.3 -10.5
      vertex 29 -7 8.57253e-16
      vertex 29 -8.3 -7
    endloop
  endfacet
  facet normal 0.77301 -0 0.634394
    outer loop
      vertex 3.29772 -7 -10.8056
      vertex 3.7019 -1.38362e-15 -11.2981
      vertex 3.29772 -1.3233e-15 -10.8056
    endloop
  endfacet
  facet normal 0.77301 0 0.634394
    outer loop
      vertex 3.29772 -7 -10.8056
      vertex 3.7019 -7 -11.2981
      vertex 3.7019 -1.38362e-15 -11.2981
    endloop
  endfacet
  facet normal 0.77301 0 -0.634394
    outer loop
      vertex 3.29772 -7 -7.1944
      vertex 3.29772 -8.81059e-16 -7.1944
      vertex 3.7019 -7 -6.7019
    endloop
  endfacet
  facet normal 0.77301 0 -0.634394
    outer loop
      vertex 3.29772 -8.81059e-16 -7.1944
      vertex 3.7019 -8.20746e-16 -6.7019
      vertex 3.7019 -7 -6.7019
    endloop
  endfacet
  facet normal 0.634394 0 0.77301
    outer loop
      vertex 3.7019 -1.38362e-15 -11.2981
      vertex 4.1944 -7 -11.7023
      vertex 4.1944 -1.43312e-15 -11.7023
    endloop
  endfacet
  facet normal 0.634394 0 0.77301
    outer loop
      vertex 3.7019 -7 -11.2981
      vertex 4.1944 -7 -11.7023
      vertex 3.7019 -1.38362e-15 -11.2981
    endloop
  endfacet
  facet normal 0.634394 0 -0.77301
    outer loop
      vertex 3.7019 -7 -6.7019
      vertex 3.7019 -8.20746e-16 -6.7019
      vertex 4.1944 -7.71249e-16 -6.29772
    endloop
  endfacet
  facet normal 0.634394 0 -0.77301
    outer loop
      vertex 3.7019 -7 -6.7019
      vertex 4.1944 -7.71249e-16 -6.29772
      vertex 4.1944 -7 -6.29772
    endloop
  endfacet
  facet normal 0.995185 0 -0.0980152
    outer loop
      vertex 32.75 -1.10218e-15 -9
      vertex 32.8124 -1.02453e-15 -8.36596
      vertex 32.8124 -7 -8.36596
    endloop
  endfacet
  facet normal 0.995185 0 -0.0980152
    outer loop
      vertex 32.75 -7 -9
      vertex 32.75 -1.10218e-15 -9
      vertex 32.8124 -7 -8.36596
    endloop
  endfacet
  facet normal 0.995185 -0 0.0980153
    outer loop
      vertex 32.75 -7 -9
      vertex 32.8124 -1.17983e-15 -9.63404
      vertex 32.75 -1.10218e-15 -9
    endloop
  endfacet
  facet normal 0.995185 0 0.0980153
    outer loop
      vertex 32.75 -7 -9
      vertex 32.8124 -7 -9.63404
      vertex 32.8124 -1.17983e-15 -9.63404
    endloop
  endfacet
  facet normal 0.95694 0 -0.290285
    outer loop
      vertex 32.8124 -1.02453e-15 -8.36596
      vertex 32.9974 -9.4987e-16 -7.75628
      vertex 32.9974 -7 -7.75628
    endloop
  endfacet
  facet normal 0.95694 0 -0.290285
    outer loop
      vertex 32.8124 -7 -8.36596
      vertex 32.8124 -1.02453e-15 -8.36596
      vertex 32.9974 -7 -7.75628
    endloop
  endfacet
  facet normal 0.95694 -0 0.290285
    outer loop
      vertex 32.8124 -7 -9.63404
      vertex 32.9974 -1.25449e-15 -10.2437
      vertex 32.8124 -1.17983e-15 -9.63404
    endloop
  endfacet
  facet normal 0.95694 0 0.290285
    outer loop
      vertex 32.8124 -7 -9.63404
      vertex 32.9974 -7 -10.2437
      vertex 32.9974 -1.25449e-15 -10.2437
    endloop
  endfacet
  facet normal 0.881922 -0 0.471395
    outer loop
      vertex 32.9974 -7 -10.2437
      vertex 33.2977 -1.3233e-15 -10.8056
      vertex 32.9974 -1.25449e-15 -10.2437
    endloop
  endfacet
  facet normal 0.881922 0 0.471395
    outer loop
      vertex 32.9974 -7 -10.2437
      vertex 33.2977 -7 -10.8056
      vertex 33.2977 -1.3233e-15 -10.8056
    endloop
  endfacet
  facet normal 0.881922 0 -0.471395
    outer loop
      vertex 32.9974 -7 -7.75628
      vertex 32.9974 -9.4987e-16 -7.75628
      vertex 33.2977 -7 -7.1944
    endloop
  endfacet
  facet normal 0.881922 0 -0.471395
    outer loop
      vertex 32.9974 -9.4987e-16 -7.75628
      vertex 33.2977 -8.81059e-16 -7.1944
      vertex 33.2977 -7 -7.1944
    endloop
  endfacet
  facet normal 0.773008 -0 0.634396
    outer loop
      vertex 33.2977 -7 -10.8056
      vertex 33.7019 -1.38362e-15 -11.2981
      vertex 33.2977 -1.3233e-15 -10.8056
    endloop
  endfacet
  facet normal 0.773008 0 0.634396
    outer loop
      vertex 33.2977 -7 -10.8056
      vertex 33.7019 -7 -11.2981
      vertex 33.7019 -1.38362e-15 -11.2981
    endloop
  endfacet
  facet normal 0.773008 0 -0.634396
    outer loop
      vertex 33.2977 -7 -7.1944
      vertex 33.2977 -8.81059e-16 -7.1944
      vertex 33.7019 -7 -6.7019
    endloop
  endfacet
  facet normal 0.773008 0 -0.634396
    outer loop
      vertex 33.2977 -8.81059e-16 -7.1944
      vertex 33.7019 -8.20746e-16 -6.7019
      vertex 33.7019 -7 -6.7019
    endloop
  endfacet
  facet normal 0.634394 0 0.773009
    outer loop
      vertex 33.7019 -1.38362e-15 -11.2981
      vertex 34.1944 -7 -11.7023
      vertex 34.1944 -1.43312e-15 -11.7023
    endloop
  endfacet
  facet normal 0.634394 0 0.773009
    outer loop
      vertex 33.7019 -7 -11.2981
      vertex 34.1944 -7 -11.7023
      vertex 33.7019 -1.38362e-15 -11.2981
    endloop
  endfacet
  facet normal 0.634394 0 -0.773009
    outer loop
      vertex 33.7019 -7 -6.7019
      vertex 33.7019 -8.20746e-16 -6.7019
      vertex 34.1944 -7.71249e-16 -6.29772
    endloop
  endfacet
  facet normal 0.634394 0 -0.773009
    outer loop
      vertex 33.7019 -7 -6.7019
      vertex 34.1944 -7.71249e-16 -6.29772
      vertex 34.1944 -7 -6.29772
    endloop
  endfacet
  facet normal 0.471397 0 0.881921
    outer loop
      vertex 34.1944 -1.43312e-15 -11.7023
      vertex 34.7563 -7 -12.0026
      vertex 34.7563 -1.4699e-15 -12.0026
    endloop
  endfacet
  facet normal 0.471397 0 0.881921
    outer loop
      vertex 34.1944 -7 -11.7023
      vertex 34.7563 -7 -12.0026
      vertex 34.1944 -1.43312e-15 -11.7023
    endloop
  endfacet
  facet normal 0.471397 0 -0.881921
    outer loop
      vertex 34.1944 -7 -6.29772
      vertex 34.1944 -7.71249e-16 -6.29772
      vertex 34.7563 -7.34469e-16 -5.99739
    endloop
  endfacet
  facet normal 0.471397 0 -0.881921
    outer loop
      vertex 34.1944 -7 -6.29772
      vertex 34.7563 -7.34469e-16 -5.99739
      vertex 34.7563 -7 -5.99739
    endloop
  endfacet
  facet normal 0.290285 0 0.95694
    outer loop
      vertex 34.7563 -1.4699e-15 -12.0026
      vertex 35.366 -7 -12.1876
      vertex 35.366 -1.49254e-15 -12.1876
    endloop
  endfacet
  facet normal 0.290285 0 0.95694
    outer loop
      vertex 34.7563 -7 -12.0026
      vertex 35.366 -7 -12.1876
      vertex 34.7563 -1.4699e-15 -12.0026
    endloop
  endfacet
  facet normal 0.290285 0 -0.95694
    outer loop
      vertex 34.7563 -7 -5.99739
      vertex 34.7563 -7.34469e-16 -5.99739
      vertex 35.366 -7.1182e-16 -5.81245
    endloop
  endfacet
  facet normal 0.290285 0 -0.95694
    outer loop
      vertex 34.7563 -7 -5.99739
      vertex 35.366 -7.1182e-16 -5.81245
      vertex 35.366 -7 -5.81245
    endloop
  endfacet
  facet normal 0.098018 0 0.995185
    outer loop
      vertex 35.366 -1.49254e-15 -12.1876
      vertex 36 -7 -12.25
      vertex 36 -1.50019e-15 -12.25
    endloop
  endfacet
  facet normal 0.098018 0 0.995185
    outer loop
      vertex 35.366 -7 -12.1876
      vertex 36 -7 -12.25
      vertex 35.366 -1.49254e-15 -12.1876
    endloop
  endfacet
  facet normal 0 -1 0
    outer loop
      vertex 35.366 -7 -12.1876
      vertex 40.5 -7 -18
      vertex 36 -7 -12.25
    endloop
  endfacet
  facet normal 0.0980165 0 -0.995185
    outer loop
      vertex 35.366 -7 -5.81245
      vertex 35.366 -7.1182e-16 -5.81245
      vertex 36 -7.04172e-16 -5.75
    endloop
  endfacet
  facet normal 0 -1 0
    outer loop
      vertex 35.366 -7 -5.81245
      vertex 36 -7 -5.75
      vertex 40.5 -7 8.57253e-16
    endloop
  endfacet
  facet normal 0.0980165 0 -0.995185
    outer loop
      vertex 35.366 -7 -5.81245
      vertex 36 -7.04172e-16 -5.75
      vertex 36 -7 -5.75
    endloop
  endfacet
  facet normal -1.70769e-23 1 -1.22465e-16
    outer loop
      vertex 36 -1.50019e-15 -12.25
      vertex 36.634 -1.49254e-15 -12.1876
      vertex 42 -1.58592e-15 -12.95
    endloop
  endfacet
  facet normal -0.0980186 0 0.995185
    outer loop
      vertex 36 -1.50019e-15 -12.25
      vertex 36.634 -7 -12.1876
      vertex 36.634 -1.49254e-15 -12.1876
    endloop
  endfacet
  facet normal -0.0980186 0 0.995185
    outer loop
      vertex 36 -7 -12.25
      vertex 36.634 -7 -12.1876
      vertex 36 -1.50019e-15 -12.25
    endloop
  endfacet
  facet normal 0 -1 0
    outer loop
      vertex 36 -7 -12.25
      vertex 40.5 -7 -18
      vertex 36.634 -7 -12.1876
    endloop
  endfacet
  facet normal -0.0980171 0 -0.995185
    outer loop
      vertex 36 -7 -5.75
      vertex 36 -7.04172e-16 -5.75
      vertex 36.634 -7.1182e-16 -5.81245
    endloop
  endfacet
  facet normal 0 -1 0
    outer loop
      vertex 36 -7 -5.75
      vertex 36.634 -7 -5.81245
      vertex 40.5 -7 8.57253e-16
    endloop
  endfacet
  facet normal -0.0980171 0 -0.995185
    outer loop
      vertex 36 -7 -5.75
      vertex 36.634 -7.1182e-16 -5.81245
      vertex 36.634 -7 -5.81245
    endloop
  endfacet
  facet normal 2.72418e-23 1 -1.22465e-16
    outer loop
      vertex 36 -7.04172e-16 -5.75
      vertex 42 -6.18447e-16 -5.05
      vertex 36.634 -7.1182e-16 -5.81245
    endloop
  endfacet
  facet normal -7.60462e-24 1 -1.22465e-16
    outer loop
      vertex 36.634 -1.49254e-15 -12.1876
      vertex 37.2437 -1.4699e-15 -12.0026
      vertex 42 -1.58592e-15 -12.95
    endloop
  endfacet
  facet normal -0.290283 0 0.956941
    outer loop
      vertex 36.634 -1.49254e-15 -12.1876
      vertex 37.2437 -7 -12.0026
      vertex 37.2437 -1.4699e-15 -12.0026
    endloop
  endfacet
  facet normal -0.290283 0 0.956941
    outer loop
      vertex 36.634 -7 -12.1876
      vertex 37.2437 -7 -12.0026
      vertex 36.634 -1.49254e-15 -12.1876
    endloop
  endfacet
  facet normal 0 -1 0
    outer loop
      vertex 36.634 -7 -12.1876
      vertex 40.5 -7 -18
      vertex 37.2437 -7 -12.0026
    endloop
  endfacet
  facet normal -0.290283 0 -0.956941
    outer loop
      vertex 36.634 -7 -5.81245
      vertex 36.634 -7.1182e-16 -5.81245
      vertex 37.2437 -7.34469e-16 -5.99739
    endloop
  endfacet
  facet normal 0 -1 0
    outer loop
      vertex 36.634 -7 -5.81245
      vertex 37.2437 -7 -5.99739
      vertex 40.5 -7 8.57253e-16
    endloop
  endfacet
  facet normal -0.290283 0 -0.956941
    outer loop
      vertex 36.634 -7 -5.81245
      vertex 37.2437 -7.34469e-16 -5.99739
      vertex 37.2437 -7 -5.99739
    endloop
  endfacet
  facet normal -2.0094e-23 1 -1.22465e-16
    outer loop
      vertex 36.634 -7.1182e-16 -5.81245
      vertex 42 -6.18447e-16 -5.05
      vertex 37.2437 -7.34469e-16 -5.99739
    endloop
  endfacet
  facet normal 6.84959e-25 1 -1.22465e-16
    outer loop
      vertex 37.2437 -1.4699e-15 -12.0026
      vertex 37.8056 -1.43312e-15 -11.7023
      vertex 42 -1.58592e-15 -12.95
    endloop
  endfacet
  facet normal -0.471397 0 0.881921
    outer loop
      vertex 37.2437 -1.4699e-15 -12.0026
      vertex 37.8056 -7 -11.7023
      vertex 37.8056 -1.43312e-15 -11.7023
    endloop
  endfacet
  facet normal -0.471397 0 0.881921
    outer loop
      vertex 37.2437 -7 -12.0026
      vertex 37.8056 -7 -11.7023
      vertex 37.2437 -1.4699e-15 -12.0026
    endloop
  endfacet
  facet normal 0 -1 0
    outer loop
      vertex 37.2437 -7 -12.0026
      vertex 40.5 -7 -18
      vertex 37.8056 -7 -11.7023
    endloop
  endfacet
  facet normal -0.471397 0 -0.881921
    outer loop
      vertex 37.2437 -7 -5.99739
      vertex 37.2437 -7.34469e-16 -5.99739
      vertex 37.8056 -7.71249e-16 -6.29772
    endloop
  endfacet
  facet normal 0 -1 0
    outer loop
      vertex 37.2437 -7 -5.99739
      vertex 37.8056 -7 -6.29772
      vertex 40.5 -7 8.57253e-16
    endloop
  endfacet
  facet normal -0.471397 0 -0.881921
    outer loop
      vertex 37.2437 -7 -5.99739
      vertex 37.8056 -7.71249e-16 -6.29772
      vertex 37.8056 -7 -6.29772
    endloop
  endfacet
  facet normal 7.42375e-24 1 -1.22465e-16
    outer loop
      vertex 37.2437 -7.34469e-16 -5.99739
      vertex 42 -6.18447e-16 -5.05
      vertex 37.8056 -7.71249e-16 -6.29772
    endloop
  endfacet
  facet normal 4.87624e-23 1 -1.22465e-16
    outer loop
      vertex 37.8056 -1.43312e-15 -11.7023
      vertex 38.2981 -1.38362e-15 -11.2981
      vertex 42 -1.58592e-15 -12.95
    endloop
  endfacet
  facet normal -0.634394 0 0.773009
    outer loop
      vertex 37.8056 -1.43312e-15 -11.7023
      vertex 38.2981 -7 -11.2981
      vertex 38.2981 -1.38362e-15 -11.2981
    endloop
  endfacet
  facet normal -0.634394 0 0.773009
    outer loop
      vertex 37.8056 -7 -11.7023
      vertex 38.2981 -7 -11.2981
      vertex 37.8056 -1.43312e-15 -11.7023
    endloop
  endfacet
  facet normal 0 -1 0
    outer loop
      vertex 37.8056 -7 -11.7023
      vertex 40.5 -7 -18
      vertex 38.2981 -7 -11.2981
    endloop
  endfacet
  facet normal -0.634394 0 -0.773009
    outer loop
      vertex 37.8056 -7 -6.29772
      vertex 37.8056 -7.71249e-16 -6.29772
      vertex 38.2981 -8.20746e-16 -6.7019
    endloop
  endfacet
  facet normal 0 -1 0
    outer loop
      vertex 37.8056 -7 -6.29772
      vertex 38.2981 -7 -6.7019
      vertex 40.5 -7 8.57253e-16
    endloop
  endfacet
  facet normal -0.634394 0 -0.773009
    outer loop
      vertex 37.8056 -7 -6.29772
      vertex 38.2981 -8.20746e-16 -6.7019
      vertex 38.2981 -7 -6.7019
    endloop
  endfacet
  facet normal 1.76962e-23 1 -1.22465e-16
    outer loop
      vertex 37.8056 -7.71249e-16 -6.29772
      vertex 42 -6.18447e-16 -5.05
      vertex 38.2981 -8.20746e-16 -6.7019
    endloop
  endfacet
  facet normal -1.86252e-23 1 -1.22465e-16
    outer loop
      vertex 38.2981 -1.38362e-15 -11.2981
      vertex 38.7023 -1.3233e-15 -10.8056
      vertex 42 -1.58592e-15 -12.95
    endloop
  endfacet
  facet normal -0.773008 0 0.634396
    outer loop
      vertex 38.2981 -7 -11.2981
      vertex 38.7023 -1.3233e-15 -10.8056
      vertex 38.2981 -1.38362e-15 -11.2981
    endloop
  endfacet
  facet normal -0.773008 0 0.634396
    outer loop
      vertex 38.2981 -7 -11.2981
      vertex 38.7023 -7 -10.8056
      vertex 38.7023 -1.3233e-15 -10.8056
    endloop
  endfacet
  facet normal 0 -1 0
    outer loop
      vertex 38.2981 -7 -11.2981
      vertex 40.5 -7 -18
      vertex 38.7023 -7 -10.8056
    endloop
  endfacet
  facet normal -0.773008 -0 -0.634396
    outer loop
      vertex 38.2981 -7 -6.7019
      vertex 38.2981 -8.20746e-16 -6.7019
      vertex 38.7023 -7 -7.1944
    endloop
  endfacet
  facet normal 0 -1 0
    outer loop
      vertex 38.2981 -7 -6.7019
      vertex 38.7023 -7 -7.1944
      vertex 40.5 -7 8.57253e-16
    endloop
  endfacet
  facet normal -0.773008 0 -0.634396
    outer loop
      vertex 38.2981 -8.20746e-16 -6.7019
      vertex 38.7023 -8.81059e-16 -7.1944
      vertex 38.7023 -7 -7.1944
    endloop
  endfacet
  facet normal 8.15787e-24 1 -1.22465e-16
    outer loop
      vertex 38.2981 -8.20746e-16 -6.7019
      vertex 42 -6.18447e-16 -5.05
      vertex 38.7023 -8.81059e-16 -7.1944
    endloop
  endfacet
  facet normal -3.63517e-23 1 -1.22465e-16
    outer loop
      vertex 38.7023 -1.3233e-15 -10.8056
      vertex 39.0026 -1.25449e-15 -10.2437
      vertex 42 -1.58592e-15 -12.95
    endloop
  endfacet
  facet normal -0.881922 0 0.471395
    outer loop
      vertex 38.7023 -7 -10.8056
      vertex 39.0026 -1.25449e-15 -10.2437
      vertex 38.7023 -1.3233e-15 -10.8056
    endloop
  endfacet
  facet normal -0.881922 0 0.471395
    outer loop
      vertex 38.7023 -7 -10.8056
      vertex 39.0026 -7 -10.2437
      vertex 39.0026 -1.25449e-15 -10.2437
    endloop
  endfacet
  facet normal 0 -1 0
    outer loop
      vertex 38.7023 -7 -10.8056
      vertex 40.5 -7 -18
      vertex 39.0026 -7 -10.2437
    endloop
  endfacet
  facet normal -0.881922 -0 -0.471395
    outer loop
      vertex 38.7023 -7 -7.1944
      vertex 38.7023 -8.81059e-16 -7.1944
      vertex 39.0026 -7 -7.75628
    endloop
  endfacet
  facet normal 0 -1 0
    outer loop
      vertex 38.7023 -7 -7.1944
      vertex 39.0026 -7 -7.75628
      vertex 40.5 -7 8.57253e-16
    endloop
  endfacet
  facet normal -0.881922 0 -0.471395
    outer loop
      vertex 38.7023 -8.81059e-16 -7.1944
      vertex 39.0026 -9.4987e-16 -7.75628
      vertex 39.0026 -7 -7.75628
    endloop
  endfacet
  facet normal 2.44389e-23 1 -1.22465e-16
    outer loop
      vertex 38.7023 -8.81059e-16 -7.1944
      vertex 42 -6.18447e-16 -5.05
      vertex 39.0026 -9.4987e-16 -7.75628
    endloop
  endfacet
  facet normal 3.91933e-24 1 -1.22465e-16
    outer loop
      vertex 39.0026 -1.25449e-15 -10.2437
      vertex 39.1876 -1.17983e-15 -9.63404
      vertex 42 -1.58592e-15 -12.95
    endloop
  endfacet
  facet normal -0.95694 0 0.290285
    outer loop
      vertex 39.0026 -7 -10.2437
      vertex 39.1876 -1.17983e-15 -9.63404
      vertex 39.0026 -1.25449e-15 -10.2437
    endloop
  endfacet
  facet normal -0.95694 0 0.290285
    outer loop
      vertex 39.0026 -7 -10.2437
      vertex 39.1876 -7 -9.63404
      vertex 39.1876 -1.17983e-15 -9.63404
    endloop
  endfacet
  facet normal 0 -1 0
    outer loop
      vertex 39.0026 -7 -10.2437
      vertex 40.5 -7 -18
      vertex 39.1876 -7 -9.63404
    endloop
  endfacet
  facet normal -0.95694 -0 -0.290285
    outer loop
      vertex 39.0026 -7 -7.75628
      vertex 39.0026 -9.4987e-16 -7.75628
      vertex 39.1876 -7 -8.36596
    endloop
  endfacet
  facet normal 0 -1 0
    outer loop
      vertex 39.0026 -7 -7.75628
      vertex 39.1876 -7 -8.36596
      vertex 40.5 -7 8.57253e-16
    endloop
  endfacet
  facet normal -0.95694 0 -0.290285
    outer loop
      vertex 39.0026 -9.4987e-16 -7.75628
      vertex 39.1876 -1.02453e-15 -8.36596
      vertex 39.1876 -7 -8.36596
    endloop
  endfacet
  facet normal -1.77839e-23 1 -1.22465e-16
    outer loop
      vertex 39.0026 -9.4987e-16 -7.75628
      vertex 42 -6.18447e-16 -5.05
      vertex 39.1876 -1.02453e-15 -8.36596
    endloop
  endfacet
  facet normal -0.995185 0 -0.0980152
    outer loop
      vertex 39.1876 -1.02453e-15 -8.36596
      vertex 39.25 -1.10218e-15 -9
      vertex 39.25 -7 -9
    endloop
  endfacet
  facet normal -5.23741e-23 1 -1.22465e-16
    outer loop
      vertex 39.1876 -1.02453e-15 -8.36596
      vertex 42 -6.18447e-16 -5.05
      vertex 39.25 -1.10218e-15 -9
    endloop
  endfacet
  facet normal 1.73285e-23 1 -1.22465e-16
    outer loop
      vertex 39.1876 -1.17983e-15 -9.63404
      vertex 39.25 -1.10218e-15 -9
      vertex 42 -1.58592e-15 -12.95
    endloop
  endfacet
  facet normal -0.995185 -0 -0.0980152
    outer loop
      vertex 39.1876 -7 -8.36596
      vertex 39.1876 -1.02453e-15 -8.36596
      vertex 39.25 -7 -9
    endloop
  endfacet
  facet normal 0 -1 0
    outer loop
      vertex 39.1876 -7 -8.36596
      vertex 39.25 -7 -9
      vertex 40.5 -7 8.57253e-16
    endloop
  endfacet
  facet normal -0.995185 0 0.0980153
    outer loop
      vertex 39.1876 -7 -9.63404
      vertex 39.25 -1.10218e-15 -9
      vertex 39.1876 -1.17983e-15 -9.63404
    endloop
  endfacet
  facet normal -0.995185 0 0.0980153
    outer loop
      vertex 39.1876 -7 -9.63404
      vertex 39.25 -7 -9
      vertex 39.25 -1.10218e-15 -9
    endloop
  endfacet
  facet normal 0 -1 0
    outer loop
      vertex 39.1876 -7 -9.63404
      vertex 40.5 -7 -18
      vertex 39.25 -7 -9
    endloop
  endfacet
  facet normal -7.64132e-24 1 -1.22465e-16
    outer loop
      vertex 39.25 -1.10218e-15 -9
      vertex 42 -6.18447e-16 -5.05
      vertex 42 -1.58592e-15 -12.95
    endloop
  endfacet
  facet normal 0 -1 0
    outer loop
      vertex 39.25 -7 -9
      vertex 40.5 -7 -18
      vertex 40.5 -7 8.57253e-16
    endloop
  endfacet
  facet normal 0.471397 0 0.881921
    outer loop
      vertex 4.1944 -1.43312e-15 -11.7023
      vertex 4.75628 -7 -12.0026
      vertex 4.75628 -1.4699e-15 -12.0026
    endloop
  endfacet
  facet normal 0.471397 0 0.881921
    outer loop
      vertex 4.1944 -7 -11.7023
      vertex 4.75628 -7 -12.0026
      vertex 4.1944 -1.43312e-15 -11.7023
    endloop
  endfacet
  facet normal 0.471397 0 -0.881921
    outer loop
      vertex 4.1944 -7 -6.29772
      vertex 4.1944 -7.71249e-16 -6.29772
      vertex 4.75628 -7.34469e-16 -5.99739
    endloop
  endfacet
  facet normal 0.471397 0 -0.881921
    outer loop
      vertex 4.1944 -7 -6.29772
      vertex 4.75628 -7.34469e-16 -5.99739
      vertex 4.75628 -7 -5.99739
    endloop
  endfacet
  facet normal 0.290284 0 0.956941
    outer loop
      vertex 4.75628 -1.4699e-15 -12.0026
      vertex 5.36596 -7 -12.1876
      vertex 5.36596 -1.49254e-15 -12.1876
    endloop
  endfacet
  facet normal 0.290284 0 0.956941
    outer loop
      vertex 4.75628 -7 -12.0026
      vertex 5.36596 -7 -12.1876
      vertex 4.75628 -1.4699e-15 -12.0026
    endloop
  endfacet
  facet normal 0.290284 0 -0.956941
    outer loop
      vertex 4.75628 -7 -5.99739
      vertex 4.75628 -7.34469e-16 -5.99739
      vertex 5.36596 -7.1182e-16 -5.81245
    endloop
  endfacet
  facet normal 0.290284 0 -0.956941
    outer loop
      vertex 4.75628 -7 -5.99739
      vertex 5.36596 -7.1182e-16 -5.81245
      vertex 5.36596 -7 -5.81245
    endloop
  endfacet
  facet normal 0 0 -1
    outer loop
      vertex 40.5 -7 -18
      vertex 42 -0.5 -18
      vertex 42 -5.5 -18
    endloop
  endfacet
  facet normal 0.707107 -0.707107 0
    outer loop
      vertex 40.5 -7 -18
      vertex 42 -5.5 -18
      vertex 40.5 -7 8.57253e-16
    endloop
  endfacet
  facet normal 0.707107 -0.707107 0
    outer loop
      vertex 40.5 -7 8.57253e-16
      vertex 42 -5.5 -18
      vertex 42 -5.5 6.73556e-16
    endloop
  endfacet
  facet normal 1.67642e-23 1.22465e-16 1
    outer loop
      vertex 40.5 -7 8.57253e-16
      vertex 42 -5.5 6.73556e-16
      vertex 42 -0.5 6.12323e-17
    endloop
  endfacet
  facet normal 1 0 0
    outer loop
      vertex 42 -0.5 -12.95
      vertex 42 -1.58592e-15 -12.95
      vertex 42 -0.5 -5.05
    endloop
  endfacet
  facet normal 1 -0 0
    outer loop
      vertex 42 -0.5 -5.05
      vertex 42 -1.58592e-15 -12.95
      vertex 42 -6.18447e-16 -5.05
    endloop
  endfacet
  facet normal 1 0 0
    outer loop
      vertex 42 -5.5 -18
      vertex 42 -0.5 -12.95
      vertex 42 -5.5 6.73556e-16
    endloop
  endfacet
  facet normal 1 0 0
    outer loop
      vertex 42 -5.5 -18
      vertex 42 -0.5 -18
      vertex 42 -0.5 -12.95
    endloop
  endfacet
  facet normal 1 0 0
    outer loop
      vertex 42 -5.5 6.73556e-16
      vertex 42 -0.5 -12.95
      vertex 42 -0.5 -5.05
    endloop
  endfacet
  facet normal 1 0 0
    outer loop
      vertex 42 -5.5 6.73556e-16
      vertex 42 -0.5 -5.05
      vertex 42 -0.5 6.12323e-17
    endloop
  endfacet
  facet normal 0.0980183 0 0.995185
    outer loop
      vertex 5.36596 -1.49254e-15 -12.1876
      vertex 6 -7 -12.25
      vertex 6 -1.50019e-15 -12.25
    endloop
  endfacet
  facet normal 0.0980183 0 0.995185
    outer loop
      vertex 5.36596 -7 -12.1876
      vertex 6 -7 -12.25
      vertex 5.36596 -1.49254e-15 -12.1876
    endloop
  endfacet
  facet normal 0.0980167 0 -0.995185
    outer loop
      vertex 5.36596 -7 -5.81245
      vertex 5.36596 -7.1182e-16 -5.81245
      vertex 6 -7.04172e-16 -5.75
    endloop
  endfacet
  facet normal 0.0980167 0 -0.995185
    outer loop
      vertex 5.36596 -7 -5.81245
      vertex 6 -7.04172e-16 -5.75
      vertex 6 -7 -5.75
    endloop
  endfacet
  facet normal 0 1 -1.22465e-16
    outer loop
      vertex 6 -1.50019e-15 -12.25
      vertex 36 -1.50019e-15 -12.25
      vertex 42 -1.58592e-15 -12.95
    endloop
  endfacet
  facet normal 0 1 -1.22465e-16
    outer loop
      vertex 6 -1.50019e-15 -12.25
      vertex 6.63404 -1.49254e-15 -12.1876
      vertex 36 -1.50019e-15 -12.25
    endloop
  endfacet
  facet normal -0.0980181 0 0.995185
    outer loop
      vertex 6 -1.50019e-15 -12.25
      vertex 6.63404 -7 -12.1876
      vertex 6.63404 -1.49254e-15 -12.1876
    endloop
  endfacet
  facet normal -0.0980181 0 0.995185
    outer loop
      vertex 6 -7 -12.25
      vertex 6.63404 -7 -12.1876
      vertex 6 -1.50019e-15 -12.25
    endloop
  endfacet
  facet normal -0.0980168 0 -0.995185
    outer loop
      vertex 6 -7 -5.75
      vertex 6 -7.04172e-16 -5.75
      vertex 6.63404 -7.1182e-16 -5.81245
    endloop
  endfacet
  facet normal -0.0980168 0 -0.995185
    outer loop
      vertex 6 -7 -5.75
      vertex 6.63404 -7.1182e-16 -5.81245
      vertex 6.63404 -7 -5.81245
    endloop
  endfacet
  facet normal 0 1 -1.22465e-16
    outer loop
      vertex 6 -7.04172e-16 -5.75
      vertex 35.366 -7.1182e-16 -5.81245
      vertex 6.63404 -7.1182e-16 -5.81245
    endloop
  endfacet
  facet normal 0 1 -1.22465e-16
    outer loop
      vertex 6 -7.04172e-16 -5.75
      vertex 36 -7.04172e-16 -5.75
      vertex 35.366 -7.1182e-16 -5.81245
    endloop
  endfacet
  facet normal 0 1 -1.22465e-16
    outer loop
      vertex 6.63404 -1.49254e-15 -12.1876
      vertex 35.366 -1.49254e-15 -12.1876
      vertex 36 -1.50019e-15 -12.25
    endloop
  endfacet
  facet normal 0 1 -1.22465e-16
    outer loop
      vertex 6.63404 -1.49254e-15 -12.1876
      vertex 7.24372 -1.4699e-15 -12.0026
      vertex 35.366 -1.49254e-15 -12.1876
    endloop
  endfacet
  facet normal -0.290284 0 0.956941
    outer loop
      vertex 6.63404 -1.49254e-15 -12.1876
      vertex 7.24372 -7 -12.0026
      vertex 7.24372 -1.4699e-15 -12.0026
    endloop
  endfacet
  facet normal 0 -1 0
    outer loop
      vertex 6.63404 -7 -12.1876
      vertex 13 -7 -18
      vertex 7.24372 -7 -12.0026
    endloop
  endfacet
  facet normal -0.290284 0 0.956941
    outer loop
      vertex 6.63404 -7 -12.1876
      vertex 7.24372 -7 -12.0026
      vertex 6.63404 -1.49254e-15 -12.1876
    endloop
  endfacet
  facet normal -0.290284 0 -0.956941
    outer loop
      vertex 6.63404 -7 -5.81245
      vertex 6.63404 -7.1182e-16 -5.81245
      vertex 7.24372 -7.34469e-16 -5.99739
    endloop
  endfacet
  facet normal 0 -1 0
    outer loop
      vertex 6.63404 -7 -5.81245
      vertex 7.24372 -7 -5.99739
      vertex 13 -7 8.57253e-16
    endloop
  endfacet
  facet normal -0.290284 0 -0.956941
    outer loop
      vertex 6.63404 -7 -5.81245
      vertex 7.24372 -7.34469e-16 -5.99739
      vertex 7.24372 -7 -5.99739
    endloop
  endfacet
  facet normal 0 1 -1.22464e-16
    outer loop
      vertex 6.63404 -7.1182e-16 -5.81245
      vertex 34.7563 -7.34469e-16 -5.99739
      vertex 7.24372 -7.34469e-16 -5.99739
    endloop
  endfacet
  facet normal 0 1 -1.22464e-16
    outer loop
      vertex 6.63404 -7.1182e-16 -5.81245
      vertex 35.366 -7.1182e-16 -5.81245
      vertex 34.7563 -7.34469e-16 -5.99739
    endloop
  endfacet
  facet normal 0 1 -1.22465e-16
    outer loop
      vertex 7.24372 -1.4699e-15 -12.0026
      vertex 34.7563 -1.4699e-15 -12.0026
      vertex 35.366 -1.49254e-15 -12.1876
    endloop
  endfacet
  facet normal 0 1 -1.22465e-16
    outer loop
      vertex 7.24372 -1.4699e-15 -12.0026
      vertex 7.8056 -1.43312e-15 -11.7023
      vertex 34.7563 -1.4699e-15 -12.0026
    endloop
  endfacet
  facet normal -0.471397 0 0.881921
    outer loop
      vertex 7.24372 -1.4699e-15 -12.0026
      vertex 7.8056 -7 -11.7023
      vertex 7.8056 -1.43312e-15 -11.7023
    endloop
  endfacet
  facet normal 0 -1 0
    outer loop
      vertex 7.24372 -7 -12.0026
      vertex 13 -7 -18
      vertex 7.8056 -7 -11.7023
    endloop
  endfacet
  facet normal -0.471397 0 0.881921
    outer loop
      vertex 7.24372 -7 -12.0026
      vertex 7.8056 -7 -11.7023
      vertex 7.24372 -1.4699e-15 -12.0026
    endloop
  endfacet
  facet normal -0.471397 0 -0.881921
    outer loop
      vertex 7.24372 -7 -5.99739
      vertex 7.24372 -7.34469e-16 -5.99739
      vertex 7.8056 -7.71249e-16 -6.29772
    endloop
  endfacet
  facet normal 0 -1 0
    outer loop
      vertex 7.24372 -7 -5.99739
      vertex 7.8056 -7 -6.29772
      vertex 13 -7 8.57253e-16
    endloop
  endfacet
  facet normal -0.471397 0 -0.881921
    outer loop
      vertex 7.24372 -7 -5.99739
      vertex 7.8056 -7.71249e-16 -6.29772
      vertex 7.8056 -7 -6.29772
    endloop
  endfacet
  facet normal 0 1 -1.22465e-16
    outer loop
      vertex 7.24372 -7.34469e-16 -5.99739
      vertex 34.1944 -7.71249e-16 -6.29772
      vertex 7.8056 -7.71249e-16 -6.29772
    endloop
  endfacet
  facet normal 0 1 -1.22465e-16
    outer loop
      vertex 7.24372 -7.34469e-16 -5.99739
      vertex 34.7563 -7.34469e-16 -5.99739
      vertex 34.1944 -7.71249e-16 -6.29772
    endloop
  endfacet
  facet normal 0 1 -1.22465e-16
    outer loop
      vertex 7.8056 -1.43312e-15 -11.7023
      vertex 34.1944 -1.43312e-15 -11.7023
      vertex 34.7563 -1.4699e-15 -12.0026
    endloop
  endfacet
  facet normal 0 1 -1.22464e-16
    outer loop
      vertex 7.8056 -1.43312e-15 -11.7023
      vertex 8.2981 -1.38362e-15 -11.2981
      vertex 34.1944 -1.43312e-15 -11.7023
    endloop
  endfacet
  facet normal -0.634394 0 0.77301
    outer loop
      vertex 7.8056 -1.43312e-15 -11.7023
      vertex 8.2981 -7 -11.2981
      vertex 8.2981 -1.38362e-15 -11.2981
    endloop
  endfacet
  facet normal 0 -1 0
    outer loop
      vertex 7.8056 -7 -11.7023
      vertex 13 -7 -18
      vertex 8.2981 -7 -11.2981
    endloop
  endfacet
  facet normal -0.634394 0 0.77301
    outer loop
      vertex 7.8056 -7 -11.7023
      vertex 8.2981 -7 -11.2981
      vertex 7.8056 -1.43312e-15 -11.7023
    endloop
  endfacet
  facet normal -0.634394 0 -0.77301
    outer loop
      vertex 7.8056 -7 -6.29772
      vertex 7.8056 -7.71249e-16 -6.29772
      vertex 8.2981 -8.20746e-16 -6.7019
    endloop
  endfacet
  facet normal 0 -1 0
    outer loop
      vertex 7.8056 -7 -6.29772
      vertex 8.2981 -7 -6.7019
      vertex 13 -7 8.57253e-16
    endloop
  endfacet
  facet normal -0.634394 0 -0.77301
    outer loop
      vertex 7.8056 -7 -6.29772
      vertex 8.2981 -8.20746e-16 -6.7019
      vertex 8.2981 -7 -6.7019
    endloop
  endfacet
  facet normal 0 1 -1.22465e-16
    outer loop
      vertex 7.8056 -7.71249e-16 -6.29772
      vertex 33.7019 -8.20746e-16 -6.7019
      vertex 8.2981 -8.20746e-16 -6.7019
    endloop
  endfacet
  facet normal 0 1 -1.22465e-16
    outer loop
      vertex 7.8056 -7.71249e-16 -6.29772
      vertex 34.1944 -7.71249e-16 -6.29772
      vertex 33.7019 -8.20746e-16 -6.7019
    endloop
  endfacet
  facet normal 0 1 -1.22464e-16
    outer loop
      vertex 8.2981 -1.38362e-15 -11.2981
      vertex 33.7019 -1.38362e-15 -11.2981
      vertex 34.1944 -1.43312e-15 -11.7023
    endloop
  endfacet
  facet normal 0 1 -1.22465e-16
    outer loop
      vertex 8.2981 -1.38362e-15 -11.2981
      vertex 8.70228 -1.3233e-15 -10.8056
      vertex 33.7019 -1.38362e-15 -11.2981
    endloop
  endfacet
  facet normal 0 -1 0
    outer loop
      vertex 8.2981 -7 -11.2981
      vertex 13 -7 -18
      vertex 8.70228 -7 -10.8056
    endloop
  endfacet
  facet normal -0.77301 0 0.634394
    outer loop
      vertex 8.2981 -7 -11.2981
      vertex 8.70228 -1.3233e-15 -10.8056
      vertex 8.2981 -1.38362e-15 -11.2981
    endloop
  endfacet
  facet normal -0.77301 0 0.634394
    outer loop
      vertex 8.2981 -7 -11.2981
      vertex 8.70228 -7 -10.8056
      vertex 8.70228 -1.3233e-15 -10.8056
    endloop
  endfacet
  facet normal -0.77301 -0 -0.634394
    outer loop
      vertex 8.2981 -7 -6.7019
      vertex 8.2981 -8.20746e-16 -6.7019
      vertex 8.70228 -7 -7.1944
    endloop
  endfacet
  facet normal 0 -1 0
    outer loop
      vertex 8.2981 -7 -6.7019
      vertex 8.70228 -7 -7.1944
      vertex 13 -7 8.57253e-16
    endloop
  endfacet
  facet normal 0 1 -1.22465e-16
    outer loop
      vertex 8.2981 -8.20746e-16 -6.7019
      vertex 33.2977 -8.81059e-16 -7.1944
      vertex 8.70228 -8.81059e-16 -7.1944
    endloop
  endfacet
  facet normal 0 1 -1.22465e-16
    outer loop
      vertex 8.2981 -8.20746e-16 -6.7019
      vertex 33.7019 -8.20746e-16 -6.7019
      vertex 33.2977 -8.81059e-16 -7.1944
    endloop
  endfacet
  facet normal -0.77301 0 -0.634394
    outer loop
      vertex 8.2981 -8.20746e-16 -6.7019
      vertex 8.70228 -8.81059e-16 -7.1944
      vertex 8.70228 -7 -7.1944
    endloop
  endfacet
  facet normal 0 1 -1.22465e-16
    outer loop
      vertex 8.70228 -1.3233e-15 -10.8056
      vertex 33.2977 -1.3233e-15 -10.8056
      vertex 33.7019 -1.38362e-15 -11.2981
    endloop
  endfacet
  facet normal 0 1 -1.22465e-16
    outer loop
      vertex 8.70228 -1.3233e-15 -10.8056
      vertex 9.00261 -1.25449e-15 -10.2437
      vertex 33.2977 -1.3233e-15 -10.8056
    endloop
  endfacet
  facet normal 0 -1 0
    outer loop
      vertex 8.70228 -7 -10.8056
      vertex 13 -7 -18
      vertex 9.00261 -7 -10.2437
    endloop
  endfacet
  facet normal -0.881921 0 0.471397
    outer loop
      vertex 8.70228 -7 -10.8056
      vertex 9.00261 -1.25449e-15 -10.2437
      vertex 8.70228 -1.3233e-15 -10.8056
    endloop
  endfacet
  facet normal -0.881921 0 0.471397
    outer loop
      vertex 8.70228 -7 -10.8056
      vertex 9.00261 -7 -10.2437
      vertex 9.00261 -1.25449e-15 -10.2437
    endloop
  endfacet
  facet normal -0.881921 -0 -0.471397
    outer loop
      vertex 8.70228 -7 -7.1944
      vertex 8.70228 -8.81059e-16 -7.1944
      vertex 9.00261 -7 -7.75628
    endloop
  endfacet
  facet normal 0 -1 0
    outer loop
      vertex 8.70228 -7 -7.1944
      vertex 9.00261 -7 -7.75628
      vertex 13 -7 8.57253e-16
    endloop
  endfacet
  facet normal 0 1 -1.22465e-16
    outer loop
      vertex 8.70228 -8.81059e-16 -7.1944
      vertex 32.9974 -9.4987e-16 -7.75628
      vertex 9.00261 -9.4987e-16 -7.75628
    endloop
  endfacet
  facet normal 0 1 -1.22465e-16
    outer loop
      vertex 8.70228 -8.81059e-16 -7.1944
      vertex 33.2977 -8.81059e-16 -7.1944
      vertex 32.9974 -9.4987e-16 -7.75628
    endloop
  endfacet
  facet normal -0.881921 0 -0.471397
    outer loop
      vertex 8.70228 -8.81059e-16 -7.1944
      vertex 9.00261 -9.4987e-16 -7.75628
      vertex 9.00261 -7 -7.75628
    endloop
  endfacet
  facet normal 0 1 -1.22465e-16
    outer loop
      vertex 9.00261 -1.25449e-15 -10.2437
      vertex 32.9974 -1.25449e-15 -10.2437
      vertex 33.2977 -1.3233e-15 -10.8056
    endloop
  endfacet
  facet normal 0 1 -1.22465e-16
    outer loop
      vertex 9.00261 -1.25449e-15 -10.2437
      vertex 9.18755 -1.17983e-15 -9.63404
      vertex 32.9974 -1.25449e-15 -10.2437
    endloop
  endfacet
  facet normal 0 -1 0
    outer loop
      vertex 9.00261 -7 -10.2437
      vertex 13 -7 -18
      vertex 9.18755 -7 -9.63404
    endloop
  endfacet
  facet normal -0.956941 0 0.290284
    outer loop
      vertex 9.00261 -7 -10.2437
      vertex 9.18755 -1.17983e-15 -9.63404
      vertex 9.00261 -1.25449e-15 -10.2437
    endloop
  endfacet
  facet normal -0.956941 0 0.290284
    outer loop
      vertex 9.00261 -7 -10.2437
      vertex 9.18755 -7 -9.63404
      vertex 9.18755 -1.17983e-15 -9.63404
    endloop
  endfacet
  facet normal -0.956941 -0 -0.290284
    outer loop
      vertex 9.00261 -7 -7.75628
      vertex 9.00261 -9.4987e-16 -7.75628
      vertex 9.18755 -7 -8.36596
    endloop
  endfacet
  facet normal 0 -1 0
    outer loop
      vertex 9.00261 -7 -7.75628
      vertex 9.18755 -7 -8.36596
      vertex 13 -7 8.57253e-16
    endloop
  endfacet
  facet normal 0 1 -1.22465e-16
    outer loop
      vertex 9.00261 -9.4987e-16 -7.75628
      vertex 32.8124 -1.02453e-15 -8.36596
      vertex 9.18755 -1.02453e-15 -8.36596
    endloop
  endfacet
  facet normal 0 1 -1.22465e-16
    outer loop
      vertex 9.00261 -9.4987e-16 -7.75628
      vertex 32.9974 -9.4987e-16 -7.75628
      vertex 32.8124 -1.02453e-15 -8.36596
    endloop
  endfacet
  facet normal -0.956941 0 -0.290284
    outer loop
      vertex 9.00261 -9.4987e-16 -7.75628
      vertex 9.18755 -1.02453e-15 -8.36596
      vertex 9.18755 -7 -8.36596
    endloop
  endfacet
  facet normal 0 1 -1.22465e-16
    outer loop
      vertex 9.18755 -1.02453e-15 -8.36596
      vertex 32.75 -1.10218e-15 -9
      vertex 9.25 -1.10218e-15 -9
    endloop
  endfacet
  facet normal 0 1 -1.22465e-16
    outer loop
      vertex 9.18755 -1.02453e-15 -8.36596
      vertex 32.8124 -1.02453e-15 -8.36596
      vertex 32.75 -1.10218e-15 -9
    endloop
  endfacet
  facet normal -0.995185 0 -0.0980181
    outer loop
      vertex 9.18755 -1.02453e-15 -8.36596
      vertex 9.25 -1.10218e-15 -9
      vertex 9.25 -7 -9
    endloop
  endfacet
  facet normal 0 1 -1.22465e-16
    outer loop
      vertex 9.18755 -1.17983e-15 -9.63404
      vertex 32.8124 -1.17983e-15 -9.63404
      vertex 32.9974 -1.25449e-15 -10.2437
    endloop
  endfacet
  facet normal 0 1 -1.22465e-16
    outer loop
      vertex 9.18755 -1.17983e-15 -9.63404
      vertex 9.25 -1.10218e-15 -9
      vertex 32.8124 -1.17983e-15 -9.63404
    endloop
  endfacet
  facet normal -0.995185 -0 -0.0980181
    outer loop
      vertex 9.18755 -7 -8.36596
      vertex 9.18755 -1.02453e-15 -8.36596
      vertex 9.25 -7 -9
    endloop
  endfacet
  facet normal 0 -1 0
    outer loop
      vertex 9.18755 -7 -8.36596
      vertex 9.25 -7 -9
      vertex 13 -7 8.57253e-16
    endloop
  endfacet
  facet normal 0 -1 0
    outer loop
      vertex 9.18755 -7 -9.63404
      vertex 13 -7 -18
      vertex 9.25 -7 -9
    endloop
  endfacet
  facet normal -0.995185 0 0.0980183
    outer loop
      vertex 9.18755 -7 -9.63404
      vertex 9.25 -1.10218e-15 -9
      vertex 9.18755 -1.17983e-15 -9.63404
    endloop
  endfacet
  facet normal -0.995185 0 0.0980183
    outer loop
      vertex 9.18755 -7 -9.63404
      vertex 9.25 -7 -9
      vertex 9.25 -1.10218e-15 -9
    endloop
  endfacet
  facet normal 0 1 -1.22465e-16
    outer loop
      vertex 9.25 -1.10218e-15 -9
      vertex 32.75 -1.10218e-15 -9
      vertex 32.8124 -1.17983e-15 -9.63404
    endloop
  endfacet
  facet normal 0 -1 0
    outer loop
      vertex 9.25 -7 -9
      vertex 13 -7 -18
      vertex 13 -7 8.57253e-16
    endloop
  endfacet
endsolid model
