solid OpenSCAD_Model
  facet normal -1 0 0
    outer loop
      vertex 0 7.5 0
      vertex 0 4 4
      vertex 0 7.5 4
    endloop
  endfacet
  facet normal -1 0 0
    outer loop
      vertex 0 2.5 0
      vertex 0 4 4
      vertex 0 7.5 0
    endloop
  endfacet
  facet normal -1 0 0
    outer loop
      vertex 0 2.5 10
      vertex 0 4 4
      vertex 0 2.5 0
    endloop
  endfacet
  facet normal -1 0 0
    outer loop
      vertex 0 4 4
      vertex 0 2.5 10
      vertex 0 4 10
    endloop
  endfacet
  facet normal -1 0 0
    outer loop
      vertex 0 22.5 0
      vertex 0 16 4
      vertex 0 22.5 10
    endloop
  endfacet
  facet normal -1 0 0
    outer loop
      vertex 0 12.5 0
      vertex 0 16 4
      vertex 0 22.5 0
    endloop
  endfacet
  facet normal -1 -0 0
    outer loop
      vertex 0 16 4
      vertex 0 12.5 0
      vertex 0 12.5 4
    endloop
  endfacet
  facet normal -1 -0 0
    outer loop
      vertex 0 22.5 10
      vertex 0 16 4
      vertex 0 16 10
    endloop
  endfacet
  facet normal 0 0 1
    outer loop
      vertex 55 4.03287 10
      vertex 54.3728 4.03287 10
      vertex 55 4 10
    endloop
  endfacet
  facet normal -0 0 1
    outer loop
      vertex 55 4 10
      vertex 60 2.5 10
      vertex 60 4 10
    endloop
  endfacet
  facet normal 0 0 1
    outer loop
      vertex 60 2.5 10
      vertex 55 4 10
      vertex 57.5 0 10
    endloop
  endfacet
  facet normal 0 0 1
    outer loop
      vertex 54.3728 4.03287 10
      vertex 57.5 0 10
      vertex 55 4 10
    endloop
  endfacet
  facet normal 0 0 1
    outer loop
      vertex 53.1459 4.29366 10
      vertex 57.5 0 10
      vertex 54.3728 4.03287 10
    endloop
  endfacet
  facet normal 0 0 1
    outer loop
      vertex 52 4.80385 10
      vertex 57.5 0 10
      vertex 53.1459 4.29366 10
    endloop
  endfacet
  facet normal 0 0 1
    outer loop
      vertex 38.5 0 10
      vertex 52 4.80385 10
      vertex 50.9852 5.54113 10
    endloop
  endfacet
  facet normal 0 0 1
    outer loop
      vertex 38.5 9.9 10
      vertex 49 10 10
      vertex 38.5 10 10
    endloop
  endfacet
  facet normal 0 0 1
    outer loop
      vertex 49 10 10
      vertex 38.5 9.9 10
      vertex 49.1311 8.75253 10
    endloop
  endfacet
  facet normal 0 0 1
    outer loop
      vertex 49.1311 8.75253 10
      vertex 38.5 9.9 10
      vertex 49.5187 7.55958 10
    endloop
  endfacet
  facet normal 0 0 1
    outer loop
      vertex 38.5 0 10
      vertex 49.5187 7.55958 10
      vertex 38.5 9.9 10
    endloop
  endfacet
  facet normal 0 0 1
    outer loop
      vertex 49.5187 7.55958 10
      vertex 38.5 0 10
      vertex 50.1459 6.47329 10
    endloop
  endfacet
  facet normal 0 0 1
    outer loop
      vertex 50.1459 6.47329 10
      vertex 38.5 0 10
      vertex 50.9852 5.54113 10
    endloop
  endfacet
  facet normal 0 0 1
    outer loop
      vertex 52 4.80385 10
      vertex 38.5 0 10
      vertex 57.5 0 10
    endloop
  endfacet
  facet normal 0 0 1
    outer loop
      vertex 38.5 10 10
      vertex 38.4895 9.9 10
      vertex 38.5 9.9 10
    endloop
  endfacet
  facet normal 0 0 1
    outer loop
      vertex 55 16 10
      vertex 60 22.5 10
      vertex 57.5 25 10
    endloop
  endfacet
  facet normal 0 0 1
    outer loop
      vertex 60 22.5 10
      vertex 55 16 10
      vertex 60 16 10
    endloop
  endfacet
  facet normal 0 0 1
    outer loop
      vertex 55 16 10
      vertex 54.3728 15.9671 10
      vertex 55 15.9671 10
    endloop
  endfacet
  facet normal 0 0 1
    outer loop
      vertex 57.5 25 10
      vertex 54.3728 15.9671 10
      vertex 55 16 10
    endloop
  endfacet
  facet normal 0 0 1
    outer loop
      vertex 57.5 25 10
      vertex 53.1459 15.7063 10
      vertex 54.3728 15.9671 10
    endloop
  endfacet
  facet normal 0 0 1
    outer loop
      vertex 57.5 25 10
      vertex 52 15.1962 10
      vertex 53.1459 15.7063 10
    endloop
  endfacet
  facet normal -0 0 1
    outer loop
      vertex 35.6876 16.3167 10
      vertex 52 15.1962 10
      vertex 57.5 25 10
    endloop
  endfacet
  facet normal 0 0 1
    outer loop
      vertex 52 15.1962 10
      vertex 35.6876 16.3167 10
      vertex 50.9852 14.4589 10
    endloop
  endfacet
  facet normal 0 0 1
    outer loop
      vertex 49.1311 11.2475 10
      vertex 38.5 10 10
      vertex 49 10 10
    endloop
  endfacet
  facet normal -0 0 1
    outer loop
      vertex 38.3143 11.7672 10
      vertex 49.1311 11.2475 10
      vertex 49.5187 12.4404 10
    endloop
  endfacet
  facet normal -0 0 1
    outer loop
      vertex 37.7651 13.4573 10
      vertex 49.5187 12.4404 10
      vertex 50.1459 13.5267 10
    endloop
  endfacet
  facet normal -0 -0 1
    outer loop
      vertex 36.8766 14.9962 10
      vertex 50.9852 14.4589 10
      vertex 35.6876 16.3167 10
    endloop
  endfacet
  facet normal 0 0 1
    outer loop
      vertex 49.1311 11.2475 10
      vertex 38.3143 11.7672 10
      vertex 38.5 10 10
    endloop
  endfacet
  facet normal 0 0 1
    outer loop
      vertex 49.5187 12.4404 10
      vertex 37.7651 13.4573 10
      vertex 38.3143 11.7672 10
    endloop
  endfacet
  facet normal 0 0 1
    outer loop
      vertex 50.1459 13.5267 10
      vertex 36.8766 14.9962 10
      vertex 37.7651 13.4573 10
    endloop
  endfacet
  facet normal 0 0 1
    outer loop
      vertex 50.9852 14.4589 10
      vertex 36.8766 14.9962 10
      vertex 50.1459 13.5267 10
    endloop
  endfacet
  facet normal 0 0 1
    outer loop
      vertex 57.5 25 10
      vertex 34.25 17.3612 10
      vertex 35.6876 16.3167 10
    endloop
  endfacet
  facet normal 0 0 1
    outer loop
      vertex 57.5 25 10
      vertex 32.6266 18.084 10
      vertex 34.25 17.3612 10
    endloop
  endfacet
  facet normal 0 0 1
    outer loop
      vertex 57.5 25 10
      vertex 30.8885 18.4534 10
      vertex 32.6266 18.084 10
    endloop
  endfacet
  facet normal 0 0 1
    outer loop
      vertex 57.5 25 10
      vertex 29.1115 18.4534 10
      vertex 30.8885 18.4534 10
    endloop
  endfacet
  facet normal -0 0 1
    outer loop
      vertex 2.5 25 10
      vertex 29.1115 18.4534 10
      vertex 57.5 25 10
    endloop
  endfacet
  facet normal -0 0 1
    outer loop
      vertex 11 10 10
      vertex 21.5 9.9 10
      vertex 21.5 10 10
    endloop
  endfacet
  facet normal 0 0 1
    outer loop
      vertex 21.5 9.9 10
      vertex 11 10 10
      vertex 10.8689 8.75253 10
    endloop
  endfacet
  facet normal -0 0 1
    outer loop
      vertex 10.8689 11.2475 10
      vertex 21.5 10 10
      vertex 21.6857 11.7672 10
    endloop
  endfacet
  facet normal -0 0 1
    outer loop
      vertex 10.4813 12.4404 10
      vertex 21.6857 11.7672 10
      vertex 22.2349 13.4573 10
    endloop
  endfacet
  facet normal -0 0 1
    outer loop
      vertex 9.8541 13.5267 10
      vertex 22.2349 13.4573 10
      vertex 23.1234 14.9962 10
    endloop
  endfacet
  facet normal 0 0 1
    outer loop
      vertex 9.01478 14.4589 10
      vertex 23.1234 14.9962 10
      vertex 24.3124 16.3167 10
    endloop
  endfacet
  facet normal 0 0 1
    outer loop
      vertex 2.5 25 10
      vertex 24.3124 16.3167 10
      vertex 25.75 17.3612 10
    endloop
  endfacet
  facet normal 0 0 1
    outer loop
      vertex 21.5 10 10
      vertex 10.8689 11.2475 10
      vertex 11 10 10
    endloop
  endfacet
  facet normal 0 0 1
    outer loop
      vertex 2.5 25 10
      vertex 25.75 17.3612 10
      vertex 27.3734 18.084 10
    endloop
  endfacet
  facet normal 0 0 1
    outer loop
      vertex 21.6857 11.7672 10
      vertex 10.4813 12.4404 10
      vertex 10.8689 11.2475 10
    endloop
  endfacet
  facet normal 0 0 1
    outer loop
      vertex 22.2349 13.4573 10
      vertex 9.8541 13.5267 10
      vertex 10.4813 12.4404 10
    endloop
  endfacet
  facet normal 0 0 1
    outer loop
      vertex 23.1234 14.9962 10
      vertex 9.01478 14.4589 10
      vertex 9.8541 13.5267 10
    endloop
  endfacet
  facet normal 0 0 1
    outer loop
      vertex 29.1115 18.4534 10
      vertex 2.5 25 10
      vertex 27.3734 18.084 10
    endloop
  endfacet
  facet normal 0 0 1
    outer loop
      vertex 24.3124 16.3167 10
      vertex 2.5 25 10
      vertex 8 15.1962 10
    endloop
  endfacet
  facet normal 0 0 1
    outer loop
      vertex 24.3124 16.3167 10
      vertex 8 15.1962 10
      vertex 9.01478 14.4589 10
    endloop
  endfacet
  facet normal 0 0 1
    outer loop
      vertex 8 15.1962 10
      vertex 2.5 25 10
      vertex 6.8541 15.7063 10
    endloop
  endfacet
  facet normal 0 0 1
    outer loop
      vertex 6.8541 15.7063 10
      vertex 2.5 25 10
      vertex 5.9 16 10
    endloop
  endfacet
  facet normal -0 0 1
    outer loop
      vertex 0 22.5 10
      vertex 5.9 16 10
      vertex 2.5 25 10
    endloop
  endfacet
  facet normal 0 0 1
    outer loop
      vertex 5.9 16 10
      vertex 0 22.5 10
      vertex 0 16 10
    endloop
  endfacet
  facet normal 0 0 1
    outer loop
      vertex 21.5105 9.9 10
      vertex 21.5 10 10
      vertex 21.5 9.9 10
    endloop
  endfacet
  facet normal 0 0 1
    outer loop
      vertex 21.5 9.9 10
      vertex 10.8689 8.75253 10
      vertex 10.4813 7.55958 10
    endloop
  endfacet
  facet normal 0 0 1
    outer loop
      vertex 21.5 9.9 10
      vertex 10.4813 7.55958 10
      vertex 21.5 0 10
    endloop
  endfacet
  facet normal -0 0 1
    outer loop
      vertex 9.8541 6.47329 10
      vertex 21.5 0 10
      vertex 10.4813 7.55958 10
    endloop
  endfacet
  facet normal -0 0 1
    outer loop
      vertex 9.01478 5.54113 10
      vertex 21.5 0 10
      vertex 9.8541 6.47329 10
    endloop
  endfacet
  facet normal -0 0 1
    outer loop
      vertex 8 4.80385 10
      vertex 21.5 0 10
      vertex 9.01478 5.54113 10
    endloop
  endfacet
  facet normal 0 0 1
    outer loop
      vertex 2.5 0 10
      vertex 8 4.80385 10
      vertex 6.8541 4.29366 10
    endloop
  endfacet
  facet normal 0 0 1
    outer loop
      vertex 5.9 4 10
      vertex 6.8541 4.29366 10
      vertex 5.9 4.09086 10
    endloop
  endfacet
  facet normal 0 0 1
    outer loop
      vertex 2.5 0 10
      vertex 6.8541 4.29366 10
      vertex 5.9 4 10
    endloop
  endfacet
  facet normal 0 0 1
    outer loop
      vertex 8 4.80385 10
      vertex 2.5 0 10
      vertex 21.5 0 10
    endloop
  endfacet
  facet normal 0 0 1
    outer loop
      vertex 0 2.5 10
      vertex 5.9 4 10
      vertex 0 4 10
    endloop
  endfacet
  facet normal 0 0 1
    outer loop
      vertex 5.9 4 10
      vertex 0 2.5 10
      vertex 2.5 0 10
    endloop
  endfacet
  facet normal 0 0 1
    outer loop
      vertex 6.8541 15.7063 10
      vertex 5.9 16 10
      vertex 5.9 15.9091 10
    endloop
  endfacet
  facet normal 1 0 0
    outer loop
      vertex 60 4 10
      vertex 60 2.5 10
      vertex 60 4 4
    endloop
  endfacet
  facet normal 1 -0 0
    outer loop
      vertex 60 4 4
      vertex 60 7.5 0
      vertex 60 7.5 4
    endloop
  endfacet
  facet normal 1 0 0
    outer loop
      vertex 60 4 4
      vertex 60 2.5 0
      vertex 60 7.5 0
    endloop
  endfacet
  facet normal 1 0 0
    outer loop
      vertex 60 2.5 0
      vertex 60 4 4
      vertex 60 2.5 10
    endloop
  endfacet
  facet normal 1 0 0
    outer loop
      vertex 60 16 4
      vertex 60 22.5 10
      vertex 60 16 10
    endloop
  endfacet
  facet normal 1 0 0
    outer loop
      vertex 60 22.5 10
      vertex 60 16 4
      vertex 60 22.5 0
    endloop
  endfacet
  facet normal 1 0 0
    outer loop
      vertex 60 12.5 0
      vertex 60 16 4
      vertex 60 12.5 4
    endloop
  endfacet
  facet normal 1 0 0
    outer loop
      vertex 60 16 4
      vertex 60 12.5 0
      vertex 60 22.5 0
    endloop
  endfacet
  facet normal 0 1 -0
    outer loop
      vertex 57.5 25 0
      vertex 2.5 25 10
      vertex 57.5 25 10
    endloop
  endfacet
  facet normal 0 1 0
    outer loop
      vertex 2.5 25 10
      vertex 57.5 25 0
      vertex 2.5 25 0
    endloop
  endfacet
  facet normal 0 0 -1
    outer loop
      vertex 7.28386 8.98316 0
      vertex 23.9 9.9 0
      vertex 23.9 0 0
    endloop
  endfacet
  facet normal 0 -0 -1
    outer loop
      vertex 7.44537 9.48022 0
      vertex 23.9 9.9 0
      vertex 7.28386 8.98316 0
    endloop
  endfacet
  facet normal 0 0 -1
    outer loop
      vertex 23.9 9.9 0
      vertex 7.5 10 0
      vertex 23.9 10 0
    endloop
  endfacet
  facet normal 0 -0 -1
    outer loop
      vertex 7.5 10 0
      vertex 23.9 9.9 0
      vertex 7.44537 9.48022 0
    endloop
  endfacet
  facet normal 0 0 -1
    outer loop
      vertex 23.9 0 0
      vertex 7.02254 8.53054 0
      vertex 7.28386 8.98316 0
    endloop
  endfacet
  facet normal 0 0 -1
    outer loop
      vertex 23.9 0 0
      vertex 6.67283 8.14214 0
      vertex 7.02254 8.53054 0
    endloop
  endfacet
  facet normal 0 0 -1
    outer loop
      vertex 2.5 0 0
      vertex 6.67283 8.14214 0
      vertex 23.9 0 0
    endloop
  endfacet
  facet normal 0 0 -1
    outer loop
      vertex 6.67283 8.14214 0
      vertex 5.9 7.5 0
      vertex 6.25 7.83494 0
    endloop
  endfacet
  facet normal 0 0 -1
    outer loop
      vertex 6.67283 8.14214 0
      vertex 2.5 0 0
      vertex 5.9 7.5 0
    endloop
  endfacet
  facet normal 0 0 -1
    outer loop
      vertex 0 2.5 0
      vertex 5.9 7.5 0
      vertex 2.5 0 0
    endloop
  endfacet
  facet normal -0 0 -1
    outer loop
      vertex 5.9 7.5 0
      vertex 0 2.5 0
      vertex 0 7.5 0
    endloop
  endfacet
  facet normal 0 0 -1
    outer loop
      vertex 23.9105 9.9 0
      vertex 23.9 9.9 0
      vertex 23.9 10 0
    endloop
  endfacet
  facet normal 0 0 -1
    outer loop
      vertex 54 7.5 0
      vertex 60 2.5 0
      vertex 57.5 0 0
    endloop
  endfacet
  facet normal 0 0 -1
    outer loop
      vertex 60 2.5 0
      vertex 54 7.5 0
      vertex 60 7.5 0
    endloop
  endfacet
  facet normal 0 0 -1
    outer loop
      vertex 54 7.5 0
      vertex 53.75 7.83494 0
      vertex 54 7.72363 0
    endloop
  endfacet
  facet normal 0 0 -1
    outer loop
      vertex 36.1 0 0
      vertex 54 7.5 0
      vertex 57.5 0 0
    endloop
  endfacet
  facet normal 0 0 -1
    outer loop
      vertex 54 7.5 0
      vertex 53.3272 8.14214 0
      vertex 53.75 7.83494 0
    endloop
  endfacet
  facet normal -0 0 -1
    outer loop
      vertex 54 7.5 0
      vertex 36.1 0 0
      vertex 53.3272 8.14214 0
    endloop
  endfacet
  facet normal -0 0 -1
    outer loop
      vertex 53.3272 8.14214 0
      vertex 36.1 0 0
      vertex 52.9775 8.53054 0
    endloop
  endfacet
  facet normal 0 0 -1
    outer loop
      vertex 52.7161 8.98316 0
      vertex 36.1 9.9 0
      vertex 52.5546 9.48022 0
    endloop
  endfacet
  facet normal 0 0 -1
    outer loop
      vertex 36.1 9.9 0
      vertex 52.7161 8.98316 0
      vertex 36.1 0 0
    endloop
  endfacet
  facet normal -0 0 -1
    outer loop
      vertex 52.9775 8.53054 0
      vertex 36.1 0 0
      vertex 52.7161 8.98316 0
    endloop
  endfacet
  facet normal -0 0 -1
    outer loop
      vertex 54 12.2764 0
      vertex 53.75 12.1651 0
      vertex 54 12.5 0
    endloop
  endfacet
  facet normal 0 0 -1
    outer loop
      vertex 54 12.5 0
      vertex 60 22.5 0
      vertex 60 12.5 0
    endloop
  endfacet
  facet normal -0 0 -1
    outer loop
      vertex 60 22.5 0
      vertex 54 12.5 0
      vertex 57.5 25 0
    endloop
  endfacet
  facet normal 0 0 -1
    outer loop
      vertex 53.3272 11.8579 0
      vertex 54 12.5 0
      vertex 53.75 12.1651 0
    endloop
  endfacet
  facet normal 0 0 -1
    outer loop
      vertex 34.935 13.5855 0
      vertex 54 12.5 0
      vertex 53.3272 11.8579 0
    endloop
  endfacet
  facet normal 0 0 -1
    outer loop
      vertex 34.935 13.5855 0
      vertex 53.3272 11.8579 0
      vertex 52.9775 11.4695 0
    endloop
  endfacet
  facet normal 0 0 -1
    outer loop
      vertex 35.5726 12.4811 0
      vertex 52.9775 11.4695 0
      vertex 52.7161 11.0168 0
    endloop
  endfacet
  facet normal 0 0 -1
    outer loop
      vertex 52.5546 9.48022 0
      vertex 36.1 9.9 0
      vertex 52.5 10 0
    endloop
  endfacet
  facet normal 0 0 -1
    outer loop
      vertex 36.1 10 0
      vertex 52.5 10 0
      vertex 36.1 9.9 0
    endloop
  endfacet
  facet normal 0 0 -1
    outer loop
      vertex 52.5 10 0
      vertex 36.1 10 0
      vertex 52.5546 10.5198 0
    endloop
  endfacet
  facet normal 0 0 -1
    outer loop
      vertex 35.9667 11.2683 0
      vertex 52.5546 10.5198 0
      vertex 36.1 10 0
    endloop
  endfacet
  facet normal 0 0 -1
    outer loop
      vertex 52.5546 10.5198 0
      vertex 35.9667 11.2683 0
      vertex 52.7161 11.0168 0
    endloop
  endfacet
  facet normal 0 0 -1
    outer loop
      vertex 35.5726 12.4811 0
      vertex 52.7161 11.0168 0
      vertex 35.9667 11.2683 0
    endloop
  endfacet
  facet normal 0 0 -1
    outer loop
      vertex 52.9775 11.4695 0
      vertex 35.5726 12.4811 0
      vertex 34.935 13.5855 0
    endloop
  endfacet
  facet normal 0 0 -1
    outer loop
      vertex 54 12.5 0
      vertex 34.935 13.5855 0
      vertex 57.5 25 0
    endloop
  endfacet
  facet normal 0 0 -1
    outer loop
      vertex 34.0817 14.5332 0
      vertex 57.5 25 0
      vertex 34.935 13.5855 0
    endloop
  endfacet
  facet normal 0 0 -1
    outer loop
      vertex 33.05 15.2828 0
      vertex 57.5 25 0
      vertex 34.0817 14.5332 0
    endloop
  endfacet
  facet normal 0 0 -1
    outer loop
      vertex 31.885 15.8014 0
      vertex 57.5 25 0
      vertex 33.05 15.2828 0
    endloop
  endfacet
  facet normal 0 0 -1
    outer loop
      vertex 30.6376 16.0666 0
      vertex 57.5 25 0
      vertex 31.885 15.8014 0
    endloop
  endfacet
  facet normal 0 0 -1
    outer loop
      vertex 29.3624 16.0666 0
      vertex 57.5 25 0
      vertex 30.6376 16.0666 0
    endloop
  endfacet
  facet normal 0 0 -1
    outer loop
      vertex 2.5 25 0
      vertex 29.3624 16.0666 0
      vertex 28.115 15.8014 0
    endloop
  endfacet
  facet normal 0 0 -1
    outer loop
      vertex 7.44537 10.5198 0
      vertex 23.9 10 0
      vertex 7.5 10 0
    endloop
  endfacet
  facet normal 0 0 -1
    outer loop
      vertex 23.9 10 0
      vertex 7.44537 10.5198 0
      vertex 24.0333 11.2683 0
    endloop
  endfacet
  facet normal 0 0 -1
    outer loop
      vertex 7.28386 11.0168 0
      vertex 24.0333 11.2683 0
      vertex 7.44537 10.5198 0
    endloop
  endfacet
  facet normal -0 0 -1
    outer loop
      vertex 24.0333 11.2683 0
      vertex 7.28386 11.0168 0
      vertex 24.4274 12.4811 0
    endloop
  endfacet
  facet normal 0 0 -1
    outer loop
      vertex 7.02254 11.4695 0
      vertex 24.4274 12.4811 0
      vertex 7.28386 11.0168 0
    endloop
  endfacet
  facet normal -0 0 -1
    outer loop
      vertex 24.4274 12.4811 0
      vertex 7.02254 11.4695 0
      vertex 25.065 13.5855 0
    endloop
  endfacet
  facet normal 0 0 -1
    outer loop
      vertex 6.67283 11.8579 0
      vertex 25.065 13.5855 0
      vertex 7.02254 11.4695 0
    endloop
  endfacet
  facet normal 0 0 -1
    outer loop
      vertex 2.5 25 0
      vertex 25.065 13.5855 0
      vertex 6.67283 11.8579 0
    endloop
  endfacet
  facet normal 0 0 -1
    outer loop
      vertex 25.065 13.5855 0
      vertex 2.5 25 0
      vertex 25.9183 14.5332 0
    endloop
  endfacet
  facet normal 0 0 -1
    outer loop
      vertex 25.9183 14.5332 0
      vertex 2.5 25 0
      vertex 26.95 15.2828 0
    endloop
  endfacet
  facet normal 0 0 -1
    outer loop
      vertex 26.95 15.2828 0
      vertex 2.5 25 0
      vertex 28.115 15.8014 0
    endloop
  endfacet
  facet normal 0 0 -1
    outer loop
      vertex 5.9 12.5 0
      vertex 6.67283 11.8579 0
      vertex 6.25 12.1651 0
    endloop
  endfacet
  facet normal 0 0 -1
    outer loop
      vertex 5.9 12.5 0
      vertex 6.25 12.1651 0
      vertex 5.9 12.3209 0
    endloop
  endfacet
  facet normal 0 0 -1
    outer loop
      vertex 6.67283 11.8579 0
      vertex 5.9 12.5 0
      vertex 2.5 25 0
    endloop
  endfacet
  facet normal 0 0 -1
    outer loop
      vertex 29.3624 16.0666 0
      vertex 2.5 25 0
      vertex 57.5 25 0
    endloop
  endfacet
  facet normal 0 0 -1
    outer loop
      vertex 0 22.5 0
      vertex 5.9 12.5 0
      vertex 0 12.5 0
    endloop
  endfacet
  facet normal 0 0 -1
    outer loop
      vertex 5.9 12.5 0
      vertex 0 22.5 0
      vertex 2.5 25 0
    endloop
  endfacet
  facet normal 0 0 -1
    outer loop
      vertex 36.1 9.9 0
      vertex 36.0895 9.9 0
      vertex 36.1 10 0
    endloop
  endfacet
  facet normal 0 0 -1
    outer loop
      vertex 6.25 7.83494 0
      vertex 5.9 7.5 0
      vertex 5.9 7.67911 0
    endloop
  endfacet
  facet normal 0 -1 0
    outer loop
      vertex 2.5 0 10
      vertex 21.5 0 5.5
      vertex 21.5 0 10
    endloop
  endfacet
  facet normal 0 -1 0
    outer loop
      vertex 2.5 0 0
      vertex 21.5 0 5.5
      vertex 2.5 0 10
    endloop
  endfacet
  facet normal 0 -1 0
    outer loop
      vertex 23.9 0 0
      vertex 21.5 0 5.5
      vertex 2.5 0 0
    endloop
  endfacet
  facet normal 0 -1 0
    outer loop
      vertex 21.5 0 5.5
      vertex 23.9 0 0
      vertex 23.9 0 5.5
    endloop
  endfacet
  facet normal 0 -1 0
    outer loop
      vertex 36.1 0 5.5
      vertex 36.1 0 0
      vertex 38.5 0 5.5
    endloop
  endfacet
  facet normal 0 -1 0
    outer loop
      vertex 38.5 0 5.5
      vertex 57.5 0 10
      vertex 38.5 0 10
    endloop
  endfacet
  facet normal 0 -1 0
    outer loop
      vertex 57.5 0 0
      vertex 38.5 0 5.5
      vertex 36.1 0 0
    endloop
  endfacet
  facet normal 0 -1 0
    outer loop
      vertex 38.5 0 5.5
      vertex 57.5 0 0
      vertex 57.5 0 10
    endloop
  endfacet
  facet normal 0 0 1
    outer loop
      vertex 36.1 10 5.5
      vertex 38.5 10 5.5
      vertex 38.3143 11.7672 5.5
    endloop
  endfacet
  facet normal -0 0 1
    outer loop
      vertex 38.4895 9.9 5.5
      vertex 38.5 0 5.5
      vertex 38.5 9.9 5.5
    endloop
  endfacet
  facet normal 0 0 1
    outer loop
      vertex 38.5 10 5.5
      vertex 36.1 10 5.5
      vertex 38.4895 9.9 5.5
    endloop
  endfacet
  facet normal 0 0 1
    outer loop
      vertex 35.9667 11.2683 5.5
      vertex 38.3143 11.7672 5.5
      vertex 37.7651 13.4573 5.5
    endloop
  endfacet
  facet normal 0 0 1
    outer loop
      vertex 35.5726 12.4811 5.5
      vertex 37.7651 13.4573 5.5
      vertex 36.8766 14.9962 5.5
    endloop
  endfacet
  facet normal 0 0 1
    outer loop
      vertex 38.4895 9.9 5.5
      vertex 36.1 10 5.5
      vertex 36.1 9.9 5.5
    endloop
  endfacet
  facet normal 0 0 1
    outer loop
      vertex 38.4895 9.9 5.5
      vertex 36.1 9.9 5.5
      vertex 38.5 0 5.5
    endloop
  endfacet
  facet normal 0 0 1
    outer loop
      vertex 38.5 0 5.5
      vertex 36.1 9.9 5.5
      vertex 36.1 0 5.5
    endloop
  endfacet
  facet normal 0 0 1
    outer loop
      vertex 23.9 10 5.5
      vertex 21.5 10 5.5
      vertex 21.5105 9.9 5.5
    endloop
  endfacet
  facet normal 0 0 1
    outer loop
      vertex 36.1 10 5.5
      vertex 36.0895 9.9 5.5
      vertex 36.1 9.9 5.5
    endloop
  endfacet
  facet normal 0 0 1
    outer loop
      vertex 38.3143 11.7672 5.5
      vertex 35.9667 11.2683 5.5
      vertex 36.1 10 5.5
    endloop
  endfacet
  facet normal 0 0 1
    outer loop
      vertex 34.935 13.5855 5.5
      vertex 36.8766 14.9962 5.5
      vertex 35.6876 16.3167 5.5
    endloop
  endfacet
  facet normal 0 0 1
    outer loop
      vertex 37.7651 13.4573 5.5
      vertex 35.5726 12.4811 5.5
      vertex 35.9667 11.2683 5.5
    endloop
  endfacet
  facet normal 0 0 1
    outer loop
      vertex 36.8766 14.9962 5.5
      vertex 34.935 13.5855 5.5
      vertex 35.5726 12.4811 5.5
    endloop
  endfacet
  facet normal 0 0 1
    outer loop
      vertex 34.0817 14.5332 5.5
      vertex 35.6876 16.3167 5.5
      vertex 34.25 17.3612 5.5
    endloop
  endfacet
  facet normal 0 0 1
    outer loop
      vertex 35.6876 16.3167 5.5
      vertex 34.0817 14.5332 5.5
      vertex 34.935 13.5855 5.5
    endloop
  endfacet
  facet normal 0 0 1
    outer loop
      vertex 34.25 17.3612 5.5
      vertex 33.05 15.2828 5.5
      vertex 34.0817 14.5332 5.5
    endloop
  endfacet
  facet normal 0 0 1
    outer loop
      vertex 32.6266 18.084 5.5
      vertex 33.05 15.2828 5.5
      vertex 34.25 17.3612 5.5
    endloop
  endfacet
  facet normal 0 0 1
    outer loop
      vertex 32.6266 18.084 5.5
      vertex 31.885 15.8014 5.5
      vertex 33.05 15.2828 5.5
    endloop
  endfacet
  facet normal 0 0 1
    outer loop
      vertex 30.8885 18.4534 5.5
      vertex 31.885 15.8014 5.5
      vertex 32.6266 18.084 5.5
    endloop
  endfacet
  facet normal 0 0 1
    outer loop
      vertex 30.8885 18.4534 5.5
      vertex 30.6376 16.0666 5.5
      vertex 31.885 15.8014 5.5
    endloop
  endfacet
  facet normal 0 0 1
    outer loop
      vertex 30.8885 18.4534 5.5
      vertex 29.3624 16.0666 5.5
      vertex 30.6376 16.0666 5.5
    endloop
  endfacet
  facet normal -0 0 1
    outer loop
      vertex 29.1115 18.4534 5.5
      vertex 29.3624 16.0666 5.5
      vertex 30.8885 18.4534 5.5
    endloop
  endfacet
  facet normal 0 0 1
    outer loop
      vertex 29.1115 18.4534 5.5
      vertex 28.115 15.8014 5.5
      vertex 29.3624 16.0666 5.5
    endloop
  endfacet
  facet normal -0 0 1
    outer loop
      vertex 27.3734 18.084 5.5
      vertex 28.115 15.8014 5.5
      vertex 29.1115 18.4534 5.5
    endloop
  endfacet
  facet normal 0 0 1
    outer loop
      vertex 27.3734 18.084 5.5
      vertex 26.95 15.2828 5.5
      vertex 28.115 15.8014 5.5
    endloop
  endfacet
  facet normal -0 0 1
    outer loop
      vertex 25.75 17.3612 5.5
      vertex 26.95 15.2828 5.5
      vertex 27.3734 18.084 5.5
    endloop
  endfacet
  facet normal 0 0 1
    outer loop
      vertex 26.95 15.2828 5.5
      vertex 25.75 17.3612 5.5
      vertex 25.9183 14.5332 5.5
    endloop
  endfacet
  facet normal -0 0 1
    outer loop
      vertex 24.3124 16.3167 5.5
      vertex 25.9183 14.5332 5.5
      vertex 25.75 17.3612 5.5
    endloop
  endfacet
  facet normal 0 0 1
    outer loop
      vertex 25.9183 14.5332 5.5
      vertex 24.3124 16.3167 5.5
      vertex 25.065 13.5855 5.5
    endloop
  endfacet
  facet normal -0 0 1
    outer loop
      vertex 23.1234 14.9962 5.5
      vertex 25.065 13.5855 5.5
      vertex 24.3124 16.3167 5.5
    endloop
  endfacet
  facet normal 0 0 1
    outer loop
      vertex 25.065 13.5855 5.5
      vertex 23.1234 14.9962 5.5
      vertex 24.4274 12.4811 5.5
    endloop
  endfacet
  facet normal -0 0 1
    outer loop
      vertex 22.2349 13.4573 5.5
      vertex 24.4274 12.4811 5.5
      vertex 23.1234 14.9962 5.5
    endloop
  endfacet
  facet normal 0 0 1
    outer loop
      vertex 21.5105 9.9 5.5
      vertex 23.9 9.9 5.5
      vertex 23.9 10 5.5
    endloop
  endfacet
  facet normal 0 0 1
    outer loop
      vertex 24.4274 12.4811 5.5
      vertex 22.2349 13.4573 5.5
      vertex 24.0333 11.2683 5.5
    endloop
  endfacet
  facet normal -0 0 1
    outer loop
      vertex 21.6857 11.7672 5.5
      vertex 24.0333 11.2683 5.5
      vertex 22.2349 13.4573 5.5
    endloop
  endfacet
  facet normal 0 0 1
    outer loop
      vertex 24.0333 11.2683 5.5
      vertex 21.6857 11.7672 5.5
      vertex 23.9 10 5.5
    endloop
  endfacet
  facet normal 0 0 1
    outer loop
      vertex 21.5 10 5.5
      vertex 23.9 10 5.5
      vertex 21.6857 11.7672 5.5
    endloop
  endfacet
  facet normal 0 0 1
    outer loop
      vertex 23.9 9.9 5.5
      vertex 21.5105 9.9 5.5
      vertex 23.9 0 5.5
    endloop
  endfacet
  facet normal 0 0 1
    outer loop
      vertex 21.5 0 5.5
      vertex 21.5105 9.9 5.5
      vertex 21.5 9.9 5.5
    endloop
  endfacet
  facet normal 0 0 1
    outer loop
      vertex 21.5105 9.9 5.5
      vertex 21.5 0 5.5
      vertex 23.9 0 5.5
    endloop
  endfacet
  facet normal 0 0 1
    outer loop
      vertex 23.9105 9.9 5.5
      vertex 23.9 10 5.5
      vertex 23.9 9.9 5.5
    endloop
  endfacet
  facet normal -0.406744 -0.913542 0
    outer loop
      vertex 32.6266 18.084 5.5
      vertex 34.25 17.3612 10
      vertex 32.6266 18.084 10
    endloop
  endfacet
  facet normal -0.406744 -0.913542 -0
    outer loop
      vertex 34.25 17.3612 10
      vertex 32.6266 18.084 5.5
      vertex 34.25 17.3612 5.5
    endloop
  endfacet
  facet normal -0.994533 0.104426 0
    outer loop
      vertex 38.4895 9.9 5.5
      vertex 38.5 10 10
      vertex 38.5 10 5.5
    endloop
  endfacet
  facet normal -0.994533 0.104426 0
    outer loop
      vertex 38.5 10 10
      vertex 38.4895 9.9 5.5
      vertex 38.4895 9.9 10
    endloop
  endfacet
  facet normal 0 -1 0
    outer loop
      vertex 29.1115 18.4534 5.5
      vertex 30.8885 18.4534 10
      vertex 29.1115 18.4534 10
    endloop
  endfacet
  facet normal 0 -1 -0
    outer loop
      vertex 30.8885 18.4534 10
      vertex 29.1115 18.4534 5.5
      vertex 30.8885 18.4534 5.5
    endloop
  endfacet
  facet normal 0.406744 -0.913542 0
    outer loop
      vertex 25.75 17.3612 5.5
      vertex 27.3734 18.084 10
      vertex 25.75 17.3612 10
    endloop
  endfacet
  facet normal 0.406744 -0.913542 0
    outer loop
      vertex 27.3734 18.084 10
      vertex 25.75 17.3612 5.5
      vertex 27.3734 18.084 5.5
    endloop
  endfacet
  facet normal 0.951048 -0.309044 0
    outer loop
      vertex 21.6857 11.7672 10
      vertex 22.2349 13.4573 5.5
      vertex 22.2349 13.4573 10
    endloop
  endfacet
  facet normal 0.951048 -0.309044 0
    outer loop
      vertex 22.2349 13.4573 5.5
      vertex 21.6857 11.7672 10
      vertex 21.6857 11.7672 5.5
    endloop
  endfacet
  facet normal -0.951048 -0.309044 0
    outer loop
      vertex 38.3143 11.7672 5.5
      vertex 37.7651 13.4573 10
      vertex 37.7651 13.4573 5.5
    endloop
  endfacet
  facet normal -0.951048 -0.309044 0
    outer loop
      vertex 37.7651 13.4573 10
      vertex 38.3143 11.7672 5.5
      vertex 38.3143 11.7672 10
    endloop
  endfacet
  facet normal -0.866022 -0.500007 0
    outer loop
      vertex 37.7651 13.4573 5.5
      vertex 36.8766 14.9962 10
      vertex 36.8766 14.9962 5.5
    endloop
  endfacet
  facet normal -0.866022 -0.500007 0
    outer loop
      vertex 36.8766 14.9962 10
      vertex 37.7651 13.4573 5.5
      vertex 37.7651 13.4573 10
    endloop
  endfacet
  facet normal -0.74314 -0.669136 0
    outer loop
      vertex 36.8766 14.9962 5.5
      vertex 35.6876 16.3167 10
      vertex 35.6876 16.3167 5.5
    endloop
  endfacet
  facet normal -0.74314 -0.669136 0
    outer loop
      vertex 35.6876 16.3167 10
      vertex 36.8766 14.9962 5.5
      vertex 36.8766 14.9962 10
    endloop
  endfacet
  facet normal -0.587794 -0.809011 0
    outer loop
      vertex 34.25 17.3612 5.5
      vertex 35.6876 16.3167 10
      vertex 34.25 17.3612 10
    endloop
  endfacet
  facet normal -0.587794 -0.809011 -0
    outer loop
      vertex 35.6876 16.3167 10
      vertex 34.25 17.3612 5.5
      vertex 35.6876 16.3167 5.5
    endloop
  endfacet
  facet normal -0.207888 -0.978153 0
    outer loop
      vertex 30.8885 18.4534 5.5
      vertex 32.6266 18.084 10
      vertex 30.8885 18.4534 10
    endloop
  endfacet
  facet normal -0.207888 -0.978153 -0
    outer loop
      vertex 32.6266 18.084 10
      vertex 30.8885 18.4534 5.5
      vertex 32.6266 18.084 5.5
    endloop
  endfacet
  facet normal 0.994533 0.104426 0
    outer loop
      vertex 21.5105 9.9 10
      vertex 21.5 10 5.5
      vertex 21.5 10 10
    endloop
  endfacet
  facet normal 0.994533 0.104426 0
    outer loop
      vertex 21.5 10 5.5
      vertex 21.5105 9.9 10
      vertex 21.5105 9.9 5.5
    endloop
  endfacet
  facet normal 0.866022 -0.500007 0
    outer loop
      vertex 22.2349 13.4573 10
      vertex 23.1234 14.9962 5.5
      vertex 23.1234 14.9962 10
    endloop
  endfacet
  facet normal 0.866022 -0.500007 0
    outer loop
      vertex 23.1234 14.9962 5.5
      vertex 22.2349 13.4573 10
      vertex 22.2349 13.4573 5.5
    endloop
  endfacet
  facet normal 0.587794 -0.809011 0
    outer loop
      vertex 24.3124 16.3167 5.5
      vertex 25.75 17.3612 10
      vertex 24.3124 16.3167 10
    endloop
  endfacet
  facet normal 0.587794 -0.809011 0
    outer loop
      vertex 25.75 17.3612 10
      vertex 24.3124 16.3167 5.5
      vertex 25.75 17.3612 5.5
    endloop
  endfacet
  facet normal 0.207888 -0.978153 0
    outer loop
      vertex 27.3734 18.084 5.5
      vertex 29.1115 18.4534 10
      vertex 27.3734 18.084 10
    endloop
  endfacet
  facet normal 0.207888 -0.978153 0
    outer loop
      vertex 29.1115 18.4534 10
      vertex 27.3734 18.084 5.5
      vertex 29.1115 18.4534 5.5
    endloop
  endfacet
  facet normal 0.74314 -0.669136 0
    outer loop
      vertex 23.1234 14.9962 10
      vertex 24.3124 16.3167 5.5
      vertex 24.3124 16.3167 10
    endloop
  endfacet
  facet normal 0.74314 -0.669136 0
    outer loop
      vertex 24.3124 16.3167 5.5
      vertex 23.1234 14.9962 10
      vertex 23.1234 14.9962 5.5
    endloop
  endfacet
  facet normal -0.994524 -0.104506 0
    outer loop
      vertex 38.5 10 5.5
      vertex 38.3143 11.7672 10
      vertex 38.3143 11.7672 5.5
    endloop
  endfacet
  facet normal -0.994524 -0.104506 0
    outer loop
      vertex 38.3143 11.7672 10
      vertex 38.5 10 5.5
      vertex 38.5 10 10
    endloop
  endfacet
  facet normal 0.994524 -0.104506 0
    outer loop
      vertex 21.5 10 10
      vertex 21.6857 11.7672 5.5
      vertex 21.6857 11.7672 10
    endloop
  endfacet
  facet normal 0.994524 -0.104506 0
    outer loop
      vertex 21.6857 11.7672 5.5
      vertex 21.5 10 10
      vertex 21.5 10 5.5
    endloop
  endfacet
  facet normal 1 -0 0
    outer loop
      vertex 21.5 0 10
      vertex 21.5 9.9 5.5
      vertex 21.5 9.9 10
    endloop
  endfacet
  facet normal 1 0 0
    outer loop
      vertex 21.5 9.9 5.5
      vertex 21.5 0 10
      vertex 21.5 0 5.5
    endloop
  endfacet
  facet normal -1 0 0
    outer loop
      vertex 38.5 0 5.5
      vertex 38.5 9.9 10
      vertex 38.5 9.9 5.5
    endloop
  endfacet
  facet normal -1 -0 0
    outer loop
      vertex 38.5 9.9 10
      vertex 38.5 0 5.5
      vertex 38.5 0 10
    endloop
  endfacet
  facet normal 0 -1 0
    outer loop
      vertex 21.5 9.9 5.5
      vertex 21.5105 9.9 10
      vertex 21.5 9.9 10
    endloop
  endfacet
  facet normal 0 -1 -0
    outer loop
      vertex 21.5105 9.9 10
      vertex 21.5 9.9 5.5
      vertex 21.5105 9.9 5.5
    endloop
  endfacet
  facet normal 0 -1 0
    outer loop
      vertex 38.4895 9.9 5.5
      vertex 38.5 9.9 10
      vertex 38.4895 9.9 10
    endloop
  endfacet
  facet normal 0 -1 -0
    outer loop
      vertex 38.5 9.9 10
      vertex 38.4895 9.9 5.5
      vertex 38.5 9.9 5.5
    endloop
  endfacet
  facet normal -0.994522 -0.104526 0
    outer loop
      vertex 36.1 10 0
      vertex 35.9667 11.2683 5.5
      vertex 35.9667 11.2683 0
    endloop
  endfacet
  facet normal -0.994522 -0.104526 0
    outer loop
      vertex 35.9667 11.2683 5.5
      vertex 36.1 10 0
      vertex 36.1 10 5.5
    endloop
  endfacet
  facet normal 0.207954 -0.978139 0
    outer loop
      vertex 28.115 15.8014 0
      vertex 29.3624 16.0666 5.5
      vertex 28.115 15.8014 5.5
    endloop
  endfacet
  facet normal 0.207954 -0.978139 0
    outer loop
      vertex 29.3624 16.0666 5.5
      vertex 28.115 15.8014 0
      vertex 29.3624 16.0666 0
    endloop
  endfacet
  facet normal -0.587799 -0.809007 0
    outer loop
      vertex 33.05 15.2828 0
      vertex 34.0817 14.5332 5.5
      vertex 33.05 15.2828 5.5
    endloop
  endfacet
  facet normal -0.587799 -0.809007 -0
    outer loop
      vertex 34.0817 14.5332 5.5
      vertex 33.05 15.2828 0
      vertex 34.0817 14.5332 0
    endloop
  endfacet
  facet normal 0.866034 -0.499985 0
    outer loop
      vertex 24.4274 12.4811 5.5
      vertex 25.065 13.5855 0
      vertex 25.065 13.5855 5.5
    endloop
  endfacet
  facet normal 0.866034 -0.499985 0
    outer loop
      vertex 25.065 13.5855 0
      vertex 24.4274 12.4811 5.5
      vertex 24.4274 12.4811 0
    endloop
  endfacet
  facet normal 0.587799 -0.809007 0
    outer loop
      vertex 25.9183 14.5332 0
      vertex 26.95 15.2828 5.5
      vertex 25.9183 14.5332 5.5
    endloop
  endfacet
  facet normal 0.587799 -0.809007 0
    outer loop
      vertex 26.95 15.2828 5.5
      vertex 25.9183 14.5332 0
      vertex 26.95 15.2828 0
    endloop
  endfacet
  facet normal -0.866034 -0.499985 0
    outer loop
      vertex 35.5726 12.4811 0
      vertex 34.935 13.5855 5.5
      vertex 34.935 13.5855 0
    endloop
  endfacet
  facet normal -0.866034 -0.499985 0
    outer loop
      vertex 34.935 13.5855 5.5
      vertex 35.5726 12.4811 0
      vertex 35.5726 12.4811 5.5
    endloop
  endfacet
  facet normal -0.951048 -0.309044 0
    outer loop
      vertex 35.9667 11.2683 0
      vertex 35.5726 12.4811 5.5
      vertex 35.5726 12.4811 0
    endloop
  endfacet
  facet normal -0.951048 -0.309044 0
    outer loop
      vertex 35.5726 12.4811 5.5
      vertex 35.9667 11.2683 0
      vertex 35.9667 11.2683 5.5
    endloop
  endfacet
  facet normal -0.74315 -0.669125 0
    outer loop
      vertex 34.935 13.5855 0
      vertex 34.0817 14.5332 5.5
      vertex 34.0817 14.5332 0
    endloop
  endfacet
  facet normal -0.74315 -0.669125 0
    outer loop
      vertex 34.0817 14.5332 5.5
      vertex 34.935 13.5855 0
      vertex 34.935 13.5855 5.5
    endloop
  endfacet
  facet normal -0.207954 -0.978139 0
    outer loop
      vertex 30.6376 16.0666 0
      vertex 31.885 15.8014 5.5
      vertex 30.6376 16.0666 5.5
    endloop
  endfacet
  facet normal -0.207954 -0.978139 -0
    outer loop
      vertex 31.885 15.8014 5.5
      vertex 30.6376 16.0666 0
      vertex 31.885 15.8014 0
    endloop
  endfacet
  facet normal 0 -1 0
    outer loop
      vertex 29.3624 16.0666 0
      vertex 30.6376 16.0666 5.5
      vertex 29.3624 16.0666 5.5
    endloop
  endfacet
  facet normal 0 -1 -0
    outer loop
      vertex 30.6376 16.0666 5.5
      vertex 29.3624 16.0666 0
      vertex 30.6376 16.0666 0
    endloop
  endfacet
  facet normal -0.406677 -0.913572 0
    outer loop
      vertex 31.885 15.8014 0
      vertex 33.05 15.2828 5.5
      vertex 31.885 15.8014 5.5
    endloop
  endfacet
  facet normal -0.406677 -0.913572 -0
    outer loop
      vertex 33.05 15.2828 5.5
      vertex 31.885 15.8014 0
      vertex 33.05 15.2828 0
    endloop
  endfacet
  facet normal 0.951048 -0.309044 0
    outer loop
      vertex 24.0333 11.2683 5.5
      vertex 24.4274 12.4811 0
      vertex 24.4274 12.4811 5.5
    endloop
  endfacet
  facet normal 0.951048 -0.309044 0
    outer loop
      vertex 24.4274 12.4811 0
      vertex 24.0333 11.2683 5.5
      vertex 24.0333 11.2683 0
    endloop
  endfacet
  facet normal 0.994522 -0.104526 0
    outer loop
      vertex 23.9 10 5.5
      vertex 24.0333 11.2683 0
      vertex 24.0333 11.2683 5.5
    endloop
  endfacet
  facet normal 0.994522 -0.104526 0
    outer loop
      vertex 24.0333 11.2683 0
      vertex 23.9 10 5.5
      vertex 23.9 10 0
    endloop
  endfacet
  facet normal 0.994533 0.104426 0
    outer loop
      vertex 23.9105 9.9 5.5
      vertex 23.9 10 0
      vertex 23.9 10 5.5
    endloop
  endfacet
  facet normal 0.994533 0.104426 0
    outer loop
      vertex 23.9 10 0
      vertex 23.9105 9.9 5.5
      vertex 23.9105 9.9 0
    endloop
  endfacet
  facet normal 0.74315 -0.669125 0
    outer loop
      vertex 25.065 13.5855 5.5
      vertex 25.9183 14.5332 0
      vertex 25.9183 14.5332 5.5
    endloop
  endfacet
  facet normal 0.74315 -0.669125 0
    outer loop
      vertex 25.9183 14.5332 0
      vertex 25.065 13.5855 5.5
      vertex 25.065 13.5855 0
    endloop
  endfacet
  facet normal 0.406677 -0.913572 0
    outer loop
      vertex 26.95 15.2828 0
      vertex 28.115 15.8014 5.5
      vertex 26.95 15.2828 5.5
    endloop
  endfacet
  facet normal 0.406677 -0.913572 0
    outer loop
      vertex 28.115 15.8014 5.5
      vertex 26.95 15.2828 0
      vertex 28.115 15.8014 0
    endloop
  endfacet
  facet normal -0.994533 0.104426 0
    outer loop
      vertex 36.0895 9.9 0
      vertex 36.1 10 5.5
      vertex 36.1 10 0
    endloop
  endfacet
  facet normal -0.994533 0.104426 0
    outer loop
      vertex 36.1 10 5.5
      vertex 36.0895 9.9 0
      vertex 36.0895 9.9 5.5
    endloop
  endfacet
  facet normal 1 -0 0
    outer loop
      vertex 23.9 0 5.5
      vertex 23.9 9.9 0
      vertex 23.9 9.9 5.5
    endloop
  endfacet
  facet normal 1 0 0
    outer loop
      vertex 23.9 9.9 0
      vertex 23.9 0 5.5
      vertex 23.9 0 0
    endloop
  endfacet
  facet normal -1 0 0
    outer loop
      vertex 36.1 0 0
      vertex 36.1 9.9 5.5
      vertex 36.1 9.9 0
    endloop
  endfacet
  facet normal -1 -0 0
    outer loop
      vertex 36.1 9.9 5.5
      vertex 36.1 0 0
      vertex 36.1 0 5.5
    endloop
  endfacet
  facet normal 0 -1 0
    outer loop
      vertex 23.9 9.9 0
      vertex 23.9105 9.9 5.5
      vertex 23.9 9.9 5.5
    endloop
  endfacet
  facet normal 0 -1 -0
    outer loop
      vertex 23.9105 9.9 5.5
      vertex 23.9 9.9 0
      vertex 23.9105 9.9 0
    endloop
  endfacet
  facet normal 0 -1 0
    outer loop
      vertex 36.0895 9.9 0
      vertex 36.1 9.9 5.5
      vertex 36.0895 9.9 5.5
    endloop
  endfacet
  facet normal 0 -1 -0
    outer loop
      vertex 36.1 9.9 5.5
      vertex 36.0895 9.9 0
      vertex 36.1 9.9 0
    endloop
  endfacet
  facet normal -0.406671 -0.913575 0
    outer loop
      vertex 5.9 12.3209 0
      vertex 6.25 12.1651 4
      vertex 5.9 12.3209 4
    endloop
  endfacet
  facet normal -0.406671 -0.913575 -0
    outer loop
      vertex 6.25 12.1651 4
      vertex 5.9 12.3209 0
      vertex 6.25 12.1651 0
    endloop
  endfacet
  facet normal -0.994522 0.104526 0
    outer loop
      vertex 7.44537 9.48022 0
      vertex 7.5 10 4
      vertex 7.5 10 0
    endloop
  endfacet
  facet normal -0.994522 0.104526 0
    outer loop
      vertex 7.5 10 4
      vertex 7.44537 9.48022 0
      vertex 7.44537 9.48022 4
    endloop
  endfacet
  facet normal -0.951043 -0.30906 0
    outer loop
      vertex 7.44537 10.5198 0
      vertex 7.28386 11.0168 4
      vertex 7.28386 11.0168 0
    endloop
  endfacet
  facet normal -0.951043 -0.30906 0
    outer loop
      vertex 7.28386 11.0168 4
      vertex 7.44537 10.5198 0
      vertex 7.44537 10.5198 4
    endloop
  endfacet
  facet normal -0.866064 -0.499933 0
    outer loop
      vertex 7.28386 11.0168 0
      vertex 7.02254 11.4695 4
      vertex 7.02254 11.4695 0
    endloop
  endfacet
  facet normal -0.866064 -0.499933 0
    outer loop
      vertex 7.02254 11.4695 4
      vertex 7.28386 11.0168 0
      vertex 7.28386 11.0168 4
    endloop
  endfacet
  facet normal -0.743151 -0.669123 0
    outer loop
      vertex 7.02254 11.4695 0
      vertex 6.67283 11.8579 4
      vertex 6.67283 11.8579 0
    endloop
  endfacet
  facet normal -0.743151 -0.669123 0
    outer loop
      vertex 6.67283 11.8579 4
      vertex 7.02254 11.4695 0
      vertex 7.02254 11.4695 4
    endloop
  endfacet
  facet normal -0.58778 -0.809021 0
    outer loop
      vertex 6.25 12.1651 0
      vertex 6.67283 11.8579 4
      vertex 6.25 12.1651 4
    endloop
  endfacet
  facet normal -0.58778 -0.809021 -0
    outer loop
      vertex 6.67283 11.8579 4
      vertex 6.25 12.1651 0
      vertex 6.67283 11.8579 0
    endloop
  endfacet
  facet normal -0.994523 -0.104522 0
    outer loop
      vertex 7.5 10 0
      vertex 7.44537 10.5198 4
      vertex 7.44537 10.5198 0
    endloop
  endfacet
  facet normal -0.994523 -0.104522 0
    outer loop
      vertex 7.44537 10.5198 4
      vertex 7.5 10 0
      vertex 7.5 10 4
    endloop
  endfacet
  facet normal -0.406737 0.913545 0
    outer loop
      vertex 6.25 7.83494 0
      vertex 5.9 7.67911 4
      vertex 6.25 7.83494 4
    endloop
  endfacet
  facet normal -0.406737 0.913545 0
    outer loop
      vertex 5.9 7.67911 4
      vertex 6.25 7.83494 0
      vertex 5.9 7.67911 0
    endloop
  endfacet
  facet normal -0.58778 0.809021 0
    outer loop
      vertex 6.67283 8.14214 0
      vertex 6.25 7.83494 4
      vertex 6.67283 8.14214 4
    endloop
  endfacet
  facet normal -0.58778 0.809021 0
    outer loop
      vertex 6.25 7.83494 4
      vertex 6.67283 8.14214 0
      vertex 6.25 7.83494 0
    endloop
  endfacet
  facet normal -0.866026 0.5 0
    outer loop
      vertex 7.02254 8.53054 0
      vertex 7.28386 8.98316 4
      vertex 7.28386 8.98316 0
    endloop
  endfacet
  facet normal -0.866026 0.5 0
    outer loop
      vertex 7.28386 8.98316 4
      vertex 7.02254 8.53054 0
      vertex 7.02254 8.53054 4
    endloop
  endfacet
  facet normal -0.743151 0.669123 0
    outer loop
      vertex 6.67283 8.14214 0
      vertex 7.02254 8.53054 4
      vertex 7.02254 8.53054 0
    endloop
  endfacet
  facet normal -0.743151 0.669123 0
    outer loop
      vertex 7.02254 8.53054 4
      vertex 6.67283 8.14214 0
      vertex 6.67283 8.14214 4
    endloop
  endfacet
  facet normal -0.951053 0.309026 0
    outer loop
      vertex 7.28386 8.98316 0
      vertex 7.44537 9.48022 4
      vertex 7.44537 9.48022 0
    endloop
  endfacet
  facet normal -0.951053 0.309026 0
    outer loop
      vertex 7.44537 9.48022 4
      vertex 7.28386 8.98316 0
      vertex 7.28386 8.98316 4
    endloop
  endfacet
  facet normal -1 0 0
    outer loop
      vertex 5.9 12.3209 0
      vertex 5.9 12.5 4
      vertex 5.9 12.5 0
    endloop
  endfacet
  facet normal -1 -0 0
    outer loop
      vertex 5.9 12.5 4
      vertex 5.9 12.3209 0
      vertex 5.9 12.3209 4
    endloop
  endfacet
  facet normal -1 0 0
    outer loop
      vertex 5.9 7.5 0
      vertex 5.9 7.67911 4
      vertex 5.9 7.67911 0
    endloop
  endfacet
  facet normal -1 -0 0
    outer loop
      vertex 5.9 7.67911 4
      vertex 5.9 7.5 0
      vertex 5.9 7.5 4
    endloop
  endfacet
  facet normal 0 1 -0
    outer loop
      vertex 5.9 7.5 0
      vertex 0 7.5 4
      vertex 5.9 7.5 4
    endloop
  endfacet
  facet normal 0 1 0
    outer loop
      vertex 0 7.5 4
      vertex 5.9 7.5 0
      vertex 0 7.5 0
    endloop
  endfacet
  facet normal 0 -1 0
    outer loop
      vertex 0 12.5 0
      vertex 5.9 12.5 4
      vertex 0 12.5 4
    endloop
  endfacet
  facet normal 0 -1 -0
    outer loop
      vertex 5.9 12.5 4
      vertex 0 12.5 0
      vertex 5.9 12.5 0
    endloop
  endfacet
  facet normal 0.743161 -0.669113 0
    outer loop
      vertex 52.9775 11.4695 4
      vertex 53.3272 11.8579 0
      vertex 53.3272 11.8579 4
    endloop
  endfacet
  facet normal 0.743161 -0.669113 0
    outer loop
      vertex 53.3272 11.8579 0
      vertex 52.9775 11.4695 4
      vertex 52.9775 11.4695 0
    endloop
  endfacet
  facet normal 0.406715 -0.913555 0
    outer loop
      vertex 53.75 12.1651 0
      vertex 54 12.2764 4
      vertex 53.75 12.1651 4
    endloop
  endfacet
  facet normal 0.406715 -0.913555 0
    outer loop
      vertex 54 12.2764 4
      vertex 53.75 12.1651 0
      vertex 54 12.2764 0
    endloop
  endfacet
  facet normal 0.951048 -0.309043 0
    outer loop
      vertex 52.5546 10.5198 4
      vertex 52.7161 11.0168 0
      vertex 52.7161 11.0168 4
    endloop
  endfacet
  facet normal 0.951048 -0.309043 0
    outer loop
      vertex 52.7161 11.0168 0
      vertex 52.5546 10.5198 4
      vertex 52.5546 10.5198 0
    endloop
  endfacet
  facet normal 0.865998 -0.500048 0
    outer loop
      vertex 52.7161 11.0168 4
      vertex 52.9775 11.4695 0
      vertex 52.9775 11.4695 4
    endloop
  endfacet
  facet normal 0.865998 -0.500048 0
    outer loop
      vertex 52.9775 11.4695 0
      vertex 52.7161 11.0168 4
      vertex 52.7161 11.0168 0
    endloop
  endfacet
  facet normal 0.994528 -0.104466 0
    outer loop
      vertex 52.5 10 4
      vertex 52.5546 10.5198 0
      vertex 52.5546 10.5198 4
    endloop
  endfacet
  facet normal 0.994528 -0.104466 0
    outer loop
      vertex 52.5546 10.5198 0
      vertex 52.5 10 4
      vertex 52.5 10 0
    endloop
  endfacet
  facet normal 0.587808 -0.809001 0
    outer loop
      vertex 53.3272 11.8579 0
      vertex 53.75 12.1651 4
      vertex 53.3272 11.8579 4
    endloop
  endfacet
  facet normal 0.587808 -0.809001 0
    outer loop
      vertex 53.75 12.1651 4
      vertex 53.3272 11.8579 0
      vertex 53.75 12.1651 0
    endloop
  endfacet
  facet normal 0.587808 0.809001 -0
    outer loop
      vertex 53.75 7.83494 0
      vertex 53.3272 8.14214 4
      vertex 53.75 7.83494 4
    endloop
  endfacet
  facet normal 0.587808 0.809001 0
    outer loop
      vertex 53.3272 8.14214 4
      vertex 53.75 7.83494 0
      vertex 53.3272 8.14214 0
    endloop
  endfacet
  facet normal 0.743161 0.669113 0
    outer loop
      vertex 53.3272 8.14214 4
      vertex 52.9775 8.53054 0
      vertex 52.9775 8.53054 4
    endloop
  endfacet
  facet normal 0.743161 0.669113 0
    outer loop
      vertex 52.9775 8.53054 0
      vertex 53.3272 8.14214 4
      vertex 53.3272 8.14214 0
    endloop
  endfacet
  facet normal 0.951059 0.309009 0
    outer loop
      vertex 52.7161 8.98316 4
      vertex 52.5546 9.48022 0
      vertex 52.5546 9.48022 4
    endloop
  endfacet
  facet normal 0.951059 0.309009 0
    outer loop
      vertex 52.5546 9.48022 0
      vertex 52.7161 8.98316 4
      vertex 52.7161 8.98316 0
    endloop
  endfacet
  facet normal 0.994528 0.10447 0
    outer loop
      vertex 52.5546 9.48022 4
      vertex 52.5 10 0
      vertex 52.5 10 4
    endloop
  endfacet
  facet normal 0.994528 0.10447 0
    outer loop
      vertex 52.5 10 0
      vertex 52.5546 9.48022 4
      vertex 52.5546 9.48022 0
    endloop
  endfacet
  facet normal 0.406745 0.913542 -0
    outer loop
      vertex 54 7.72363 0
      vertex 53.75 7.83494 4
      vertex 54 7.72363 4
    endloop
  endfacet
  facet normal 0.406745 0.913542 0
    outer loop
      vertex 53.75 7.83494 4
      vertex 54 7.72363 0
      vertex 53.75 7.83494 0
    endloop
  endfacet
  facet normal 0.865959 0.500114 0
    outer loop
      vertex 52.9775 8.53054 4
      vertex 52.7161 8.98316 0
      vertex 52.7161 8.98316 4
    endloop
  endfacet
  facet normal 0.865959 0.500114 0
    outer loop
      vertex 52.7161 8.98316 0
      vertex 52.9775 8.53054 4
      vertex 52.9775 8.53054 0
    endloop
  endfacet
  facet normal 1 -0 0
    outer loop
      vertex 54 7.5 4
      vertex 54 7.72363 0
      vertex 54 7.72363 4
    endloop
  endfacet
  facet normal 1 0 0
    outer loop
      vertex 54 7.72363 0
      vertex 54 7.5 4
      vertex 54 7.5 0
    endloop
  endfacet
  facet normal 1 -0 0
    outer loop
      vertex 54 12.2764 4
      vertex 54 12.5 0
      vertex 54 12.5 4
    endloop
  endfacet
  facet normal 1 0 0
    outer loop
      vertex 54 12.5 0
      vertex 54 12.2764 4
      vertex 54 12.2764 0
    endloop
  endfacet
  facet normal 0 1 -0
    outer loop
      vertex 60 7.5 0
      vertex 54 7.5 4
      vertex 60 7.5 4
    endloop
  endfacet
  facet normal 0 1 0
    outer loop
      vertex 54 7.5 4
      vertex 60 7.5 0
      vertex 54 7.5 0
    endloop
  endfacet
  facet normal 0 -1 0
    outer loop
      vertex 54 12.5 0
      vertex 60 12.5 4
      vertex 54 12.5 4
    endloop
  endfacet
  facet normal 0 -1 -0
    outer loop
      vertex 60 12.5 4
      vertex 54 12.5 0
      vertex 60 12.5 0
    endloop
  endfacet
  facet normal -0.994523 -0.104515 0
    outer loop
      vertex 11 10 4
      vertex 10.8689 11.2475 10
      vertex 10.8689 11.2475 4
    endloop
  endfacet
  facet normal -0.994523 -0.104515 0
    outer loop
      vertex 10.8689 11.2475 10
      vertex 11 10 4
      vertex 11 10 10
    endloop
  endfacet
  facet normal -0.207911 0.978148 0
    outer loop
      vertex 6.8541 4.29366 4
      vertex 5.9 4.09086 10
      vertex 6.8541 4.29366 10
    endloop
  endfacet
  facet normal -0.207911 0.978148 0
    outer loop
      vertex 5.9 4.09086 10
      vertex 6.8541 4.29366 4
      vertex 5.9 4.09086 4
    endloop
  endfacet
  facet normal -0.587795 -0.80901 0
    outer loop
      vertex 8 15.1962 4
      vertex 9.01478 14.4589 10
      vertex 8 15.1962 10
    endloop
  endfacet
  facet normal -0.587795 -0.80901 -0
    outer loop
      vertex 9.01478 14.4589 10
      vertex 8 15.1962 4
      vertex 9.01478 14.4589 4
    endloop
  endfacet
  facet normal -0.866017 -0.500015 0
    outer loop
      vertex 10.4813 12.4404 4
      vertex 9.8541 13.5267 10
      vertex 9.8541 13.5267 4
    endloop
  endfacet
  facet normal -0.866017 -0.500015 0
    outer loop
      vertex 9.8541 13.5267 10
      vertex 10.4813 12.4404 4
      vertex 10.4813 12.4404 10
    endloop
  endfacet
  facet normal -0.951056 -0.309019 0
    outer loop
      vertex 10.8689 11.2475 4
      vertex 10.4813 12.4404 10
      vertex 10.4813 12.4404 4
    endloop
  endfacet
  facet normal -0.951056 -0.309019 0
    outer loop
      vertex 10.4813 12.4404 10
      vertex 10.8689 11.2475 4
      vertex 10.8689 11.2475 10
    endloop
  endfacet
  facet normal -0.743159 -0.669114 0
    outer loop
      vertex 9.8541 13.5267 4
      vertex 9.01478 14.4589 10
      vertex 9.01478 14.4589 4
    endloop
  endfacet
  facet normal -0.743159 -0.669114 0
    outer loop
      vertex 9.01478 14.4589 10
      vertex 9.8541 13.5267 4
      vertex 9.8541 13.5267 10
    endloop
  endfacet
  facet normal -0.207911 -0.978148 0
    outer loop
      vertex 5.9 15.9091 4
      vertex 6.8541 15.7063 10
      vertex 5.9 15.9091 10
    endloop
  endfacet
  facet normal -0.207911 -0.978148 -0
    outer loop
      vertex 6.8541 15.7063 10
      vertex 5.9 15.9091 4
      vertex 6.8541 15.7063 4
    endloop
  endfacet
  facet normal -0.406678 -0.913571 0
    outer loop
      vertex 6.8541 15.7063 4
      vertex 8 15.1962 10
      vertex 6.8541 15.7063 10
    endloop
  endfacet
  facet normal -0.406678 -0.913571 -0
    outer loop
      vertex 8 15.1962 10
      vertex 6.8541 15.7063 4
      vertex 8 15.1962 4
    endloop
  endfacet
  facet normal 0 0 1
    outer loop
      vertex 7.5 10 4
      vertex 11 10 4
      vertex 10.8689 11.2475 4
    endloop
  endfacet
  facet normal 0 0 1
    outer loop
      vertex 7.44537 10.5198 4
      vertex 10.8689 11.2475 4
      vertex 10.4813 12.4404 4
    endloop
  endfacet
  facet normal 0 0 1
    outer loop
      vertex 11 10 4
      vertex 7.5 10 4
      vertex 10.8689 8.75253 4
    endloop
  endfacet
  facet normal 0 0 1
    outer loop
      vertex 7.28386 11.0168 4
      vertex 10.4813 12.4404 4
      vertex 9.8541 13.5267 4
    endloop
  endfacet
  facet normal -0 0 1
    outer loop
      vertex 7.44537 9.48022 4
      vertex 10.8689 8.75253 4
      vertex 7.5 10 4
    endloop
  endfacet
  facet normal 0 0 1
    outer loop
      vertex 7.02254 11.4695 4
      vertex 9.8541 13.5267 4
      vertex 9.01478 14.4589 4
    endloop
  endfacet
  facet normal 0 0 1
    outer loop
      vertex 10.8689 8.75253 4
      vertex 7.44537 9.48022 4
      vertex 10.4813 7.55958 4
    endloop
  endfacet
  facet normal 0 0 1
    outer loop
      vertex 6.67283 11.8579 4
      vertex 9.01478 14.4589 4
      vertex 8 15.1962 4
    endloop
  endfacet
  facet normal -0 0 1
    outer loop
      vertex 7.28386 8.98316 4
      vertex 10.4813 7.55958 4
      vertex 7.44537 9.48022 4
    endloop
  endfacet
  facet normal 0 0 1
    outer loop
      vertex 10.4813 7.55958 4
      vertex 7.28386 8.98316 4
      vertex 9.8541 6.47329 4
    endloop
  endfacet
  facet normal 0 0 1
    outer loop
      vertex 10.8689 11.2475 4
      vertex 7.44537 10.5198 4
      vertex 7.5 10 4
    endloop
  endfacet
  facet normal 0 0 1
    outer loop
      vertex 10.4813 12.4404 4
      vertex 7.28386 11.0168 4
      vertex 7.44537 10.5198 4
    endloop
  endfacet
  facet normal 0 0 1
    outer loop
      vertex 9.8541 13.5267 4
      vertex 7.02254 11.4695 4
      vertex 7.28386 11.0168 4
    endloop
  endfacet
  facet normal 0 0 1
    outer loop
      vertex 5.9 12.5 4
      vertex 8 15.1962 4
      vertex 6.8541 15.7063 4
    endloop
  endfacet
  facet normal 0 0 1
    outer loop
      vertex 9.01478 14.4589 4
      vertex 6.67283 11.8579 4
      vertex 7.02254 11.4695 4
    endloop
  endfacet
  facet normal 0 0 1
    outer loop
      vertex 8 15.1962 4
      vertex 6.25 12.1651 4
      vertex 6.67283 11.8579 4
    endloop
  endfacet
  facet normal 0 0 1
    outer loop
      vertex 5.9 12.5 4
      vertex 6.8541 15.7063 4
      vertex 5.9 15.9091 4
    endloop
  endfacet
  facet normal 0 0 1
    outer loop
      vertex 8 15.1962 4
      vertex 5.9 12.5 4
      vertex 6.25 12.1651 4
    endloop
  endfacet
  facet normal 0 0 1
    outer loop
      vertex 6.25 12.1651 4
      vertex 5.9 12.5 4
      vertex 5.9 12.3209 4
    endloop
  endfacet
  facet normal -0 0 1
    outer loop
      vertex 7.02254 8.53054 4
      vertex 9.8541 6.47329 4
      vertex 7.28386 8.98316 4
    endloop
  endfacet
  facet normal 0 0 1
    outer loop
      vertex 9.8541 6.47329 4
      vertex 7.02254 8.53054 4
      vertex 9.01478 5.54113 4
    endloop
  endfacet
  facet normal -0 0 1
    outer loop
      vertex 6.67283 8.14214 4
      vertex 9.01478 5.54113 4
      vertex 7.02254 8.53054 4
    endloop
  endfacet
  facet normal 0 0 1
    outer loop
      vertex 9.01478 5.54113 4
      vertex 6.67283 8.14214 4
      vertex 8 4.80385 4
    endloop
  endfacet
  facet normal -0 0 1
    outer loop
      vertex 6.25 7.83494 4
      vertex 8 4.80385 4
      vertex 6.67283 8.14214 4
    endloop
  endfacet
  facet normal -0 0 1
    outer loop
      vertex 5.9 7.5 4
      vertex 8 4.80385 4
      vertex 6.25 7.83494 4
    endloop
  endfacet
  facet normal 0 0 1
    outer loop
      vertex 5.9 7.5 4
      vertex 6.25 7.83494 4
      vertex 5.9 7.67911 4
    endloop
  endfacet
  facet normal 0 0 1
    outer loop
      vertex 8 4.80385 4
      vertex 5.9 7.5 4
      vertex 6.8541 4.29366 4
    endloop
  endfacet
  facet normal 0 0 1
    outer loop
      vertex 5.9 7.5 4
      vertex 5.9 4.09086 4
      vertex 6.8541 4.29366 4
    endloop
  endfacet
  facet normal -0 0 1
    outer loop
      vertex 0 7.5 4
      vertex 5.9 4.09086 4
      vertex 5.9 7.5 4
    endloop
  endfacet
  facet normal 0 0 1
    outer loop
      vertex 0 4 4
      vertex 5.9 4.09086 4
      vertex 0 7.5 4
    endloop
  endfacet
  facet normal 0 0 1
    outer loop
      vertex 5.9 4.09086 4
      vertex 0 4 4
      vertex 5.9 4 4
    endloop
  endfacet
  facet normal -0 0 1
    outer loop
      vertex 0 16 4
      vertex 5.9 15.9091 4
      vertex 5.9 16 4
    endloop
  endfacet
  facet normal 0 0 1
    outer loop
      vertex 0 12.5 4
      vertex 5.9 15.9091 4
      vertex 0 16 4
    endloop
  endfacet
  facet normal 0 0 1
    outer loop
      vertex 5.9 15.9091 4
      vertex 0 12.5 4
      vertex 5.9 12.5 4
    endloop
  endfacet
  facet normal -0.994523 0.104517 0
    outer loop
      vertex 10.8689 8.75253 4
      vertex 11 10 10
      vertex 11 10 4
    endloop
  endfacet
  facet normal -0.994523 0.104517 0
    outer loop
      vertex 11 10 10
      vertex 10.8689 8.75253 4
      vertex 10.8689 8.75253 10
    endloop
  endfacet
  facet normal -0.406738 0.913545 0
    outer loop
      vertex 8 4.80385 4
      vertex 6.8541 4.29366 10
      vertex 8 4.80385 10
    endloop
  endfacet
  facet normal -0.406738 0.913545 0
    outer loop
      vertex 6.8541 4.29366 10
      vertex 8 4.80385 4
      vertex 6.8541 4.29366 4
    endloop
  endfacet
  facet normal -0.95106 0.309008 0
    outer loop
      vertex 10.4813 7.55958 4
      vertex 10.8689 8.75253 10
      vertex 10.8689 8.75253 4
    endloop
  endfacet
  facet normal -0.95106 0.309008 0
    outer loop
      vertex 10.8689 8.75253 10
      vertex 10.4813 7.55958 4
      vertex 10.4813 7.55958 10
    endloop
  endfacet
  facet normal -0.743145 0.66913 0
    outer loop
      vertex 9.01478 5.54113 4
      vertex 9.8541 6.47329 10
      vertex 9.8541 6.47329 4
    endloop
  endfacet
  facet normal -0.743145 0.66913 0
    outer loop
      vertex 9.8541 6.47329 10
      vertex 9.01478 5.54113 4
      vertex 9.01478 5.54113 10
    endloop
  endfacet
  facet normal -0.587785 0.809017 0
    outer loop
      vertex 9.01478 5.54113 4
      vertex 8 4.80385 10
      vertex 9.01478 5.54113 10
    endloop
  endfacet
  facet normal -0.587785 0.809017 0
    outer loop
      vertex 8 4.80385 10
      vertex 9.01478 5.54113 4
      vertex 8 4.80385 4
    endloop
  endfacet
  facet normal -0.866015 0.500018 0
    outer loop
      vertex 9.8541 6.47329 4
      vertex 10.4813 7.55958 10
      vertex 10.4813 7.55958 4
    endloop
  endfacet
  facet normal -0.866015 0.500018 0
    outer loop
      vertex 10.4813 7.55958 10
      vertex 9.8541 6.47329 4
      vertex 9.8541 6.47329 10
    endloop
  endfacet
  facet normal -1 0 0
    outer loop
      vertex 5.9 4 4
      vertex 5.9 4.09086 10
      vertex 5.9 4.09086 4
    endloop
  endfacet
  facet normal -1 -0 0
    outer loop
      vertex 5.9 4.09086 10
      vertex 5.9 4 4
      vertex 5.9 4 10
    endloop
  endfacet
  facet normal -1 0 0
    outer loop
      vertex 5.9 15.9091 4
      vertex 5.9 16 10
      vertex 5.9 16 4
    endloop
  endfacet
  facet normal -1 -0 0
    outer loop
      vertex 5.9 16 10
      vertex 5.9 15.9091 4
      vertex 5.9 15.9091 10
    endloop
  endfacet
  facet normal 0 1 -0
    outer loop
      vertex 5.9 4 4
      vertex 0 4 10
      vertex 5.9 4 10
    endloop
  endfacet
  facet normal 0 1 0
    outer loop
      vertex 0 4 10
      vertex 5.9 4 4
      vertex 0 4 4
    endloop
  endfacet
  facet normal 0 -1 0
    outer loop
      vertex 0 16 4
      vertex 5.9 16 10
      vertex 0 16 10
    endloop
  endfacet
  facet normal 0 -1 -0
    outer loop
      vertex 5.9 16 10
      vertex 0 16 4
      vertex 5.9 16 4
    endloop
  endfacet
  facet normal 0 0 1
    outer loop
      vertex 55 15.9671 4
      vertex 60 16 4
      vertex 55 16 4
    endloop
  endfacet
  facet normal 0 0 1
    outer loop
      vertex 60 16 4
      vertex 55 15.9671 4
      vertex 60 12.5 4
    endloop
  endfacet
  facet normal 0 0 1
    outer loop
      vertex 54 12.5 4
      vertex 55 15.9671 4
      vertex 54.3728 15.9671 4
    endloop
  endfacet
  facet normal 0 0 1
    outer loop
      vertex 55 15.9671 4
      vertex 54 12.5 4
      vertex 60 12.5 4
    endloop
  endfacet
  facet normal 0 0 1
    outer loop
      vertex 54 12.5 4
      vertex 53.75 12.1651 4
      vertex 54 12.2764 4
    endloop
  endfacet
  facet normal -0 0 1
    outer loop
      vertex 53.1459 15.7063 4
      vertex 54 12.5 4
      vertex 54.3728 15.9671 4
    endloop
  endfacet
  facet normal -0 0 1
    outer loop
      vertex 52 15.1962 4
      vertex 54 12.5 4
      vertex 53.1459 15.7063 4
    endloop
  endfacet
  facet normal -0 0 1
    outer loop
      vertex 50.9852 14.4589 4
      vertex 54 12.5 4
      vertex 52 15.1962 4
    endloop
  endfacet
  facet normal 0 0 1
    outer loop
      vertex 54 12.5 4
      vertex 53.3272 11.8579 4
      vertex 53.75 12.1651 4
    endloop
  endfacet
  facet normal 0 0 1
    outer loop
      vertex 54 12.5 4
      vertex 50.9852 14.4589 4
      vertex 53.3272 11.8579 4
    endloop
  endfacet
  facet normal 0 0 1
    outer loop
      vertex 53.3272 11.8579 4
      vertex 50.9852 14.4589 4
      vertex 52.9775 11.4695 4
    endloop
  endfacet
  facet normal 0 0 1
    outer loop
      vertex 52.9775 11.4695 4
      vertex 50.1459 13.5267 4
      vertex 52.7161 11.0168 4
    endloop
  endfacet
  facet normal -0 0 1
    outer loop
      vertex 50.1459 13.5267 4
      vertex 52.9775 11.4695 4
      vertex 50.9852 14.4589 4
    endloop
  endfacet
  facet normal 0 0 1
    outer loop
      vertex 54 7.72363 4
      vertex 53.75 7.83494 4
      vertex 54 7.5 4
    endloop
  endfacet
  facet normal 0 0 1
    outer loop
      vertex 60 7.5 4
      vertex 55 4.03287 4
      vertex 60 4 4
    endloop
  endfacet
  facet normal -0 0 1
    outer loop
      vertex 54 7.5 4
      vertex 55 4.03287 4
      vertex 60 7.5 4
    endloop
  endfacet
  facet normal 0 0 1
    outer loop
      vertex 55 4.03287 4
      vertex 54 7.5 4
      vertex 54.3728 4.03287 4
    endloop
  endfacet
  facet normal 0 0 1
    outer loop
      vertex 53.3272 8.14214 4
      vertex 54 7.5 4
      vertex 53.75 7.83494 4
    endloop
  endfacet
  facet normal 0 0 1
    outer loop
      vertex 50.9852 5.54113 4
      vertex 54 7.5 4
      vertex 53.3272 8.14214 4
    endloop
  endfacet
  facet normal 0 0 1
    outer loop
      vertex 54 7.5 4
      vertex 53.1459 4.29366 4
      vertex 54.3728 4.03287 4
    endloop
  endfacet
  facet normal 0 0 1
    outer loop
      vertex 50.9852 5.54113 4
      vertex 53.3272 8.14214 4
      vertex 52.9775 8.53054 4
    endloop
  endfacet
  facet normal 0 0 1
    outer loop
      vertex 50.1459 6.47329 4
      vertex 52.9775 8.53054 4
      vertex 52.7161 8.98316 4
    endloop
  endfacet
  facet normal 0 0 1
    outer loop
      vertex 49.5187 7.55958 4
      vertex 52.7161 8.98316 4
      vertex 52.5546 9.48022 4
    endloop
  endfacet
  facet normal 0 0 1
    outer loop
      vertex 54 7.5 4
      vertex 52 4.80385 4
      vertex 53.1459 4.29366 4
    endloop
  endfacet
  facet normal 0 0 1
    outer loop
      vertex 49.1311 8.75253 4
      vertex 52.5546 9.48022 4
      vertex 52.5 10 4
    endloop
  endfacet
  facet normal -0 0 1
    outer loop
      vertex 49.5187 12.4404 4
      vertex 52.7161 11.0168 4
      vertex 50.1459 13.5267 4
    endloop
  endfacet
  facet normal 0 0 1
    outer loop
      vertex 52.7161 11.0168 4
      vertex 49.5187 12.4404 4
      vertex 52.5546 10.5198 4
    endloop
  endfacet
  facet normal 0 0 1
    outer loop
      vertex 54 7.5 4
      vertex 50.9852 5.54113 4
      vertex 52 4.80385 4
    endloop
  endfacet
  facet normal -0 0 1
    outer loop
      vertex 49.1311 11.2475 4
      vertex 52.5546 10.5198 4
      vertex 49.5187 12.4404 4
    endloop
  endfacet
  facet normal 0 0 1
    outer loop
      vertex 52.9775 8.53054 4
      vertex 50.1459 6.47329 4
      vertex 50.9852 5.54113 4
    endloop
  endfacet
  facet normal 0 0 1
    outer loop
      vertex 52.5546 10.5198 4
      vertex 49.1311 11.2475 4
      vertex 52.5 10 4
    endloop
  endfacet
  facet normal 0 0 1
    outer loop
      vertex 52.7161 8.98316 4
      vertex 49.5187 7.55958 4
      vertex 50.1459 6.47329 4
    endloop
  endfacet
  facet normal 0 0 1
    outer loop
      vertex 49 10 4
      vertex 52.5 10 4
      vertex 49.1311 11.2475 4
    endloop
  endfacet
  facet normal 0 0 1
    outer loop
      vertex 52.5546 9.48022 4
      vertex 49.1311 8.75253 4
      vertex 49.5187 7.55958 4
    endloop
  endfacet
  facet normal 0 0 1
    outer loop
      vertex 52.5 10 4
      vertex 49 10 4
      vertex 49.1311 8.75253 4
    endloop
  endfacet
  facet normal 0 0 1
    outer loop
      vertex 60 4 4
      vertex 55 4.03287 4
      vertex 55 4 4
    endloop
  endfacet
  facet normal 0.994523 -0.104515 0
    outer loop
      vertex 49 10 10
      vertex 49.1311 11.2475 4
      vertex 49.1311 11.2475 10
    endloop
  endfacet
  facet normal 0.994523 -0.104515 0
    outer loop
      vertex 49.1311 11.2475 4
      vertex 49 10 10
      vertex 49 10 4
    endloop
  endfacet
  facet normal 0 -1 0
    outer loop
      vertex 54.3728 15.9671 4
      vertex 55 15.9671 10
      vertex 54.3728 15.9671 10
    endloop
  endfacet
  facet normal 0 -1 -0
    outer loop
      vertex 55 15.9671 10
      vertex 54.3728 15.9671 4
      vertex 55 15.9671 4
    endloop
  endfacet
  facet normal 0.587788 -0.809015 0
    outer loop
      vertex 50.9852 14.4589 4
      vertex 52 15.1962 10
      vertex 50.9852 14.4589 10
    endloop
  endfacet
  facet normal 0.587788 -0.809015 0
    outer loop
      vertex 52 15.1962 10
      vertex 50.9852 14.4589 4
      vertex 52 15.1962 4
    endloop
  endfacet
  facet normal 0.207923 -0.978145 0
    outer loop
      vertex 53.1459 15.7063 4
      vertex 54.3728 15.9671 10
      vertex 53.1459 15.7063 10
    endloop
  endfacet
  facet normal 0.207923 -0.978145 0
    outer loop
      vertex 54.3728 15.9671 10
      vertex 53.1459 15.7063 4
      vertex 54.3728 15.9671 4
    endloop
  endfacet
  facet normal 0.994523 0.104517 0
    outer loop
      vertex 49.1311 8.75253 10
      vertex 49 10 4
      vertex 49 10 10
    endloop
  endfacet
  facet normal 0.994523 0.104517 0
    outer loop
      vertex 49 10 4
      vertex 49.1311 8.75253 10
      vertex 49.1311 8.75253 4
    endloop
  endfacet
  facet normal 0.951056 -0.309019 0
    outer loop
      vertex 49.1311 11.2475 10
      vertex 49.5187 12.4404 4
      vertex 49.5187 12.4404 10
    endloop
  endfacet
  facet normal 0.951056 -0.309019 0
    outer loop
      vertex 49.5187 12.4404 4
      vertex 49.1311 11.2475 10
      vertex 49.1311 11.2475 4
    endloop
  endfacet
  facet normal 0.743167 -0.669106 0
    outer loop
      vertex 50.1459 13.5267 10
      vertex 50.9852 14.4589 4
      vertex 50.9852 14.4589 10
    endloop
  endfacet
  facet normal 0.743167 -0.669106 0
    outer loop
      vertex 50.9852 14.4589 4
      vertex 50.1459 13.5267 10
      vertex 50.1459 13.5267 4
    endloop
  endfacet
  facet normal 0.406678 -0.913571 0
    outer loop
      vertex 52 15.1962 4
      vertex 53.1459 15.7063 10
      vertex 52 15.1962 10
    endloop
  endfacet
  facet normal 0.406678 -0.913571 0
    outer loop
      vertex 53.1459 15.7063 10
      vertex 52 15.1962 4
      vertex 53.1459 15.7063 4
    endloop
  endfacet
  facet normal 0.866017 -0.500015 0
    outer loop
      vertex 49.5187 12.4404 10
      vertex 50.1459 13.5267 4
      vertex 50.1459 13.5267 10
    endloop
  endfacet
  facet normal 0.866017 -0.500015 0
    outer loop
      vertex 50.1459 13.5267 4
      vertex 49.5187 12.4404 10
      vertex 49.5187 12.4404 4
    endloop
  endfacet
  facet normal 0 1 -0
    outer loop
      vertex 55 4.03287 4
      vertex 54.3728 4.03287 10
      vertex 55 4.03287 10
    endloop
  endfacet
  facet normal 0 1 0
    outer loop
      vertex 54.3728 4.03287 10
      vertex 55 4.03287 4
      vertex 54.3728 4.03287 4
    endloop
  endfacet
  facet normal 0.95106 0.309008 0
    outer loop
      vertex 49.5187 7.55958 10
      vertex 49.1311 8.75253 4
      vertex 49.1311 8.75253 10
    endloop
  endfacet
  facet normal 0.95106 0.309008 0
    outer loop
      vertex 49.1311 8.75253 4
      vertex 49.5187 7.55958 10
      vertex 49.5187 7.55958 4
    endloop
  endfacet
  facet normal 0.406738 0.913545 -0
    outer loop
      vertex 53.1459 4.29366 4
      vertex 52 4.80385 10
      vertex 53.1459 4.29366 10
    endloop
  endfacet
  facet normal 0.406738 0.913545 0
    outer loop
      vertex 52 4.80385 10
      vertex 53.1459 4.29366 4
      vertex 52 4.80385 4
    endloop
  endfacet
  facet normal 0.866015 0.500018 0
    outer loop
      vertex 50.1459 6.47329 10
      vertex 49.5187 7.55958 4
      vertex 49.5187 7.55958 10
    endloop
  endfacet
  facet normal 0.866015 0.500018 0
    outer loop
      vertex 49.5187 7.55958 4
      vertex 50.1459 6.47329 10
      vertex 50.1459 6.47329 4
    endloop
  endfacet
  facet normal 0.587777 0.809023 -0
    outer loop
      vertex 52 4.80385 4
      vertex 50.9852 5.54113 10
      vertex 52 4.80385 10
    endloop
  endfacet
  facet normal 0.587777 0.809023 0
    outer loop
      vertex 50.9852 5.54113 10
      vertex 52 4.80385 4
      vertex 50.9852 5.54113 4
    endloop
  endfacet
  facet normal 0.743153 0.669122 0
    outer loop
      vertex 50.9852 5.54113 10
      vertex 50.1459 6.47329 4
      vertex 50.1459 6.47329 10
    endloop
  endfacet
  facet normal 0.743153 0.669122 0
    outer loop
      vertex 50.1459 6.47329 4
      vertex 50.9852 5.54113 10
      vertex 50.9852 5.54113 4
    endloop
  endfacet
  facet normal 0.207915 0.978147 -0
    outer loop
      vertex 54.3728 4.03287 4
      vertex 53.1459 4.29366 10
      vertex 54.3728 4.03287 10
    endloop
  endfacet
  facet normal 0.207915 0.978147 0
    outer loop
      vertex 53.1459 4.29366 10
      vertex 54.3728 4.03287 4
      vertex 53.1459 4.29366 4
    endloop
  endfacet
  facet normal 1 -0 0
    outer loop
      vertex 55 15.9671 10
      vertex 55 16 4
      vertex 55 16 10
    endloop
  endfacet
  facet normal 1 0 0
    outer loop
      vertex 55 16 4
      vertex 55 15.9671 10
      vertex 55 15.9671 4
    endloop
  endfacet
  facet normal 1 -0 0
    outer loop
      vertex 55 4 10
      vertex 55 4.03287 4
      vertex 55 4.03287 10
    endloop
  endfacet
  facet normal 1 0 0
    outer loop
      vertex 55 4.03287 4
      vertex 55 4 10
      vertex 55 4 4
    endloop
  endfacet
  facet normal 0 -1 0
    outer loop
      vertex 55 16 4
      vertex 60 16 10
      vertex 55 16 10
    endloop
  endfacet
  facet normal 0 -1 -0
    outer loop
      vertex 60 16 10
      vertex 55 16 4
      vertex 60 16 4
    endloop
  endfacet
  facet normal 0 1 -0
    outer loop
      vertex 60 4 4
      vertex 55 4 10
      vertex 60 4 10
    endloop
  endfacet
  facet normal 0 1 0
    outer loop
      vertex 55 4 10
      vertex 60 4 4
      vertex 55 4 4
    endloop
  endfacet
  facet normal -0.707107 -0.707107 0
    outer loop
      vertex 2.5 0 0
      vertex 0 2.5 10
      vertex 0 2.5 0
    endloop
  endfacet
  facet normal -0.707107 -0.707107 0
    outer loop
      vertex 0 2.5 10
      vertex 2.5 0 0
      vertex 2.5 0 10
    endloop
  endfacet
  facet normal 0.707107 -0.707107 0
    outer loop
      vertex 57.5 0 10
      vertex 60 2.5 0
      vertex 60 2.5 10
    endloop
  endfacet
  facet normal 0.707107 -0.707107 0
    outer loop
      vertex 60 2.5 0
      vertex 57.5 0 10
      vertex 57.5 0 0
    endloop
  endfacet
  facet normal 0.707107 0.707107 0
    outer loop
      vertex 60 22.5 10
      vertex 57.5 25 0
      vertex 57.5 25 10
    endloop
  endfacet
  facet normal 0.707107 0.707107 0
    outer loop
      vertex 57.5 25 0
      vertex 60 22.5 10
      vertex 60 22.5 0
    endloop
  endfacet
  facet normal -0.707107 0.707107 0
    outer loop
      vertex 0 22.5 0
      vertex 2.5 25 10
      vertex 2.5 25 0
    endloop
  endfacet
  facet normal -0.707107 0.707107 0
    outer loop
      vertex 2.5 25 10
      vertex 0 22.5 0
      vertex 0 22.5 10
    endloop
  endfacet
endsolid OpenSCAD_Model
